<svg width="32" height="32" viewBox="0 0 32 32" fill="none" xmlns="http://www.w3.org/2000/svg">
<path d="M16.3326 31.9025C20.739 31.9025 24.4382 30.4849 27.1402 28.0399L21.9902 24.1418C20.6121 25.0808 18.7624 25.7364 16.3326 25.7364C12.0168 25.7364 8.35384 22.9547 7.04809 19.1099L6.8567 19.1257L1.81899 22.9352L1.75311 23.1141C4.43686 28.3233 9.94948 31.9025 16.3326 31.9025Z" fill="#34A853"/>
<path d="M32 16.3104C32 14.9993 31.8911 14.0425 31.6555 13.0503H16.3326V18.9681H25.3268C25.1455 20.4388 24.1663 22.6536 21.9902 24.1418L21.9597 24.34L26.8045 28.0072L27.1402 28.04C30.2228 25.2582 32 21.1652 32 16.3104Z" fill="#4285F4"/>
<path d="M7.04834 19.11C6.70381 18.1177 6.50441 17.0546 6.50441 15.9561C6.50441 14.8575 6.70381 13.7944 7.03021 12.8022L7.02108 12.5909L1.92025 8.72025L1.75336 8.79781C0.647256 10.9595 0.0125732 13.3869 0.0125732 15.9561C0.0125732 18.5252 0.647256 20.9526 1.75336 23.1142L7.04834 19.11Z" fill="#FBBC05"/>
<path d="M16.3326 6.17552C19.3971 6.17552 21.4643 7.46895 22.643 8.54984L27.2489 4.15567C24.4202 1.58652 20.739 0.00958252 16.3326 0.00958252C9.94948 0.00958252 4.43686 3.58866 1.75311 8.7978L7.02997 12.8022C8.35384 8.95733 12.0168 6.17552 16.3326 6.17552Z" fill="#EB4335"/>
</svg>
