<svg width="124" height="62" viewBox="0 0 124 62" fill="none" xmlns="http://www.w3.org/2000/svg">
<path d="M8.665 23.27C6.055 23.27 4.021 22.541 2.563 21.083C1.105 19.607 0.376 17.501 0.376 14.765V4.1H3.886V14.63C3.886 18.338 5.488 20.192 8.692 20.192C11.878 20.192 13.471 18.338 13.471 14.63V4.1H16.927V14.765C16.927 17.501 16.198 19.607 14.74 21.083C13.3 22.541 11.275 23.27 8.665 23.27ZM21.8427 4.1H25.3527V23H21.8427V4.1ZM36.0268 0.265998H39.0508L30.1408 25.7H27.1168L36.0268 0.265998ZM48.6113 23.27C46.0013 23.27 43.9673 22.541 42.5093 21.083C41.0513 19.607 40.3223 17.501 40.3223 14.765V4.1H43.8323V14.63C43.8323 18.338 45.4343 20.192 48.6383 20.192C51.8243 20.192 53.4173 18.338 53.4173 14.63V4.1H56.8733V14.765C56.8733 17.501 56.1443 19.607 54.6863 21.083C53.2463 22.541 51.2213 23.27 48.6113 23.27ZM73.4323 23L68.3023 15.818L63.2263 23H59.2303L66.2503 13.361L59.6083 4.1H63.5773L68.4103 10.823L73.1893 4.1H76.9963L70.3813 13.226L77.4823 23H73.4323ZM0.538 37.1H8.8C10.816 37.1 12.607 37.496 14.173 38.288C15.739 39.062 16.954 40.169 17.818 41.609C18.682 43.031 19.114 44.678 19.114 46.55C19.114 48.422 18.682 50.078 17.818 51.518C16.954 52.94 15.739 54.047 14.173 54.839C12.607 55.613 10.816 56 8.8 56H0.538V37.1ZM8.638 53.03C10.024 53.03 11.239 52.769 12.283 52.247C13.345 51.707 14.155 50.951 14.713 49.979C15.289 48.989 15.577 47.846 15.577 46.55C15.577 45.254 15.289 44.12 14.713 43.148C14.155 42.158 13.345 41.402 12.283 40.88C11.239 40.34 10.024 40.07 8.638 40.07H4.048V53.03H8.638ZM36.0746 48.872C36.0746 49.106 36.0566 49.439 36.0206 49.871H24.7076C24.9056 50.933 25.4186 51.779 26.2466 52.409C27.0926 53.021 28.1366 53.327 29.3786 53.327C30.9626 53.327 32.2676 52.805 33.2936 51.761L35.1026 53.84C34.4546 54.614 33.6356 55.199 32.6456 55.595C31.6556 55.991 30.5396 56.189 29.2976 56.189C27.7136 56.189 26.3186 55.874 25.1126 55.244C23.9066 54.614 22.9706 53.741 22.3046 52.625C21.6566 51.491 21.3326 50.213 21.3326 48.791C21.3326 47.387 21.6476 46.127 22.2776 45.011C22.9256 43.877 23.8166 42.995 24.9506 42.365C26.0846 41.735 27.3626 41.42 28.7846 41.42C30.1886 41.42 31.4396 41.735 32.5376 42.365C33.6536 42.977 34.5176 43.85 35.1296 44.984C35.7596 46.1 36.0746 47.396 36.0746 48.872ZM28.7846 44.12C27.7046 44.12 26.7866 44.444 26.0306 45.092C25.2926 45.722 24.8426 46.568 24.6806 47.63H32.8616C32.7176 46.586 32.2766 45.74 31.5386 45.092C30.8006 44.444 29.8826 44.12 28.7846 44.12ZM43.7715 56.189C42.6015 56.189 41.4585 56.036 40.3425 55.73C39.2265 55.424 38.3355 55.037 37.6695 54.569L38.9655 52.004C39.6135 52.436 40.3875 52.787 41.2875 53.057C42.2055 53.309 43.1055 53.435 43.9875 53.435C46.0035 53.435 47.0115 52.904 47.0115 51.842C47.0115 51.338 46.7505 50.987 46.2285 50.789C45.7245 50.591 44.9055 50.402 43.7715 50.222C42.5835 50.042 41.6115 49.835 40.8555 49.601C40.1175 49.367 39.4695 48.962 38.9115 48.386C38.3715 47.792 38.1015 46.973 38.1015 45.929C38.1015 44.561 38.6685 43.472 39.8025 42.662C40.9545 41.834 42.5025 41.42 44.4465 41.42C45.4365 41.42 46.4265 41.537 47.4165 41.771C48.4065 41.987 49.2165 42.284 49.8465 42.662L48.5505 45.227C47.3265 44.507 45.9495 44.147 44.4195 44.147C43.4295 44.147 42.6735 44.3 42.1515 44.606C41.6475 44.894 41.3955 45.281 41.3955 45.767C41.3955 46.307 41.6655 46.694 42.2055 46.928C42.7635 47.144 43.6185 47.351 44.7705 47.549C45.9225 47.729 46.8675 47.936 47.6055 48.17C48.3435 48.404 48.9735 48.8 49.4955 49.358C50.0355 49.916 50.3055 50.708 50.3055 51.734C50.3055 53.084 49.7205 54.164 48.5505 54.974C47.3805 55.784 45.7875 56.189 43.7715 56.189ZM53.212 41.582H56.587V56H53.212V41.582ZM54.913 39.206C54.301 39.206 53.788 39.017 53.374 38.639C52.96 38.243 52.753 37.757 52.753 37.181C52.753 36.605 52.96 36.128 53.374 35.75C53.788 35.354 54.301 35.156 54.913 35.156C55.525 35.156 56.038 35.345 56.452 35.723C56.866 36.083 57.073 36.542 57.073 37.1C57.073 37.694 56.866 38.198 56.452 38.612C56.056 39.008 55.543 39.206 54.913 39.206ZM75.3267 41.582V53.813C75.3267 58.889 72.7347 61.427 67.5507 61.427C66.1647 61.427 64.8507 61.247 63.6087 60.887C62.3667 60.545 61.3407 60.041 60.5307 59.375L62.0427 56.837C62.6727 57.359 63.4647 57.773 64.4187 58.079C65.3907 58.403 66.3717 58.565 67.3617 58.565C68.9457 58.565 70.1067 58.205 70.8447 57.485C71.5827 56.765 71.9517 55.667 71.9517 54.191V53.435C71.3757 54.065 70.6737 54.542 69.8457 54.866C69.0177 55.19 68.1087 55.352 67.1187 55.352C65.7507 55.352 64.5087 55.064 63.3927 54.488C62.2947 53.894 61.4217 53.066 60.7737 52.004C60.1437 50.942 59.8287 49.727 59.8287 48.359C59.8287 46.991 60.1437 45.785 60.7737 44.741C61.4217 43.679 62.2947 42.86 63.3927 42.284C64.5087 41.708 65.7507 41.42 67.1187 41.42C68.1627 41.42 69.1077 41.591 69.9537 41.933C70.8177 42.275 71.5377 42.797 72.1137 43.499V41.582H75.3267ZM67.6317 52.49C68.9097 52.49 69.9537 52.112 70.7637 51.356C71.5917 50.582 72.0057 49.583 72.0057 48.359C72.0057 47.153 71.5917 46.172 70.7637 45.416C69.9537 44.66 68.9097 44.282 67.6317 44.282C66.3357 44.282 65.2737 44.66 64.4457 45.416C63.6357 46.172 63.2307 47.153 63.2307 48.359C63.2307 49.583 63.6357 50.582 64.4457 51.356C65.2737 52.112 66.3357 52.49 67.6317 52.49ZM87.9448 41.42C89.7628 41.42 91.2208 41.951 92.3188 43.013C93.4168 44.075 93.9658 45.65 93.9658 47.738V56H90.5908V48.17C90.5908 46.91 90.2938 45.965 89.6998 45.335C89.1058 44.687 88.2598 44.363 87.1618 44.363C85.9198 44.363 84.9388 44.741 84.2188 45.497C83.4988 46.235 83.1388 47.306 83.1388 48.71V56H79.7638V41.582H82.9768V43.445C83.5348 42.779 84.2368 42.275 85.0828 41.933C85.9288 41.591 86.8828 41.42 87.9448 41.42ZM111.933 48.872C111.933 49.106 111.915 49.439 111.879 49.871H100.566C100.764 50.933 101.277 51.779 102.105 52.409C102.951 53.021 103.995 53.327 105.237 53.327C106.821 53.327 108.126 52.805 109.152 51.761L110.961 53.84C110.313 54.614 109.494 55.199 108.504 55.595C107.514 55.991 106.398 56.189 105.156 56.189C103.572 56.189 102.177 55.874 100.971 55.244C99.765 54.614 98.829 53.741 98.163 52.625C97.515 51.491 97.191 50.213 97.191 48.791C97.191 47.387 97.506 46.127 98.136 45.011C98.784 43.877 99.675 42.995 100.809 42.365C101.943 41.735 103.221 41.42 104.643 41.42C106.047 41.42 107.298 41.735 108.396 42.365C109.512 42.977 110.376 43.85 110.988 44.984C111.618 46.1 111.933 47.396 111.933 48.872ZM104.643 44.12C103.563 44.12 102.645 44.444 101.889 45.092C101.151 45.722 100.701 46.568 100.539 47.63H108.72C108.576 46.586 108.135 45.74 107.397 45.092C106.659 44.444 105.741 44.12 104.643 44.12ZM118.388 43.688C119.36 42.176 121.07 41.42 123.518 41.42V44.633C123.23 44.579 122.969 44.552 122.735 44.552C121.421 44.552 120.395 44.939 119.657 45.713C118.919 46.469 118.55 47.567 118.55 49.007V56H115.175V41.582H118.388V43.688Z" fill="#2E2E2E"/>
</svg>
