<svg width="106" height="33" viewBox="0 0 106 33" fill="none" xmlns="http://www.w3.org/2000/svg">
<path d="M56.337 8.23336C56.337 9.41425 55.3857 10.3655 54.2048 10.3655C53.0239 10.3655 52.0727 9.41425 52.0727 8.23336C52.0727 7.05248 52.9911 6.10122 54.2048 6.10122C55.4185 6.13402 56.337 7.08529 56.337 8.23336ZM47.5459 12.5305C47.5459 12.7273 47.5459 13.0553 47.5459 13.0553C47.5459 13.0553 46.5291 11.7432 44.3641 11.7432C40.7887 11.7432 38.0005 14.4658 38.0005 18.238C38.0005 21.9775 40.7559 24.7329 44.3641 24.7329C46.5619 24.7329 47.5459 23.388 47.5459 23.388V23.9456C47.5459 24.2081 47.7428 24.4049 48.0052 24.4049H50.6622V12.0712C50.6622 12.0712 48.2348 12.0712 48.0052 12.0712C47.7428 12.0712 47.5459 12.3008 47.5459 12.5305ZM47.5459 20.4358C47.0539 21.1574 46.0698 21.7807 44.889 21.7807C42.7896 21.7807 41.1823 20.4686 41.1823 18.238C41.1823 16.0075 42.7896 14.6954 44.889 14.6954C46.037 14.6954 47.0867 15.3515 47.5459 16.0403V20.4358ZM52.6303 12.0712H55.7793V24.4049H52.6303V12.0712ZM99.6687 11.7432C97.5038 11.7432 96.4869 13.0553 96.4869 13.0553V6.13402H93.3379V24.4049C93.3379 24.4049 95.7653 24.4049 95.9949 24.4049C96.2573 24.4049 96.4541 24.1753 96.4541 23.9456V23.388C96.4541 23.388 97.471 24.7329 99.6359 24.7329C103.211 24.7329 106 21.9775 106 18.238C106 14.4986 103.211 11.7432 99.6687 11.7432ZM99.1439 21.7479C97.9302 21.7479 96.9789 21.1246 96.4869 20.403V16.0075C96.9789 15.3515 98.0286 14.6626 99.1439 14.6626C101.243 14.6626 102.851 15.9747 102.851 18.2052C102.851 20.4358 101.243 21.7479 99.1439 21.7479ZM91.6978 17.09V24.4377H88.5488V17.4508C88.5488 15.4171 87.8927 14.597 86.1214 14.597C85.1701 14.597 84.1861 15.089 83.5628 15.8107V24.4049H80.4138V12.0712H82.9068C83.1692 12.0712 83.366 12.3008 83.366 12.5305V13.0553C84.2845 12.104 85.4981 11.7432 86.7118 11.7432C88.0895 11.7432 89.2376 12.1368 90.1561 12.9241C91.2713 13.8425 91.6978 15.0234 91.6978 17.09ZM72.7709 11.7432C70.6059 11.7432 69.5891 13.0553 69.5891 13.0553V6.13402H66.44V24.4049C66.44 24.4049 68.8674 24.4049 69.097 24.4049C69.3594 24.4049 69.5563 24.1753 69.5563 23.9456V23.388C69.5563 23.388 70.5731 24.7329 72.7381 24.7329C76.3135 24.7329 79.1017 21.9775 79.1017 18.238C79.1345 14.4986 76.3463 11.7432 72.7709 11.7432ZM72.246 21.7479C71.0324 21.7479 70.0811 21.1246 69.5891 20.403V16.0075C70.0811 15.3515 71.1308 14.6626 72.246 14.6626C74.3454 14.6626 75.9527 15.9747 75.9527 18.2052C75.9527 20.4358 74.3454 21.7479 72.246 21.7479ZM63.7175 11.7432C64.6687 11.7432 65.1608 11.9072 65.1608 11.9072V14.8266C65.1608 14.8266 62.5366 13.941 60.8965 15.8107V24.4377H57.7474V12.0712C57.7474 12.0712 60.1748 12.0712 60.4044 12.0712C60.6669 12.0712 60.8637 12.3008 60.8637 12.5305V13.0553C61.4541 12.3664 62.7334 11.7432 63.7175 11.7432ZM31.0136 23.2896C30.8496 22.896 30.6856 22.4695 30.5216 22.1087C30.2592 21.5183 29.9967 20.9606 29.7671 20.4358L29.7343 20.403C27.471 15.4827 25.0436 10.4967 22.485 5.57638L22.3866 5.37957C22.1242 4.88753 21.8618 4.3627 21.5994 3.83786C21.2713 3.24742 20.9433 2.62418 20.4185 2.03374C19.3688 0.721649 17.8599 0 16.2526 0C14.6125 0 13.1364 0.721649 12.0539 1.96813C11.5619 2.55858 11.2011 3.18182 10.873 3.77226C10.6106 4.29709 10.3482 4.82193 10.0858 5.31396L9.98738 5.51078C7.4616 10.4311 5.00143 15.4171 2.73808 20.3374L2.70528 20.403C2.47566 20.9278 2.21324 21.4855 1.95082 22.0759C1.78681 22.4367 1.6228 22.8304 1.45879 23.2568C1.03236 24.4705 0.901153 25.6186 1.06516 26.7994C1.42599 29.2596 3.0661 31.3261 5.32946 32.2446C6.18231 32.6054 7.06798 32.7694 7.98644 32.7694C8.24886 32.7694 8.57688 32.7366 8.8393 32.7038C9.92177 32.5726 11.037 32.2118 12.1195 31.5886C13.4644 30.8341 14.7437 29.7516 16.187 28.1771C17.6303 29.7516 18.9424 30.8341 20.2545 31.5886C21.337 32.2118 22.4522 32.5726 23.5347 32.7038C23.7971 32.7366 24.1251 32.7694 24.3876 32.7694C25.306 32.7694 26.2245 32.6054 27.0445 32.2446C29.3407 31.3261 30.948 29.2268 31.3088 26.7994C31.5713 25.6514 31.44 24.5033 31.0136 23.2896ZM16.2198 24.9953C14.4485 22.7648 13.3004 20.6654 12.9068 18.8941C12.7428 18.1396 12.71 17.4836 12.8084 16.8932C12.874 16.3683 13.0708 15.9091 13.3332 15.5155C13.9564 14.6298 15.0061 14.0722 16.2198 14.0722C17.4335 14.0722 18.516 14.597 19.1064 15.5155C19.3688 15.9091 19.5656 16.3683 19.6312 16.8932C19.7296 17.4836 19.6968 18.1724 19.5328 18.8941C19.1392 20.6326 17.9911 22.732 16.2198 24.9953ZM29.3079 26.537C29.0783 28.2427 27.9302 29.7188 26.3229 30.3749C25.5356 30.7029 24.6828 30.8013 23.8299 30.7029C23.0099 30.6045 22.1898 30.3421 21.337 29.85C20.1561 29.194 18.9752 28.1771 17.5975 26.6682C19.7624 24.0112 21.0745 21.5839 21.5666 19.4189C21.7962 18.4021 21.829 17.4836 21.7306 16.6307C21.5994 15.8107 21.3042 15.0562 20.8449 14.4002C19.8281 12.9241 18.1223 12.0712 16.2198 12.0712C14.3173 12.0712 12.6116 12.9569 11.5947 14.4002C11.1355 15.0562 10.8402 15.8107 10.709 16.6307C10.5778 17.4836 10.6106 18.4349 10.873 19.4189C11.3651 21.5839 12.71 24.044 14.8421 26.701C13.4972 28.2099 12.2835 29.2268 11.1027 29.8828C10.2498 30.3749 9.42974 30.6373 8.60968 30.7357C7.72402 30.8341 6.87116 30.7029 6.11671 30.4077C4.5094 29.7516 3.36132 28.2755 3.13171 26.5698C3.0333 25.7498 3.0989 24.9297 3.42693 24.0112C3.52533 23.6832 3.68934 23.3552 3.85336 22.9616C4.08297 22.4367 4.34539 21.8791 4.60781 21.3215L4.64061 21.2559C6.90396 16.3683 9.33133 11.3824 11.8571 6.52765L11.9555 6.33083C12.2179 5.8388 12.4803 5.31396 12.7428 4.82193C13.0052 4.29709 13.3004 3.80506 13.6612 3.37863C14.3501 2.59138 15.2685 2.16495 16.2854 2.16495C17.3023 2.16495 18.2207 2.59138 18.9096 3.37863C19.2704 3.80506 19.5656 4.29709 19.8281 4.82193C20.0905 5.31396 20.3529 5.8388 20.6153 6.33083L20.7137 6.52765C23.2067 11.4152 25.634 16.4011 27.8974 21.2887V21.3215C28.1598 21.8463 28.3894 22.4367 28.6519 22.9616C28.8159 23.3552 28.9799 23.6832 29.0783 24.0112C29.3407 24.8641 29.4391 25.6842 29.3079 26.537Z" fill="#FF5A5F"/>
</svg>
