<svg width="153" height="63" viewBox="0 0 153 63" fill="none" xmlns="http://www.w3.org/2000/svg">
<path d="M31.6565 60.9446C18.8149 57.042 9.48185 45.1897 9.48185 31.164C9.48185 16.9894 19.014 5.03856 32.0505 1.2366C33.3856 0.840471 33.0398 1.91909e-05 31.4091 1.91909e-05C14.074 1.91909e-05 0 13.9776 0 31.164C0 48.3503 14.074 62.3279 31.4091 62.3279C33.0398 62.3279 33.1383 61.3889 31.6565 60.9446" fill="#0099CC"/>
<path d="M15.4575 38.4242C15.359 37.5838 15.3087 36.7454 15.3087 35.905C15.3087 22.225 26.3729 11.1629 40.0529 11.1629C52.9909 11.1629 56.8431 16.9412 57.3378 16.5451C57.8806 16.1511 52.645 4.69281 37.4833 4.69281C23.8034 4.69281 12.7412 15.755 12.7412 29.4349C12.7412 32.5955 13.3344 35.6094 14.42 38.3739C14.8644 39.5602 15.556 39.5602 15.4575 38.4242" fill="#0099CC"/>
<path d="M25.8288 20.5954C32.2486 17.7806 40.3492 17.6821 48.299 20.4969C53.633 22.3727 56.7454 25.0408 56.9928 24.892C57.4371 24.695 53.8804 19.1136 47.5088 16.6928C39.8043 13.7795 31.5087 15.3116 25.483 20.0526C24.7914 20.5954 25.0387 20.9412 25.8288 20.5954" fill="#0099CC"/>
<path d="M153 32.2506C153 34.028 151.518 35.5098 149.741 35.5098C147.961 35.5098 146.482 34.0783 146.482 32.2506C146.482 30.4733 147.913 28.9915 149.741 28.9915C151.568 28.9915 153 30.423 153 32.2506Z" fill="#FF9933"/>
<path d="M46.917 50.4746L47.311 54.8215H54.1771L51.855 29.5848H41.6332L28.6931 54.8215H35.706L37.8794 50.4746H46.917ZM46.5712 45.5849H40.2981L45.6825 34.6715H45.7307L46.5712 45.5849Z" fill="#FF9933"/>
<path d="M63.7084 43.8071H64.7459L69.6357 37.14H76.0051L69.2395 45.6347L73.3894 54.821H66.6218L63.9055 47.6592H62.9183L61.3883 54.821H55.6099L60.9418 29.5843H66.7203L63.7084 43.8071Z" fill="#FF9933"/>
<path d="M85.0436 54.8206H90.822L93.1422 43.8066C94.427 37.7327 92.1068 36.9928 86.1796 36.9928C82.0318 36.9928 78.0308 36.9425 76.8948 42.4233H82.6732C83.019 40.843 84.0062 40.4993 85.4398 40.4993C87.9569 40.4993 87.8584 41.5346 87.5126 43.1653L86.9195 45.9801H86.6742C86.4751 43.9554 83.9077 44.0057 82.277 44.0057C78.0811 44.0057 75.61 45.3387 74.7213 49.585C73.7845 54.0786 75.9076 55.0679 79.9569 55.0679C81.9815 55.0679 84.6978 54.6717 85.6368 52.2531H85.8338L85.0436 54.8206ZM83.413 47.5122C85.291 47.5122 86.5254 47.6589 86.2278 49.1407C85.8338 50.9683 85.0436 51.3141 82.6229 51.3141C81.7342 51.3141 80.1057 51.3141 80.4997 49.388C80.8456 47.7574 81.9815 47.5122 83.413 47.5122" fill="#FF9933"/>
<path d="M102.527 37.14L101.984 39.609H102.231C103.367 37.5341 105.687 36.943 107.664 36.943C110.133 36.943 112.602 37.3874 112.256 40.3992H112.503C113.341 37.8799 115.911 36.943 118.133 36.943C122.232 36.943 123.961 38.6218 123.071 42.7214L120.503 54.821H114.725L116.898 44.5972C117.194 42.7696 117.491 41.3863 115.268 41.3863C112.996 41.3863 112.256 42.8681 111.86 44.7943L109.737 54.821H103.958L106.23 44.1026C106.528 42.4741 106.626 41.3863 104.602 41.3863C102.231 41.3863 101.489 42.6711 101.045 44.7943L98.9217 54.821H93.1433L96.8971 37.14H102.527Z" fill="#FF9933"/>
<path d="M133.789 54.8206H139.567L141.937 43.8066C143.222 37.7327 140.9 36.9928 134.975 36.9928C130.825 36.9928 126.824 36.9425 125.69 42.4233H131.468C131.812 40.843 132.801 40.4993 134.233 40.4993C136.752 40.4993 136.654 41.5346 136.308 43.1653L135.715 45.9801H135.467C135.27 43.9554 132.703 44.0057 131.072 44.0057C126.874 44.0057 124.405 45.3387 123.517 49.585C122.578 54.0786 124.701 55.0679 128.75 55.0679C130.777 55.0679 133.493 54.6717 134.43 52.2531H134.629L133.789 54.8206ZM132.208 47.5122C134.084 47.5122 135.319 47.6589 135.023 49.1407C134.629 50.9683 133.839 51.3141 131.418 51.3141C130.529 51.3141 128.899 51.3141 129.295 49.388C129.641 47.7574 130.777 47.5122 132.208 47.5122" fill="#FF9933"/>
<path d="M147.963 54.8206H142.184L145.888 37.1396H151.716L147.963 54.8206Z" fill="#FF9933"/>
</svg>
