<svg width="101" height="42" viewBox="0 0 101 42" fill="none" xmlns="http://www.w3.org/2000/svg">
<path d="M38.6063 21.4946V26.5876C39.3326 27.7068 40.5902 28.434 42.2127 28.434C44.6439 28.434 46.3504 26.6145 46.3504 24.068C46.3504 21.5771 44.5615 19.7594 42.1572 19.7594C40.5902 19.761 39.3612 20.4326 38.6063 21.4946ZM42.7995 31.0646C41.1215 31.0646 39.6689 30.5613 38.5508 29.5532V30.7852H35.4202V10.3577H38.6063V18.8639C39.7243 17.6605 41.2611 17.0732 43.05 17.0732C46.6278 17.0732 49.5348 19.9277 49.5348 24.068C49.5365 28.099 46.5168 31.0646 42.7995 31.0646Z" fill="#0F216B"/>
<path d="M54.8631 10.3577H51.677V30.7852H54.8631V10.3577Z" fill="#0F216B"/>
<path d="M60.2416 22.4468H66.8942C66.5029 20.8244 65.3578 19.6496 63.596 19.6496C61.975 19.6479 60.6888 20.6561 60.2416 22.4468ZM64.4904 31.0642C60.1021 31.0642 56.9714 28.2383 56.9714 24.0693C56.9714 19.9273 60.1021 17.0745 63.596 17.0745C67.7048 17.0745 70.0536 20.0131 70.0536 24.1266V24.7981H60.1307C60.4383 27.0097 62.0036 28.4353 64.7158 28.4353C66.4757 28.4353 68.4882 27.7351 69.6907 26.7842V29.5259C68.5424 30.3927 66.5584 31.0642 64.4904 31.0642Z" fill="#0F216B"/>
<path d="M75.5245 21.3835V30.7851H72.3386V17.3541H75.469V18.8369C76.419 17.7463 77.9006 17.0461 79.6908 17.0461C82.9897 17.0461 84.8342 19.256 84.8342 22.4741V30.7851H81.6477V22.8376C81.6477 21.1024 80.6137 19.8434 78.8247 19.8434C77.3135 19.8434 76.224 20.4594 75.5245 21.3835Z" fill="#0F216B"/>
<path d="M94.2645 28.407C95.83 28.407 97.0591 27.7355 97.814 26.6718V21.5788C97.0875 20.4595 95.83 19.7324 94.2077 19.7324C91.7761 19.7324 90.0699 21.5518 90.0699 24.0697C90.0711 26.5876 91.8601 28.407 94.2645 28.407ZM97.8696 29.2469C96.78 30.4502 95.2417 31.0663 93.4811 31.0663C89.8477 31.0663 86.8833 28.2403 86.8833 24.1269C86.8833 20.069 89.9013 17.0749 93.6206 17.0749C95.2701 17.0749 96.7245 17.5511 97.814 18.5576V10.3577H101V30.7852H97.8696V29.2469Z" fill="#0F216B"/>
<path d="M15.9759 16.1794L17.368 15.1326C20.3389 12.9614 20.2145 10.324 19.7017 8.74698C19.1216 6.95953 17.4806 5.04924 14.6157 5.04924H0V0H14.6157C19.2023 0 23.0811 2.82084 24.4984 7.18842C25.9158 11.556 24.4329 16.1188 20.7222 18.8185L20.164 19.2241L15.9759 16.1794ZM18.1229 20.7069L20.7071 22.5835C24.4194 25.2815 25.9023 29.846 24.4867 34.2136C23.071 38.5812 19.1906 41.4038 14.6039 41.4038H0V36.3545H14.6022C17.4672 36.3545 19.1081 34.4442 19.6882 32.6551C20.2682 30.866 20.0614 28.3548 17.7429 26.6701L13.8305 23.8274L9.53813 20.7086L5.04395 17.4434V23.9771L7.47009 22.2149L11.7625 25.3337L4.0049 30.9754C3.23821 31.5325 2.2227 31.6133 1.377 31.1824C0.531296 30.7482 0 29.8797 0 28.9304V12.4918C0 11.5425 0.531296 10.6741 1.377 10.2432C2.22102 9.81234 3.23653 9.89143 4.00321 10.4486L13.8305 17.5881L18.1229 20.7069Z" fill="#0F216B"/>
</svg>
