<svg width="98" height="19" viewBox="0 0 98 19" fill="none" xmlns="http://www.w3.org/2000/svg">
<path d="M83.8309 4.28474C82.8751 4.28474 81.9458 4.4112 81.0431 4.66251C80.6174 4.78172 80.2184 4.93396 79.8426 5.1168C79.7702 5.00404 79.6841 4.89771 79.5819 4.79783C79.2279 4.45551 78.8031 4.28474 78.3075 4.28474H76.3958V18.785H80.1122V11.257C80.1122 9.79261 80.36 9.22233 80.8564 8.71568C81.352 8.21226 82.1132 7.96014 83.1406 7.96014H84.7441V4.28474H83.8309ZM15.9731 0H14.0606V17.0012C14.0606 17.5063 14.2384 17.9283 14.5924 18.2715C14.9464 18.6138 15.3713 18.7854 15.8669 18.7854H17.7786V1.78333C17.7786 1.27991 17.6015 0.857029 17.2483 0.51309C16.8935 0.171567 16.4687 0 15.9731 0ZM25.7061 15.8413C27.9163 15.8413 28.6154 13.4821 28.6154 11.4853C28.6154 9.48934 27.9163 7.09949 25.7061 7.09949C23.4951 7.09949 22.8241 9.48934 22.8241 11.4853C22.8241 13.4821 23.4951 15.8413 25.7061 15.8413ZM25.7101 3.93315C29.9028 3.93315 32.2272 6.74669 32.2272 11.4386C32.2272 16.1112 29.9028 18.9167 25.7101 18.9167C21.4346 18.9167 19.2155 16.1112 19.2155 11.4386C19.2155 6.74669 21.4346 3.93315 25.7101 3.93315ZM6.48974 15.8413C4.27956 15.8413 3.60774 13.4821 3.60774 11.4853C3.60774 9.48934 4.27956 7.09949 6.48974 7.09949C7.63788 7.09949 8.37567 7.7479 8.82222 8.64681H12.6842C11.9086 5.65366 9.77243 3.93315 6.49376 3.93315C2.21823 3.93315 0 6.74669 0 11.4386C0 16.1112 2.21823 18.9167 6.49376 18.9167C9.77243 18.9167 11.9046 17.1978 12.6794 14.2151H10.1466C10.1466 14.2151 9.46508 14.2336 9.08129 14.6025C8.41349 15.2445 7.86959 15.8413 6.48974 15.8413ZM45.4535 4.80984C45.1172 4.44898 44.6835 4.26936 44.1517 4.26936H42.2931V13.3552C42.2931 14.2202 42.0365 14.8509 41.5232 15.2472C41.0098 15.6435 40.4289 15.8417 39.7909 15.8417C39.1545 15.8417 38.5728 15.6435 38.0594 15.2472C37.5461 14.8509 37.2887 14.2202 37.2887 13.3552V6.10666C37.2887 5.60243 37.1213 5.17069 36.7842 4.80984C36.4487 4.44898 36.015 4.26936 35.4832 4.26936H33.6246V12.7011C33.6246 15.2601 34.3318 16.8437 35.5894 17.7281C36.8437 18.6093 38.234 18.9162 39.7909 18.9162C41.3486 18.9162 42.7397 18.6093 43.9932 17.7281C45.2508 16.8437 45.958 15.2601 45.958 12.7011V6.10666C45.958 5.60243 45.7906 5.17069 45.4535 4.80984ZM60.1279 0.513412C59.7739 0.171889 59.3483 0.000322191 58.8535 0.000322191H56.9893V5.37609C56.4245 4.84528 55.2329 3.93347 53.429 3.93347C49.6338 3.93347 47.4397 6.74621 47.4397 11.4381C47.4397 16.1115 49.6933 18.9162 54.0373 18.9162C58.279 18.9162 60.6388 16.1341 60.6573 11.4969H60.659V1.78365C60.659 1.27942 60.4811 0.857352 60.1279 0.513412ZM54.0332 15.8417C51.7877 15.8417 51.1046 13.4816 51.1046 11.4856C51.1046 9.48886 51.7877 7.09981 54.0332 7.09981C56.2651 7.09981 56.9804 9.46067 56.9893 11.4494V11.4969C56.9869 13.4905 56.2748 15.8417 54.0332 15.8417ZM75.0264 10.5941C75.0264 10.9034 74.962 11.1862 74.8349 11.4415C74.7545 11.6018 74.6515 11.7516 74.5211 11.891C74.184 12.251 73.7689 12.4314 73.2732 12.4314H65.7223C65.818 14.1576 66.6829 15.8418 68.5512 15.8418C69.9302 15.8418 70.4733 15.2442 71.1427 14.603C71.5265 14.2349 72.2072 14.2148 72.2072 14.2148H74.7408C73.9644 17.1975 71.833 18.9163 68.5536 18.9163C64.2788 18.9163 62.0598 16.1117 62.0598 11.4391C62.0598 6.74637 64.2788 3.93364 68.5536 3.93364C71.833 3.93364 73.97 5.65414 74.7448 8.6473C74.8848 9.18294 74.9741 9.76047 75.024 10.3734L75.0264 10.5941ZM68.5512 7.09997C67.0112 7.09997 65.991 8.25906 65.88 9.63643H71.2409C71.232 8.25906 70.0517 7.09997 68.5512 7.09997ZM97.1714 7.94975C97.1714 6.66501 96.6581 5.66542 95.6315 4.95096C94.6402 4.27355 93.1525 3.93364 91.1701 3.93364C89.3992 3.93364 88.0362 4.34443 87.0804 5.16521C86.2308 5.87887 85.7142 6.8535 85.5726 7.96022H89.1313C89.3083 7.51077 89.6116 7.2361 90.0026 7.09353C90.3904 6.95096 90.8337 6.87847 91.3302 6.87847C91.9481 6.87847 92.3858 6.95901 92.8428 7.12011C93.3827 7.3102 93.6659 7.62837 93.6659 8.16401C93.6659 8.73751 92.8886 9.27315 91.3302 9.47936C89.4571 9.72664 87.9783 9.93204 86.6314 10.9389C85.7665 11.5849 85.2218 12.7697 85.2218 14.2687C85.2218 15.8757 85.7126 17.009 86.6556 17.7234C87.4964 18.3606 88.8617 18.9051 91.0727 18.9051C93.0552 18.9051 94.5421 18.4645 95.5333 17.7863C96.5599 17.0726 97.1376 16.2494 97.1714 14.7456V7.94975ZM93.1791 15.0001C92.6119 15.5607 91.833 15.841 90.8418 15.841C90.5336 15.841 89.5577 15.771 89.1522 15.3747C88.8561 15.0863 88.6743 14.7907 88.6743 14.2655C88.6743 13.8797 88.8094 13.514 89.0452 13.2595C89.5681 12.6956 90.1434 12.6159 91.3809 12.3396C92.2007 12.156 93.2065 11.8491 93.7238 11.5543V12.6457C93.7238 13.6276 93.7455 14.4403 93.1791 15.0001Z" fill="#004E6F"/>
</svg>
