<svg width="119" height="35" viewBox="0 0 119 35" fill="none" xmlns="http://www.w3.org/2000/svg">
<path d="M30.3 13C30.3 13 33.5 10.3 37.4 10.3V15.5C29.8 15.4 30.3 21.5 30.3 21.5V33.5H25.6V10.7H30.3V13ZM57.9 10.7H62.5V23.4C62.5 29.2 57.9 34.1 52.1 34.1C46.3 34.1 41.7 29.2 41.7 23.4V10.7H46.3V23.4C46.3 26.6 48.9 29.3 52.1 29.3C55.3 29.3 57.9 26.6 57.9 23.4V10.7ZM67.1 33.5V10.7H71.8V33.6H67.1V33.5ZM11.7 14.9C7.8 14.9 4.6 18.1 4.6 22C4.6 25.9 7.8 29.1 11.7 29.1C14.1 29.1 16.2 27.9 17.6 26L21.3 28.8C19 31.9 15.5 33.8 11.7 33.8C5.2 33.9 0 28.6 0 22C0 15.4 5.3 10.2 11.7 10.2C15.5 10.2 19.2 12.1 21.3 15.2L17.6 18C16.3 16.1 14.1 14.9 11.7 14.9ZM100.3 19.9H113.9C112.6 14.3 107.1 14.5 107.1 14.5C107.1 14.5 102.1 14.1 100.3 19.9ZM107 10.3C107 10.3 119 9.9 118.4 23.8H100.2C100.6 25.5 101.4 26.9 102.7 28.1C104 29.3 105.7 29.9 107.6 29.9C107.6 29.9 111.5 30.1 113.8 26.8L117.2 29.3C116.3 30.6 114.8 31.7 112.8 32.7C111.1 33.5 109.1 34 107.2 34C100.7 34 95.8 28.7 95.8 22.2C95.7 15.6 100.7 10.3 107 10.3ZM90.5 22C90.5 22 93 23.5 92.9 27C92.9 27 93.1 31.9 87.7 33.5C87.7 33.5 81.3 35.6 76.1 30.4L78.5 27.1C83.8 31.5 87.3 29 87.3 29C87.9 28.5 88.2 27.9 88.2 27.2C88.2 25.4 85.9 24.8 85.9 24.8C85.2 24.6 84.5 24.3 83.6 24.1C83.6 24.1 80.8 23.4 78.7 22.1C78 21.6 77.4 21 76.9 20.2C76.4 19.4 76.2 18.4 76.2 17.2C76.2 17.2 76 12.7 80.2 10.8C80.2 10.8 86.1 8.3 91.6 12.7L89.2 16.2C86.7 14.3 84.2 14.4 84.2 14.4C83.1 14.4 82.4 14.6 81.8 15.1C81.3 15.6 81 16 81 16.6C81 16.6 80.8 18 83.3 19C84 19.2 84.7 19.5 85.6 19.7C86.4 19.9 87.3 20.3 88.1 20.5C89 21.1 89.8 21.6 90.5 22ZM69.4 0C71.2 0 72.6 1.4 72.6 3.3C72.6 5.2 71.2 6.6 69.4 6.6C67.6 6.6 66.2 5.2 66.2 3.3C66.2 1.4 67.6 0 69.4 0Z" fill="#FF4D37"/>
</svg>
