<svg width="118" height="51" viewBox="0 0 118 51" fill="none" xmlns="http://www.w3.org/2000/svg">
<path fill-rule="evenodd" clip-rule="evenodd" d="M103.921 47.5425C102.619 49.0524 99.9748 48.826 99.5405 46.618C99.3332 45.5231 99.6349 44.2022 100.107 43.2773C101.165 41.2579 103.072 39.5972 105.244 39.0499C105.244 40.2956 105.244 41.9375 105.206 43.2019C105.168 44.5985 104.866 46.429 103.921 47.5425ZM82.905 17.7053C84.1137 17.7807 85.0768 19.1016 84.7556 21.3475C84.3591 24.0087 82.1497 26.8582 79.6384 27.4998C79.2416 26.5563 79.053 24.6312 79.2793 22.7441C79.695 19.2903 81.4699 17.6296 82.905 17.7053ZM35.8304 30.5761C33.9609 28.0849 34.0363 25.0654 34.622 22.1968C36.4534 26.3109 41.3443 27.0282 44.3654 26.4242C43.969 29.5948 42.3067 32.3691 39.437 32.3691C37.832 32.3879 36.6609 31.6896 35.8304 30.5761ZM42.4393 18.9505C43.3607 19.8906 43.9822 21.2611 44.2667 22.7822C44.2685 22.782 44.271 22.8007 44.271 22.8007C44.2699 22.7945 44.2682 22.7884 44.2667 22.7822C42.1534 23.0832 40.1156 22.6869 38.625 21.536C37.5489 20.6869 37.2654 19.347 37.7186 18.5355C38.3793 17.3655 40.3624 16.8558 42.4393 18.9505ZM13.6621 3.4752C14.9646 1.94665 17.6084 2.19176 18.0239 4.40002C18.2314 5.47563 17.9482 6.79664 17.4764 7.72145C16.4185 9.74081 14.5114 11.4015 12.3398 11.9677C12.3398 10.7035 12.3209 9.08029 12.3779 7.81577C12.4155 6.41937 12.7178 4.56974 13.6621 3.4752ZM110.059 36.2001C110.077 29.6326 110.059 23.0649 110.059 16.4972C110.059 14.8743 105.395 14.7797 105.244 16.4218C105.244 17.0823 105.244 17.7617 105.224 18.4222C105.149 22.0269 103.431 28.7643 100.579 31.2177C99.8052 31.8785 99.1064 31.9161 98.6158 31.5574C98.1812 31.2365 98.0677 30.4253 98.0677 29.7269V28.8211C98.0677 24.7635 98.0869 20.5737 98.0677 16.516C98.0677 14.8929 93.4038 14.7797 93.2527 16.4218C93.2527 20.1962 93.2527 23.8576 93.2718 27.5943C90.1937 32.5012 83.075 34.8037 80.1293 28.9908C81.961 29.6892 83.9057 29.3494 85.2277 28.6512C87.5126 27.4433 89.2497 25.4429 89.5895 22.2723C89.9105 12.9868 77.637 11.7226 74.8986 21.1777C74.4457 22.7441 74.2002 24.4237 74.257 26.0656C74.3132 27.632 74.6344 29.0851 75.182 30.3686C74.1809 31.3499 73.0293 32.0293 71.8776 31.9917C70.3666 31.9349 70.5182 30.0667 70.5182 28.9908V21.9136C70.5182 21.0644 70.5182 20.2151 70.4423 19.3849C70.1972 16.9126 68.3086 14.9497 65.6652 14.7797C61.9071 14.7232 59.2638 18.2146 57.9609 22.0459C57.9422 19.9133 57.9609 18.6486 57.9609 16.4972C57.9422 14.8929 53.618 14.7797 53.127 16.4783C52.5039 18.6298 50.4643 20.3095 48.5571 21.3096C47.972 19.8943 47.2357 18.5922 46.216 17.4788C42.0237 12.9303 35.9627 13.7609 32.4123 17.5163C29.5988 20.4983 28.7495 25.8769 30.2599 29.6512C29.1459 30.9726 27.6165 32.0482 26.2569 31.9917C25.5768 31.9539 25.1993 31.5574 25.0292 30.9347C24.8592 30.3307 24.8972 29.6138 24.8972 28.9908C24.8972 26.6317 24.8781 24.2727 24.8972 21.9136C24.8972 21.0644 24.8972 20.2151 24.8219 19.3849C24.5761 16.9126 23.1221 14.9308 20.3654 14.7611C15.6257 14.5532 13.7186 19.1395 12.3209 22.9138V14.8554C13.3219 14.6854 14.2851 14.44 15.2477 14.157C25.6901 11.1564 23.6696 0.191338 15.8902 0.00270336C10.6406 -0.110534 7.52476 3.34305 7.5629 8.58952V11.9866C5.6744 11.7037 4.25804 9.2503 3.46523 7.66498C3.35164 7.41959 3.23836 7.17419 3.12533 6.9288C3.03096 6.68341 2.76651 6.55152 2.52069 6.62692C2.31331 6.68341 2.10565 6.75908 1.89769 6.83448C1.14275 7.17419 0.519188 7.7593 0.217435 8.53303C-0.330128 9.9108 0.217435 11.3829 1.18005 12.4207C2.76651 14.0816 5.29694 14.6854 7.52476 14.7986C7.50583 21.3475 7.52476 27.8774 7.52476 34.4261C7.60019 35.351 8.8657 35.5964 9.60199 35.6151C10.3764 35.634 12.0567 35.3886 12.0759 34.3319L12.1324 33.5202C12.4534 30.614 15.2477 18.9884 18.7788 18.9694C19.6477 18.9694 20.0822 19.5357 20.0822 20.385V30.7461C20.0822 33.9544 21.8948 36.1058 25.1805 36.1058C27.7297 36.1247 30.0329 34.275 31.4115 31.9729C31.6002 32.2181 31.7515 32.4822 31.9591 32.7087C33.7529 34.8037 36.3966 36.1437 39.4181 36.1625C46.0077 36.068 49.3878 30.4064 49.1428 24.8389C50.6722 23.9898 52.0508 22.8949 53.1077 21.536V34.4261C53.1834 35.351 54.5055 35.5964 55.2421 35.6151C56.0159 35.634 57.6968 35.3886 57.6968 34.3319L57.7722 33.5202L57.9985 31.3688C58.3387 28.3681 60.5858 18.9884 64.4189 18.9694C65.2682 18.9694 65.7031 19.5357 65.7031 20.385V30.7461C65.7031 33.9544 67.5159 36.1058 70.8199 36.1058C73.105 36.1247 75.182 34.6338 76.5794 32.6711C78.4297 34.9546 81.2626 36.2945 84.661 36.2945C88.6457 36.2945 91.5343 34.5394 93.4605 31.7085C93.8948 34.1432 95.1977 36.068 98.3892 36.1058C101.693 36.1247 104.205 31.5199 105.244 28.7454V36.1625C104.261 36.3322 103.299 36.5777 102.336 36.8606C91.8934 39.8426 93.8948 50.8263 101.675 50.9963C106.943 51.1285 110.04 47.6746 110.021 42.4282C110.021 41.5413 110.002 39.8804 110.021 39.0121C111.89 39.2953 113.325 41.7677 114.1 43.353C114.232 43.5983 114.345 43.8434 114.44 44.0889C114.553 44.3343 114.798 44.4475 115.063 44.3907C115.27 44.3343 115.478 44.2589 115.667 44.1642C116.441 43.8248 117.064 43.2587 117.366 42.4659C117.914 41.0883 117.366 39.6351 116.384 38.597C114.817 36.9175 112.268 36.3322 110.059 36.2001Z" fill="#FF7227"/>
</svg>
