<svg width="98" height="21" viewBox="0 0 98 21" fill="none" xmlns="http://www.w3.org/2000/svg">
<path d="M9.91192 0.780053H4.14392V1.24705H6.01392V10.7561C6.01392 13.6401 5.23492 14.4191 3.44292 14.4191C2.35192 14.4191 2.11792 13.5621 2.11792 13.1721C2.11792 12.1591 2.03992 11.4581 1.10392 11.4581C0.168916 11.4581 0.013916 12.3931 0.013916 12.7051C0.013916 14.0301 0.636916 15.0431 3.20892 15.0431C6.32692 15.0431 7.96292 14.0301 7.96292 10.5231V1.24605H9.83392V0.780053H9.91192ZM10.6919 12.8601C10.3799 12.8601 10.0679 12.9401 9.91192 13.1721C9.67792 13.4061 9.59992 13.6401 9.59992 13.9521C9.59992 14.2621 9.67792 14.4971 9.91192 14.7321C10.1459 14.9651 10.3799 15.0421 10.6919 15.0421C11.0029 15.0421 11.2369 14.9641 11.4709 14.7321C11.7049 14.4981 11.7829 14.2621 11.7829 13.9521C11.7829 13.6401 11.7049 13.4061 11.4709 13.1721C11.2369 12.9381 11.0029 12.8601 10.6909 12.8601H10.6919ZM23.4739 12.8601C23.1619 12.8601 22.9279 12.9401 22.6939 13.1721C22.4609 13.4061 22.3829 13.6401 22.3829 13.9521C22.3829 14.2621 22.4609 14.4971 22.6939 14.7321C22.9279 14.9651 23.1619 15.0421 23.4739 15.0421C23.7859 15.0421 24.0969 14.9641 24.2539 14.7321C24.4869 14.4971 24.5649 14.2621 24.5649 13.9521C24.5649 13.6401 24.4869 13.4061 24.2529 13.1721C24.0189 12.9381 23.7859 12.8601 23.4729 12.8601H23.4739ZM19.4199 0.780053H13.8079V1.24705H15.4449V12.1601C15.4449 13.0171 15.3669 13.2501 15.2889 13.4841C15.2109 13.7971 14.9769 13.9531 14.5869 14.1091C14.3539 14.1871 13.9639 14.2641 13.4179 14.2641V14.7321H19.4979V14.2641C18.9519 14.2641 18.5629 14.1871 18.3279 14.1091C17.9389 13.9531 17.7049 13.7191 17.6279 13.4851C17.5239 13.2113 17.4707 12.9209 17.4709 12.6281V8.88505H18.9519C23.3169 8.88505 24.5639 7.17105 24.5639 4.83205C24.5639 2.41605 23.8629 0.779053 19.4199 0.779053V0.780053ZM18.6399 8.34005H17.4709V1.32505H18.4849C21.8359 1.32505 22.6149 2.72805 22.6149 4.91005C22.6149 7.17005 21.2909 8.34005 18.6399 8.34005ZM42.5689 13.4061C42.4661 13.105 42.4134 12.7892 42.4129 12.4711V1.24705H43.8929V0.780053H40.3099C40.2319 0.936053 36.0239 11.3801 36.0239 11.3801L35.9459 11.4591C35.8679 11.4591 35.8679 11.4591 35.8679 11.3811C35.8679 11.3811 31.3479 0.858053 31.3479 0.780053H27.3699V1.24805H29.0849V13.0951C29.0849 13.3301 29.0069 13.5641 28.8509 13.7971C28.6949 14.0311 28.4609 14.1871 28.2269 14.2641C28.0709 14.3441 27.7599 14.3441 27.4469 14.3441V14.8101H31.3449V14.3421C31.0329 14.3421 30.8769 14.2641 30.6439 14.2641C30.3319 14.1861 30.1759 14.0301 30.0199 13.7961C29.8639 13.6401 29.7859 13.4061 29.7859 13.0951L29.7079 12.0811V2.72705H29.9419C29.9419 2.72705 35.0079 14.5741 35.0859 14.7301H35.4759L40.3079 2.80605H40.4639V12.4711C40.4639 12.8611 40.3859 13.1721 40.3079 13.4841C40.2299 13.7961 39.9969 13.9521 39.6849 14.1081C39.3584 14.2164 39.0159 14.2688 38.6719 14.2631V14.7311H44.1279V14.2631C43.7836 14.2688 43.4408 14.2164 43.1139 14.1081C42.8809 13.9521 42.6469 13.7181 42.5689 13.4061ZM49.9729 4.52105C47.0109 4.52105 45.2189 6.46905 45.2189 9.82105C45.2189 14.8091 49.1159 15.1211 49.8949 15.1211C51.5319 15.1211 54.6499 14.1081 54.6499 9.74405C54.6499 6.31405 52.6229 4.52105 49.9729 4.52105ZM49.8949 14.4971C47.7129 14.4971 47.3229 13.4071 47.3229 9.89905C47.3229 7.17105 47.4789 5.14405 49.8949 5.14405C52.4669 5.14405 52.4669 7.24805 52.4669 9.74205C52.4669 13.2501 51.8439 14.4971 49.8949 14.4971ZM62.2889 4.67705C60.5729 4.67705 59.9509 5.69005 59.4819 6.78105H59.3259C59.3259 6.78105 59.0929 5.22205 59.0149 4.83205H55.5849V5.37805H57.4549V12.2371C57.4549 12.9381 57.3779 13.4071 57.2229 13.7171C57.0659 14.0301 56.5979 14.2631 55.8969 14.2631H55.5849V14.8871H61.3529V14.2631H61.0409C60.2609 14.2631 59.9509 14.1081 59.7929 13.7961C59.6379 13.4841 59.5599 13.0161 59.5599 12.3151V8.57405C59.5599 7.40405 60.4949 6.00205 61.5869 6.00205C62.7559 6.00205 62.6769 7.71605 64.0029 7.01505C64.6269 6.62505 64.4709 4.67705 62.2889 4.67705ZM84.9689 13.7171C84.3449 13.7171 84.1899 13.4071 84.1119 12.7831V7.32705C84.1119 6.39105 83.9549 5.84605 83.4109 5.29905C82.8649 4.75405 81.8509 4.51905 80.3709 4.51905C78.9679 4.51905 77.9549 4.75405 77.2529 5.29905C76.6299 5.76805 76.3189 6.23505 76.3189 6.93705C76.3189 7.24705 76.3969 7.48205 76.5519 7.56005C76.7079 7.71605 76.9419 7.79405 77.1749 7.79405C77.7199 7.79405 78.0329 7.48405 78.1879 6.78105C78.2679 6.23505 78.4219 5.92405 78.6569 5.61105C78.9669 5.30105 79.4369 5.14405 79.9809 5.14405C80.6829 5.14405 81.2279 5.29905 81.4619 5.68905C81.6959 6.07905 81.8519 6.54705 81.8519 7.16905V8.80705C80.0579 8.96305 75.6939 9.35205 75.9279 12.6261C76.0059 13.8731 77.0979 15.0421 78.5779 15.0421C80.2149 15.0421 81.2269 14.1081 81.9279 13.4051C82.0069 14.1071 82.7079 14.9651 83.8779 14.9651C85.2019 14.9651 85.9819 14.3411 86.0609 12.7041H85.7489C85.7489 13.3281 85.3589 13.7181 84.9689 13.7181V13.7171ZM82.0079 12.6271V12.7051L81.9299 12.7831C80.9949 13.6411 80.2159 13.9531 79.6699 13.9531C78.2669 13.9531 78.0329 12.7831 78.0329 12.2381C78.0329 10.3681 80.6049 9.43205 82.0079 9.43205V12.6271ZM96.6609 13.6401C96.5049 13.3291 96.2709 12.8601 96.2709 12.1601V7.63805C96.2709 7.01505 96.1929 6.39105 95.9589 6.00205C95.7249 5.53405 95.3359 5.22205 94.9459 4.98805C94.4779 4.75405 94.0109 4.67705 93.4659 4.67705C91.4389 4.67705 90.6589 5.92405 90.1919 6.62505H90.0359L89.6459 4.83205H86.5279V5.37805H88.0879V12.2371C88.0879 12.7831 88.0089 13.1721 87.9309 13.4071C87.8519 13.7171 87.6209 13.9521 87.3859 14.0301C87.2299 14.1081 86.9179 14.1861 86.5279 14.1861V14.8091H91.4379V14.1861C90.9699 14.1081 90.5799 14.0301 90.4249 13.7961C90.2689 13.5621 90.1139 13.0941 90.1139 12.3931V9.74305C90.1139 8.65305 90.1139 7.56005 90.5039 6.93705C90.8929 6.23505 91.6719 5.84605 92.4519 5.84605C93.2319 5.84605 93.6209 6.08005 93.8559 6.54705C94.0889 6.93705 94.1659 8.10605 94.1659 8.88505V12.1591C94.1659 12.7041 94.2459 13.0941 94.1659 13.3291C94.0889 13.6391 94.0109 13.8741 93.7759 14.0291C93.6209 14.1861 93.3079 14.1861 92.9969 14.2631V14.8871H97.7529V14.2631C97.2059 14.0301 96.8169 13.8731 96.6609 13.6401ZM74.3699 4.05305C74.0579 4.13105 73.9019 4.44305 73.7459 4.83305C73.6679 5.22305 73.5119 5.45605 73.2779 5.53305C73.0439 5.61205 72.8109 5.61205 72.5769 5.45605C72.0319 4.98805 71.0959 4.44305 69.3809 4.44305C66.5749 4.44305 65.4059 6.39105 65.4059 8.18305C65.4059 10.2881 66.1859 11.3021 67.9769 11.6911C68.0559 11.6911 68.0559 11.8471 67.9769 11.8471C66.4969 12.1591 65.0939 12.6271 65.0939 14.0301C65.0939 14.8881 65.5619 15.3551 66.2639 15.6671C66.9639 15.9781 67.9769 16.1351 69.2249 16.1351C70.3149 16.1351 71.0949 16.2131 71.5629 16.2131C72.0327 16.2736 72.4843 16.4331 72.8879 16.6811C73.1999 16.9151 73.3559 17.3051 73.3559 17.7711C73.3559 18.4731 72.9659 18.9411 72.2649 19.4091C71.5649 19.7991 70.7049 19.9551 69.5369 19.9551C68.6019 19.9551 67.7449 19.8761 67.0429 19.4091C66.4979 19.0971 66.4189 18.4741 66.4979 18.0061C66.5769 17.5381 66.4189 17.0711 65.8739 16.9151C65.7081 16.8785 65.5349 16.8967 65.3803 16.9671C65.2258 17.0374 65.0983 17.156 65.0169 17.3051C64.8599 17.5371 64.7819 17.8491 64.7819 18.2391C64.7819 19.4081 65.7179 19.9531 66.4189 20.1871C67.5099 20.4981 68.2129 20.5771 69.1469 20.5771C70.4729 20.5771 71.4849 20.3431 72.2649 20.0311C73.0449 19.6411 73.5129 19.1741 73.8239 18.6281C74.1349 18.0831 74.2919 17.5371 74.2919 16.9911C74.2919 16.2901 74.1349 15.6661 73.8239 15.2771C72.8109 13.9521 71.4069 14.1071 68.2899 13.9521C66.8089 13.9521 66.4969 13.6401 66.4969 13.1721C66.4969 12.4711 67.0429 12.2371 69.2249 11.8471C71.4069 11.5351 73.4329 10.6781 73.4329 8.10605C73.4329 7.32605 73.2779 6.70305 73.0429 6.23605C73.5119 6.31305 73.9019 6.31305 74.2909 6.23605C74.7599 6.08005 74.9919 5.84605 75.1489 5.61205C75.3049 5.30005 75.3819 4.98805 75.2269 4.75405C75.3049 4.13105 74.9149 3.89705 74.3699 4.05305ZM69.4599 11.3801C68.1359 11.3801 67.4329 10.9111 67.4329 8.26205C67.4329 6.39205 68.0569 4.98805 69.4599 4.98805C71.0969 4.98805 71.5639 6.23505 71.5639 8.18405C71.5639 10.9901 70.7069 11.3801 69.4599 11.3801Z" fill="#54301A"/>
</svg>
