<svg width="138" height="45" viewBox="0 0 138 45" fill="none" xmlns="http://www.w3.org/2000/svg">
<path fill-rule="evenodd" clip-rule="evenodd" d="M22.1883 44.7069C9.93464 44.7069 0 34.7659 0 22.5043C0 10.2417 9.93464 0.301758 22.1883 0.301758C34.4426 0.301758 44.3767 10.2417 44.3767 22.5043C44.3767 34.7659 34.4426 44.7069 22.1883 44.7069Z" fill="#23D000"/>
<path fill-rule="evenodd" clip-rule="evenodd" d="M41.7661 22.5042C41.7661 11.6844 33.0012 2.91333 22.1883 2.91333C11.3764 2.91333 2.61157 11.6844 2.61157 22.5042C2.61157 33.323 11.3764 42.0952 22.1883 42.0952C33.0012 42.0952 41.7661 33.323 41.7661 22.5042" fill="#FEFEFE"/>
<path fill-rule="evenodd" clip-rule="evenodd" d="M23.2927 8.0595V17.8433C23.2927 19.0649 24.6141 19.8277 25.6706 19.2166L34.1384 14.3255C35.321 13.6422 35.5414 12.0428 34.6159 11.0378C32.3124 8.54116 29.2677 6.74118 25.8311 5.98619C24.5247 5.69897 23.2927 6.72007 23.2927 8.0595Z" fill="#BEF000"/>
<path fill-rule="evenodd" clip-rule="evenodd" d="M25.8311 39.0218C29.2672 38.2668 32.3124 36.4674 34.6154 33.9702C35.5414 32.9652 35.321 31.3669 34.1384 30.683L25.6706 25.7914C24.6141 25.1814 23.2927 25.9436 23.2927 27.1647V36.949C23.2927 38.2885 24.5241 39.3085 25.8311 39.0218" fill="#BEF000"/>
<path fill-rule="evenodd" clip-rule="evenodd" d="M9.13194 16.2367C7.95104 15.554 6.45646 16.1589 6.04895 17.4634C5.55261 19.055 5.28223 20.7489 5.28223 22.5044C5.28223 24.2605 5.55261 25.9527 6.04895 27.5449C6.45646 28.8488 7.95104 29.4544 9.13194 28.771L17.6031 23.8778C18.6591 23.2667 18.6591 21.7406 17.6031 21.1306L9.13194 16.2367Z" fill="#BEF000"/>
<path fill-rule="evenodd" clip-rule="evenodd" d="M38.3289 17.4634C37.9208 16.159 36.4268 15.5545 35.2448 16.2367L26.7736 21.1306C25.7171 21.7406 25.7171 23.2667 26.7736 23.8783L35.2448 28.7716C36.4268 29.4544 37.9208 28.8488 38.3272 27.5449C38.8252 25.9527 39.0945 24.2605 39.0945 22.5044C39.0945 20.7489 38.8252 19.055 38.3289 17.4634Z" fill="#BEF000"/>
<path fill-rule="evenodd" clip-rule="evenodd" d="M10.2392 14.3248L18.7075 19.217C19.763 19.8275 21.0849 19.0648 21.0849 17.8431V8.05878C21.0849 6.72046 19.8524 5.69936 18.546 5.98602C15.1093 6.74157 12.0635 8.54099 9.76226 11.0376C8.83508 12.0426 9.0566 13.6421 10.2392 14.3248" fill="#BEF000"/>
<path fill-rule="evenodd" clip-rule="evenodd" d="M18.707 25.7914L10.2392 30.683C9.0566 31.3669 8.83508 32.9652 9.76226 33.9702C12.0635 36.4674 15.1088 38.2668 18.546 39.0218C19.8524 39.3085 21.0849 38.2885 21.0849 36.9485V27.1647C21.0849 25.9436 19.7646 25.1814 18.707 25.7914Z" fill="#BEF000"/>
<path fill-rule="evenodd" clip-rule="evenodd" d="M24.2231 22.5042C24.2231 23.6281 23.3126 24.5403 22.1883 24.5403C21.0646 24.5403 20.1536 23.6281 20.1536 22.5042C20.1536 21.3803 21.0646 20.4675 22.1883 20.4675C23.3126 20.4675 24.2231 21.3803 24.2231 22.5042Z" fill="#23D000"/>
<path fill-rule="evenodd" clip-rule="evenodd" d="M69.2951 8.61646C70.5587 8.61646 71.5852 9.64256 71.5852 10.9081C71.5852 12.1736 70.5587 13.2003 69.2951 13.2003C68.0298 13.2003 67.0049 12.1736 67.0049 10.9081C67.0049 9.64256 68.0298 8.61646 69.2951 8.61646" fill="white"/>
<path fill-rule="evenodd" clip-rule="evenodd" d="M69.3548 8.40869C70.8972 8.40869 72.1466 9.66022 72.1466 11.2023C72.1466 12.7457 70.8972 13.9965 69.3548 13.9965C67.813 13.9965 66.563 12.7457 66.563 11.2023C66.563 9.66022 67.813 8.40869 69.3548 8.40869Z" fill="#23D000"/>
<path fill-rule="evenodd" clip-rule="evenodd" d="M67.614 39.7653V16.6594H72.1996V40.6075H67.614V39.7653Z" fill="#23D000"/>
<path fill-rule="evenodd" clip-rule="evenodd" d="M110.724 40.6076H106.979V27.3305C106.979 26.092 106.882 25.0258 106.69 24.132C106.506 23.2828 106.237 22.5969 105.886 22.0736C105.554 21.5823 105.147 21.2146 104.67 20.976C104.181 20.7317 103.594 20.6075 102.911 20.6075C102.533 20.6075 102.169 20.6417 101.823 20.708C101.477 20.7764 101.143 20.8776 100.82 21.0123C100.482 21.1518 100.161 21.3193 99.8546 21.5132C99.5506 21.7058 99.2528 21.9305 98.9627 22.188C98.6678 22.4517 98.3937 22.7336 98.1462 23.033C97.891 23.3393 97.6511 23.6735 97.4307 24.0315C97.2174 24.3769 97.0221 24.7551 96.8492 25.1563C96.6916 25.524 96.5577 25.8987 96.4475 26.2783V40.6076H91.8605V27.3305C91.8605 26.0543 91.7678 24.9658 91.583 24.0685C91.4059 23.22 91.1479 22.5383 90.8076 22.0282C90.4966 21.5565 90.0991 21.2041 89.6221 20.9718C89.1284 20.7297 88.5315 20.6075 87.8356 20.6075C86.3671 20.6075 85.0582 21.1211 83.909 22.1475C83.3142 22.6764 82.8038 23.2905 82.3805 23.9861C81.9691 24.6581 81.6323 25.4152 81.3743 26.2539V40.6076H76.7859V16.6596H81.1162V19.8309L81.232 19.7004C81.877 18.9811 82.605 18.36 83.409 17.8409C84.2144 17.3218 85.0687 16.931 85.9668 16.6693C86.8684 16.407 87.8056 16.2744 88.7735 16.2744C89.8055 16.2744 90.742 16.423 91.5858 16.7196C92.4456 17.0203 93.2008 17.4767 93.8514 18.0858C94.4915 18.6817 95.0048 19.3718 95.3939 20.1505C95.488 20.348 95.5794 20.5503 95.663 20.7583C96.5312 19.5407 97.5067 18.5701 98.5897 17.8486C100.161 16.7998 101.943 16.2744 103.935 16.2744C104.615 16.2744 105.253 16.3379 105.845 16.4656C106.444 16.594 106.998 16.7936 107.505 17.058C108.009 17.3232 108.462 17.642 108.863 18.0139C109.263 18.3859 109.616 18.815 109.918 19.2971C110.215 19.773 110.467 20.2852 110.677 20.8364C110.881 21.3744 111.052 21.9689 111.183 22.6115C111.31 23.2284 111.406 23.8843 111.468 24.5785C111.533 25.2854 111.567 26.0041 111.567 26.7318V40.6076H110.724Z" fill="#23D000"/>
<path fill-rule="evenodd" clip-rule="evenodd" d="M133.424 26.6163H118.959C118.995 26.3951 119.039 26.1781 119.09 25.9666C119.209 25.4817 119.37 25.0079 119.572 24.5488C119.971 23.6494 120.494 22.8804 121.142 22.2441C121.789 21.6091 122.549 21.1123 123.415 20.7557C124.276 20.4006 125.194 20.2233 126.172 20.2233C126.66 20.2233 127.132 20.268 127.584 20.3559C128.04 20.4459 128.481 20.5792 128.901 20.7557C129.328 20.9336 129.731 21.1479 130.105 21.397C130.484 21.6461 130.834 21.9301 131.154 22.2441C131.48 22.5636 131.78 22.916 132.051 23.2998C132.325 23.6905 132.57 24.1078 132.782 24.5502C132.988 24.9821 133.156 25.4503 133.283 25.9506C133.338 26.1676 133.385 26.3902 133.424 26.6163V26.6163ZM126.172 41.0342C128.094 41.0342 130.007 40.4983 131.703 39.5647C132.76 38.9828 133.737 38.2418 134.578 37.3814C135.211 36.7332 135.772 36.0159 136.233 35.2421C136.573 34.6734 136.861 34.0747 137.09 33.4516H132.279C132.072 33.8095 131.826 34.15 131.552 34.4675C130.876 35.2553 130.014 35.9105 129.109 36.371C128.177 36.8469 127.192 37.1197 126.298 37.1281C125.328 37.1281 124.419 36.946 123.578 36.5776C123.142 36.3906 122.738 36.168 122.367 35.9147C121.987 35.6544 121.629 35.3586 121.298 35.025C120.958 34.6838 120.654 34.3189 120.385 33.9303C120.111 33.536 119.868 33.1041 119.654 32.6394C119.44 32.1823 119.269 31.703 119.144 31.202C119.088 30.9794 119.041 30.7533 119.001 30.5217H137.243H137.856C138.087 29.2329 138.027 27.5275 137.768 26.1313C137.621 25.3435 137.404 24.5844 137.116 23.8587C136.831 23.1309 136.483 22.4408 136.077 21.7898C135.672 21.1409 135.209 20.5331 134.689 19.9665C134.164 19.3937 133.588 18.8829 132.963 18.4377C132.334 17.9849 131.656 17.5948 130.936 17.269C130.209 16.9396 129.436 16.6898 128.629 16.5245C127.821 16.3584 126.987 16.2747 126.128 16.2747C125.282 16.2747 124.458 16.3584 123.654 16.5245C122.853 16.6884 122.08 16.9389 121.345 17.269C120.61 17.599 119.927 17.9849 119.297 18.4266C118.673 18.8676 118.092 19.372 117.552 19.9386C117.023 20.4982 116.552 21.1039 116.141 21.7514C115.731 22.3955 115.376 23.0904 115.077 23.8336C114.781 24.576 114.556 25.3435 114.408 26.1334C114.258 26.9275 114.183 27.7397 114.183 28.57C114.183 29.4094 114.258 30.2335 114.408 31.0387C114.555 31.8376 114.779 32.6143 115.077 33.3651C115.375 34.1138 115.732 34.8171 116.147 35.4744C116.562 36.138 117.039 36.7555 117.571 37.3249C118.104 37.8978 118.691 38.4134 119.327 38.8683C119.96 39.3226 120.64 39.7126 121.363 40.0399C122.09 40.3692 122.861 40.6183 123.669 40.7851C124.478 40.9512 125.311 41.0342 126.172 41.0342" fill="#23D000"/>
<path fill-rule="evenodd" clip-rule="evenodd" d="M56.9267 36.2739H64.0366V40.607H56.9267C53.2295 40.607 50.3831 38.0057 50.3831 34.2608V8.58301H55.0551V22.8586V34.2608C55.0551 35.3089 55.8793 36.2739 56.9267 36.2739Z" fill="#23D000"/>
</svg>
