<svg width="150" height="25" viewBox="0 0 150 25" fill="none" xmlns="http://www.w3.org/2000/svg">
<path d="M149.658 8.48333H147.209L146.902 5.77465C146.876 5.53797 146.676 5.35914 146.437 5.35914L143.71 5.35842C143.521 5.35842 143.368 5.51149 143.368 5.70047V8.48333L143.393 11.3934V16.4157C143.393 17.0532 143.464 17.6314 143.607 18.1494C143.75 18.6676 143.985 19.1139 144.311 19.4884C144.637 19.8637 145.07 20.1506 145.611 20.3494C146.151 20.5485 146.819 20.6484 147.614 20.6484C148.028 20.6484 148.441 20.6125 148.855 20.5411C149.15 20.4901 149.409 20.4328 149.632 20.3695C149.78 20.3272 149.879 20.1892 149.877 20.0351L149.841 17.8762C149.837 17.6617 149.639 17.5083 149.429 17.5489C149.386 17.5571 149.342 17.5646 149.296 17.5713C149.081 17.6034 148.879 17.6191 148.688 17.6191C148.131 17.6191 147.746 17.4797 147.531 17.2001C147.316 16.9207 147.209 16.5018 147.209 15.9431V11.3934H149.658C149.847 11.3934 150 11.2403 150 11.0515V8.82524C150 8.63644 149.847 8.48333 149.658 8.48333Z" fill="#6AC32F"/>
<path d="M43.4334 9.57311C43.0913 9.11999 42.6423 8.75024 42.0856 8.46395C41.5446 8.18608 40.8913 8.04426 40.126 8.03618L40.1283 8.0347C40.1162 8.0347 40.1046 8.03541 40.0924 8.03548C40.0808 8.03541 40.0698 8.0347 40.058 8.0347C40.0157 8.0347 39.9744 8.03774 39.9325 8.03894C39.0492 8.06034 38.294 8.22455 37.6701 8.53558C37.1001 8.81981 36.6398 9.12743 36.2867 9.45764L36.0563 8.70051C35.9963 8.5034 35.8144 8.36874 35.6083 8.36874L33.0054 8.36859C32.8164 8.36859 32.6633 8.52168 32.6633 8.71056V19.9056C32.6633 20.0944 32.8164 20.2476 33.0054 20.2476H36.2573C36.4461 20.2476 36.5993 20.0944 36.5993 19.9054V13.8071C36.5993 13.4731 36.6429 13.151 36.7305 12.8411C36.8177 12.531 36.949 12.2565 37.1242 12.0181C37.2987 11.7796 37.5176 11.5928 37.78 11.4575C38.0425 11.3227 38.3486 11.2549 38.6985 11.2549C39.0481 11.2549 39.3381 11.3227 39.569 11.4575C39.7993 11.5928 39.9782 11.7759 40.1059 12.0062C40.233 12.237 40.3242 12.5034 40.3799 12.8052C40.4358 13.1076 40.4635 13.4254 40.4635 13.7595V19.9056C40.4635 20.0944 40.6166 20.2476 40.8056 20.2476H44.0575C44.2464 20.2476 44.3995 20.0944 44.3995 19.9056V12.9007C44.3995 12.3127 44.3239 11.7241 44.1728 11.1355C44.0215 10.5475 43.7751 10.0263 43.4334 9.57311Z" fill="#6AC32F"/>
<path d="M72.7871 17.0751C72.4369 16.9003 72.1429 16.6696 71.9046 16.3833C71.6659 16.0971 71.487 15.7672 71.3675 15.3934C71.2487 15.0201 71.1891 14.6421 71.1891 14.2604C71.1891 13.8787 71.2487 13.5053 71.3675 13.1392C71.487 12.7737 71.6659 12.4517 71.9046 12.1732C72.1429 11.8952 72.4369 11.6686 72.7871 11.4934C73.1364 11.3187 73.5423 11.2311 74.0037 11.2311C74.4489 11.2311 74.8461 11.3187 75.1963 11.4934C75.5458 11.6686 75.8438 11.8989 76.0908 12.1852C76.3371 12.4714 76.5279 12.7975 76.6634 13.1631C76.7983 13.5291 76.8662 13.9027 76.8662 14.2843C76.8662 14.666 76.7983 15.0397 76.6634 15.4054C76.5279 15.7714 76.3371 16.0971 76.0908 16.3833C75.8438 16.6696 75.5458 16.9003 75.1963 17.0751C74.8461 17.2503 74.4489 17.3375 74.0037 17.3375C73.5423 17.3375 73.1364 17.2503 72.7871 17.0751ZM80.2691 3.72356H77.041C76.8522 3.72356 76.6991 3.87663 76.6991 4.06544V9.63293H76.6514C76.3174 9.23556 75.8482 8.8697 75.244 8.53567C74.6395 8.20177 73.9001 8.03479 73.0258 8.03479C72.1672 8.03479 71.3918 8.20177 70.6997 8.53567C70.0082 8.8697 69.4195 9.32276 68.9347 9.89528C68.4494 10.4677 68.0761 11.1319 67.8137 11.887C67.5512 12.6425 67.4199 13.4337 67.4199 14.2604C67.4199 15.0875 67.5472 15.8825 67.8017 16.6458C68.056 17.409 68.4256 18.081 68.9109 18.6614C69.3959 19.2419 69.9881 19.7072 70.688 20.0568C71.3877 20.4063 72.1826 20.5815 73.0733 20.5815C73.1808 20.5815 73.2873 20.5781 73.3932 20.572C74.3222 20.5519 75.1158 20.3809 75.7705 20.0544C76.3344 19.7732 76.7945 19.4698 77.1545 19.1453L77.4072 19.9239C77.4698 20.1169 77.6495 20.2476 77.8524 20.2476H80.2691C80.4579 20.2476 80.611 20.0945 80.611 19.9057V4.06544C80.611 3.87663 80.4579 3.72356 80.2691 3.72356Z" fill="#6AC32F"/>
<path d="M101.687 8.36859H98.3726C98.2188 8.36859 98.084 8.47125 98.043 8.61953L96.037 15.8824H95.9894L93.8667 8.61463C93.8241 8.46883 93.6904 8.36859 93.5385 8.36859H90.1177C89.9646 8.36859 89.8303 8.47025 89.7887 8.61754L87.736 15.8824H87.6646L85.6817 8.62046C85.6412 8.47181 85.5061 8.36859 85.3518 8.36859H81.871C81.6361 8.36859 81.4711 8.60012 81.5478 8.82215L85.4144 20.0172C85.4619 20.155 85.5917 20.2476 85.7376 20.2476H89.1775C89.3275 20.2476 89.4599 20.1498 89.5043 20.0067L91.7197 12.853H91.7676L94.0294 20.0087C94.0744 20.1509 94.2064 20.2476 94.3555 20.2476H97.7977C97.9433 20.2476 98.0728 20.1554 98.1207 20.0177L102.01 8.82271C102.087 8.60054 101.922 8.36859 101.687 8.36859Z" fill="#6AC32F"/>
<path d="M121.381 3.72347H118.081C117.892 3.72347 117.739 3.87654 117.739 4.06535V19.9056C117.739 20.0944 117.892 20.2476 118.081 20.2476H121.381C121.569 20.2476 121.723 20.0944 121.723 19.9056V4.06535C121.723 3.87654 121.569 3.72347 121.381 3.72347Z" fill="#6AC32F"/>
<path d="M127.915 3.72347H124.615C124.426 3.72347 124.273 3.87654 124.273 4.06535V19.9056C124.273 20.0944 124.426 20.2476 124.615 20.2476H127.915C128.104 20.2476 128.257 20.0944 128.257 19.9056V4.06535C128.257 3.87654 128.104 3.72347 127.915 3.72347Z" fill="#6AC32F"/>
<path d="M106.522 16.3833C106.283 16.0971 106.104 15.7672 105.985 15.3934C105.866 15.0201 105.806 14.6421 105.806 14.2604C105.806 13.8787 105.866 13.5053 105.985 13.1392C106.104 12.7737 106.283 12.4517 106.522 12.1732C106.76 11.8952 107.054 11.6686 107.404 11.4934C107.754 11.3187 108.16 11.2311 108.621 11.2311C109.066 11.2311 109.464 11.3187 109.814 11.4934C110.163 11.6686 110.461 11.8989 110.708 12.1852C110.955 12.4714 111.145 12.7975 111.281 13.1631C111.416 13.5291 111.484 13.9027 111.484 14.2843C111.484 14.666 111.416 15.0397 111.281 15.4054C111.145 15.7714 110.955 16.0971 110.708 16.3833C110.461 16.6696 110.163 16.9003 109.814 17.0751C109.464 17.2503 109.066 17.3375 108.621 17.3375C108.16 17.3375 107.754 17.2503 107.404 17.0751C107.054 16.9003 106.76 16.6696 106.522 16.3833ZM114.887 7.96259L112.16 7.96202C111.953 7.96202 111.77 8.09847 111.711 8.29741L111.393 9.37405C111.053 9.07545 110.624 8.79574 110.102 8.53567C109.432 8.20177 108.613 8.03479 107.644 8.03479H107.643C106.784 8.03479 106.009 8.20177 105.317 8.53567C104.625 8.8697 104.037 9.32276 103.552 9.89528C103.067 10.4677 102.694 11.1319 102.431 11.887C102.168 12.6425 102.037 13.4337 102.037 14.2604C102.037 15.0875 102.164 15.8825 102.419 16.6458C102.673 17.409 103.043 18.081 103.528 18.6614C104.013 19.2419 104.605 19.7072 105.305 20.0568C106.005 20.4063 106.8 20.5815 107.691 20.5815C107.896 20.5815 108.098 20.5703 108.297 20.5485C109.026 20.488 109.661 20.3241 110.202 20.0544C110.843 19.7349 111.351 19.3867 111.728 19.011L112.024 19.9237C112.087 20.1166 112.267 20.2472 112.47 20.2472L114.886 20.2476C115.075 20.2476 115.228 20.0945 115.228 19.9057V8.3045C115.228 8.1157 115.075 7.96259 114.887 7.96259Z" fill="#6AC32F"/>
<path d="M67.0011 8.06812L66.9724 8.06254L67.0168 8.0347C66.918 8.0347 66.8219 8.0376 66.7263 8.04106C66.6474 8.03689 66.5676 8.0347 66.4867 8.0347C65.9716 8.0347 65.501 8.13204 65.0728 8.32247C64.8927 8.38383 64.7209 8.45459 64.5584 8.53558C63.9276 8.85026 63.4312 9.19359 63.0661 9.56461L62.8264 8.72289C62.7691 8.52175 62.5853 8.38305 62.3762 8.38305L59.7918 8.38268C59.603 8.38268 59.4497 8.53579 59.4497 8.72459V19.9056C59.4497 20.0944 59.603 20.2476 59.7918 20.2476H63.0199C63.2087 20.2476 63.3618 20.0944 63.3618 19.9056V14.1576C63.3618 13.9197 63.4098 13.6423 63.505 13.3253C63.6004 13.0081 63.7555 12.7147 63.9702 12.4449C64.1848 12.1754 64.4712 11.9454 64.8288 11.755C65.1867 11.5649 65.6278 11.4695 66.1526 11.4695C66.3115 11.4695 66.4749 11.4777 66.6418 11.4933L66.799 11.5129C66.9869 11.5314 67.1543 11.3939 67.1726 11.206L67.3038 8.44531C67.3242 8.25765 67.1888 8.08874 67.0011 8.06812Z" fill="#6AC32F"/>
<path d="M49.4485 12.9484C49.4642 12.6464 49.5442 12.3561 49.6871 12.0777C49.8304 11.7998 50.0212 11.5571 50.2599 11.3502C50.4986 11.1438 50.7764 10.9805 51.0945 10.8613C51.4128 10.742 51.7625 10.6824 52.1441 10.6824C52.9232 10.6824 53.5076 10.9053 53.8972 11.3502C54.2869 11.7956 54.4819 12.3283 54.4819 12.9484H49.4485ZM56.414 9.70433C55.8889 9.14805 55.2607 8.72276 54.5296 8.42826C53.7978 8.13418 52.9947 7.98703 52.1203 7.98703C51.214 7.98703 50.3709 8.13829 49.5917 8.44016C48.8124 8.74239 48.1368 9.16767 47.5641 9.7163C46.9917 10.2649 46.5384 10.9328 46.2047 11.7199C45.8705 12.5071 45.7036 13.3861 45.7036 14.3557C45.7036 15.3576 45.8745 16.2485 46.2165 17.0273C46.5586 17.8067 47.0278 18.4625 47.6239 18.9952C48.2201 19.5283 48.9154 19.9336 49.7111 20.2118C50.5062 20.4899 51.349 20.6292 52.2397 20.6292C53.4481 20.6292 54.5095 20.4104 55.4237 19.9731C55.9831 19.7056 56.4755 19.3684 56.9008 18.9611C57.0627 18.8062 57.0647 18.5473 56.9066 18.3886L55.2168 16.6904C55.0623 16.5351 54.8073 16.5284 54.6546 16.6856C54.43 16.9171 54.166 17.1145 53.8616 17.2777C53.432 17.5084 52.9075 17.6236 52.2876 17.6236C51.9373 17.6236 51.5993 17.568 51.2735 17.4567C50.9476 17.3457 50.6534 17.1906 50.391 16.9916C50.1286 16.7928 49.9137 16.5584 49.747 16.2878C49.5801 16.0177 49.4804 15.7154 49.4485 15.3814H58.0601C58.0755 15.2383 58.0835 15.0874 58.0835 14.9282C58.0835 14.7694 58.0835 14.6103 58.0835 14.4512C58.0835 13.4337 57.9364 12.5273 57.6424 11.732C57.3477 10.9368 56.9389 10.2612 56.414 9.70433Z" fill="#6AC32F"/>
<path d="M133.484 12.9484C133.5 12.6464 133.579 12.3561 133.723 12.0777C133.866 11.7998 134.056 11.5571 134.295 11.3502C134.534 11.1438 134.812 10.9805 135.13 10.8613C135.448 10.742 135.798 10.6824 136.179 10.6824C136.958 10.6824 137.543 10.9053 137.933 11.3502C138.322 11.7956 138.517 12.3283 138.517 12.9484H133.484ZM140.449 9.70433C139.924 9.14805 139.296 8.72276 138.565 8.42826C137.833 8.13418 137.03 7.98703 136.156 7.98703C135.249 7.98703 134.406 8.13829 133.627 8.44016C132.848 8.74239 132.172 9.16767 131.599 9.7163C131.027 10.2649 130.574 10.9328 130.24 11.7199C129.906 12.5071 129.739 13.3861 129.739 14.3557C129.739 15.3576 129.91 16.2485 130.252 17.0273C130.594 17.8067 131.063 18.4625 131.659 18.9952C132.255 19.5283 132.951 19.9336 133.746 20.2118C134.541 20.4899 135.384 20.6292 136.275 20.6292C137.484 20.6292 138.545 20.4104 139.459 19.9731C140.018 19.7056 140.511 19.3684 140.936 18.9611C141.098 18.8062 141.1 18.5473 140.942 18.3886L139.252 16.6904C139.098 16.5351 138.842 16.5284 138.69 16.6856C138.465 16.9171 138.201 17.1145 137.897 17.2777C137.467 17.5084 136.943 17.6236 136.323 17.6236C135.973 17.6236 135.635 17.568 135.309 17.4567C134.983 17.3457 134.689 17.1906 134.426 16.9916C134.164 16.7928 133.949 16.5584 133.782 16.2878C133.615 16.0177 133.516 15.7154 133.484 15.3814H142.095C142.111 15.2383 142.119 15.0874 142.119 14.9282C142.119 14.7694 142.119 14.6103 142.119 14.4512C142.119 13.4337 141.972 12.5273 141.678 11.732C141.383 10.9368 140.974 10.2612 140.449 9.70433Z" fill="#6AC32F"/>
<path d="M8.07553 0.048205C7.99235 0.0171915 7.90379 -3.868e-05 7.81325 -3.868e-05H0.534817C0.239459 -3.868e-05 0 0.239364 0 0.534808V8.12402L8.07553 0.048205Z" fill="#0F9B4A"/>
<path d="M0.156738 24.2151C0.253515 24.312 0.387272 24.3718 0.534915 24.3718H7.58913C7.88456 24.3718 8.12401 24.1322 8.12401 23.837V16.2481L0.156738 24.2151Z" fill="#0F9B4A"/>
<path d="M16.2478 8.12404V24.3035C16.2637 24.3108 16.2798 24.3173 16.2961 24.3235L24.3716 16.248L16.2478 8.12404Z" fill="#1B523D"/>
<path d="M8.12392 16.2481V0.0693333C8.1079 0.0618972 8.09203 0.054459 8.07553 0.0482925L0 8.12406V23.837C0 23.9848 0.0598648 24.1185 0.156641 24.2151L8.12392 16.2481Z" fill="#6AC32F"/>
<path d="M24.3716 16.248V0.534916C24.3716 0.239471 24.1322 6.81071e-05 23.8368 6.81071e-05H16.7826C16.4875 6.81071e-05 16.2483 0.239109 16.2478 0.534192V8.12413L24.3716 16.248Z" fill="#6AC32F"/>
<path d="M24.3716 16.2481L16.2961 24.3236C16.3793 24.3548 16.4679 24.3718 16.5585 24.3718H23.8368C24.1322 24.3718 24.3716 24.1322 24.3716 23.837V16.2481Z" fill="#6AC32F"/>
<path d="M8.34364 0.219577C8.27967 0.155737 8.20479 0.105863 8.12402 0.0692275V16.248L16.0282 24.1521C16.0922 24.216 16.167 24.2667 16.2478 24.3035V8.12401L8.34364 0.219577Z" fill="#0F9B4A"/>
</svg>
