<svg width="83" height="35" viewBox="0 0 83 35" fill="none" xmlns="http://www.w3.org/2000/svg">
<path fill-rule="evenodd" clip-rule="evenodd" d="M83.0001 17.8451C83.0001 11.9429 80.1412 7.28564 74.6771 7.28564C69.1899 7.28564 65.8699 11.9429 65.8699 17.799C65.8699 24.7387 69.7893 28.2431 75.4149 28.2431C78.1585 28.2431 80.2334 27.6206 81.8012 26.7445V22.1334C80.2334 22.9173 78.4351 23.4014 76.1526 23.4014C73.9162 23.4014 71.9335 22.6176 71.6799 19.897H82.954C82.954 19.5973 83.0001 18.3984 83.0001 17.8451ZM71.6107 15.6548C71.6107 13.0495 73.2015 11.9659 74.654 11.9659C76.0604 11.9659 77.559 13.0495 77.559 15.6548H71.6107Z" fill="#32325D"/>
<path fill-rule="evenodd" clip-rule="evenodd" d="M56.9704 7.28564C54.711 7.28564 53.2585 8.3462 52.4515 9.08398L52.1518 7.65453H47.0796V34.5373L52.8435 33.3153L52.8665 26.7906C53.6965 27.3901 54.9185 28.2431 56.9473 28.2431C61.0743 28.2431 64.8323 24.9231 64.8323 17.6145C64.8093 10.9284 61.0051 7.28564 56.9704 7.28564ZM55.5871 23.1709C54.2268 23.1709 53.4198 22.6867 52.8665 22.0873L52.8435 13.5337C53.4429 12.8651 54.2729 12.404 55.5871 12.404C57.6851 12.404 59.1376 14.7556 59.1376 17.7759C59.1376 20.8653 57.7082 23.1709 55.5871 23.1709Z" fill="#32325D"/>
<path fill-rule="evenodd" clip-rule="evenodd" d="M39.1484 5.92527L44.9354 4.68027V0L39.1484 1.22194V5.92527Z" fill="#32325D"/>
<path d="M44.9354 7.67749H39.1484V27.8511H44.9354V7.67749Z" fill="#32325D"/>
<path fill-rule="evenodd" clip-rule="evenodd" d="M32.9463 9.38363L32.5774 7.67752H27.5974V27.8511H33.3613V14.1792C34.7216 12.4039 37.0271 12.7267 37.7418 12.9803V7.67752C37.0041 7.40086 34.3066 6.89364 32.9463 9.38363Z" fill="#32325D"/>
<path fill-rule="evenodd" clip-rule="evenodd" d="M21.4186 2.67456L15.7931 3.87345L15.77 22.3409C15.77 25.7531 18.3292 28.2662 21.7414 28.2662C23.6319 28.2662 25.0153 27.9203 25.7761 27.5054V22.8251C25.0383 23.1248 21.3956 24.1854 21.3956 20.7731V12.5884H25.7761V7.67761H21.3956L21.4186 2.67456Z" fill="#32325D"/>
<path fill-rule="evenodd" clip-rule="evenodd" d="M5.83305 13.5337C5.83305 12.6345 6.57082 12.2887 7.79276 12.2887C9.54498 12.2887 11.7583 12.819 13.5105 13.7642V8.3462C11.5969 7.58537 9.70637 7.28564 7.79276 7.28564C3.11249 7.28564 0 9.72953 0 13.8104C0 20.1737 8.76109 19.1592 8.76109 21.9028C8.76109 22.9634 7.83887 23.3092 6.54777 23.3092C4.63416 23.3092 2.19027 22.5253 0.25361 21.4648V26.952C2.39777 27.8742 4.56499 28.2662 6.54777 28.2662C11.3433 28.2662 14.6402 25.8914 14.6402 21.7645C14.6172 14.894 5.83305 16.1159 5.83305 13.5337Z" fill="#32325D"/>
</svg>
