<svg width="99" height="25" viewBox="0 0 99 25" fill="none" xmlns="http://www.w3.org/2000/svg">
<path fill-rule="evenodd" clip-rule="evenodd" d="M35.0777 23.2854C32.3021 23.2854 30.8041 21.876 30.8041 19.2382V11.5138H29.8389C29.3753 11.506 28.934 11.3174 28.6121 10.9895C28.2901 10.6616 28.114 10.2213 28.1226 9.76574C28.1443 8.84814 28.9051 8.11424 29.8389 8.11022H30.8041V5.81101C30.8851 4.78602 31.7549 3.99487 32.8008 3.99487C33.8467 3.99487 34.7164 4.78602 34.7974 5.81101V8.11022H36.3554C37.2887 8.14143 38.0288 8.89412 38.0288 9.812C38.0288 10.7299 37.2887 11.4826 36.3554 11.5138H34.7974V18.1968C34.7974 19.3622 35.5464 19.8209 36.1692 19.8209H36.5116C37.6351 19.8209 38.2599 20.5571 38.2599 21.5079C38.2599 22.4586 37.6671 23.2854 35.0777 23.2854Z" fill="#FF4C00"/>
<path d="M47.5543 23.2855C42.5958 23.2855 39.5999 19.7304 39.5999 15.4981C39.5999 11.2993 42.6038 7.74219 47.5543 7.74219C52.5449 7.74219 55.5388 11.2993 55.5388 15.4981C55.5388 19.7304 52.5449 23.2855 47.5543 23.2855ZM47.5543 11.2068C45.0891 11.2068 43.7173 13.1989 43.7173 15.4981C43.7173 17.8288 45.0891 19.8288 47.5543 19.8288C50.0195 19.8288 51.4214 17.8367 51.4214 15.4981C51.4214 13.1989 50.0175 11.2068 47.5543 11.2068Z" fill="#FF4C00"/>
<path d="M69.543 23.1024H69.2306C68.9182 23.1024 67.5143 22.8564 67.5143 21.3859C66.487 22.5808 64.7106 23.2855 62.7441 23.2855C60.3409 23.2855 57.5032 21.691 57.5032 18.38C57.5032 14.9154 60.3409 13.5985 62.7441 13.5985C64.7467 13.5985 66.517 14.2422 67.5143 15.4075V13.4134C67.5143 11.9115 66.2046 10.9312 64.21 10.9312C63.0155 10.9086 61.8418 11.2399 60.8416 11.882C60.625 12.0123 60.3783 12.0861 60.1246 12.0965C59.2911 12.0836 58.6233 11.414 58.6267 10.5945C58.6323 10.3246 58.7074 10.0605 58.8449 9.82683C59.7802 8.35636 63.1486 7.74219 64.8949 7.74219C68.3254 7.74219 71.4755 9.09061 71.4755 13.3524V21.1713C71.4833 22.2287 70.6187 23.0927 69.543 23.1024ZM67.5143 17.5197C66.8595 16.6615 65.6138 16.2323 64.3341 16.2323C62.7741 16.2323 61.4964 17.0197 61.4964 18.4705C61.4964 19.8485 62.7741 20.6477 64.3341 20.6477C65.6138 20.6477 66.8595 20.2186 67.5143 19.3603V17.5197Z" fill="#FF4C00"/>
<path fill-rule="evenodd" clip-rule="evenodd" d="M80.8338 23.2854C78.8692 23.2854 75.7191 22.6417 74.7839 21.3169C74.5988 21.08 74.5001 20.7888 74.5035 20.4902C74.5195 19.5998 75.2499 18.8819 76.1557 18.8661C76.4426 18.8651 76.7239 18.9443 76.9667 19.0945C78.1523 19.7677 79.7103 20.2894 81.0201 20.2894C82.7363 20.2894 83.5474 19.6142 83.5474 18.6949C83.5474 16.2421 74.5956 18.2343 74.5956 12.4094C74.5956 9.92717 76.8105 7.75 80.7717 7.75C82.7363 7.75 85.4178 8.36417 86.261 9.55905C86.4216 9.78056 86.5096 10.045 86.5133 10.3169C86.4851 11.1414 85.7945 11.7941 84.9552 11.7894C84.694 11.7905 84.4366 11.7276 84.2063 11.6063C83.1689 11.025 81.9958 10.7184 80.8018 10.7165C79.3679 10.7165 78.4327 11.3602 78.4327 12.189C78.4327 14.3957 87.3524 12.5551 87.3524 18.5335C87.3524 21.2323 85.0133 23.2854 80.8338 23.2854Z" fill="#FF4C00"/>
<path fill-rule="evenodd" clip-rule="evenodd" d="M95.337 23.2854C92.5614 23.2854 91.0634 21.876 91.0634 19.2382V11.5138H90.0981C89.6346 11.506 89.1933 11.3174 88.8713 10.9895C88.5494 10.6616 88.3733 10.2213 88.3819 9.76574C88.4046 8.84859 89.1648 8.11527 90.0981 8.11022H91.0634V5.81101C91.1444 4.78602 92.0141 3.99487 93.06 3.99487C94.1059 3.99487 94.9757 4.78602 95.0567 5.81101V8.11022H96.6167C97.55 8.14143 98.2901 8.89412 98.2901 9.812C98.2901 10.7299 97.55 11.4826 96.6167 11.5138H95.0567V18.1968C95.0567 19.3622 95.8056 19.8209 96.4285 19.8209H96.7729C97.8944 19.8209 98.5192 20.5571 98.5192 21.5079C98.5192 22.4586 97.9284 23.2854 95.337 23.2854Z" fill="#FF4C00"/>
<path d="M25.5755 17.1907C25.5953 15.5516 25.5238 13.9127 25.3612 12.2813C25.241 11.1789 24.8645 9.76944 23.673 9.48204C23.8268 9.52083 23.9888 9.51537 24.1396 9.46629C25.5254 8.74188 25.4192 6.95842 24.9286 5.66905C24.2858 3.9781 22.7537 2.78125 21.2398 1.98598C15.7986 -0.872291 8.51705 -0.632134 3.24212 2.62377C1.87032 3.47023 0.28824 5.11787 0.983153 6.95842C1.17183 7.41425 1.45018 7.82899 1.80223 8.17889C1.95643 8.34228 2.32492 8.7222 2.32492 8.72417C1.61799 9.68283 1.10131 10.545 0.768872 11.7104C-0.230441 15.2104 -0.0642226 17.4604 0.210138 20.2753C0.380361 22.0155 0.957119 24.6061 2.96375 24.8935C4.5999 25.1198 6.36823 24.5805 8.00638 24.3895C9.80875 24.1769 11.6271 23.8462 13.4455 23.8935C16.0129 23.9584 18.5602 24.5687 21.1316 24.5923C22.4894 24.6061 24.7464 24.734 25.1509 22.9486C25.5354 21.2498 25.5514 19.4781 25.5514 17.7439C25.5735 17.5588 25.5755 17.3738 25.5755 17.1907ZM22.6396 20.1297C22.0008 21.5687 20.1924 21.4072 18.9327 21.3009C17.0462 21.1415 15.1898 20.6868 13.2933 20.6297C11.6151 20.5805 9.95494 20.8974 8.31879 21.2557C7.09518 21.5253 5.38894 22.2281 4.28349 21.2872C3.05788 20.2478 2.83759 18.4722 2.82157 16.982C2.84584 15.6325 2.97977 14.287 3.22209 12.9584C3.37347 12.1381 3.61452 11.3362 3.94104 10.5667C4.38162 9.45251 5.02847 8.78322 5.06251 8.81865C4.73208 8.4781 4.33756 8.297 4.11527 7.8344C3.27817 6.08243 5.37092 4.60212 6.51842 4.09424C10.5237 2.30487 16.131 2.48204 19.916 4.77928C21.0956 5.49385 23.3866 7.95842 21.2458 9.1848C22.5655 9.80684 22.8999 11.6868 23.0481 13.0214C23.2792 15.1634 23.2118 17.3264 22.8479 19.4505C22.8066 19.6844 22.7366 19.9124 22.6396 20.1297Z" fill="#FF4C00"/>
</svg>
