<svg width="62" height="13" viewBox="0 0 62 13" fill="none" xmlns="http://www.w3.org/2000/svg">
<path d="M7.87239 8.426C7.87239 9.128 7.61239 9.726 7.09239 10.22C6.58106 10.7053 5.83572 11 4.85639 11.104V12.56H3.79039V11.117C3.14906 11.0737 2.54239 10.9567 1.97039 10.766C1.39839 10.5753 0.943391 10.3327 0.605391 10.038L1.19039 8.725C1.51106 8.985 1.90106 9.206 2.36039 9.388C2.81972 9.56133 3.29639 9.66967 3.79039 9.713V7.113C3.17506 6.96567 2.65939 6.80533 2.24339 6.632C1.83606 6.45 1.49372 6.19 1.21639 5.852C0.939057 5.50533 0.800391 5.05033 0.800391 4.487C0.800391 3.785 1.05606 3.187 1.56739 2.693C2.07872 2.199 2.81972 1.90433 3.79039 1.809V0.339999H4.85639V1.783C5.34172 1.809 5.81406 1.89133 6.27339 2.03C6.74139 2.16867 7.14872 2.35067 7.49539 2.576L6.96239 3.889C6.30372 3.50767 5.60172 3.27367 4.85639 3.187V5.813C5.48039 5.96033 5.99606 6.12067 6.40339 6.294C6.81939 6.46733 7.16606 6.72733 7.44339 7.074C7.72939 7.412 7.87239 7.86267 7.87239 8.426ZM2.47739 4.409C2.47739 4.695 2.59006 4.92467 2.81539 5.098C3.04072 5.27133 3.36572 5.41867 3.79039 5.54V3.226C3.34839 3.29533 3.01906 3.434 2.80239 3.642C2.58572 3.85 2.47739 4.10567 2.47739 4.409ZM4.85639 9.687C5.31572 9.61767 5.65372 9.48333 5.87039 9.284C6.09572 9.08467 6.20839 8.83767 6.20839 8.543C6.20839 8.24833 6.09139 8.01433 5.85739 7.841C5.62339 7.659 5.28972 7.50733 4.85639 7.386V9.687ZM14.8002 6.216C15.2768 6.43267 15.6408 6.72733 15.8922 7.1C16.1522 7.464 16.2822 7.893 16.2822 8.387C16.2822 8.94167 16.1262 9.427 15.8142 9.843C15.5108 10.259 15.0775 10.5797 14.5142 10.805C13.9508 11.0217 13.2965 11.13 12.5512 11.13C11.8058 11.13 11.1515 11.0217 10.5882 10.805C10.0335 10.5797 9.60451 10.259 9.30117 9.843C8.99784 9.427 8.84617 8.94167 8.84617 8.387C8.84617 7.893 8.97184 7.464 9.22317 7.1C9.47451 6.72733 9.83417 6.43267 10.3022 6.216C9.93817 6.01667 9.65651 5.75667 9.45717 5.436C9.26651 5.10667 9.17117 4.72967 9.17117 4.305C9.17117 3.79367 9.30984 3.34733 9.58717 2.966C9.87317 2.58467 10.2718 2.29 10.7832 2.082C11.2945 1.874 11.8838 1.77 12.5512 1.77C13.2272 1.77 13.8208 1.874 14.3322 2.082C14.8435 2.29 15.2422 2.58467 15.5282 2.966C15.8142 3.34733 15.9572 3.79367 15.9572 4.305C15.9572 4.72967 15.8575 5.10233 15.6582 5.423C15.4588 5.74367 15.1728 6.008 14.8002 6.216ZM12.5512 3.096C12.0225 3.096 11.6022 3.20867 11.2902 3.434C10.9868 3.65933 10.8352 3.97567 10.8352 4.383C10.8352 4.773 10.9868 5.085 11.2902 5.319C11.6022 5.54433 12.0225 5.657 12.5512 5.657C13.0885 5.657 13.5132 5.54433 13.8252 5.319C14.1372 5.085 14.2932 4.773 14.2932 4.383C14.2932 3.97567 14.1328 3.65933 13.8122 3.434C13.5002 3.20867 13.0798 3.096 12.5512 3.096ZM12.5512 9.804C13.1752 9.804 13.6692 9.674 14.0332 9.414C14.3972 9.154 14.5792 8.79433 14.5792 8.335C14.5792 7.88433 14.3972 7.529 14.0332 7.269C13.6692 7.009 13.1752 6.879 12.5512 6.879C11.9272 6.879 11.4375 7.009 11.0822 7.269C10.7268 7.529 10.5492 7.88433 10.5492 8.335C10.5492 8.79433 10.7268 9.154 11.0822 9.414C11.4375 9.674 11.9272 9.804 12.5512 9.804ZM20.7066 8.023L19.4976 9.167V11H17.8726V1.354H19.4976V7.178L22.8646 4.058H24.8146L21.9156 6.97L25.0876 11H23.1116L20.7066 8.023ZM29.3791 6.71H32.9541V8.062H29.3791V6.71ZM44.9808 8.426C44.9808 9.128 44.7208 9.726 44.2008 10.22C43.6895 10.7053 42.9441 11 41.9648 11.104V12.56H40.8988V11.117C40.2575 11.0737 39.6508 10.9567 39.0788 10.766C38.5068 10.5753 38.0518 10.3327 37.7138 10.038L38.2988 8.725C38.6195 8.985 39.0095 9.206 39.4688 9.388C39.9281 9.56133 40.4048 9.66967 40.8988 9.713V7.113C40.2835 6.96567 39.7678 6.80533 39.3518 6.632C38.9445 6.45 38.6021 6.19 38.3248 5.852C38.0475 5.50533 37.9088 5.05033 37.9088 4.487C37.9088 3.785 38.1645 3.187 38.6758 2.693C39.1871 2.199 39.9281 1.90433 40.8988 1.809V0.339999H41.9648V1.783C42.4501 1.809 42.9225 1.89133 43.3818 2.03C43.8498 2.16867 44.2571 2.35067 44.6038 2.576L44.0708 3.889C43.4121 3.50767 42.7101 3.27367 41.9648 3.187V5.813C42.5888 5.96033 43.1045 6.12067 43.5118 6.294C43.9278 6.46733 44.2745 6.72733 44.5518 7.074C44.8378 7.412 44.9808 7.86267 44.9808 8.426ZM39.5858 4.409C39.5858 4.695 39.6985 4.92467 39.9238 5.098C40.1491 5.27133 40.4741 5.41867 40.8988 5.54V3.226C40.4568 3.29533 40.1275 3.434 39.9108 3.642C39.6941 3.85 39.5858 4.10567 39.5858 4.409ZM41.9648 9.687C42.4241 9.61767 42.7621 9.48333 42.9788 9.284C43.2041 9.08467 43.3168 8.83767 43.3168 8.543C43.3168 8.24833 43.1998 8.01433 42.9658 7.841C42.7318 7.659 42.3981 7.50733 41.9648 7.386V9.687ZM50.1406 5.384C50.7386 5.384 51.2759 5.501 51.7526 5.735C52.2292 5.96033 52.6019 6.28533 52.8706 6.71C53.1392 7.13467 53.2736 7.62433 53.2736 8.179C53.2736 8.76833 53.1262 9.28833 52.8316 9.739C52.5369 10.181 52.1382 10.5233 51.6356 10.766C51.1329 11.0087 50.5696 11.13 49.9456 11.13C48.6976 11.13 47.7269 10.74 47.0336 9.96C46.3489 9.18 46.0066 8.062 46.0066 6.606C46.0066 5.58333 46.1929 4.71233 46.5656 3.993C46.9382 3.265 47.4582 2.71467 48.1256 2.342C48.8016 1.96067 49.5816 1.77 50.4656 1.77C50.9336 1.77 51.3712 1.822 51.7786 1.926C52.1946 2.02133 52.5542 2.16433 52.8576 2.355L52.2336 3.629C51.7829 3.33433 51.2066 3.187 50.5046 3.187C49.6292 3.187 48.9446 3.45567 48.4506 3.993C47.9566 4.53033 47.7096 5.306 47.7096 6.32V6.333C47.9782 6.021 48.3206 5.787 48.7366 5.631C49.1526 5.46633 49.6206 5.384 50.1406 5.384ZM49.8546 9.804C50.3832 9.804 50.8122 9.66533 51.1416 9.388C51.4709 9.102 51.6356 8.725 51.6356 8.257C51.6356 7.78033 51.4709 7.40333 51.1416 7.126C50.8122 6.84867 50.3702 6.71 49.8156 6.71C49.2696 6.71 48.8232 6.85733 48.4766 7.152C48.1386 7.44667 47.9696 7.81933 47.9696 8.27C47.9696 8.712 48.1342 9.08033 48.4636 9.375C48.8016 9.661 49.2652 9.804 49.8546 9.804ZM57.485 8.023L56.276 9.167V11H54.651V1.354H56.276V7.178L59.643 4.058H61.593L58.694 6.97L61.866 11H59.89L57.485 8.023Z" fill="#606060"/>
</svg>
