<svg width="144" height="17" viewBox="0 0 144 17" fill="none" xmlns="http://www.w3.org/2000/svg">
<path d="M9.26138 7.272H11.2294V11.736C10.6534 12.1947 9.98138 12.5467 9.21338 12.792C8.44538 13.0373 7.65604 13.16 6.84538 13.16C5.70404 13.16 4.67471 12.9147 3.75738 12.424C2.84004 11.9227 2.12004 11.2347 1.59738 10.36C1.07471 9.48533 0.813375 8.49867 0.813375 7.4C0.813375 6.30133 1.07471 5.31467 1.59738 4.44C2.12004 3.56533 2.84004 2.88267 3.75738 2.392C4.68538 1.89067 5.72538 1.64 6.87738 1.64C7.81604 1.64 8.66938 1.79467 9.43738 2.104C10.2054 2.41333 10.8507 2.86667 11.3734 3.464L10.0614 4.744C9.20804 3.89067 8.17871 3.464 6.97338 3.464C6.18404 3.464 5.48004 3.62933 4.86138 3.96C4.25338 4.29067 3.77338 4.75467 3.42138 5.352C3.08004 5.94933 2.90938 6.632 2.90938 7.4C2.90938 8.14667 3.08004 8.81867 3.42138 9.416C3.77338 10.0133 4.25338 10.4827 4.86138 10.824C5.48004 11.1653 6.17871 11.336 6.95738 11.336C7.83204 11.336 8.60004 11.144 9.26138 10.76V7.272ZM15.6848 5.704C16.2608 4.808 17.2741 4.36 18.7248 4.36V6.264C18.5541 6.232 18.3994 6.216 18.2608 6.216C17.4821 6.216 16.8741 6.44533 16.4368 6.904C15.9994 7.352 15.7808 8.00267 15.7808 8.856V13H13.7808V4.456H15.6848V5.704ZM23.6385 4.36C24.8972 4.36 25.8572 4.664 26.5185 5.272C27.1905 5.86933 27.5265 6.776 27.5265 7.992V13H25.6385V11.96C25.3932 12.3333 25.0412 12.6213 24.5825 12.824C24.1345 13.016 23.5905 13.112 22.9505 13.112C22.3105 13.112 21.7505 13.0053 21.2705 12.792C20.7905 12.568 20.4172 12.264 20.1505 11.88C19.8945 11.4853 19.7665 11.0427 19.7665 10.552C19.7665 9.784 20.0492 9.17067 20.6145 8.712C21.1905 8.24267 22.0918 8.008 23.3185 8.008H25.5265V7.88C25.5265 7.28267 25.3452 6.824 24.9825 6.504C24.6305 6.184 24.1025 6.024 23.3985 6.024C22.9185 6.024 22.4438 6.09867 21.9745 6.248C21.5158 6.39733 21.1265 6.60533 20.8065 6.872L20.0225 5.416C20.4705 5.07467 21.0092 4.81333 21.6385 4.632C22.2678 4.45067 22.9345 4.36 23.6385 4.36ZM23.3665 11.656C23.8678 11.656 24.3105 11.544 24.6945 11.32C25.0892 11.0853 25.3665 10.7547 25.5265 10.328V9.336H23.4625C22.3105 9.336 21.7345 9.71467 21.7345 10.472C21.7345 10.8347 21.8785 11.1227 22.1665 11.336C22.4545 11.5493 22.8545 11.656 23.3665 11.656ZM34.8293 4.36C35.6613 4.36 36.4026 4.54133 37.0533 4.904C37.7146 5.26667 38.2319 5.77867 38.6053 6.44C38.9786 7.10133 39.1653 7.864 39.1653 8.728C39.1653 9.592 38.9786 10.36 38.6053 11.032C38.2319 11.6933 37.7146 12.2053 37.0533 12.568C36.4026 12.9307 35.6613 13.112 34.8293 13.112C33.6773 13.112 32.7653 12.728 32.0933 11.96V16.104H30.0933V4.456H31.9973V5.576C32.3279 5.17067 32.7333 4.86667 33.2133 4.664C33.7039 4.46133 34.2426 4.36 34.8293 4.36ZM34.6053 11.4C35.3413 11.4 35.9439 11.1547 36.4133 10.664C36.8933 10.1733 37.1333 9.528 37.1333 8.728C37.1333 7.928 36.8933 7.28267 36.4133 6.792C35.9439 6.30133 35.3413 6.056 34.6053 6.056C34.1253 6.056 33.6933 6.168 33.3093 6.392C32.9253 6.60533 32.6213 6.91467 32.3973 7.32C32.1733 7.72533 32.0613 8.19467 32.0613 8.728C32.0613 9.26133 32.1733 9.73067 32.3973 10.136C32.6213 10.5413 32.9253 10.856 33.3093 11.08C33.6933 11.2933 34.1253 11.4 34.6053 11.4ZM45.91 4.36C46.9873 4.36 47.8513 4.67467 48.502 5.304C49.1527 5.93333 49.478 6.86667 49.478 8.104V13H47.478V8.36C47.478 7.61333 47.302 7.05333 46.95 6.68C46.598 6.296 46.0967 6.104 45.446 6.104C44.71 6.104 44.1287 6.328 43.702 6.776C43.2753 7.21333 43.062 7.848 43.062 8.68V13H41.062V1.128H43.062V5.448C43.3927 5.096 43.798 4.82933 44.278 4.648C44.7687 4.456 45.3127 4.36 45.91 4.36ZM52.0151 4.456H54.0151V13H52.0151V4.456ZM53.0231 3.048C52.6605 3.048 52.3565 2.936 52.1111 2.712C51.8658 2.47733 51.7431 2.18933 51.7431 1.848C51.7431 1.50667 51.8658 1.224 52.1111 0.999999C52.3565 0.765333 52.6605 0.648 53.0231 0.648C53.3858 0.648 53.6898 0.76 53.9351 0.983999C54.1805 1.19733 54.3031 1.46933 54.3031 1.8C54.3031 2.152 54.1805 2.45067 53.9351 2.696C53.7005 2.93067 53.3965 3.048 53.0231 3.048ZM60.5601 13.112C59.6748 13.112 58.8801 12.9253 58.1761 12.552C57.4721 12.1787 56.9228 11.6613 56.5281 11C56.1335 10.328 55.9361 9.57067 55.9361 8.728C55.9361 7.88533 56.1335 7.13333 56.5281 6.472C56.9228 5.81067 57.4668 5.29333 58.1601 4.92C58.8641 4.54667 59.6641 4.36 60.5601 4.36C61.4028 4.36 62.1388 4.53067 62.7681 4.872C63.4081 5.21333 63.8881 5.704 64.2081 6.344L62.6721 7.24C62.4268 6.84533 62.1175 6.552 61.7441 6.36C61.3815 6.15733 60.9815 6.056 60.5441 6.056C59.7975 6.056 59.1788 6.30133 58.6881 6.792C58.1975 7.272 57.9521 7.91733 57.9521 8.728C57.9521 9.53867 58.1921 10.1893 58.6721 10.68C59.1628 11.16 59.7868 11.4 60.5441 11.4C60.9815 11.4 61.3815 11.304 61.7441 11.112C62.1175 10.9093 62.4268 10.6107 62.6721 10.216L64.2081 11.112C63.8775 11.752 63.3921 12.248 62.7521 12.6C62.1228 12.9413 61.3921 13.112 60.5601 13.112ZM70.5509 1.8H75.4469C76.6415 1.8 77.7029 2.03467 78.6309 2.504C79.5589 2.96267 80.2789 3.61867 80.7909 4.472C81.3029 5.31467 81.5589 6.29067 81.5589 7.4C81.5589 8.50933 81.3029 9.49067 80.7909 10.344C80.2789 11.1867 79.5589 11.8427 78.6309 12.312C77.7029 12.7707 76.6415 13 75.4469 13H70.5509V1.8ZM75.3509 11.24C76.1722 11.24 76.8922 11.0853 77.5109 10.776C78.1402 10.456 78.6202 10.008 78.9509 9.432C79.2922 8.84533 79.4629 8.168 79.4629 7.4C79.4629 6.632 79.2922 5.96 78.9509 5.384C78.6202 4.79733 78.1402 4.34933 77.5109 4.04C76.8922 3.72 76.1722 3.56 75.3509 3.56H72.6309V11.24H75.3509ZM91.6096 8.776C91.6096 8.91467 91.599 9.112 91.5776 9.368H84.8736C84.991 9.99733 85.295 10.4987 85.7856 10.872C86.287 11.2347 86.9056 11.416 87.6416 11.416C88.5803 11.416 89.3536 11.1067 89.9616 10.488L91.0336 11.72C90.6496 12.1787 90.1643 12.5253 89.5776 12.76C88.991 12.9947 88.3296 13.112 87.5936 13.112C86.655 13.112 85.8283 12.9253 85.1136 12.552C84.399 12.1787 83.8443 11.6613 83.4496 11C83.0656 10.328 82.8736 9.57067 82.8736 8.728C82.8736 7.896 83.0603 7.14933 83.4336 6.488C83.8176 5.816 84.3456 5.29333 85.0176 4.92C85.6896 4.54667 86.447 4.36 87.2896 4.36C88.1216 4.36 88.863 4.54667 89.5136 4.92C90.175 5.28267 90.687 5.8 91.0496 6.472C91.423 7.13333 91.6096 7.90133 91.6096 8.776ZM87.2896 5.96C86.6496 5.96 86.1056 6.152 85.6576 6.536C85.2203 6.90933 84.9536 7.41067 84.8576 8.04H89.7056C89.6203 7.42133 89.359 6.92 88.9216 6.536C88.4843 6.152 87.9403 5.96 87.2896 5.96ZM96.1708 13.112C95.4774 13.112 94.8001 13.0213 94.1388 12.84C93.4774 12.6587 92.9494 12.4293 92.5548 12.152L93.3228 10.632C93.7068 10.888 94.1654 11.096 94.6988 11.256C95.2428 11.4053 95.7761 11.48 96.2988 11.48C97.4934 11.48 98.0908 11.1653 98.0908 10.536C98.0908 10.2373 97.9361 10.0293 97.6268 9.912C97.3281 9.79467 96.8428 9.68267 96.1708 9.576C95.4668 9.46933 94.8908 9.34667 94.4428 9.208C94.0054 9.06933 93.6214 8.82933 93.2908 8.488C92.9708 8.136 92.8108 7.65067 92.8108 7.032C92.8108 6.22133 93.1468 5.576 93.8188 5.096C94.5014 4.60533 95.4188 4.36 96.5708 4.36C97.1574 4.36 97.7441 4.42933 98.3308 4.568C98.9174 4.696 99.3974 4.872 99.7708 5.096L99.0028 6.616C98.2774 6.18933 97.4614 5.976 96.5548 5.976C95.9681 5.976 95.5201 6.06667 95.2108 6.248C94.9121 6.41867 94.7628 6.648 94.7628 6.936C94.7628 7.256 94.9228 7.48533 95.2428 7.624C95.5734 7.752 96.0801 7.87467 96.7628 7.992C97.4454 8.09867 98.0054 8.22133 98.4428 8.36C98.8801 8.49867 99.2534 8.73333 99.5628 9.064C99.8828 9.39467 100.043 9.864 100.043 10.472C100.043 11.272 99.6961 11.912 99.0028 12.392C98.3094 12.872 97.3654 13.112 96.1708 13.112ZM101.765 4.456H103.765V13H101.765V4.456ZM102.773 3.048C102.41 3.048 102.106 2.936 101.861 2.712C101.616 2.47733 101.493 2.18933 101.493 1.848C101.493 1.50667 101.616 1.224 101.861 0.999999C102.106 0.765333 102.41 0.648 102.773 0.648C103.136 0.648 103.44 0.76 103.685 0.983999C103.93 1.19733 104.053 1.46933 104.053 1.8C104.053 2.152 103.93 2.45067 103.685 2.696C103.45 2.93067 103.146 3.048 102.773 3.048ZM114.87 4.456V11.704C114.87 14.712 113.334 16.216 110.262 16.216C109.441 16.216 108.662 16.1093 107.926 15.896C107.19 15.6933 106.582 15.3947 106.102 15L106.998 13.496C107.371 13.8053 107.841 14.0507 108.406 14.232C108.982 14.424 109.563 14.52 110.15 14.52C111.089 14.52 111.777 14.3067 112.214 13.88C112.651 13.4533 112.87 12.8027 112.87 11.928V11.48C112.529 11.8533 112.113 12.136 111.622 12.328C111.131 12.52 110.593 12.616 110.006 12.616C109.195 12.616 108.459 12.4453 107.798 12.104C107.147 11.752 106.63 11.2613 106.246 10.632C105.873 10.0027 105.686 9.28267 105.686 8.472C105.686 7.66133 105.873 6.94667 106.246 6.328C106.63 5.69867 107.147 5.21333 107.798 4.872C108.459 4.53067 109.195 4.36 110.006 4.36C110.625 4.36 111.185 4.46133 111.686 4.664C112.198 4.86667 112.625 5.176 112.966 5.592V4.456H114.87ZM110.31 10.92C111.067 10.92 111.686 10.696 112.166 10.248C112.657 9.78933 112.902 9.19733 112.902 8.472C112.902 7.75733 112.657 7.176 112.166 6.728C111.686 6.28 111.067 6.056 110.31 6.056C109.542 6.056 108.913 6.28 108.422 6.728C107.942 7.176 107.702 7.75733 107.702 8.472C107.702 9.19733 107.942 9.78933 108.422 10.248C108.913 10.696 109.542 10.92 110.31 10.92ZM122.348 4.36C123.425 4.36 124.289 4.67467 124.94 5.304C125.59 5.93333 125.916 6.86667 125.916 8.104V13H123.916V8.36C123.916 7.61333 123.74 7.05333 123.388 6.68C123.036 6.296 122.534 6.104 121.884 6.104C121.148 6.104 120.566 6.328 120.14 6.776C119.713 7.21333 119.5 7.848 119.5 8.68V13H117.5V4.456H119.404V5.56C119.734 5.16533 120.15 4.86667 120.652 4.664C121.153 4.46133 121.718 4.36 122.348 4.36ZM136.563 8.776C136.563 8.91467 136.552 9.112 136.531 9.368H129.827C129.944 9.99733 130.248 10.4987 130.739 10.872C131.24 11.2347 131.859 11.416 132.595 11.416C133.533 11.416 134.307 11.1067 134.915 10.488L135.987 11.72C135.603 12.1787 135.117 12.5253 134.531 12.76C133.944 12.9947 133.283 13.112 132.547 13.112C131.608 13.112 130.781 12.9253 130.067 12.552C129.352 12.1787 128.797 11.6613 128.403 11C128.019 10.328 127.827 9.57067 127.827 8.728C127.827 7.896 128.013 7.14933 128.387 6.488C128.771 5.816 129.299 5.29333 129.971 4.92C130.643 4.54667 131.4 4.36 132.243 4.36C133.075 4.36 133.816 4.54667 134.467 4.92C135.128 5.28267 135.64 5.8 136.003 6.472C136.376 7.13333 136.563 7.90133 136.563 8.776ZM132.243 5.96C131.603 5.96 131.059 6.152 130.611 6.536C130.173 6.90933 129.907 7.41067 129.811 8.04H134.659C134.573 7.42133 134.312 6.92 133.875 6.536C133.437 6.152 132.893 5.96 132.243 5.96ZM140.388 5.704C140.964 4.808 141.977 4.36 143.428 4.36V6.264C143.257 6.232 143.103 6.216 142.964 6.216C142.185 6.216 141.577 6.44533 141.14 6.904C140.703 7.352 140.484 8.00267 140.484 8.856V13H138.484V4.456H140.388V5.704Z" fill="#393939"/>
</svg>
