<svg width="51" height="51" viewBox="0 0 51 51" fill="none" xmlns="http://www.w3.org/2000/svg">
<path d="M15.4113 29.9475C23.4394 29.9475 29.9475 23.4394 29.9475 15.4113C29.9475 7.3831 23.4394 0.875 15.4113 0.875C7.3831 0.875 0.875 7.3831 0.875 15.4113C0.875 23.4394 7.3831 29.9475 15.4113 29.9475Z" fill="#28A8EA"/>
<path d="M36.4639 51C44.492 51 51.0001 44.4919 51.0001 36.4638C51.0001 28.4356 44.492 21.9275 36.4639 21.9275C28.4357 21.9275 21.9276 28.4356 21.9276 36.4638C21.9276 44.4919 28.4357 51 36.4639 51Z" fill="#28A8EA"/>
<path d="M25.9375 49.9975C39.2254 49.9975 49.9975 39.2255 49.9975 25.9375C49.9975 12.6495 39.2254 1.8775 25.9375 1.8775C12.6495 1.8775 1.87744 12.6495 1.87744 25.9375C1.87744 39.2255 12.6495 49.9975 25.9375 49.9975Z" fill="#28A8EA"/>
<path fill-rule="evenodd" clip-rule="evenodd" d="M19.6979 25.4807C18.7573 24.8611 17.9726 24.0325 17.405 23.0597C16.8565 22.0324 16.5858 20.8798 16.6195 19.7158C16.5777 18.2385 17.0818 16.7977 18.0353 15.6686C19.026 14.5347 20.2994 13.6836 21.726 13.2018C23.2778 12.6538 24.9129 12.3787 26.5586 12.3886C27.6356 12.3784 28.7115 12.461 29.7743 12.6353C30.5346 12.7528 31.2812 12.9457 32.0034 13.2109C32.6667 13.4356 33.2656 13.8181 33.7483 14.3255C34.1042 14.7428 34.2958 15.2755 34.2873 15.8238C34.3001 16.1087 34.2567 16.3933 34.1595 16.6613C34.0623 16.9294 33.9133 17.1757 33.7209 17.3861C33.5387 17.5801 33.3175 17.7333 33.0719 17.8356C32.8262 17.938 32.5617 17.9872 32.2957 17.98C31.9296 17.9773 31.5683 17.8963 31.2361 17.7424C30.4181 17.3763 29.5756 17.068 28.7145 16.8197C27.9217 16.6109 27.1045 16.5095 26.2846 16.5183C25.217 16.4787 24.1606 16.7483 23.2425 17.2948C22.8547 17.5303 22.5373 17.8657 22.3236 18.2659C22.1098 18.6661 22.0076 19.1164 22.0275 19.5696C22.0218 20.1642 22.2478 20.7377 22.6578 21.1684C23.1452 21.6738 23.7212 22.0857 24.3571 22.3835C25.0697 22.737 26.1324 23.206 27.5452 23.7905C27.7019 23.84 27.8546 23.9011 28.0021 23.9733C29.3808 24.5185 30.7026 25.1978 31.9485 26.0015C32.9328 26.6432 33.7627 27.495 34.3786 28.4956C34.9848 29.5467 35.2883 30.7451 35.2556 31.9581C35.3065 33.4439 34.8807 34.9069 34.0405 36.1333C33.1849 37.2943 32.0014 38.1726 30.6423 38.6549C29.0046 39.2398 27.2741 39.5215 25.5355 39.4864C23.1462 39.5704 20.7682 39.121 18.5744 38.1707C18.013 37.921 17.5208 37.5385 17.1402 37.0562C16.8247 36.6144 16.6611 36.0822 16.6742 35.5395C16.6585 35.2532 16.705 34.9669 16.8107 34.7003C16.9163 34.4338 17.0786 34.1933 17.2862 33.9955C17.7219 33.6138 18.2878 33.4143 18.8666 33.4382C19.5108 33.4471 20.1435 33.61 20.7119 33.9133C21.4181 34.2667 21.9754 34.5317 22.3838 34.7082C22.8502 34.9036 23.3333 35.0565 23.8272 35.165C24.4361 35.2987 25.0581 35.3631 25.6815 35.3568C26.7836 35.4352 27.8803 35.1425 28.7968 34.5255C29.14 34.257 29.4143 33.9106 29.5969 33.515C29.7796 33.1194 29.8654 32.6859 29.8473 32.2506C29.8486 31.6326 29.6133 31.0376 29.1897 30.5877C28.6298 30.011 27.9747 29.535 27.253 29.1809C26.4003 28.7302 25.2004 28.1821 23.6535 27.5364C22.2696 26.985 20.9444 26.2963 19.6979 25.4807" fill="white"/>
<path opacity="0.1" fill-rule="evenodd" clip-rule="evenodd" d="M19.9525 1.60682C19.3168 1.39401 18.6669 1.2265 18.0076 1.10557C14.0493 2.3759 10.451 4.57199 7.51145 7.51155C4.57188 10.4511 2.3758 14.0494 1.10547 18.0077C1.22642 18.667 1.39392 19.3169 1.60672 19.9526C1.78444 20.5281 2.00909 21.088 2.27839 21.6268C3.1492 16.815 5.46857 12.384 8.92622 8.92633C12.3839 5.46867 16.8149 3.1493 21.6267 2.2785C21.0879 2.00922 20.528 1.78458 19.9525 1.60682Z" fill="black"/>
<path opacity="0.1" fill-rule="evenodd" clip-rule="evenodd" d="M19.9527 1.60683C15.5129 2.70187 11.4569 4.98985 8.22344 8.22334C4.98995 11.4568 2.70197 15.5128 1.60693 19.9526C1.78465 20.5281 2.0093 21.088 2.27861 21.6268C3.14941 16.8151 5.46878 12.384 8.92644 8.92633C12.3841 5.46867 16.8152 3.14931 21.6269 2.2785C21.0881 2.00922 20.5282 1.78458 19.9527 1.60683Z" fill="black"/>
<path opacity="0.1" fill-rule="evenodd" clip-rule="evenodd" d="M50.2681 31.9224C50.0904 31.3469 49.8657 30.787 49.5964 30.2483C48.7256 35.06 46.4063 39.491 42.9486 42.9487C39.4909 46.4064 35.0599 48.7257 30.2482 49.5965C30.7869 49.8658 31.3469 50.0905 31.9223 50.2682C32.558 50.481 33.2079 50.6485 33.8672 50.7694C37.8255 49.4991 41.4238 47.303 44.3634 44.3635C47.3029 41.4239 49.499 37.8256 50.7694 33.8673C50.6484 33.208 50.4809 32.5581 50.2681 31.9224Z" fill="black"/>
<path opacity="0.1" fill-rule="evenodd" clip-rule="evenodd" d="M49.5964 30.2483C48.7256 35.06 46.4063 39.491 42.9486 42.9487C39.4909 46.4064 35.0599 48.7257 30.2482 49.5965C30.7869 49.8658 31.3469 50.0905 31.9223 50.2682C36.3622 49.1732 40.4181 46.8852 43.6516 43.6517C46.8851 40.4182 49.1731 36.3622 50.2681 31.9224C50.0904 31.3469 49.8657 30.787 49.5964 30.2483Z" fill="black"/>
</svg>
