<svg width="43" height="27" viewBox="0 0 43 27" fill="none" xmlns="http://www.w3.org/2000/svg">
<path fill-rule="evenodd" clip-rule="evenodd" d="M0.882324 2.25C0.882324 3.4875 1.89482 4.5 3.13232 4.5H40.7206C41.9581 4.5 42.9706 3.4875 42.9706 2.25C42.9706 1.0125 41.9581 0 40.7206 0H3.13232C1.89482 0 0.882324 1.0125 0.882324 2.25ZM4.51345 27H13.5134C14.7509 27 15.7634 25.9875 15.7634 24.75C15.7634 23.5125 14.7509 22.5 13.5134 22.5H4.51345C3.27595 22.5 2.26345 23.5125 2.26345 24.75C2.26345 25.9875 3.27595 27 4.51345 27ZM26.53 15.75H4.02995C2.79245 15.75 1.77995 14.7375 1.77995 13.5C1.77995 12.2625 2.79245 11.25 4.02995 11.25H26.53C27.7675 11.25 28.78 12.2625 28.78 13.5C28.78 14.7375 27.7675 15.75 26.53 15.75Z" fill="#2F2F2F"/>
</svg>
