<svg width="142" height="14" viewBox="0 0 142 14" fill="none" xmlns="http://www.w3.org/2000/svg">
<path d="M9.198 8.592H7.336V11H5.978V8.592H0.532V7.612L5.544 1.2H7.056L2.254 7.388H6.02V5.26H7.336V7.388H9.198V8.592ZM15.855 11.112C15.267 11.112 14.721 10.9907 14.217 10.748C13.713 10.496 13.307 10.146 12.999 9.698L13.811 8.746C14.3523 9.52067 15.0337 9.908 15.855 9.908C16.4057 9.908 16.821 9.74 17.101 9.404C17.3903 9.068 17.535 8.57333 17.535 7.92V2.418H13.993V1.2H18.921V7.85C18.921 8.93267 18.6597 9.74933 18.137 10.3C17.6237 10.8413 16.863 11.112 15.855 11.112ZM24.7547 11.084C24.0174 11.084 23.3547 10.9207 22.7667 10.594C22.1787 10.2673 21.7167 9.81933 21.3807 9.25C21.0541 8.67133 20.8907 8.018 20.8907 7.29C20.8907 6.562 21.0541 5.91333 21.3807 5.344C21.7167 4.76533 22.1787 4.31733 22.7667 4C23.3547 3.67333 24.0174 3.51 24.7547 3.51C25.4921 3.51 26.1501 3.67333 26.7287 4C27.3167 4.31733 27.7741 4.76533 28.1007 5.344C28.4367 5.91333 28.6047 6.562 28.6047 7.29C28.6047 8.018 28.4367 8.67133 28.1007 9.25C27.7741 9.81933 27.3167 10.2673 26.7287 10.594C26.1501 10.9207 25.4921 11.084 24.7547 11.084ZM24.7547 9.908C25.2307 9.908 25.6554 9.80067 26.0287 9.586C26.4114 9.362 26.7101 9.054 26.9247 8.662C27.1394 8.26067 27.2467 7.80333 27.2467 7.29C27.2467 6.77667 27.1394 6.324 26.9247 5.932C26.7101 5.53067 26.4114 5.22267 26.0287 5.008C25.6554 4.79333 25.2307 4.686 24.7547 4.686C24.2787 4.686 23.8494 4.79333 23.4667 5.008C23.0934 5.22267 22.7947 5.53067 22.5707 5.932C22.3561 6.324 22.2487 6.77667 22.2487 7.29C22.2487 7.80333 22.3561 8.26067 22.5707 8.662C22.7947 9.054 23.0934 9.362 23.4667 9.586C23.8494 9.80067 24.2787 9.908 24.7547 9.908ZM34.3975 3.51C35.1161 3.51 35.7601 3.66867 36.3295 3.986C36.8988 4.30333 37.3421 4.74667 37.6595 5.316C37.9861 5.88533 38.1495 6.54333 38.1495 7.29C38.1495 8.03667 37.9861 8.69933 37.6595 9.278C37.3421 9.84733 36.8988 10.2907 36.3295 10.608C35.7601 10.9253 35.1161 11.084 34.3975 11.084C33.8468 11.084 33.3428 10.9767 32.8855 10.762C32.4281 10.5473 32.0501 10.2347 31.7515 9.824V11H30.4635V0.611999H31.8075V4.7C32.1061 4.308 32.4795 4.014 32.9275 3.818C33.3755 3.61267 33.8655 3.51 34.3975 3.51ZM34.2855 9.908C34.7615 9.908 35.1861 9.80067 35.5595 9.586C35.9421 9.362 36.2408 9.054 36.4555 8.662C36.6795 8.26067 36.7915 7.80333 36.7915 7.29C36.7915 6.77667 36.6795 6.324 36.4555 5.932C36.2408 5.53067 35.9421 5.22267 35.5595 5.008C35.1861 4.79333 34.7615 4.686 34.2855 4.686C33.8188 4.686 33.3941 4.79333 33.0115 5.008C32.6288 5.22267 32.3301 5.53067 32.1155 5.932C31.9008 6.324 31.7935 6.77667 31.7935 7.29C31.7935 7.80333 31.9008 8.26067 32.1155 8.662C32.3301 9.054 32.6288 9.362 33.0115 9.586C33.3941 9.80067 33.8188 9.908 34.2855 9.908ZM48.3862 11.112C47.3969 11.112 46.5055 10.8973 45.7122 10.468C44.9189 10.0293 44.2935 9.42733 43.8362 8.662C43.3882 7.89667 43.1642 7.04267 43.1642 6.1C43.1642 5.15733 43.3882 4.30333 43.8362 3.538C44.2935 2.77267 44.9189 2.17533 45.7122 1.746C46.5055 1.30733 47.3969 1.088 48.3862 1.088C49.3662 1.088 50.2529 1.30733 51.0462 1.746C51.8395 2.17533 52.4602 2.77267 52.9082 3.538C53.3562 4.294 53.5802 5.148 53.5802 6.1C53.5802 7.052 53.3562 7.91067 52.9082 8.676C52.4602 9.432 51.8395 10.0293 51.0462 10.468C50.2529 10.8973 49.3662 11.112 48.3862 11.112ZM48.3862 9.866C49.1049 9.866 49.7489 9.70267 50.3182 9.376C50.8969 9.04933 51.3495 8.60133 51.6762 8.032C52.0122 7.45333 52.1802 6.80933 52.1802 6.1C52.1802 5.39067 52.0122 4.75133 51.6762 4.182C51.3495 3.60333 50.8969 3.15067 50.3182 2.824C49.7489 2.49733 49.1049 2.334 48.3862 2.334C47.6675 2.334 47.0142 2.49733 46.4262 2.824C45.8475 3.15067 45.3902 3.60333 45.0542 4.182C44.7275 4.75133 44.5642 5.39067 44.5642 6.1C44.5642 6.80933 44.7275 7.45333 45.0542 8.032C45.3902 8.60133 45.8475 9.04933 46.4262 9.376C47.0142 9.70267 47.6675 9.866 48.3862 9.866ZM59.458 3.51C60.1767 3.51 60.8207 3.66867 61.39 3.986C61.9593 4.30333 62.4027 4.74667 62.72 5.316C63.0467 5.88533 63.21 6.54333 63.21 7.29C63.21 8.03667 63.0467 8.69933 62.72 9.278C62.4027 9.84733 61.9593 10.2907 61.39 10.608C60.8207 10.9253 60.1767 11.084 59.458 11.084C58.926 11.084 58.436 10.9813 57.988 10.776C57.5493 10.5707 57.176 10.272 56.868 9.88V13.716H55.524V3.58H56.812V4.756C57.1107 4.34533 57.4887 4.03733 57.946 3.832C58.4033 3.61733 58.9073 3.51 59.458 3.51ZM59.346 9.908C59.822 9.908 60.2467 9.80067 60.62 9.586C61.0027 9.362 61.3013 9.054 61.516 8.662C61.74 8.26067 61.852 7.80333 61.852 7.29C61.852 6.77667 61.74 6.324 61.516 5.932C61.3013 5.53067 61.0027 5.22267 60.62 5.008C60.2467 4.79333 59.822 4.686 59.346 4.686C58.8793 4.686 58.4547 4.798 58.072 5.022C57.6987 5.23667 57.4 5.54 57.176 5.932C56.9613 6.324 56.854 6.77667 56.854 7.29C56.854 7.80333 56.9613 8.26067 57.176 8.662C57.3907 9.054 57.6893 9.362 58.072 9.586C58.4547 9.80067 58.8793 9.908 59.346 9.908ZM69.001 3.51C69.7196 3.51 70.3636 3.66867 70.933 3.986C71.5023 4.30333 71.9456 4.74667 72.263 5.316C72.5896 5.88533 72.753 6.54333 72.753 7.29C72.753 8.03667 72.5896 8.69933 72.263 9.278C71.9456 9.84733 71.5023 10.2907 70.933 10.608C70.3636 10.9253 69.7196 11.084 69.001 11.084C68.469 11.084 67.979 10.9813 67.531 10.776C67.0923 10.5707 66.719 10.272 66.411 9.88V13.716H65.067V3.58H66.355V4.756C66.6536 4.34533 67.0316 4.03733 67.489 3.832C67.9463 3.61733 68.4503 3.51 69.001 3.51ZM68.889 9.908C69.365 9.908 69.7896 9.80067 70.163 9.586C70.5456 9.362 70.8443 9.054 71.059 8.662C71.283 8.26067 71.395 7.80333 71.395 7.29C71.395 6.77667 71.283 6.324 71.059 5.932C70.8443 5.53067 70.5456 5.22267 70.163 5.008C69.7896 4.79333 69.365 4.686 68.889 4.686C68.4223 4.686 67.9976 4.798 67.615 5.022C67.2416 5.23667 66.943 5.54 66.719 5.932C66.5043 6.324 66.397 6.77667 66.397 7.29C66.397 7.80333 66.5043 8.26067 66.719 8.662C66.9336 9.054 67.2323 9.362 67.615 9.586C67.9976 9.80067 68.4223 9.908 68.889 9.908ZM77.7879 11.084C77.0506 11.084 76.3879 10.9207 75.7999 10.594C75.2119 10.2673 74.7499 9.81933 74.4139 9.25C74.0873 8.67133 73.9239 8.018 73.9239 7.29C73.9239 6.562 74.0873 5.91333 74.4139 5.344C74.7499 4.76533 75.2119 4.31733 75.7999 4C76.3879 3.67333 77.0506 3.51 77.7879 3.51C78.5253 3.51 79.1833 3.67333 79.7619 4C80.3499 4.31733 80.8073 4.76533 81.1339 5.344C81.4699 5.91333 81.6379 6.562 81.6379 7.29C81.6379 8.018 81.4699 8.67133 81.1339 9.25C80.8073 9.81933 80.3499 10.2673 79.7619 10.594C79.1833 10.9207 78.5253 11.084 77.7879 11.084ZM77.7879 9.908C78.2639 9.908 78.6886 9.80067 79.0619 9.586C79.4446 9.362 79.7433 9.054 79.9579 8.662C80.1726 8.26067 80.2799 7.80333 80.2799 7.29C80.2799 6.77667 80.1726 6.324 79.9579 5.932C79.7433 5.53067 79.4446 5.22267 79.0619 5.008C78.6886 4.79333 78.2639 4.686 77.7879 4.686C77.3119 4.686 76.8826 4.79333 76.4999 5.008C76.1266 5.22267 75.8279 5.53067 75.6039 5.932C75.3893 6.324 75.2819 6.77667 75.2819 7.29C75.2819 7.80333 75.3893 8.26067 75.6039 8.662C75.8279 9.054 76.1266 9.362 76.4999 9.586C76.8826 9.80067 77.3119 9.908 77.7879 9.908ZM84.7847 4.826C85.018 4.39667 85.3633 4.07 85.8207 3.846C86.278 3.622 86.8333 3.51 87.4867 3.51V4.812C87.412 4.80267 87.3093 4.798 87.1787 4.798C86.4507 4.798 85.8767 5.01733 85.4567 5.456C85.046 5.88533 84.8407 6.50133 84.8407 7.304V11H83.4967V3.58H84.7847V4.826ZM93.6159 10.566C93.4199 10.734 93.1773 10.8647 92.8879 10.958C92.5986 11.042 92.2999 11.084 91.9919 11.084C91.2453 11.084 90.6666 10.8833 90.2559 10.482C89.8453 10.0807 89.6399 9.50667 89.6399 8.76V4.686H88.3799V3.58H89.6399V1.956H90.9839V3.58H93.1119V4.686H90.9839V8.704C90.9839 9.10533 91.0819 9.41333 91.2779 9.628C91.4833 9.84267 91.7726 9.95 92.1459 9.95C92.5566 9.95 92.9066 9.83333 93.1959 9.6L93.6159 10.566ZM102.157 3.58V11H100.883V9.88C100.612 10.2627 100.253 10.5613 99.8048 10.776C99.3661 10.9813 98.8855 11.084 98.3628 11.084C97.3735 11.084 96.5941 10.8133 96.0248 10.272C95.4555 9.72133 95.1708 8.914 95.1708 7.85V3.58H96.5148V7.696C96.5148 8.41467 96.6875 8.96067 97.0328 9.334C97.3781 9.698 97.8728 9.88 98.5168 9.88C99.2261 9.88 99.7861 9.66533 100.197 9.236C100.607 8.80667 100.813 8.2 100.813 7.416V3.58H102.157ZM108.677 3.51C109.62 3.51 110.367 3.78533 110.917 4.336C111.477 4.87733 111.757 5.67533 111.757 6.73V11H110.413V6.884C110.413 6.16533 110.241 5.624 109.895 5.26C109.55 4.896 109.055 4.714 108.411 4.714C107.683 4.714 107.109 4.92867 106.689 5.358C106.269 5.778 106.059 6.38467 106.059 7.178V11H104.715V3.58H106.003V4.7C106.274 4.31733 106.638 4.02333 107.095 3.818C107.562 3.61267 108.089 3.51 108.677 3.51ZM114.245 3.58H115.589V11H114.245V3.58ZM114.917 2.152C114.655 2.152 114.436 2.068 114.259 1.9C114.091 1.732 114.007 1.52667 114.007 1.284C114.007 1.04133 114.091 0.836 114.259 0.668C114.436 0.490666 114.655 0.402 114.917 0.402C115.178 0.402 115.393 0.486 115.561 0.654C115.738 0.812666 115.827 1.01333 115.827 1.256C115.827 1.508 115.738 1.72267 115.561 1.9C115.393 2.068 115.178 2.152 114.917 2.152ZM122.327 10.566C122.131 10.734 121.888 10.8647 121.599 10.958C121.31 11.042 121.011 11.084 120.703 11.084C119.956 11.084 119.378 10.8833 118.967 10.482C118.556 10.0807 118.351 9.50667 118.351 8.76V4.686H117.091V3.58H118.351V1.956H119.695V3.58H121.823V4.686H119.695V8.704C119.695 9.10533 119.793 9.41333 119.989 9.628C120.194 9.84267 120.484 9.95 120.857 9.95C121.268 9.95 121.618 9.83333 121.907 9.6L122.327 10.566ZM123.952 3.58H125.296V11H123.952V3.58ZM124.624 2.152C124.362 2.152 124.143 2.068 123.966 1.9C123.798 1.732 123.714 1.52667 123.714 1.284C123.714 1.04133 123.798 0.836 123.966 0.668C124.143 0.490666 124.362 0.402 124.624 0.402C124.885 0.402 125.1 0.486 125.268 0.654C125.445 0.812666 125.534 1.01333 125.534 1.256C125.534 1.508 125.445 1.72267 125.268 1.9C125.1 2.068 124.885 2.152 124.624 2.152ZM134.568 7.332C134.568 7.43467 134.559 7.57 134.54 7.738H128.52C128.604 8.39133 128.889 8.91867 129.374 9.32C129.869 9.712 130.48 9.908 131.208 9.908C132.095 9.908 132.809 9.60933 133.35 9.012L134.092 9.88C133.756 10.272 133.336 10.5707 132.832 10.776C132.337 10.9813 131.782 11.084 131.166 11.084C130.382 11.084 129.687 10.9253 129.08 10.608C128.473 10.2813 128.002 9.82867 127.666 9.25C127.339 8.67133 127.176 8.018 127.176 7.29C127.176 6.57133 127.335 5.92267 127.652 5.344C127.979 4.76533 128.422 4.31733 128.982 4C129.551 3.67333 130.191 3.51 130.9 3.51C131.609 3.51 132.239 3.67333 132.79 4C133.35 4.31733 133.784 4.76533 134.092 5.344C134.409 5.92267 134.568 6.58533 134.568 7.332ZM130.9 4.644C130.256 4.644 129.715 4.84 129.276 5.232C128.847 5.624 128.595 6.13733 128.52 6.772H133.28C133.205 6.14667 132.949 5.638 132.51 5.246C132.081 4.84467 131.544 4.644 130.9 4.644ZM138.562 11.084C137.955 11.084 137.372 11.0047 136.812 10.846C136.252 10.678 135.813 10.468 135.496 10.216L136.056 9.152C136.383 9.38533 136.779 9.572 137.246 9.712C137.713 9.852 138.184 9.922 138.66 9.922C139.836 9.922 140.424 9.586 140.424 8.914C140.424 8.69 140.345 8.51267 140.186 8.382C140.027 8.25133 139.827 8.158 139.584 8.102C139.351 8.03667 139.015 7.96667 138.576 7.892C137.979 7.79867 137.489 7.69133 137.106 7.57C136.733 7.44867 136.411 7.24333 136.14 6.954C135.869 6.66467 135.734 6.25867 135.734 5.736C135.734 5.064 136.014 4.52733 136.574 4.126C137.134 3.71533 137.885 3.51 138.828 3.51C139.323 3.51 139.817 3.57067 140.312 3.692C140.807 3.81333 141.213 3.97667 141.53 4.182L140.956 5.246C140.349 4.854 139.635 4.658 138.814 4.658C138.245 4.658 137.811 4.75133 137.512 4.938C137.213 5.12467 137.064 5.372 137.064 5.68C137.064 5.92267 137.148 6.114 137.316 6.254C137.484 6.394 137.689 6.49667 137.932 6.562C138.184 6.62733 138.534 6.702 138.982 6.786C139.579 6.88867 140.06 7.00067 140.424 7.122C140.797 7.234 141.115 7.43 141.376 7.71C141.637 7.99 141.768 8.382 141.768 8.886C141.768 9.558 141.479 10.0947 140.9 10.496C140.331 10.888 139.551 11.084 138.562 11.084Z" fill="#5C5C5C"/>
</svg>
