<svg width="313" height="92" viewBox="0 0 313 92" fill="none" xmlns="http://www.w3.org/2000/svg">
<rect width="313" height="92" rx="24" fill="#FEE9CE"/>
<path d="M238 0H274.84C288.055 0 294.662 0 299.727 2.53093C304.377 4.85397 308.146 8.62339 310.469 13.2725C313 18.3377 313 24.9451 313 38.16V53.84C313 67.0549 313 73.6623 310.469 78.7275C308.146 83.3766 304.377 87.146 299.727 89.4691C294.662 92 288.055 92 274.84 92H238V0Z" fill="#FFDD83"/>
<rect x="26" y="14" width="64" height="64" rx="24" fill="#FEFEFF"/>
<path d="M109.32 40.16C107.773 40.16 106.568 39.728 105.704 38.864C104.84 37.9893 104.408 36.7413 104.408 35.12V28.8H106.488V35.04C106.488 37.2373 107.437 38.336 109.336 38.336C111.224 38.336 112.168 37.2373 112.168 35.04V28.8H114.216V35.12C114.216 36.7413 113.784 37.9893 112.92 38.864C112.067 39.728 110.867 40.16 109.32 40.16ZM117.129 28.8H119.209V40H117.129V28.8ZM125.534 26.528H127.326L122.046 41.6H120.254L125.534 26.528ZM132.992 40.16C131.445 40.16 130.24 39.728 129.376 38.864C128.512 37.9893 128.08 36.7413 128.08 35.12V28.8H130.16V35.04C130.16 37.2373 131.109 38.336 133.008 38.336C134.896 38.336 135.84 37.2373 135.84 35.04V28.8H137.888V35.12C137.888 36.7413 137.456 37.9893 136.592 38.864C135.739 39.728 134.539 40.16 132.992 40.16ZM147.701 40L144.661 35.744L141.653 40H139.285L143.445 34.288L139.509 28.8H141.861L144.725 32.784L147.557 28.8H149.813L145.893 34.208L150.101 40H147.701ZM156.16 28.8H161.056C162.251 28.8 163.312 29.0347 164.24 29.504C165.168 29.9627 165.888 30.6187 166.4 31.472C166.912 32.3147 167.168 33.2907 167.168 34.4C167.168 35.5093 166.912 36.4907 166.4 37.344C165.888 38.1867 165.168 38.8427 164.24 39.312C163.312 39.7707 162.251 40 161.056 40H156.16V28.8ZM160.96 38.24C161.782 38.24 162.502 38.0853 163.12 37.776C163.75 37.456 164.23 37.008 164.56 36.432C164.902 35.8453 165.072 35.168 165.072 34.4C165.072 33.632 164.902 32.96 164.56 32.384C164.23 31.7973 163.75 31.3493 163.12 31.04C162.502 30.72 161.782 30.56 160.96 30.56H158.24V38.24H160.96ZM177.219 35.776C177.219 35.9147 177.208 36.112 177.187 36.368H170.483C170.6 36.9973 170.904 37.4987 171.395 37.872C171.896 38.2347 172.515 38.416 173.251 38.416C174.19 38.416 174.963 38.1067 175.571 37.488L176.643 38.72C176.259 39.1787 175.774 39.5253 175.187 39.76C174.6 39.9947 173.939 40.112 173.203 40.112C172.264 40.112 171.438 39.9253 170.723 39.552C170.008 39.1787 169.454 38.6613 169.059 38C168.675 37.328 168.483 36.5707 168.483 35.728C168.483 34.896 168.67 34.1493 169.043 33.488C169.427 32.816 169.955 32.2933 170.627 31.92C171.299 31.5467 172.056 31.36 172.899 31.36C173.731 31.36 174.472 31.5467 175.123 31.92C175.784 32.2827 176.296 32.8 176.659 33.472C177.032 34.1333 177.219 34.9013 177.219 35.776ZM172.899 32.96C172.259 32.96 171.715 33.152 171.267 33.536C170.83 33.9093 170.563 34.4107 170.467 35.04H175.315C175.23 34.4213 174.968 33.92 174.531 33.536C174.094 33.152 173.55 32.96 172.899 32.96ZM181.78 40.112C181.087 40.112 180.409 40.0213 179.748 39.84C179.087 39.6587 178.559 39.4293 178.164 39.152L178.932 37.632C179.316 37.888 179.775 38.096 180.308 38.256C180.852 38.4053 181.385 38.48 181.908 38.48C183.103 38.48 183.7 38.1653 183.7 37.536C183.7 37.2373 183.545 37.0293 183.236 36.912C182.937 36.7947 182.452 36.6827 181.78 36.576C181.076 36.4693 180.5 36.3467 180.052 36.208C179.615 36.0693 179.231 35.8293 178.9 35.488C178.58 35.136 178.42 34.6507 178.42 34.032C178.42 33.2213 178.756 32.576 179.428 32.096C180.111 31.6053 181.028 31.36 182.18 31.36C182.767 31.36 183.353 31.4293 183.94 31.568C184.527 31.696 185.007 31.872 185.38 32.096L184.612 33.616C183.887 33.1893 183.071 32.976 182.164 32.976C181.577 32.976 181.129 33.0667 180.82 33.248C180.521 33.4187 180.372 33.648 180.372 33.936C180.372 34.256 180.532 34.4853 180.852 34.624C181.183 34.752 181.689 34.8747 182.372 34.992C183.055 35.0987 183.615 35.2213 184.052 35.36C184.489 35.4987 184.863 35.7333 185.172 36.064C185.492 36.3947 185.652 36.864 185.652 37.472C185.652 38.272 185.305 38.912 184.612 39.392C183.919 39.872 182.975 40.112 181.78 40.112ZM187.375 31.456H189.375V40H187.375V31.456ZM188.383 30.048C188.02 30.048 187.716 29.936 187.471 29.712C187.225 29.4773 187.103 29.1893 187.103 28.848C187.103 28.5067 187.225 28.224 187.471 28C187.716 27.7653 188.02 27.648 188.383 27.648C188.745 27.648 189.049 27.76 189.295 27.984C189.54 28.1973 189.663 28.4693 189.663 28.8C189.663 29.152 189.54 29.4507 189.295 29.696C189.06 29.9307 188.756 30.048 188.383 30.048ZM200.48 31.456V38.704C200.48 41.712 198.944 43.216 195.872 43.216C195.05 43.216 194.272 43.1093 193.536 42.896C192.8 42.6933 192.192 42.3947 191.712 42L192.608 40.496C192.981 40.8053 193.45 41.0507 194.016 41.232C194.592 41.424 195.173 41.52 195.76 41.52C196.698 41.52 197.386 41.3067 197.824 40.88C198.261 40.4533 198.48 39.8027 198.48 38.928V38.48C198.138 38.8533 197.722 39.136 197.232 39.328C196.741 39.52 196.202 39.616 195.616 39.616C194.805 39.616 194.069 39.4453 193.408 39.104C192.757 38.752 192.24 38.2613 191.856 37.632C191.482 37.0027 191.296 36.2827 191.296 35.472C191.296 34.6613 191.482 33.9467 191.856 33.328C192.24 32.6987 192.757 32.2133 193.408 31.872C194.069 31.5307 194.805 31.36 195.616 31.36C196.234 31.36 196.794 31.4613 197.296 31.664C197.808 31.8667 198.234 32.176 198.576 32.592V31.456H200.48ZM195.92 37.92C196.677 37.92 197.296 37.696 197.776 37.248C198.266 36.7893 198.512 36.1973 198.512 35.472C198.512 34.7573 198.266 34.176 197.776 33.728C197.296 33.28 196.677 33.056 195.92 33.056C195.152 33.056 194.522 33.28 194.032 33.728C193.552 34.176 193.312 34.7573 193.312 35.472C193.312 36.1973 193.552 36.7893 194.032 37.248C194.522 37.696 195.152 37.92 195.92 37.92ZM207.957 31.36C209.034 31.36 209.898 31.6747 210.549 32.304C211.2 32.9333 211.525 33.8667 211.525 35.104V40H209.525V35.36C209.525 34.6133 209.349 34.0533 208.997 33.68C208.645 33.296 208.144 33.104 207.493 33.104C206.757 33.104 206.176 33.328 205.749 33.776C205.322 34.2133 205.109 34.848 205.109 35.68V40H203.109V31.456H205.013V32.56C205.344 32.1653 205.76 31.8667 206.261 31.664C206.762 31.4613 207.328 31.36 207.957 31.36ZM222.172 35.776C222.172 35.9147 222.161 36.112 222.14 36.368H215.436C215.553 36.9973 215.857 37.4987 216.348 37.872C216.849 38.2347 217.468 38.416 218.204 38.416C219.143 38.416 219.916 38.1067 220.524 37.488L221.596 38.72C221.212 39.1787 220.727 39.5253 220.14 39.76C219.553 39.9947 218.892 40.112 218.156 40.112C217.217 40.112 216.391 39.9253 215.676 39.552C214.961 39.1787 214.407 38.6613 214.012 38C213.628 37.328 213.436 36.5707 213.436 35.728C213.436 34.896 213.623 34.1493 213.996 33.488C214.38 32.816 214.908 32.2933 215.58 31.92C216.252 31.5467 217.009 31.36 217.852 31.36C218.684 31.36 219.425 31.5467 220.076 31.92C220.737 32.2827 221.249 32.8 221.612 33.472C221.985 34.1333 222.172 34.9013 222.172 35.776ZM217.852 32.96C217.212 32.96 216.668 33.152 216.22 33.536C215.783 33.9093 215.516 34.4107 215.42 35.04H220.268C220.183 34.4213 219.921 33.92 219.484 33.536C219.047 33.152 218.503 32.96 217.852 32.96ZM225.997 32.704C226.573 31.808 227.587 31.36 229.037 31.36V33.264C228.867 33.232 228.712 33.216 228.573 33.216C227.795 33.216 227.187 33.4453 226.749 33.904C226.312 34.352 226.093 35.0027 226.093 35.856V40H224.093V31.456H225.997V32.704Z" fill="#393939"/>
<path d="M110.722 58.426C110.722 59.128 110.462 59.726 109.942 60.22C109.431 60.7053 108.685 61 107.706 61.104V62.56H106.64V61.117C105.999 61.0737 105.392 60.9567 104.82 60.766C104.248 60.5753 103.793 60.3327 103.455 60.038L104.04 58.725C104.361 58.985 104.751 59.206 105.21 59.388C105.669 59.5613 106.146 59.6697 106.64 59.713V57.113C106.025 56.9657 105.509 56.8053 105.093 56.632C104.686 56.45 104.343 56.19 104.066 55.852C103.789 55.5053 103.65 55.0503 103.65 54.487C103.65 53.785 103.906 53.187 104.417 52.693C104.928 52.199 105.669 51.9043 106.64 51.809V50.34H107.706V51.783C108.191 51.809 108.664 51.8913 109.123 52.03C109.591 52.1687 109.998 52.3507 110.345 52.576L109.812 53.889C109.153 53.5077 108.451 53.2737 107.706 53.187V55.813C108.33 55.9603 108.846 56.1207 109.253 56.294C109.669 56.4673 110.016 56.7273 110.293 57.074C110.579 57.412 110.722 57.8627 110.722 58.426ZM105.327 54.409C105.327 54.695 105.44 54.9247 105.665 55.098C105.89 55.2713 106.215 55.4187 106.64 55.54V53.226C106.198 53.2953 105.869 53.434 105.652 53.642C105.435 53.85 105.327 54.1057 105.327 54.409ZM107.706 59.687C108.165 59.6177 108.503 59.4833 108.72 59.284C108.945 59.0847 109.058 58.8377 109.058 58.543C109.058 58.2483 108.941 58.0143 108.707 57.841C108.473 57.659 108.139 57.5073 107.706 57.386V59.687ZM117.65 56.216C118.126 56.4327 118.49 56.7273 118.742 57.1C119.002 57.464 119.132 57.893 119.132 58.387C119.132 58.9417 118.976 59.427 118.664 59.843C118.36 60.259 117.927 60.5797 117.364 60.805C116.8 61.0217 116.146 61.13 115.401 61.13C114.655 61.13 114.001 61.0217 113.438 60.805C112.883 60.5797 112.454 60.259 112.151 59.843C111.847 59.427 111.696 58.9417 111.696 58.387C111.696 57.893 111.821 57.464 112.073 57.1C112.324 56.7273 112.684 56.4327 113.152 56.216C112.788 56.0167 112.506 55.7567 112.307 55.436C112.116 55.1067 112.021 54.7297 112.021 54.305C112.021 53.7937 112.159 53.3473 112.437 52.966C112.723 52.5847 113.121 52.29 113.633 52.082C114.144 51.874 114.733 51.77 115.401 51.77C116.077 51.77 116.67 51.874 117.182 52.082C117.693 52.29 118.092 52.5847 118.378 52.966C118.664 53.3473 118.807 53.7937 118.807 54.305C118.807 54.7297 118.707 55.1023 118.508 55.423C118.308 55.7437 118.022 56.008 117.65 56.216ZM115.401 53.096C114.872 53.096 114.452 53.2087 114.14 53.434C113.836 53.6593 113.685 53.9757 113.685 54.383C113.685 54.773 113.836 55.085 114.14 55.319C114.452 55.5443 114.872 55.657 115.401 55.657C115.938 55.657 116.363 55.5443 116.675 55.319C116.987 55.085 117.143 54.773 117.143 54.383C117.143 53.9757 116.982 53.6593 116.662 53.434C116.35 53.2087 115.929 53.096 115.401 53.096ZM115.401 59.804C116.025 59.804 116.519 59.674 116.883 59.414C117.247 59.154 117.429 58.7943 117.429 58.335C117.429 57.8843 117.247 57.529 116.883 57.269C116.519 57.009 116.025 56.879 115.401 56.879C114.777 56.879 114.287 57.009 113.932 57.269C113.576 57.529 113.399 57.8843 113.399 58.335C113.399 58.7943 113.576 59.154 113.932 59.414C114.287 59.674 114.777 59.804 115.401 59.804ZM123.556 58.023L122.347 59.167V61H120.722V51.354H122.347V57.178L125.714 54.058H127.664L124.765 56.97L127.937 61H125.961L123.556 58.023ZM132.229 56.71H135.804V58.062H132.229V56.71ZM147.83 58.426C147.83 59.128 147.57 59.726 147.05 60.22C146.539 60.7053 145.794 61 144.814 61.104V62.56H143.748V61.117C143.107 61.0737 142.5 60.9567 141.928 60.766C141.356 60.5753 140.901 60.3327 140.563 60.038L141.148 58.725C141.469 58.985 141.859 59.206 142.318 59.388C142.778 59.5613 143.254 59.6697 143.748 59.713V57.113C143.133 56.9657 142.617 56.8053 142.201 56.632C141.794 56.45 141.452 56.19 141.174 55.852C140.897 55.5053 140.758 55.0503 140.758 54.487C140.758 53.785 141.014 53.187 141.525 52.693C142.037 52.199 142.778 51.9043 143.748 51.809V50.34H144.814V51.783C145.3 51.809 145.772 51.8913 146.231 52.03C146.699 52.1687 147.107 52.3507 147.453 52.576L146.92 53.889C146.262 53.5077 145.56 53.2737 144.814 53.187V55.813C145.438 55.9603 145.954 56.1207 146.361 56.294C146.777 56.4673 147.124 56.7273 147.401 57.074C147.687 57.412 147.83 57.8627 147.83 58.426ZM142.435 54.409C142.435 54.695 142.548 54.9247 142.773 55.098C142.999 55.2713 143.324 55.4187 143.748 55.54V53.226C143.306 53.2953 142.977 53.434 142.76 53.642C142.544 53.85 142.435 54.1057 142.435 54.409ZM144.814 59.687C145.274 59.6177 145.612 59.4833 145.828 59.284C146.054 59.0847 146.166 58.8377 146.166 58.543C146.166 58.2483 146.049 58.0143 145.815 57.841C145.581 57.659 145.248 57.5073 144.814 57.386V59.687ZM152.99 55.384C153.588 55.384 154.126 55.501 154.602 55.735C155.079 55.9603 155.452 56.2853 155.72 56.71C155.989 57.1347 156.123 57.6243 156.123 58.179C156.123 58.7683 155.976 59.2883 155.681 59.739C155.387 60.181 154.988 60.5233 154.485 60.766C153.983 61.0087 153.419 61.13 152.795 61.13C151.547 61.13 150.577 60.74 149.883 59.96C149.199 59.18 148.856 58.062 148.856 56.606C148.856 55.5833 149.043 54.7123 149.415 53.993C149.788 53.265 150.308 52.7147 150.975 52.342C151.651 51.9607 152.431 51.77 153.315 51.77C153.783 51.77 154.221 51.822 154.628 51.926C155.044 52.0213 155.404 52.1643 155.707 52.355L155.083 53.629C154.633 53.3343 154.056 53.187 153.354 53.187C152.479 53.187 151.794 53.4557 151.3 53.993C150.806 54.5303 150.559 55.306 150.559 56.32V56.333C150.828 56.021 151.17 55.787 151.586 55.631C152.002 55.4663 152.47 55.384 152.99 55.384ZM152.704 59.804C153.233 59.804 153.662 59.6653 153.991 59.388C154.321 59.102 154.485 58.725 154.485 58.257C154.485 57.7803 154.321 57.4033 153.991 57.126C153.662 56.8487 153.22 56.71 152.665 56.71C152.119 56.71 151.673 56.8573 151.326 57.152C150.988 57.4467 150.819 57.8193 150.819 58.27C150.819 58.712 150.984 59.0803 151.313 59.375C151.651 59.661 152.115 59.804 152.704 59.804ZM160.335 58.023L159.126 59.167V61H157.501V51.354H159.126V57.178L162.493 54.058H164.443L161.544 56.97L164.716 61H162.74L160.335 58.023Z" fill="#606060"/>
<path d="M260.16 50.75H255.285L254.355 53H251.865L256.545 42.5H258.945L263.64 53H261.09L260.16 50.75ZM259.395 48.905L257.73 44.885L256.065 48.905H259.395ZM269.334 44.81C270.084 44.81 270.764 44.985 271.374 45.335C271.994 45.675 272.479 46.16 272.829 46.79C273.179 47.41 273.354 48.135 273.354 48.965C273.354 49.795 273.179 50.525 272.829 51.155C272.479 51.775 271.994 52.26 271.374 52.61C270.764 52.95 270.084 53.12 269.334 53.12C268.304 53.12 267.494 52.795 266.904 52.145V55.91H264.564V44.93H266.799V45.86C267.379 45.16 268.224 44.81 269.334 44.81ZM268.929 51.2C269.529 51.2 270.019 51 270.399 50.6C270.789 50.19 270.984 49.645 270.984 48.965C270.984 48.285 270.789 47.745 270.399 47.345C270.019 46.935 269.529 46.73 268.929 46.73C268.329 46.73 267.834 46.935 267.444 47.345C267.064 47.745 266.874 48.285 266.874 48.965C266.874 49.645 267.064 50.19 267.444 50.6C267.834 51 268.329 51.2 268.929 51.2ZM279.691 44.81C280.441 44.81 281.121 44.985 281.731 45.335C282.351 45.675 282.836 46.16 283.186 46.79C283.536 47.41 283.711 48.135 283.711 48.965C283.711 49.795 283.536 50.525 283.186 51.155C282.836 51.775 282.351 52.26 281.731 52.61C281.121 52.95 280.441 53.12 279.691 53.12C278.661 53.12 277.851 52.795 277.261 52.145V55.91H274.921V44.93H277.156V45.86C277.736 45.16 278.581 44.81 279.691 44.81ZM279.286 51.2C279.886 51.2 280.376 51 280.756 50.6C281.146 50.19 281.341 49.645 281.341 48.965C281.341 48.285 281.146 47.745 280.756 47.345C280.376 46.935 279.886 46.73 279.286 46.73C278.686 46.73 278.191 46.935 277.801 47.345C277.421 47.745 277.231 48.285 277.231 48.965C277.231 49.645 277.421 50.19 277.801 50.6C278.191 51 278.686 51.2 279.286 51.2ZM285.277 41.87H287.617V53H285.277V41.87ZM297.799 44.93L294.154 53.495C293.784 54.425 293.324 55.08 292.774 55.46C292.234 55.84 291.579 56.03 290.809 56.03C290.389 56.03 289.974 55.965 289.564 55.835C289.154 55.705 288.819 55.525 288.559 55.295L289.414 53.63C289.594 53.79 289.799 53.915 290.029 54.005C290.269 54.095 290.504 54.14 290.734 54.14C291.054 54.14 291.314 54.06 291.514 53.9C291.714 53.75 291.894 53.495 292.054 53.135L292.084 53.06L288.589 44.93H291.004L293.269 50.405L295.549 44.93H297.799Z" fill="#606060"/>
<path d="M58.3326 61.9025C62.739 61.9025 66.4382 60.4849 69.1402 58.0399L63.9902 54.1418C62.6121 55.0808 60.7624 55.7364 58.3326 55.7364C54.0168 55.7364 50.3538 52.9547 49.0481 49.1099L48.8567 49.1257L43.819 52.9352L43.7531 53.1141C46.4369 58.3233 51.9495 61.9025 58.3326 61.9025Z" fill="#34A853"/>
<path d="M74 46.3104C74 44.9993 73.8911 44.0425 73.6555 43.0503H58.3326V48.9681H67.3268C67.1455 50.4388 66.1663 52.6536 63.9902 54.1418L63.9597 54.34L68.8045 58.0072L69.1402 58.04C72.2228 55.2582 74 51.1652 74 46.3104Z" fill="#4285F4"/>
<path d="M49.0483 49.11C48.7038 48.1177 48.5044 47.0546 48.5044 45.9561C48.5044 44.8575 48.7038 43.7944 49.0302 42.8022L49.0211 42.5909L43.9202 38.7202L43.7534 38.7978C42.6473 40.9595 42.0126 43.3869 42.0126 45.9561C42.0126 48.5252 42.6473 50.9526 43.7534 53.1142L49.0483 49.11Z" fill="#FBBC05"/>
<path d="M58.3326 36.1755C61.3971 36.1755 63.4643 37.4689 64.643 38.5498L69.2489 34.1557C66.4202 31.5865 62.739 30.0096 58.3326 30.0096C51.9495 30.0096 46.4369 33.5887 43.7531 38.7978L49.03 42.8022C50.3538 38.9573 54.0168 36.1755 58.3326 36.1755Z" fill="#EB4335"/>
</svg>
