<svg width="313" height="92" viewBox="0 0 313 92" fill="none" xmlns="http://www.w3.org/2000/svg">
<rect width="313" height="92" rx="24" fill="#F5F5FF"/>
<rect x="21" y="14" width="64" height="64" rx="24" fill="#FEFEFF"/>
<path d="M117.152 34.272H119.12V38.736C118.544 39.1947 117.872 39.5467 117.104 39.792C116.336 40.0373 115.547 40.16 114.736 40.16C113.595 40.16 112.565 39.9147 111.648 39.424C110.731 38.9227 110.011 38.2347 109.488 37.36C108.965 36.4853 108.704 35.4987 108.704 34.4C108.704 33.3013 108.965 32.3147 109.488 31.44C110.011 30.5653 110.731 29.8827 111.648 29.392C112.576 28.8907 113.616 28.64 114.768 28.64C115.707 28.64 116.56 28.7947 117.328 29.104C118.096 29.4133 118.741 29.8667 119.264 30.464L117.952 31.744C117.099 30.8907 116.069 30.464 114.864 30.464C114.075 30.464 113.371 30.6293 112.752 30.96C112.144 31.2907 111.664 31.7547 111.312 32.352C110.971 32.9493 110.8 33.632 110.8 34.4C110.8 35.1467 110.971 35.8187 111.312 36.416C111.664 37.0133 112.144 37.4827 112.752 37.824C113.371 38.1653 114.069 38.336 114.848 38.336C115.723 38.336 116.491 38.144 117.152 37.76V34.272ZM123.575 32.704C124.151 31.808 125.165 31.36 126.615 31.36V33.264C126.445 33.232 126.29 33.216 126.151 33.216C125.373 33.216 124.765 33.4453 124.327 33.904C123.89 34.352 123.671 35.0027 123.671 35.856V40H121.671V31.456H123.575V32.704ZM131.529 31.36C132.788 31.36 133.748 31.664 134.409 32.272C135.081 32.8693 135.417 33.776 135.417 34.992V40H133.529V38.96C133.284 39.3333 132.932 39.6213 132.473 39.824C132.025 40.016 131.481 40.112 130.841 40.112C130.201 40.112 129.641 40.0053 129.161 39.792C128.681 39.568 128.308 39.264 128.041 38.88C127.785 38.4853 127.657 38.0427 127.657 37.552C127.657 36.784 127.94 36.1707 128.505 35.712C129.081 35.2427 129.982 35.008 131.209 35.008H133.417V34.88C133.417 34.2827 133.236 33.824 132.873 33.504C132.521 33.184 131.993 33.024 131.289 33.024C130.809 33.024 130.334 33.0987 129.865 33.248C129.406 33.3973 129.017 33.6053 128.697 33.872L127.913 32.416C128.361 32.0747 128.9 31.8133 129.529 31.632C130.158 31.4507 130.825 31.36 131.529 31.36ZM131.257 38.656C131.758 38.656 132.201 38.544 132.585 38.32C132.98 38.0853 133.257 37.7547 133.417 37.328V36.336H131.353C130.201 36.336 129.625 36.7147 129.625 37.472C129.625 37.8347 129.769 38.1227 130.057 38.336C130.345 38.5493 130.745 38.656 131.257 38.656ZM142.72 31.36C143.552 31.36 144.293 31.5413 144.944 31.904C145.605 32.2667 146.123 32.7787 146.496 33.44C146.869 34.1013 147.056 34.864 147.056 35.728C147.056 36.592 146.869 37.36 146.496 38.032C146.123 38.6933 145.605 39.2053 144.944 39.568C144.293 39.9307 143.552 40.112 142.72 40.112C141.568 40.112 140.656 39.728 139.984 38.96V43.104H137.984V31.456H139.888V32.576C140.219 32.1707 140.624 31.8667 141.104 31.664C141.595 31.4613 142.133 31.36 142.72 31.36ZM142.496 38.4C143.232 38.4 143.835 38.1547 144.304 37.664C144.784 37.1733 145.024 36.528 145.024 35.728C145.024 34.928 144.784 34.2827 144.304 33.792C143.835 33.3013 143.232 33.056 142.496 33.056C142.016 33.056 141.584 33.168 141.2 33.392C140.816 33.6053 140.512 33.9147 140.288 34.32C140.064 34.7253 139.952 35.1947 139.952 35.728C139.952 36.2613 140.064 36.7307 140.288 37.136C140.512 37.5413 140.816 37.856 141.2 38.08C141.584 38.2933 142.016 38.4 142.496 38.4ZM153.801 31.36C154.878 31.36 155.742 31.6747 156.393 32.304C157.043 32.9333 157.369 33.8667 157.369 35.104V40H155.369V35.36C155.369 34.6133 155.193 34.0533 154.841 33.68C154.489 33.296 153.987 33.104 153.337 33.104C152.601 33.104 152.019 33.328 151.593 33.776C151.166 34.2133 150.953 34.848 150.953 35.68V40H148.953V28.128H150.953V32.448C151.283 32.096 151.689 31.8293 152.169 31.648C152.659 31.456 153.203 31.36 153.801 31.36ZM159.906 31.456H161.906V40H159.906V31.456ZM160.914 30.048C160.551 30.048 160.247 29.936 160.002 29.712C159.756 29.4773 159.634 29.1893 159.634 28.848C159.634 28.5067 159.756 28.224 160.002 28C160.247 27.7653 160.551 27.648 160.914 27.648C161.276 27.648 161.58 27.76 161.826 27.984C162.071 28.1973 162.194 28.4693 162.194 28.8C162.194 29.152 162.071 29.4507 161.826 29.696C161.591 29.9307 161.287 30.048 160.914 30.048ZM168.451 40.112C167.565 40.112 166.771 39.9253 166.067 39.552C165.363 39.1787 164.813 38.6613 164.419 38C164.024 37.328 163.827 36.5707 163.827 35.728C163.827 34.8853 164.024 34.1333 164.419 33.472C164.813 32.8107 165.357 32.2933 166.051 31.92C166.755 31.5467 167.555 31.36 168.451 31.36C169.293 31.36 170.029 31.5307 170.659 31.872C171.299 32.2133 171.779 32.704 172.099 33.344L170.563 34.24C170.317 33.8453 170.008 33.552 169.635 33.36C169.272 33.1573 168.872 33.056 168.435 33.056C167.688 33.056 167.069 33.3013 166.579 33.792C166.088 34.272 165.843 34.9173 165.843 35.728C165.843 36.5387 166.083 37.1893 166.563 37.68C167.053 38.16 167.677 38.4 168.435 38.4C168.872 38.4 169.272 38.304 169.635 38.112C170.008 37.9093 170.317 37.6107 170.563 37.216L172.099 38.112C171.768 38.752 171.283 39.248 170.643 39.6C170.013 39.9413 169.283 40.112 168.451 40.112ZM178.442 28.8H183.338C184.532 28.8 185.594 29.0347 186.522 29.504C187.45 29.9627 188.17 30.6187 188.682 31.472C189.194 32.3147 189.45 33.2907 189.45 34.4C189.45 35.5093 189.194 36.4907 188.682 37.344C188.17 38.1867 187.45 38.8427 186.522 39.312C185.594 39.7707 184.532 40 183.338 40H178.442V28.8ZM183.242 38.24C184.063 38.24 184.783 38.0853 185.402 37.776C186.031 37.456 186.511 37.008 186.842 36.432C187.183 35.8453 187.354 35.168 187.354 34.4C187.354 33.632 187.183 32.96 186.842 32.384C186.511 31.7973 186.031 31.3493 185.402 31.04C184.783 30.72 184.063 30.56 183.242 30.56H180.522V38.24H183.242ZM199.5 35.776C199.5 35.9147 199.49 36.112 199.468 36.368H192.764C192.882 36.9973 193.186 37.4987 193.676 37.872C194.178 38.2347 194.796 38.416 195.532 38.416C196.471 38.416 197.244 38.1067 197.852 37.488L198.924 38.72C198.54 39.1787 198.055 39.5253 197.468 39.76C196.882 39.9947 196.22 40.112 195.484 40.112C194.546 40.112 193.719 39.9253 193.004 39.552C192.29 39.1787 191.735 38.6613 191.34 38C190.956 37.328 190.764 36.5707 190.764 35.728C190.764 34.896 190.951 34.1493 191.324 33.488C191.708 32.816 192.236 32.2933 192.908 31.92C193.58 31.5467 194.338 31.36 195.18 31.36C196.012 31.36 196.754 31.5467 197.404 31.92C198.066 32.2827 198.578 32.8 198.94 33.472C199.314 34.1333 199.5 34.9013 199.5 35.776ZM195.18 32.96C194.54 32.96 193.996 33.152 193.548 33.536C193.111 33.9093 192.844 34.4107 192.748 35.04H197.596C197.511 34.4213 197.25 33.92 196.812 33.536C196.375 33.152 195.831 32.96 195.18 32.96ZM204.061 40.112C203.368 40.112 202.691 40.0213 202.029 39.84C201.368 39.6587 200.84 39.4293 200.445 39.152L201.213 37.632C201.597 37.888 202.056 38.096 202.589 38.256C203.133 38.4053 203.667 38.48 204.189 38.48C205.384 38.48 205.981 38.1653 205.981 37.536C205.981 37.2373 205.827 37.0293 205.517 36.912C205.219 36.7947 204.733 36.6827 204.061 36.576C203.357 36.4693 202.781 36.3467 202.333 36.208C201.896 36.0693 201.512 35.8293 201.181 35.488C200.861 35.136 200.701 34.6507 200.701 34.032C200.701 33.2213 201.037 32.576 201.709 32.096C202.392 31.6053 203.309 31.36 204.461 31.36C205.048 31.36 205.635 31.4293 206.221 31.568C206.808 31.696 207.288 31.872 207.661 32.096L206.893 33.616C206.168 33.1893 205.352 32.976 204.445 32.976C203.859 32.976 203.411 33.0667 203.101 33.248C202.803 33.4187 202.653 33.648 202.653 33.936C202.653 34.256 202.813 34.4853 203.133 34.624C203.464 34.752 203.971 34.8747 204.653 34.992C205.336 35.0987 205.896 35.2213 206.333 35.36C206.771 35.4987 207.144 35.7333 207.453 36.064C207.773 36.3947 207.933 36.864 207.933 37.472C207.933 38.272 207.587 38.912 206.893 39.392C206.2 39.872 205.256 40.112 204.061 40.112ZM209.656 31.456H211.656V40H209.656V31.456ZM210.664 30.048C210.301 30.048 209.997 29.936 209.752 29.712C209.506 29.4773 209.384 29.1893 209.384 28.848C209.384 28.5067 209.506 28.224 209.752 28C209.997 27.7653 210.301 27.648 210.664 27.648C211.026 27.648 211.33 27.76 211.576 27.984C211.821 28.1973 211.944 28.4693 211.944 28.8C211.944 29.152 211.821 29.4507 211.576 29.696C211.341 29.9307 211.037 30.048 210.664 30.048ZM222.761 31.456V38.704C222.761 41.712 221.225 43.216 218.153 43.216C217.331 43.216 216.553 43.1093 215.817 42.896C215.081 42.6933 214.473 42.3947 213.993 42L214.889 40.496C215.262 40.8053 215.731 41.0507 216.297 41.232C216.873 41.424 217.454 41.52 218.041 41.52C218.979 41.52 219.667 41.3067 220.105 40.88C220.542 40.4533 220.761 39.8027 220.761 38.928V38.48C220.419 38.8533 220.003 39.136 219.513 39.328C219.022 39.52 218.483 39.616 217.897 39.616C217.086 39.616 216.35 39.4453 215.689 39.104C215.038 38.752 214.521 38.2613 214.137 37.632C213.763 37.0027 213.577 36.2827 213.577 35.472C213.577 34.6613 213.763 33.9467 214.137 33.328C214.521 32.6987 215.038 32.2133 215.689 31.872C216.35 31.5307 217.086 31.36 217.897 31.36C218.515 31.36 219.075 31.4613 219.577 31.664C220.089 31.8667 220.515 32.176 220.857 32.592V31.456H222.761ZM218.201 37.92C218.958 37.92 219.577 37.696 220.057 37.248C220.547 36.7893 220.793 36.1973 220.793 35.472C220.793 34.7573 220.547 34.176 220.057 33.728C219.577 33.28 218.958 33.056 218.201 33.056C217.433 33.056 216.803 33.28 216.313 33.728C215.833 34.176 215.593 34.7573 215.593 35.472C215.593 36.1973 215.833 36.7893 216.313 37.248C216.803 37.696 217.433 37.92 218.201 37.92ZM230.238 31.36C231.315 31.36 232.179 31.6747 232.83 32.304C233.481 32.9333 233.806 33.8667 233.806 35.104V40H231.806V35.36C231.806 34.6133 231.63 34.0533 231.278 33.68C230.926 33.296 230.425 33.104 229.774 33.104C229.038 33.104 228.457 33.328 228.03 33.776C227.603 34.2133 227.39 34.848 227.39 35.68V40H225.39V31.456H227.294V32.56C227.625 32.1653 228.041 31.8667 228.542 31.664C229.043 31.4613 229.609 31.36 230.238 31.36ZM244.453 35.776C244.453 35.9147 244.443 36.112 244.421 36.368H237.717C237.835 36.9973 238.139 37.4987 238.629 37.872C239.131 38.2347 239.749 38.416 240.485 38.416C241.424 38.416 242.197 38.1067 242.805 37.488L243.877 38.72C243.493 39.1787 243.008 39.5253 242.421 39.76C241.835 39.9947 241.173 40.112 240.437 40.112C239.499 40.112 238.672 39.9253 237.957 39.552C237.243 39.1787 236.688 38.6613 236.293 38C235.909 37.328 235.717 36.5707 235.717 35.728C235.717 34.896 235.904 34.1493 236.277 33.488C236.661 32.816 237.189 32.2933 237.861 31.92C238.533 31.5467 239.291 31.36 240.133 31.36C240.965 31.36 241.707 31.5467 242.357 31.92C243.019 32.2827 243.531 32.8 243.893 33.472C244.267 34.1333 244.453 34.9013 244.453 35.776ZM240.133 32.96C239.493 32.96 238.949 33.152 238.501 33.536C238.064 33.9093 237.797 34.4107 237.701 35.04H242.549C242.464 34.4213 242.203 33.92 241.765 33.536C241.328 33.152 240.784 32.96 240.133 32.96ZM248.279 32.704C248.855 31.808 249.868 31.36 251.319 31.36V33.264C251.148 33.232 250.993 33.216 250.855 33.216C250.076 33.216 249.468 33.4453 249.031 33.904C248.593 34.352 248.375 35.0027 248.375 35.856V40H246.375V31.456H248.279V32.704Z" fill="#393939"/>
<path d="M115.722 58.426C115.722 59.128 115.462 59.726 114.942 60.22C114.431 60.7053 113.685 61 112.706 61.104V62.56H111.64V61.117C110.999 61.0737 110.392 60.9567 109.82 60.766C109.248 60.5753 108.793 60.3327 108.455 60.038L109.04 58.725C109.361 58.985 109.751 59.206 110.21 59.388C110.669 59.5613 111.146 59.6697 111.64 59.713V57.113C111.025 56.9657 110.509 56.8053 110.093 56.632C109.686 56.45 109.343 56.19 109.066 55.852C108.789 55.5053 108.65 55.0503 108.65 54.487C108.65 53.785 108.906 53.187 109.417 52.693C109.928 52.199 110.669 51.9043 111.64 51.809V50.34H112.706V51.783C113.191 51.809 113.664 51.8913 114.123 52.03C114.591 52.1687 114.998 52.3507 115.345 52.576L114.812 53.889C114.153 53.5077 113.451 53.2737 112.706 53.187V55.813C113.33 55.9603 113.846 56.1207 114.253 56.294C114.669 56.4673 115.016 56.7273 115.293 57.074C115.579 57.412 115.722 57.8627 115.722 58.426ZM110.327 54.409C110.327 54.695 110.44 54.9247 110.665 55.098C110.89 55.2713 111.215 55.4187 111.64 55.54V53.226C111.198 53.2953 110.869 53.434 110.652 53.642C110.435 53.85 110.327 54.1057 110.327 54.409ZM112.706 59.687C113.165 59.6177 113.503 59.4833 113.72 59.284C113.945 59.0847 114.058 58.8377 114.058 58.543C114.058 58.2483 113.941 58.0143 113.707 57.841C113.473 57.659 113.139 57.5073 112.706 57.386V59.687ZM120.882 55.384C121.48 55.384 122.017 55.501 122.494 55.735C122.97 55.9603 123.343 56.2853 123.612 56.71C123.88 57.1347 124.015 57.6243 124.015 58.179C124.015 58.7683 123.867 59.2883 123.573 59.739C123.278 60.181 122.879 60.5233 122.377 60.766C121.874 61.0087 121.311 61.13 120.687 61.13C119.439 61.13 118.468 60.74 117.775 59.96C117.09 59.18 116.748 58.062 116.748 56.606C116.748 55.5833 116.934 54.7123 117.307 53.993C117.679 53.265 118.199 52.7147 118.867 52.342C119.543 51.9607 120.323 51.77 121.207 51.77C121.675 51.77 122.112 51.822 122.52 51.926C122.936 52.0213 123.295 52.1643 123.599 52.355L122.975 53.629C122.524 53.3343 121.948 53.187 121.246 53.187C120.37 53.187 119.686 53.4557 119.192 53.993C118.698 54.5303 118.451 55.306 118.451 56.32V56.333C118.719 56.021 119.062 55.787 119.478 55.631C119.894 55.4663 120.362 55.384 120.882 55.384ZM120.596 59.804C121.124 59.804 121.553 59.6653 121.883 59.388C122.212 59.102 122.377 58.725 122.377 58.257C122.377 57.7803 122.212 57.4033 121.883 57.126C121.553 56.8487 121.111 56.71 120.557 56.71C120.011 56.71 119.564 56.8573 119.218 57.152C118.88 57.4467 118.711 57.8193 118.711 58.27C118.711 58.712 118.875 59.0803 119.205 59.375C119.543 59.661 120.006 59.804 120.596 59.804ZM128.226 58.023L127.017 59.167V61H125.392V51.354H127.017V57.178L130.384 54.058H132.334L129.435 56.97L132.607 61H130.631L128.226 58.023ZM136.899 56.71H140.474V58.062H136.899V56.71ZM152.5 58.426C152.5 59.128 152.24 59.726 151.72 60.22C151.209 60.7053 150.464 61 149.484 61.104V62.56H148.418V61.117C147.777 61.0737 147.17 60.9567 146.598 60.766C146.026 60.5753 145.571 60.3327 145.233 60.038L145.818 58.725C146.139 58.985 146.529 59.206 146.988 59.388C147.448 59.5613 147.924 59.6697 148.418 59.713V57.113C147.803 56.9657 147.287 56.8053 146.871 56.632C146.464 56.45 146.122 56.19 145.844 55.852C145.567 55.5053 145.428 55.0503 145.428 54.487C145.428 53.785 145.684 53.187 146.195 52.693C146.707 52.199 147.448 51.9043 148.418 51.809V50.34H149.484V51.783C149.97 51.809 150.442 51.8913 150.901 52.03C151.369 52.1687 151.777 52.3507 152.123 52.576L151.59 53.889C150.932 53.5077 150.23 53.2737 149.484 53.187V55.813C150.108 55.9603 150.624 56.1207 151.031 56.294C151.447 56.4673 151.794 56.7273 152.071 57.074C152.357 57.412 152.5 57.8627 152.5 58.426ZM147.105 54.409C147.105 54.695 147.218 54.9247 147.443 55.098C147.669 55.2713 147.994 55.4187 148.418 55.54V53.226C147.976 53.2953 147.647 53.434 147.43 53.642C147.214 53.85 147.105 54.1057 147.105 54.409ZM149.484 59.687C149.944 59.6177 150.282 59.4833 150.498 59.284C150.724 59.0847 150.836 58.8377 150.836 58.543C150.836 58.2483 150.719 58.0143 150.485 57.841C150.251 57.659 149.918 57.5073 149.484 57.386V59.687ZM161.765 58.933H160.153V61H158.515V58.933H153.523V57.763L158.008 51.9H159.815L155.59 57.503H158.567V55.67H160.153V57.503H161.765V58.933ZM165.804 58.023L164.595 59.167V61H162.97V51.354H164.595V57.178L167.962 54.058H169.912L167.013 56.97L170.185 61H168.209L165.804 58.023Z" fill="#606060"/>
</svg>
