<svg width="46" height="46" viewBox="0 0 46 46" fill="none" xmlns="http://www.w3.org/2000/svg">
<path fill-rule="evenodd" clip-rule="evenodd" d="M4.05884 13.4167C4.05884 14.4708 4.92134 15.3333 5.9755 15.3333H37.9951C39.0493 15.3333 39.9118 14.4708 39.9118 13.4167C39.9118 12.3625 39.0493 11.5 37.9951 11.5H5.9755C4.92134 11.5 4.05884 12.3625 4.05884 13.4167ZM18.152 34.5H25.8186C26.8728 34.5 27.7353 33.6375 27.7353 32.5833C27.7353 31.5292 26.8728 30.6667 25.8186 30.6667H18.152C17.0978 30.6667 16.2353 31.5292 16.2353 32.5833C16.2353 33.6375 17.0978 34.5 18.152 34.5ZM31.9069 24.9167H12.7402C11.686 24.9167 10.8235 24.0542 10.8235 23C10.8235 21.9458 11.686 21.0833 12.7402 21.0833H31.9069C32.961 21.0833 33.8235 21.9458 33.8235 23C33.8235 24.0542 32.961 24.9167 31.9069 24.9167Z" fill="white"/>
</svg>
