<svg width="302" height="150" viewBox="0 0 302 150" fill="none" xmlns="http://www.w3.org/2000/svg">
<path d="M21.07 56.66C14.69 56.66 9.718 54.878 6.154 51.314C2.59 47.706 0.808 42.558 0.808 35.87V9.8H9.388V35.54C9.388 44.604 13.304 49.136 21.136 49.136C28.924 49.136 32.818 44.604 32.818 35.54V9.8H41.266V35.87C41.266 42.558 39.484 47.706 35.92 51.314C32.4 54.878 27.45 56.66 21.07 56.66ZM53.2821 9.8H61.8621V56H53.2821V9.8ZM87.9543 0.427996H95.3463L73.5663 62.6H66.1743L87.9543 0.427996ZM118.716 56.66C112.336 56.66 107.364 54.878 103.8 51.314C100.236 47.706 98.4545 42.558 98.4545 35.87V9.8H107.034V35.54C107.034 44.604 110.95 49.136 118.782 49.136C126.57 49.136 130.464 44.604 130.464 35.54V9.8H138.912V35.87C138.912 42.558 137.13 47.706 133.566 51.314C130.046 54.878 125.096 56.66 118.716 56.66ZM179.39 56L166.85 38.444L154.442 56H144.674L161.834 32.438L145.598 9.8H155.3L167.114 26.234L178.796 9.8H188.102L171.932 32.108L189.29 56H179.39ZM1.204 89.8H21.4C26.328 89.8 30.706 90.768 34.534 92.704C38.362 94.596 41.332 97.302 43.444 100.822C45.556 104.298 46.612 108.324 46.612 112.9C46.612 117.476 45.556 121.524 43.444 125.044C41.332 128.52 38.362 131.226 34.534 133.162C30.706 135.054 26.328 136 21.4 136H1.204V89.8ZM21.004 128.74C24.392 128.74 27.362 128.102 29.914 126.826C32.51 125.506 34.49 123.658 35.854 121.282C37.262 118.862 37.966 116.068 37.966 112.9C37.966 109.732 37.262 106.96 35.854 104.584C34.49 102.164 32.51 100.316 29.914 99.04C27.362 97.72 24.392 97.06 21.004 97.06H9.784V128.74H21.004ZM88.0713 118.576C88.0713 119.148 88.0273 119.962 87.9393 121.018H60.2853C60.7693 123.614 62.0233 125.682 64.0473 127.222C66.1153 128.718 68.6673 129.466 71.7033 129.466C75.5753 129.466 78.7653 128.19 81.2733 125.638L85.6953 130.72C84.1113 132.612 82.1093 134.042 79.6893 135.01C77.2693 135.978 74.5413 136.462 71.5053 136.462C67.6333 136.462 64.2233 135.692 61.2753 134.152C58.3273 132.612 56.0393 130.478 54.4113 127.75C52.8273 124.978 52.0353 121.854 52.0353 118.378C52.0353 114.946 52.8053 111.866 54.3453 109.138C55.9293 106.366 58.1073 104.21 60.8793 102.67C63.6513 101.13 66.7753 100.36 70.2513 100.36C73.6833 100.36 76.7413 101.13 79.4253 102.67C82.1533 104.166 84.2653 106.3 85.7613 109.072C87.3013 111.8 88.0713 114.968 88.0713 118.576ZM70.2513 106.96C67.6113 106.96 65.3673 107.752 63.5193 109.336C61.7153 110.876 60.6153 112.944 60.2193 115.54H80.2173C79.8653 112.988 78.7873 110.92 76.9833 109.336C75.1793 107.752 72.9353 106.96 70.2513 106.96ZM106.886 136.462C104.026 136.462 101.232 136.088 98.504 135.34C95.776 134.592 93.598 133.646 91.97 132.502L95.138 126.232C96.722 127.288 98.614 128.146 100.814 128.806C103.058 129.422 105.258 129.73 107.414 129.73C112.342 129.73 114.806 128.432 114.806 125.836C114.806 124.604 114.168 123.746 112.892 123.262C111.66 122.778 109.658 122.316 106.886 121.876C103.982 121.436 101.606 120.93 99.758 120.358C97.954 119.786 96.37 118.796 95.006 117.388C93.686 115.936 93.026 113.934 93.026 111.382C93.026 108.038 94.412 105.376 97.184 103.396C100 101.372 103.784 100.36 108.536 100.36C110.956 100.36 113.376 100.646 115.796 101.218C118.216 101.746 120.196 102.472 121.736 103.396L118.568 109.666C115.576 107.906 112.21 107.026 108.47 107.026C106.05 107.026 104.202 107.4 102.926 108.148C101.694 108.852 101.078 109.798 101.078 110.986C101.078 112.306 101.738 113.252 103.058 113.824C104.422 114.352 106.512 114.858 109.328 115.342C112.144 115.782 114.454 116.288 116.258 116.86C118.062 117.432 119.602 118.4 120.878 119.764C122.198 121.128 122.858 123.064 122.858 125.572C122.858 128.872 121.428 131.512 118.568 133.492C115.708 135.472 111.814 136.462 106.886 136.462ZM129.963 100.756H138.213V136H129.963V100.756ZM134.121 94.948C132.625 94.948 131.371 94.486 130.359 93.562C129.347 92.594 128.841 91.406 128.841 89.998C128.841 88.59 129.347 87.424 130.359 86.5C131.371 85.532 132.625 85.048 134.121 85.048C135.617 85.048 136.871 85.51 137.883 86.434C138.895 87.314 139.401 88.436 139.401 89.8C139.401 91.252 138.895 92.484 137.883 93.496C136.915 94.464 135.661 94.948 134.121 94.948ZM184.021 100.756V130.654C184.021 143.062 177.685 149.266 165.013 149.266C161.625 149.266 158.413 148.826 155.377 147.946C152.341 147.11 149.833 145.878 147.853 144.25L151.549 138.046C153.089 139.322 155.025 140.334 157.357 141.082C159.733 141.874 162.131 142.27 164.551 142.27C168.423 142.27 171.261 141.39 173.065 139.63C174.869 137.87 175.771 135.186 175.771 131.578V129.73C174.363 131.27 172.647 132.436 170.623 133.228C168.599 134.02 166.377 134.416 163.957 134.416C160.613 134.416 157.577 133.712 154.849 132.304C152.165 130.852 150.031 128.828 148.447 126.232C146.907 123.636 146.137 120.666 146.137 117.322C146.137 113.978 146.907 111.03 148.447 108.478C150.031 105.882 152.165 103.88 154.849 102.472C157.577 101.064 160.613 100.36 163.957 100.36C166.509 100.36 168.819 100.778 170.887 101.614C172.999 102.45 174.759 103.726 176.167 105.442V100.756H184.021ZM165.211 127.42C168.335 127.42 170.887 126.496 172.867 124.648C174.891 122.756 175.903 120.314 175.903 117.322C175.903 114.374 174.891 111.976 172.867 110.128C170.887 108.28 168.335 107.356 165.211 107.356C162.043 107.356 159.447 108.28 157.423 110.128C155.443 111.976 154.453 114.374 154.453 117.322C154.453 120.314 155.443 122.756 157.423 124.648C159.447 126.496 162.043 127.42 165.211 127.42ZM214.865 100.36C219.309 100.36 222.873 101.658 225.557 104.254C228.241 106.85 229.583 110.7 229.583 115.804V136H221.333V116.86C221.333 113.78 220.607 111.47 219.155 109.93C217.703 108.346 215.635 107.554 212.951 107.554C209.915 107.554 207.517 108.478 205.757 110.326C203.997 112.13 203.117 114.748 203.117 118.18V136H194.867V100.756H202.721V105.31C204.085 103.682 205.801 102.45 207.869 101.614C209.937 100.778 212.269 100.36 214.865 100.36ZM273.503 118.576C273.503 119.148 273.459 119.962 273.371 121.018H245.717C246.201 123.614 247.455 125.682 249.479 127.222C251.547 128.718 254.099 129.466 257.135 129.466C261.007 129.466 264.197 128.19 266.705 125.638L271.127 130.72C269.543 132.612 267.541 134.042 265.121 135.01C262.701 135.978 259.973 136.462 256.937 136.462C253.065 136.462 249.655 135.692 246.707 134.152C243.759 132.612 241.471 130.478 239.843 127.75C238.259 124.978 237.467 121.854 237.467 118.378C237.467 114.946 238.237 111.866 239.777 109.138C241.361 106.366 243.539 104.21 246.311 102.67C249.083 101.13 252.207 100.36 255.683 100.36C259.115 100.36 262.173 101.13 264.857 102.67C267.585 104.166 269.697 106.3 271.193 109.072C272.733 111.8 273.503 114.968 273.503 118.576ZM255.683 106.96C253.043 106.96 250.799 107.752 248.951 109.336C247.147 110.876 246.047 112.944 245.651 115.54H265.649C265.297 112.988 264.219 110.92 262.415 109.336C260.611 107.752 258.367 106.96 255.683 106.96ZM289.282 105.904C291.658 102.208 295.838 100.36 301.822 100.36V108.214C301.118 108.082 300.48 108.016 299.908 108.016C296.696 108.016 294.188 108.962 292.384 110.854C290.58 112.702 289.678 115.386 289.678 118.906V136H281.428V100.756H289.282V105.904Z" fill="#2E2E2E"/>
</svg>
