<svg width="126" height="18" viewBox="0 0 126 18" fill="none" xmlns="http://www.w3.org/2000/svg">
<path d="M5.57 14.16C4.02333 14.16 2.818 13.728 1.954 12.864C1.09 11.9893 0.658 10.7413 0.658 9.12V2.8H2.738V9.04C2.738 11.2373 3.68733 12.336 5.586 12.336C7.474 12.336 8.418 11.2373 8.418 9.04V2.8H10.466V9.12C10.466 10.7413 10.034 11.9893 9.17 12.864C8.31667 13.728 7.11667 14.16 5.57 14.16ZM13.379 2.8H15.459V14H13.379V2.8ZM21.7844 0.527999H23.5764L18.2964 15.6H16.5044L21.7844 0.527999ZM29.2419 14.16C27.6952 14.16 26.4899 13.728 25.6259 12.864C24.7619 11.9893 24.3299 10.7413 24.3299 9.12V2.8H26.4099V9.04C26.4099 11.2373 27.3592 12.336 29.2579 12.336C31.1459 12.336 32.0899 11.2373 32.0899 9.04V2.8H34.1379V9.12C34.1379 10.7413 33.7059 11.9893 32.8419 12.864C31.9885 13.728 30.7885 14.16 29.2419 14.16ZM43.9506 14L40.9106 9.744L37.9026 14H35.5346L39.6946 8.288L35.7586 2.8H38.1106L40.9746 6.784L43.8066 2.8H46.0626L42.1426 8.208L46.3506 14H43.9506ZM52.4103 2.8H57.3063C58.5009 2.8 59.5623 3.03467 60.4903 3.504C61.4183 3.96267 62.1383 4.61867 62.6503 5.472C63.1623 6.31467 63.4183 7.29067 63.4183 8.4C63.4183 9.50933 63.1623 10.4907 62.6503 11.344C62.1383 12.1867 61.4183 12.8427 60.4903 13.312C59.5623 13.7707 58.5009 14 57.3063 14H52.4103V2.8ZM57.2103 12.24C58.0316 12.24 58.7516 12.0853 59.3703 11.776C59.9996 11.456 60.4796 11.008 60.8103 10.432C61.1516 9.84533 61.3223 9.168 61.3223 8.4C61.3223 7.632 61.1516 6.96 60.8103 6.384C60.4796 5.79733 59.9996 5.34933 59.3703 5.04C58.7516 4.72 58.0316 4.56 57.2103 4.56H54.4903V12.24H57.2103ZM73.469 9.776C73.469 9.91467 73.4583 10.112 73.437 10.368H66.733C66.8503 10.9973 67.1543 11.4987 67.645 11.872C68.1463 12.2347 68.765 12.416 69.501 12.416C70.4397 12.416 71.213 12.1067 71.821 11.488L72.893 12.72C72.509 13.1787 72.0237 13.5253 71.437 13.76C70.8503 13.9947 70.189 14.112 69.453 14.112C68.5143 14.112 67.6877 13.9253 66.973 13.552C66.2583 13.1787 65.7037 12.6613 65.309 12C64.925 11.328 64.733 10.5707 64.733 9.728C64.733 8.896 64.9197 8.14933 65.293 7.488C65.677 6.816 66.205 6.29333 66.877 5.92C67.549 5.54667 68.3063 5.36 69.149 5.36C69.981 5.36 70.7223 5.54667 71.373 5.92C72.0343 6.28267 72.5463 6.8 72.909 7.472C73.2823 8.13333 73.469 8.90133 73.469 9.776ZM69.149 6.96C68.509 6.96 67.965 7.152 67.517 7.536C67.0797 7.90933 66.813 8.41067 66.717 9.04H71.565C71.4797 8.42133 71.2183 7.92 70.781 7.536C70.3437 7.152 69.7997 6.96 69.149 6.96ZM78.0301 14.112C77.3368 14.112 76.6595 14.0213 75.9981 13.84C75.3368 13.6587 74.8088 13.4293 74.4141 13.152L75.1821 11.632C75.5661 11.888 76.0248 12.096 76.5581 12.256C77.1021 12.4053 77.6355 12.48 78.1581 12.48C79.3528 12.48 79.9501 12.1653 79.9501 11.536C79.9501 11.2373 79.7955 11.0293 79.4861 10.912C79.1875 10.7947 78.7021 10.6827 78.0301 10.576C77.3261 10.4693 76.7501 10.3467 76.3021 10.208C75.8648 10.0693 75.4808 9.82933 75.1501 9.488C74.8301 9.136 74.6701 8.65067 74.6701 8.032C74.6701 7.22133 75.0061 6.576 75.6781 6.096C76.3608 5.60533 77.2781 5.36 78.4301 5.36C79.0168 5.36 79.6035 5.42933 80.1901 5.568C80.7768 5.696 81.2568 5.872 81.6301 6.096L80.8621 7.616C80.1368 7.18933 79.3208 6.976 78.4141 6.976C77.8275 6.976 77.3795 7.06667 77.0701 7.248C76.7715 7.41867 76.6221 7.648 76.6221 7.936C76.6221 8.256 76.7821 8.48533 77.1021 8.624C77.4328 8.752 77.9395 8.87467 78.6221 8.992C79.3048 9.09867 79.8648 9.22133 80.3021 9.36C80.7395 9.49867 81.1128 9.73333 81.4221 10.064C81.7421 10.3947 81.9021 10.864 81.9021 11.472C81.9021 12.272 81.5555 12.912 80.8621 13.392C80.1688 13.872 79.2248 14.112 78.0301 14.112ZM83.6245 5.456H85.6245V14H83.6245V5.456ZM84.6325 4.048C84.2698 4.048 83.9658 3.936 83.7205 3.712C83.4752 3.47733 83.3525 3.18933 83.3525 2.848C83.3525 2.50667 83.4752 2.224 83.7205 2C83.9658 1.76533 84.2698 1.648 84.6325 1.648C84.9952 1.648 85.2992 1.76 85.5445 1.984C85.7898 2.19733 85.9125 2.46933 85.9125 2.8C85.9125 3.152 85.7898 3.45067 85.5445 3.696C85.3098 3.93067 85.0058 4.048 84.6325 4.048ZM96.7295 5.456V12.704C96.7295 15.712 95.1935 17.216 92.1215 17.216C91.3002 17.216 90.5215 17.1093 89.7855 16.896C89.0495 16.6933 88.4415 16.3947 87.9615 16L88.8575 14.496C89.2308 14.8053 89.7002 15.0507 90.2655 15.232C90.8415 15.424 91.4228 15.52 92.0095 15.52C92.9482 15.52 93.6362 15.3067 94.0735 14.88C94.5108 14.4533 94.7295 13.8027 94.7295 12.928V12.48C94.3882 12.8533 93.9722 13.136 93.4815 13.328C92.9908 13.52 92.4522 13.616 91.8655 13.616C91.0548 13.616 90.3188 13.4453 89.6575 13.104C89.0068 12.752 88.4895 12.2613 88.1055 11.632C87.7322 11.0027 87.5455 10.2827 87.5455 9.472C87.5455 8.66133 87.7322 7.94667 88.1055 7.328C88.4895 6.69867 89.0068 6.21333 89.6575 5.872C90.3188 5.53067 91.0548 5.36 91.8655 5.36C92.4842 5.36 93.0442 5.46133 93.5455 5.664C94.0575 5.86667 94.4842 6.176 94.8255 6.592V5.456H96.7295ZM92.1695 11.92C92.9268 11.92 93.5455 11.696 94.0255 11.248C94.5162 10.7893 94.7615 10.1973 94.7615 9.472C94.7615 8.75733 94.5162 8.176 94.0255 7.728C93.5455 7.28 92.9268 7.056 92.1695 7.056C91.4015 7.056 90.7722 7.28 90.2815 7.728C89.8015 8.176 89.5615 8.75733 89.5615 9.472C89.5615 10.1973 89.8015 10.7893 90.2815 11.248C90.7722 11.696 91.4015 11.92 92.1695 11.92ZM104.207 5.36C105.284 5.36 106.148 5.67467 106.799 6.304C107.45 6.93333 107.775 7.86667 107.775 9.104V14H105.775V9.36C105.775 8.61333 105.599 8.05333 105.247 7.68C104.895 7.296 104.394 7.104 103.743 7.104C103.007 7.104 102.426 7.328 101.999 7.776C101.572 8.21333 101.359 8.848 101.359 9.68V14H99.3589V5.456H101.263V6.56C101.594 6.16533 102.01 5.86667 102.511 5.664C103.012 5.46133 103.578 5.36 104.207 5.36ZM118.422 9.776C118.422 9.91467 118.411 10.112 118.39 10.368H111.686C111.803 10.9973 112.107 11.4987 112.598 11.872C113.099 12.2347 113.718 12.416 114.454 12.416C115.393 12.416 116.166 12.1067 116.774 11.488L117.846 12.72C117.462 13.1787 116.977 13.5253 116.39 13.76C115.803 13.9947 115.142 14.112 114.406 14.112C113.467 14.112 112.641 13.9253 111.926 13.552C111.211 13.1787 110.657 12.6613 110.262 12C109.878 11.328 109.686 10.5707 109.686 9.728C109.686 8.896 109.873 8.14933 110.246 7.488C110.63 6.816 111.158 6.29333 111.83 5.92C112.502 5.54667 113.259 5.36 114.102 5.36C114.934 5.36 115.675 5.54667 116.326 5.92C116.987 6.28267 117.499 6.8 117.862 7.472C118.235 8.13333 118.422 8.90133 118.422 9.776ZM114.102 6.96C113.462 6.96 112.918 7.152 112.47 7.536C112.033 7.90933 111.766 8.41067 111.67 9.04H116.518C116.433 8.42133 116.171 7.92 115.734 7.536C115.297 7.152 114.753 6.96 114.102 6.96ZM122.247 6.704C122.823 5.808 123.837 5.36 125.287 5.36V7.264C125.117 7.232 124.962 7.216 124.823 7.216C124.045 7.216 123.437 7.44533 122.999 7.904C122.562 8.352 122.343 9.00267 122.343 9.856V14H120.343V5.456H122.247V6.704Z" fill="#393939"/>
</svg>
