<svg width="34" height="34" viewBox="0 0 34 34" fill="none" xmlns="http://www.w3.org/2000/svg">
<path d="M9.94875 19.7725C15.3743 19.7725 19.7725 15.3743 19.7725 9.94875C19.7725 4.52324 15.3743 0.125 9.94875 0.125C4.52324 0.125 0.125 4.52324 0.125 9.94875C0.125 15.3743 4.52324 19.7725 9.94875 19.7725Z" fill="#28A8EA"/>
<path d="M24.1762 34C29.6017 34 34 29.6018 34 24.1763C34 18.7507 29.6017 14.3525 24.1762 14.3525C18.7507 14.3525 14.3525 18.7507 14.3525 24.1763C14.3525 29.6018 18.7507 34 24.1762 34Z" fill="#28A8EA"/>
<path d="M17.0625 33.3225C26.0426 33.3225 33.3225 26.0427 33.3225 17.0625C33.3225 8.08235 26.0426 0.802502 17.0625 0.802502C8.08234 0.802502 0.80249 8.08235 0.80249 17.0625C0.80249 26.0427 8.08234 33.3225 17.0625 33.3225Z" fill="#28A8EA"/>
<path fill-rule="evenodd" clip-rule="evenodd" d="M12.8457 16.7538C12.21 16.335 11.6797 15.7751 11.2961 15.1176C10.9254 14.4234 10.7425 13.6444 10.7653 12.8578C10.737 11.8595 11.0777 10.8857 11.7221 10.1226C12.3916 9.35637 13.2522 8.78115 14.2163 8.45554C15.265 8.0852 16.37 7.89928 17.4822 7.90604C18.21 7.89914 18.9371 7.95491 19.6554 8.07274C20.1692 8.15216 20.6738 8.28247 21.1618 8.46173C21.6101 8.61356 22.0148 8.87205 22.3411 9.21495C22.5816 9.49699 22.7111 9.85698 22.7053 10.2276C22.714 10.4201 22.6846 10.6124 22.619 10.7936C22.5533 10.9747 22.4526 11.1412 22.3225 11.2834C22.1994 11.4145 22.0499 11.518 21.8839 11.5872C21.7179 11.6563 21.5392 11.6896 21.3594 11.6848C21.112 11.6829 20.8678 11.6282 20.6433 11.5241C20.0905 11.2767 19.5211 11.0684 18.9392 10.9006C18.4034 10.7595 17.8511 10.6909 17.2971 10.6969C16.5755 10.6701 15.8616 10.8523 15.2411 11.2216C14.979 11.3808 14.7646 11.6075 14.6201 11.8779C14.4757 12.1484 14.4066 12.4527 14.42 12.759C14.4162 13.1609 14.5689 13.5484 14.846 13.8395C15.1754 14.1811 15.5646 14.4594 15.9944 14.6607C16.476 14.8995 17.1942 15.2165 18.149 15.6115C18.2548 15.645 18.358 15.6863 18.4577 15.7351C19.3895 16.1035 20.2828 16.5626 21.1248 17.1057C21.7899 17.5394 22.3508 18.1151 22.767 18.7913C23.1767 19.5017 23.3818 20.3115 23.3597 21.1313C23.3941 22.1354 23.1064 23.1241 22.5385 23.9529C21.9604 24.7376 21.1605 25.3311 20.242 25.6571C19.1352 26.0523 17.9657 26.2427 16.7908 26.2189C15.1761 26.2758 13.569 25.972 12.0864 25.3298C11.707 25.1611 11.3744 24.9026 11.1171 24.5766C10.9039 24.2781 10.7934 23.9184 10.8022 23.5516C10.7916 23.3581 10.8231 23.1646 10.8945 22.9845C10.9659 22.8043 11.0755 22.6418 11.2158 22.5082C11.5103 22.2502 11.8927 22.1154 12.2839 22.1316C12.7192 22.1376 13.1468 22.2476 13.5309 22.4526C14.0082 22.6915 14.3849 22.8706 14.6608 22.9899C14.976 23.1219 15.3025 23.2252 15.6363 23.2985C16.0478 23.3889 16.4682 23.4324 16.8894 23.4281C17.6343 23.4811 18.3754 23.2834 18.9948 22.8663C19.2267 22.6849 19.4121 22.4508 19.5356 22.1834C19.659 21.9161 19.717 21.6232 19.7047 21.3289C19.7057 20.9113 19.5466 20.5092 19.2603 20.2052C18.8819 19.8154 18.4392 19.4937 17.9515 19.2544C17.3752 18.9499 16.5643 18.5794 15.5189 18.143C14.5837 17.7704 13.6881 17.305 12.8457 16.7538" fill="white"/>
<path opacity="0.1" fill-rule="evenodd" clip-rule="evenodd" d="M13.0178 0.619573C12.5883 0.47575 12.149 0.36255 11.7035 0.280823C9.02839 1.13932 6.59664 2.62346 4.61005 4.61005C2.62346 6.59664 1.13932 9.02839 0.280823 11.7035C0.362564 12.149 0.475764 12.5883 0.619573 13.0178C0.739679 13.4067 0.891496 13.7852 1.0735 14.1492C1.662 10.8974 3.22945 7.90289 5.56617 5.56617C7.90289 3.22945 10.8974 1.662 14.1492 1.0735C13.7851 0.891518 13.4067 0.739701 13.0178 0.619573Z" fill="black"/>
<path opacity="0.1" fill-rule="evenodd" clip-rule="evenodd" d="M13.0178 0.619576C10.0174 1.35962 7.2763 2.90585 5.09107 5.09108C2.90585 7.27631 1.35961 10.0174 0.619568 13.0178C0.739674 13.4067 0.891491 13.7852 1.07349 14.1493C1.66199 10.8975 3.22944 7.90289 5.56616 5.56617C7.90289 3.22945 10.8974 1.662 14.1492 1.0735C13.7851 0.89152 13.4067 0.739703 13.0178 0.619576Z" fill="black"/>
<path opacity="0.1" fill-rule="evenodd" clip-rule="evenodd" d="M33.5054 21.1072C33.3853 20.7182 33.2335 20.3398 33.0515 19.9757C32.463 23.2275 30.8956 26.2221 28.5589 28.5588C26.2221 30.8956 23.2276 32.463 19.9758 33.0515C20.3399 33.2335 20.7183 33.3853 21.1072 33.5054C21.5368 33.6492 21.976 33.7624 22.4215 33.8442C25.0966 32.9857 27.5284 31.5015 29.515 29.5149C31.5016 27.5284 32.9857 25.0966 33.8442 22.4215C33.7624 21.976 33.6492 21.5367 33.5054 21.1072Z" fill="black"/>
<path opacity="0.1" fill-rule="evenodd" clip-rule="evenodd" d="M33.0515 19.9757C32.463 23.2275 30.8956 26.2221 28.5589 28.5588C26.2221 30.8956 23.2276 32.463 19.9758 33.0515C20.3399 33.2335 20.7183 33.3853 21.1072 33.5054C24.1077 32.7654 26.8487 31.2192 29.0339 29.0339C31.2192 26.8487 32.7654 24.1076 33.5054 21.1072C33.3853 20.7182 33.2335 20.3398 33.0515 19.9757Z" fill="black"/>
</svg>
