<svg width="313" height="92" viewBox="0 0 313 92" fill="none" xmlns="http://www.w3.org/2000/svg">
<rect width="313" height="92" rx="24" fill="#F5F5FF"/>
<rect x="21" y="14" width="64" height="64" rx="24" fill="#FEFEFF"/>
<path d="M112.976 40.16C112.112 40.16 111.275 40.0373 110.464 39.792C109.664 39.5467 109.029 39.2213 108.56 38.816L109.28 37.2C109.739 37.5627 110.299 37.8613 110.96 38.096C111.632 38.32 112.304 38.432 112.976 38.432C113.808 38.432 114.427 38.2987 114.832 38.032C115.248 37.7653 115.456 37.4133 115.456 36.976C115.456 36.656 115.339 36.3947 115.104 36.192C114.88 35.9787 114.592 35.8133 114.24 35.696C113.888 35.5787 113.408 35.4453 112.8 35.296C111.947 35.0933 111.253 34.8907 110.72 34.688C110.197 34.4853 109.744 34.1707 109.36 33.744C108.987 33.3067 108.8 32.72 108.8 31.984C108.8 31.3653 108.965 30.8053 109.296 30.304C109.637 29.792 110.144 29.3867 110.816 29.088C111.499 28.7893 112.331 28.64 113.312 28.64C113.995 28.64 114.667 28.7253 115.328 28.896C115.989 29.0667 116.56 29.312 117.04 29.632L116.384 31.248C115.893 30.96 115.381 30.7413 114.848 30.592C114.315 30.4427 113.797 30.368 113.296 30.368C112.475 30.368 111.861 30.5067 111.456 30.784C111.061 31.0613 110.864 31.4293 110.864 31.888C110.864 32.208 110.976 32.4693 111.2 32.672C111.435 32.8747 111.728 33.0347 112.08 33.152C112.432 33.2693 112.912 33.4027 113.52 33.552C114.352 33.744 115.035 33.9467 115.568 34.16C116.101 34.3627 116.555 34.6773 116.928 35.104C117.312 35.5307 117.504 36.1067 117.504 36.832C117.504 37.4507 117.333 38.0107 116.992 38.512C116.661 39.0133 116.155 39.4133 115.472 39.712C114.789 40.0107 113.957 40.16 112.976 40.16ZM127.407 35.776C127.407 35.9147 127.396 36.112 127.375 36.368H120.671C120.788 36.9973 121.092 37.4987 121.583 37.872C122.084 38.2347 122.703 38.416 123.439 38.416C124.377 38.416 125.151 38.1067 125.759 37.488L126.831 38.72C126.447 39.1787 125.961 39.5253 125.375 39.76C124.788 39.9947 124.127 40.112 123.391 40.112C122.452 40.112 121.625 39.9253 120.911 39.552C120.196 39.1787 119.641 38.6613 119.247 38C118.863 37.328 118.671 36.5707 118.671 35.728C118.671 34.896 118.857 34.1493 119.231 33.488C119.615 32.816 120.143 32.2933 120.815 31.92C121.487 31.5467 122.244 31.36 123.087 31.36C123.919 31.36 124.66 31.5467 125.311 31.92C125.972 32.2827 126.484 32.8 126.847 33.472C127.22 34.1333 127.407 34.9013 127.407 35.776ZM123.087 32.96C122.447 32.96 121.903 33.152 121.455 33.536C121.017 33.9093 120.751 34.4107 120.655 35.04H125.503C125.417 34.4213 125.156 33.92 124.719 33.536C124.281 33.152 123.737 32.96 123.087 32.96ZM134.176 31.36C135.253 31.36 136.117 31.6747 136.768 32.304C137.418 32.9333 137.744 33.8667 137.744 35.104V40H135.744V35.36C135.744 34.6133 135.568 34.0533 135.216 33.68C134.864 33.296 134.362 33.104 133.712 33.104C132.976 33.104 132.394 33.328 131.968 33.776C131.541 34.2133 131.328 34.848 131.328 35.68V40H129.328V31.456H131.232V32.56C131.562 32.1653 131.978 31.8667 132.48 31.664C132.981 31.4613 133.546 31.36 134.176 31.36ZM140.281 31.456H142.281V40H140.281V31.456ZM141.289 30.048C140.926 30.048 140.622 29.936 140.377 29.712C140.131 29.4773 140.009 29.1893 140.009 28.848C140.009 28.5067 140.131 28.224 140.377 28C140.622 27.7653 140.926 27.648 141.289 27.648C141.651 27.648 141.955 27.76 142.201 27.984C142.446 28.1973 142.569 28.4693 142.569 28.8C142.569 29.152 142.446 29.4507 142.201 29.696C141.966 29.9307 141.662 30.048 141.289 30.048ZM148.746 40.112C147.882 40.112 147.103 39.9253 146.41 39.552C145.716 39.1787 145.172 38.6613 144.778 38C144.394 37.328 144.202 36.5707 144.202 35.728C144.202 34.8853 144.394 34.1333 144.778 33.472C145.172 32.8107 145.716 32.2933 146.41 31.92C147.103 31.5467 147.882 31.36 148.746 31.36C149.62 31.36 150.404 31.5467 151.098 31.92C151.791 32.2933 152.33 32.8107 152.714 33.472C153.108 34.1333 153.306 34.8853 153.306 35.728C153.306 36.5707 153.108 37.328 152.714 38C152.33 38.6613 151.791 39.1787 151.098 39.552C150.404 39.9253 149.62 40.112 148.746 40.112ZM148.746 38.4C149.482 38.4 150.09 38.1547 150.57 37.664C151.05 37.1733 151.29 36.528 151.29 35.728C151.29 34.928 151.05 34.2827 150.57 33.792C150.09 33.3013 149.482 33.056 148.746 33.056C148.01 33.056 147.402 33.3013 146.922 33.792C146.452 34.2827 146.218 34.928 146.218 35.728C146.218 36.528 146.452 37.1733 146.922 37.664C147.402 38.1547 148.01 38.4 148.746 38.4ZM157.122 32.704C157.698 31.808 158.712 31.36 160.162 31.36V33.264C159.992 33.232 159.837 33.216 159.698 33.216C158.92 33.216 158.312 33.4453 157.874 33.904C157.437 34.352 157.218 35.0027 157.218 35.856V40H155.218V31.456H157.122V32.704ZM182.919 28.8L179.207 40H176.999L174.231 31.712L171.415 40H169.191L165.479 28.8H167.639L170.423 37.312L173.319 28.8H175.239L178.071 37.36L180.935 28.8H182.919ZM191.813 35.776C191.813 35.9147 191.802 36.112 191.781 36.368H185.077C185.194 36.9973 185.498 37.4987 185.989 37.872C186.49 38.2347 187.109 38.416 187.845 38.416C188.783 38.416 189.557 38.1067 190.165 37.488L191.237 38.72C190.853 39.1787 190.367 39.5253 189.781 39.76C189.194 39.9947 188.533 40.112 187.797 40.112C186.858 40.112 186.031 39.9253 185.317 39.552C184.602 39.1787 184.047 38.6613 183.653 38C183.269 37.328 183.077 36.5707 183.077 35.728C183.077 34.896 183.263 34.1493 183.637 33.488C184.021 32.816 184.549 32.2933 185.221 31.92C185.893 31.5467 186.65 31.36 187.493 31.36C188.325 31.36 189.066 31.5467 189.717 31.92C190.378 32.2827 190.89 32.8 191.253 33.472C191.626 34.1333 191.813 34.9013 191.813 35.776ZM187.493 32.96C186.853 32.96 186.309 33.152 185.861 33.536C185.423 33.9093 185.157 34.4107 185.061 35.04H189.909C189.823 34.4213 189.562 33.92 189.125 33.536C188.687 33.152 188.143 32.96 187.493 32.96ZM198.47 31.36C199.302 31.36 200.043 31.5413 200.694 31.904C201.355 32.2667 201.873 32.7787 202.246 33.44C202.619 34.1013 202.806 34.864 202.806 35.728C202.806 36.592 202.619 37.36 202.246 38.032C201.873 38.6933 201.355 39.2053 200.694 39.568C200.043 39.9307 199.302 40.112 198.47 40.112C197.883 40.112 197.345 40.0107 196.854 39.808C196.374 39.6053 195.969 39.3013 195.638 38.896V40H193.734V28.128H195.734V32.496C196.075 32.1227 196.475 31.84 196.934 31.648C197.403 31.456 197.915 31.36 198.47 31.36ZM198.246 38.4C198.982 38.4 199.585 38.1547 200.054 37.664C200.534 37.1733 200.774 36.528 200.774 35.728C200.774 34.928 200.534 34.2827 200.054 33.792C199.585 33.3013 198.982 33.056 198.246 33.056C197.766 33.056 197.334 33.168 196.95 33.392C196.566 33.6053 196.262 33.9147 196.038 34.32C195.814 34.7253 195.702 35.1947 195.702 35.728C195.702 36.2613 195.814 36.7307 196.038 37.136C196.262 37.5413 196.566 37.856 196.95 38.08C197.334 38.2933 197.766 38.4 198.246 38.4ZM209.317 28.8H214.213C215.407 28.8 216.469 29.0347 217.397 29.504C218.325 29.9627 219.045 30.6187 219.557 31.472C220.069 32.3147 220.325 33.2907 220.325 34.4C220.325 35.5093 220.069 36.4907 219.557 37.344C219.045 38.1867 218.325 38.8427 217.397 39.312C216.469 39.7707 215.407 40 214.213 40H209.317V28.8ZM214.117 38.24C214.938 38.24 215.658 38.0853 216.277 37.776C216.906 37.456 217.386 37.008 217.717 36.432C218.058 35.8453 218.229 35.168 218.229 34.4C218.229 33.632 218.058 32.96 217.717 32.384C217.386 31.7973 216.906 31.3493 216.277 31.04C215.658 30.72 214.938 30.56 214.117 30.56H211.397V38.24H214.117ZM230.375 35.776C230.375 35.9147 230.365 36.112 230.343 36.368H223.639C223.757 36.9973 224.061 37.4987 224.551 37.872C225.053 38.2347 225.671 38.416 226.407 38.416C227.346 38.416 228.119 38.1067 228.727 37.488L229.799 38.72C229.415 39.1787 228.93 39.5253 228.343 39.76C227.757 39.9947 227.095 40.112 226.359 40.112C225.421 40.112 224.594 39.9253 223.879 39.552C223.165 39.1787 222.61 38.6613 222.215 38C221.831 37.328 221.639 36.5707 221.639 35.728C221.639 34.896 221.826 34.1493 222.199 33.488C222.583 32.816 223.111 32.2933 223.783 31.92C224.455 31.5467 225.213 31.36 226.055 31.36C226.887 31.36 227.629 31.5467 228.279 31.92C228.941 32.2827 229.453 32.8 229.815 33.472C230.189 34.1333 230.375 34.9013 230.375 35.776ZM226.055 32.96C225.415 32.96 224.871 33.152 224.423 33.536C223.986 33.9093 223.719 34.4107 223.623 35.04H228.471C228.386 34.4213 228.125 33.92 227.687 33.536C227.25 33.152 226.706 32.96 226.055 32.96ZM234.936 40.112C234.243 40.112 233.566 40.0213 232.904 39.84C232.243 39.6587 231.715 39.4293 231.32 39.152L232.088 37.632C232.472 37.888 232.931 38.096 233.464 38.256C234.008 38.4053 234.542 38.48 235.064 38.48C236.259 38.48 236.856 38.1653 236.856 37.536C236.856 37.2373 236.702 37.0293 236.392 36.912C236.094 36.7947 235.608 36.6827 234.936 36.576C234.232 36.4693 233.656 36.3467 233.208 36.208C232.771 36.0693 232.387 35.8293 232.056 35.488C231.736 35.136 231.576 34.6507 231.576 34.032C231.576 33.2213 231.912 32.576 232.584 32.096C233.267 31.6053 234.184 31.36 235.336 31.36C235.923 31.36 236.51 31.4293 237.096 31.568C237.683 31.696 238.163 31.872 238.536 32.096L237.768 33.616C237.043 33.1893 236.227 32.976 235.32 32.976C234.734 32.976 234.286 33.0667 233.976 33.248C233.678 33.4187 233.528 33.648 233.528 33.936C233.528 34.256 233.688 34.4853 234.008 34.624C234.339 34.752 234.846 34.8747 235.528 34.992C236.211 35.0987 236.771 35.2213 237.208 35.36C237.646 35.4987 238.019 35.7333 238.328 36.064C238.648 36.3947 238.808 36.864 238.808 37.472C238.808 38.272 238.462 38.912 237.768 39.392C237.075 39.872 236.131 40.112 234.936 40.112ZM240.531 31.456H242.531V40H240.531V31.456ZM241.539 30.048C241.176 30.048 240.872 29.936 240.627 29.712C240.381 29.4773 240.259 29.1893 240.259 28.848C240.259 28.5067 240.381 28.224 240.627 28C240.872 27.7653 241.176 27.648 241.539 27.648C241.901 27.648 242.205 27.76 242.451 27.984C242.696 28.1973 242.819 28.4693 242.819 28.8C242.819 29.152 242.696 29.4507 242.451 29.696C242.216 29.9307 241.912 30.048 241.539 30.048ZM253.636 31.456V38.704C253.636 41.712 252.1 43.216 249.028 43.216C248.206 43.216 247.428 43.1093 246.692 42.896C245.956 42.6933 245.348 42.3947 244.868 42L245.764 40.496C246.137 40.8053 246.606 41.0507 247.172 41.232C247.748 41.424 248.329 41.52 248.916 41.52C249.854 41.52 250.542 41.3067 250.98 40.88C251.417 40.4533 251.636 39.8027 251.636 38.928V38.48C251.294 38.8533 250.878 39.136 250.388 39.328C249.897 39.52 249.358 39.616 248.772 39.616C247.961 39.616 247.225 39.4453 246.564 39.104C245.913 38.752 245.396 38.2613 245.012 37.632C244.638 37.0027 244.452 36.2827 244.452 35.472C244.452 34.6613 244.638 33.9467 245.012 33.328C245.396 32.6987 245.913 32.2133 246.564 31.872C247.225 31.5307 247.961 31.36 248.772 31.36C249.39 31.36 249.95 31.4613 250.452 31.664C250.964 31.8667 251.39 32.176 251.732 32.592V31.456H253.636ZM249.076 37.92C249.833 37.92 250.452 37.696 250.932 37.248C251.422 36.7893 251.668 36.1973 251.668 35.472C251.668 34.7573 251.422 34.176 250.932 33.728C250.452 33.28 249.833 33.056 249.076 33.056C248.308 33.056 247.678 33.28 247.188 33.728C246.708 34.176 246.468 34.7573 246.468 35.472C246.468 36.1973 246.708 36.7893 247.188 37.248C247.678 37.696 248.308 37.92 249.076 37.92ZM261.113 31.36C262.19 31.36 263.054 31.6747 263.705 32.304C264.356 32.9333 264.681 33.8667 264.681 35.104V40H262.681V35.36C262.681 34.6133 262.505 34.0533 262.153 33.68C261.801 33.296 261.3 33.104 260.649 33.104C259.913 33.104 259.332 33.328 258.905 33.776C258.478 34.2133 258.265 34.848 258.265 35.68V40H256.265V31.456H258.169V32.56C258.5 32.1653 258.916 31.8667 259.417 31.664C259.918 31.4613 260.484 31.36 261.113 31.36ZM275.328 35.776C275.328 35.9147 275.318 36.112 275.296 36.368H268.592C268.71 36.9973 269.014 37.4987 269.504 37.872C270.006 38.2347 270.624 38.416 271.36 38.416C272.299 38.416 273.072 38.1067 273.68 37.488L274.752 38.72C274.368 39.1787 273.883 39.5253 273.296 39.76C272.71 39.9947 272.048 40.112 271.312 40.112C270.374 40.112 269.547 39.9253 268.832 39.552C268.118 39.1787 267.563 38.6613 267.168 38C266.784 37.328 266.592 36.5707 266.592 35.728C266.592 34.896 266.779 34.1493 267.152 33.488C267.536 32.816 268.064 32.2933 268.736 31.92C269.408 31.5467 270.166 31.36 271.008 31.36C271.84 31.36 272.582 31.5467 273.232 31.92C273.894 32.2827 274.406 32.8 274.768 33.472C275.142 34.1333 275.328 34.9013 275.328 35.776ZM271.008 32.96C270.368 32.96 269.824 33.152 269.376 33.536C268.939 33.9093 268.672 34.4107 268.576 35.04H273.424C273.339 34.4213 273.078 33.92 272.64 33.536C272.203 33.152 271.659 32.96 271.008 32.96ZM279.154 32.704C279.73 31.808 280.743 31.36 282.194 31.36V33.264C282.023 33.232 281.868 33.216 281.73 33.216C280.951 33.216 280.343 33.4453 279.906 33.904C279.468 34.352 279.25 35.0027 279.25 35.856V40H277.25V31.456H279.154V32.704Z" fill="#393939"/>
<path d="M115.722 58.426C115.722 59.128 115.462 59.726 114.942 60.22C114.431 60.7053 113.685 61 112.706 61.104V62.56H111.64V61.117C110.999 61.0737 110.392 60.9567 109.82 60.766C109.248 60.5753 108.793 60.3327 108.455 60.038L109.04 58.725C109.361 58.985 109.751 59.206 110.21 59.388C110.669 59.5613 111.146 59.6697 111.64 59.713V57.113C111.025 56.9657 110.509 56.8053 110.093 56.632C109.686 56.45 109.343 56.19 109.066 55.852C108.789 55.5053 108.65 55.0503 108.65 54.487C108.65 53.785 108.906 53.187 109.417 52.693C109.928 52.199 110.669 51.9043 111.64 51.809V50.34H112.706V51.783C113.191 51.809 113.664 51.8913 114.123 52.03C114.591 52.1687 114.998 52.3507 115.345 52.576L114.812 53.889C114.153 53.5077 113.451 53.2737 112.706 53.187V55.813C113.33 55.9603 113.846 56.1207 114.253 56.294C114.669 56.4673 115.016 56.7273 115.293 57.074C115.579 57.412 115.722 57.8627 115.722 58.426ZM110.327 54.409C110.327 54.695 110.44 54.9247 110.665 55.098C110.89 55.2713 111.215 55.4187 111.64 55.54V53.226C111.198 53.2953 110.869 53.434 110.652 53.642C110.435 53.85 110.327 54.1057 110.327 54.409ZM112.706 59.687C113.165 59.6177 113.503 59.4833 113.72 59.284C113.945 59.0847 114.058 58.8377 114.058 58.543C114.058 58.2483 113.941 58.0143 113.707 57.841C113.473 57.659 113.139 57.5073 112.706 57.386V59.687ZM119.767 51.9V61H118.077V53.317H116.153V51.9H119.767ZM125.368 61.13C124.64 61.13 123.99 60.948 123.418 60.584C122.846 60.2113 122.395 59.674 122.066 58.972C121.737 58.2613 121.572 57.4207 121.572 56.45C121.572 55.4793 121.737 54.643 122.066 53.941C122.395 53.2303 122.846 52.693 123.418 52.329C123.99 51.9563 124.64 51.77 125.368 51.77C126.096 51.77 126.746 51.9563 127.318 52.329C127.899 52.693 128.354 53.2303 128.683 53.941C129.012 54.643 129.177 55.4793 129.177 56.45C129.177 57.4207 129.012 58.2613 128.683 58.972C128.354 59.674 127.899 60.2113 127.318 60.584C126.746 60.948 126.096 61.13 125.368 61.13ZM125.368 59.661C126.018 59.661 126.529 59.3923 126.902 58.855C127.283 58.3177 127.474 57.516 127.474 56.45C127.474 55.384 127.283 54.5823 126.902 54.045C126.529 53.5077 126.018 53.239 125.368 53.239C124.727 53.239 124.215 53.5077 123.834 54.045C123.461 54.5823 123.275 55.384 123.275 56.45C123.275 57.516 123.461 58.3177 123.834 58.855C124.215 59.3923 124.727 59.661 125.368 59.661ZM133.647 58.023L132.438 59.167V61H130.813V51.354H132.438V57.178L135.805 54.058H137.755L134.856 56.97L138.028 61H136.052L133.647 58.023ZM142.319 56.71H145.894V58.062H142.319V56.71ZM157.921 58.426C157.921 59.128 157.661 59.726 157.141 60.22C156.63 60.7053 155.885 61 154.905 61.104V62.56H153.839V61.117C153.198 61.0737 152.591 60.9567 152.019 60.766C151.447 60.5753 150.992 60.3327 150.654 60.038L151.239 58.725C151.56 58.985 151.95 59.206 152.409 59.388C152.869 59.5613 153.345 59.6697 153.839 59.713V57.113C153.224 56.9657 152.708 56.8053 152.292 56.632C151.885 56.45 151.543 56.19 151.265 55.852C150.988 55.5053 150.849 55.0503 150.849 54.487C150.849 53.785 151.105 53.187 151.616 52.693C152.128 52.199 152.869 51.9043 153.839 51.809V50.34H154.905V51.783C155.391 51.809 155.863 51.8913 156.322 52.03C156.79 52.1687 157.198 52.3507 157.544 52.576L157.011 53.889C156.353 53.5077 155.651 53.2737 154.905 53.187V55.813C155.529 55.9603 156.045 56.1207 156.452 56.294C156.868 56.4673 157.215 56.7273 157.492 57.074C157.778 57.412 157.921 57.8627 157.921 58.426ZM152.526 54.409C152.526 54.695 152.639 54.9247 152.864 55.098C153.09 55.2713 153.415 55.4187 153.839 55.54V53.226C153.397 53.2953 153.068 53.434 152.851 53.642C152.635 53.85 152.526 54.1057 152.526 54.409ZM154.905 59.687C155.365 59.6177 155.703 59.4833 155.919 59.284C156.145 59.0847 156.257 58.8377 156.257 58.543C156.257 58.2483 156.14 58.0143 155.906 57.841C155.672 57.659 155.339 57.5073 154.905 57.386V59.687ZM164.849 56.216C165.326 56.4327 165.69 56.7273 165.941 57.1C166.201 57.464 166.331 57.893 166.331 58.387C166.331 58.9417 166.175 59.427 165.863 59.843C165.56 60.259 165.126 60.5797 164.563 60.805C164 61.0217 163.345 61.13 162.6 61.13C161.855 61.13 161.2 61.0217 160.637 60.805C160.082 60.5797 159.653 60.259 159.35 59.843C159.047 59.427 158.895 58.9417 158.895 58.387C158.895 57.893 159.021 57.464 159.272 57.1C159.523 56.7273 159.883 56.4327 160.351 56.216C159.987 56.0167 159.705 55.7567 159.506 55.436C159.315 55.1067 159.22 54.7297 159.22 54.305C159.22 53.7937 159.359 53.3473 159.636 52.966C159.922 52.5847 160.321 52.29 160.832 52.082C161.343 51.874 161.933 51.77 162.6 51.77C163.276 51.77 163.87 51.874 164.381 52.082C164.892 52.29 165.291 52.5847 165.577 52.966C165.863 53.3473 166.006 53.7937 166.006 54.305C166.006 54.7297 165.906 55.1023 165.707 55.423C165.508 55.7437 165.222 56.008 164.849 56.216ZM162.6 53.096C162.071 53.096 161.651 53.2087 161.339 53.434C161.036 53.6593 160.884 53.9757 160.884 54.383C160.884 54.773 161.036 55.085 161.339 55.319C161.651 55.5443 162.071 55.657 162.6 55.657C163.137 55.657 163.562 55.5443 163.874 55.319C164.186 55.085 164.342 54.773 164.342 54.383C164.342 53.9757 164.182 53.6593 163.861 53.434C163.549 53.2087 163.129 53.096 162.6 53.096ZM162.6 59.804C163.224 59.804 163.718 59.674 164.082 59.414C164.446 59.154 164.628 58.7943 164.628 58.335C164.628 57.8843 164.446 57.529 164.082 57.269C163.718 57.009 163.224 56.879 162.6 56.879C161.976 56.879 161.486 57.009 161.131 57.269C160.776 57.529 160.598 57.8843 160.598 58.335C160.598 58.7943 160.776 59.154 161.131 59.414C161.486 59.674 161.976 59.804 162.6 59.804ZM170.755 58.023L169.546 59.167V61H167.921V51.354H169.546V57.178L172.913 54.058H174.863L171.964 56.97L175.136 61H173.16L170.755 58.023Z" fill="#606060"/>
</svg>
