<svg width="91" height="60" viewBox="0 0 91 60" fill="none" xmlns="http://www.w3.org/2000/svg">
<mask id="mask0" mask-type="alpha" maskUnits="userSpaceOnUse" x="0" y="30" width="11" height="21">
<path d="M0.0273438 30.6638V50.4563H10.92V30.6638H0.0273438Z" fill="white"/>
</mask>
<g mask="url(#mask0)">
<path d="M0.508447 43.6131C-0.674553 45.9518 0.262747 48.8092 2.60145 49.9922C4.94015 51.1752 7.79755 50.2379 8.98055 47.8992C8.99875 47.8628 9.01695 47.8264 9.03515 47.79L10.9279 43.9407L6.86935 30.6638L0.508447 43.6131Z" fill="#7AC043"/>
</g>
<path d="M26.9725 0.491257C24.6247 -0.664443 21.7764 0.300157 20.6207 2.65706L12.9949 18.1999L17.0444 31.4859L29.1383 6.83396C30.294 4.48616 29.3203 1.64696 26.9725 0.491257Z" fill="#7AC043"/>
<path d="M14.5603 55.8649C15.3247 58.3674 17.9728 59.7779 20.4844 59.0226C22.9869 58.2582 24.4065 55.6101 23.6421 53.0985L17.0537 31.486L10.9294 43.953L14.5603 55.8649ZM10.3288 9.45494C9.51891 6.96154 6.8526 5.58744 4.3501 6.39734C1.9113 7.17994 0.537205 9.76434 1.24701 12.2213L6.8708 30.667L12.9951 18.2L10.3288 9.45494Z" fill="#D50F67"/>
<path d="M6.87036 30.6577L10.9199 43.9437L17.0442 31.4767L12.9947 18.1907L6.87036 30.6577Z" fill="#49A847"/>
<path d="M30.476 34.6615H23.2142C23.196 34.4977 23.196 34.3521 23.196 34.2429C23.196 32.4138 23.9149 31.2126 25.6894 30.0478C26.6085 29.4381 27.1636 29.065 27.3911 28.9103C27.6277 28.7374 27.8188 28.5099 27.9826 28.2551C28.1373 27.9821 28.2192 27.6727 28.2192 27.3542C28.2192 26.5534 27.6732 26.0074 26.8815 26.0074C25.9169 26.0074 25.3709 26.6808 25.3436 27.9366H23.2051C23.2415 26.5534 23.56 25.7526 24.3608 25.0974C25.0342 24.5514 25.8532 24.2784 26.8997 24.2784C29.1019 24.2784 30.4942 25.4341 30.4942 27.2632C30.4942 28.7101 29.7571 29.7111 27.746 31.0033C26.2172 31.9861 26.0261 32.1772 25.8714 32.887H30.476C30.476 32.8779 30.476 34.6615 30.476 34.6615ZM33.5154 31.5129C33.5154 32.5048 34.1706 33.1327 35.1807 33.1327C36.1271 33.1327 36.7368 32.6049 36.7368 31.7859C36.7368 30.8031 36.1271 30.4209 34.5528 30.4209H34.3162V28.6737H34.5437C36.0543 28.6737 36.6458 28.3006 36.6458 27.3542C36.6458 26.5807 36.0543 26.0165 35.2171 26.0165C34.2161 26.0165 33.6792 26.608 33.6792 27.7V27.7182H31.4497C31.5134 26.3987 31.8228 25.7071 32.6236 25.0701C33.2788 24.5423 34.1615 24.2693 35.2717 24.2693C37.4284 24.2693 38.8389 25.3795 38.8389 27.0812C38.8389 28.2824 38.1473 29.1651 36.9279 29.4745C37.3647 29.5746 37.5194 29.6383 37.7469 29.7657C38.5477 30.1843 38.9663 30.9396 38.9663 31.9042C38.9663 33.7333 37.5194 34.8708 35.2444 34.8708C32.751 34.8708 31.3223 33.5695 31.3223 31.2581H33.5427C33.5245 31.3673 33.5154 31.4492 33.5154 31.5129ZM44.4991 31.1944L43.7711 31.3036C42.4243 31.5129 41.8874 31.8132 41.8874 32.4138C41.8874 32.9598 42.3697 33.3329 43.0613 33.3329C44.1715 33.3329 44.7448 32.614 44.7812 31.1489C44.7812 31.1489 44.4991 31.1944 44.4991 31.1944ZM43.4708 26.6808C44.5992 26.6808 45.491 26.9811 46.0734 27.5817C46.6376 28.1459 46.8287 28.7738 46.8287 30.1479C46.8105 30.2571 46.8105 30.6302 46.7923 31.2763V31.9952C46.7923 33.2146 46.856 34.0154 47.0016 34.6615H45.1907C45.1088 34.2247 45.1088 34.0791 45.1088 33.797V33.4785C44.5446 34.4431 43.762 34.8435 42.488 34.8435C40.8318 34.8435 39.6761 33.8789 39.6761 32.4957C39.6761 31.9224 39.9036 31.3764 40.2676 30.9851C40.7135 30.521 41.2777 30.2753 42.3424 30.066C43.1614 29.9204 44.0441 29.793 44.7812 29.7475C44.7812 28.6555 44.399 28.1914 43.4981 28.1914C42.6518 28.1914 42.215 28.5736 42.1604 29.3289H39.9582C40.0765 27.6818 41.3778 26.6808 43.4708 26.6808ZM50.2958 27.8729C50.86 27.1176 51.6153 26.7354 52.5617 26.7354C53.6901 26.7354 54.6547 27.3269 54.9823 28.246C55.1734 28.7283 55.2098 29.1105 55.2098 30.2662V34.6706H53.0713V30.1206C53.0713 28.8648 52.7164 28.3734 51.8337 28.3734C50.8509 28.3734 50.405 29.0923 50.405 30.6484V34.6615H48.2665V26.9083H50.2958V27.8729ZM59.9782 33.0872C60.961 33.0872 61.6162 32.1681 61.6162 30.7758C61.598 29.3471 61.0066 28.4917 60.0055 28.4917C59.0136 28.4917 58.3857 29.3926 58.3857 30.7849C58.3857 32.1408 59.05 33.0872 59.9782 33.0872ZM63.7183 34.6615H61.6981V33.6332C61.1976 34.434 60.4332 34.8344 59.4322 34.8344C57.5485 34.8344 56.2381 33.1782 56.2381 30.8031C56.2381 28.3734 57.4939 26.7263 59.3412 26.7263C60.3877 26.7263 61.0793 27.0812 61.5889 27.882V23.969H63.7274V34.6615H63.7183ZM77.432 34.6615H75.2935V26.0529L72.6727 34.6615H70.3431L67.7041 26.0529V34.6615H65.5656V23.969H69.1511L71.608 32.0589L74.0195 23.969H77.4411L77.432 34.6615ZM84.339 29.8931C84.3026 28.9467 83.6655 28.3006 82.7191 28.3006C81.7909 28.3006 81.2085 28.8466 81.0356 29.8931H84.339ZM82.801 34.8435C80.3895 34.8435 78.8516 33.251 78.8516 30.7485C78.8516 28.337 80.4078 26.7354 82.7374 26.7354C85.0852 26.7354 86.5594 28.3461 86.5594 30.9396C86.5594 31.067 86.5411 31.1671 86.5411 31.4401H81.0539C81.0994 32.5685 81.7636 33.2055 82.8556 33.2055C83.5745 33.2055 84.0568 32.9052 84.2661 32.2864H86.5411C86.0406 33.9517 84.7211 34.8435 82.801 34.8435ZM89.444 27.8729C89.353 27.8456 89.253 27.8274 89.1529 27.8365H89.0345V28.3916H89.2256C89.3257 28.4007 89.4167 28.3734 89.4986 28.3188C89.5623 28.2733 89.5987 28.2005 89.5987 28.0913C89.5896 27.9821 89.5441 27.9093 89.444 27.8729ZM88.534 29.4017V27.4998C88.8434 27.4998 89.1528 27.4998 89.4531 27.5089C89.6078 27.518 89.7261 27.5544 89.8262 27.609C89.99 27.7 90.081 27.8547 90.081 28.064C90.081 28.2278 90.0355 28.337 89.9445 28.4098C89.8444 28.4826 89.7353 28.5281 89.617 28.5372C89.7353 28.5645 89.8263 28.6009 89.89 28.6464C89.9992 28.7374 90.0537 28.883 90.0537 29.0741V29.247C90.0537 29.2834 90.0629 29.3198 90.072 29.3562L90.0901 29.4108H89.617C89.5988 29.3198 89.5896 29.2379 89.5896 29.1469C89.5896 29.065 89.5806 28.9922 89.5624 28.9103C89.5351 28.8466 89.4896 28.792 89.4259 28.7738C89.3713 28.7556 89.3167 28.7465 89.253 28.7465L89.1437 28.7374H89.0436V29.4108C89.0345 29.4017 88.534 29.4017 88.534 29.4017ZM88.2792 27.4543C88.0153 27.7182 87.8606 28.0731 87.8697 28.4462C87.8697 28.8466 88.0063 29.1833 88.2884 29.4563C88.5614 29.7293 88.8981 29.8749 89.2894 29.8749C89.6807 29.8749 90.0083 29.7384 90.2904 29.4563C90.5634 29.1924 90.709 28.8284 90.709 28.4462C90.709 28.064 90.5725 27.7364 90.2995 27.4543C90.0447 27.1813 89.6807 27.0266 89.2985 27.0266C88.9072 27.0175 88.534 27.1722 88.2792 27.4543ZM90.4815 29.6747C90.163 29.9932 89.7261 30.1661 89.2802 30.157C88.8252 30.1661 88.3794 29.9841 88.0609 29.6565C87.7333 29.338 87.5604 28.8921 87.5695 28.4371C87.5695 27.9366 87.7515 27.518 88.1064 27.1904C88.4249 26.8901 88.8435 26.7172 89.2894 26.7263C89.7626 26.7263 90.1629 26.8901 90.4996 27.2268C90.8363 27.5635 91.0001 27.9639 91.0001 28.4371C91.0092 28.9103 90.8182 29.3562 90.4815 29.6747Z" fill="#9C9EA1"/>
</svg>
