<svg width="106" height="28" viewBox="0 0 106 28" fill="none" xmlns="http://www.w3.org/2000/svg">
<path d="M36.4866 7.49951H40.7164V23.6332H36.4866V7.49951Z" fill="black"/>
<path d="M98.3722 16.7546V23.5716L94.1167 23.5562V7.00146L101.781 13.5978V7.4997H106V24.2287L98.3722 16.7546Z" fill="black"/>
<path d="M15.2146 15.5227C15.2146 10.9438 18.9311 7.22754 23.5098 7.22754C25.5733 7.22754 27.4623 7.98714 28.9152 9.23443L26.174 12.3451C25.4554 11.7393 24.5262 11.3748 23.5098 11.3748C21.2205 11.3748 19.3622 13.2331 19.3622 15.5224C19.3622 17.8117 21.2205 19.67 23.5098 19.67C24.5415 19.67 25.4862 19.2902 26.215 18.6639L28.9511 21.7797C27.4982 23.0475 25.5941 23.8125 23.5098 23.8125C18.9309 23.8128 15.2146 20.1013 15.2146 15.5227Z" fill="black"/>
<path d="M48.7703 27.3237L40.7675 6.06189H34.0789V23.6945H29.7002V6.06189H20.0088L22.2571 1.8269H43.8936L48.77 14.5675L53.6518 1.8269H74.6004L76.9102 6.06189H56.7779L48.7703 27.3237Z" fill="black"/>
<path d="M62.2913 23.5716V20.0091H65.1967C65.669 20.0091 66.5672 19.9732 66.793 19.2239C67.2602 17.6634 62.476 15.1327 62.476 11.2521C62.476 8.31598 64.6011 7.43823 66.0437 7.43823H70.4478V10.939H67.7271C67.7271 10.939 66.947 10.939 66.7312 11.2521C65.5506 12.941 71.1049 15.41 71.1049 19.9476C71.1049 22.3192 69.0721 23.5716 67.0444 23.5716H62.2913Z" fill="black"/>
<path d="M56.8398 7.43774H61.0748V23.5714H56.8398V7.43774Z" fill="black"/>
<path d="M71.7927 7.43774H76.0277V23.5714H71.7927V7.43774Z" fill="black"/>
<path d="M12.0012 23.6331L10.8769 20.6303H5.62577L4.50176 23.6331H0L8.25417 0L16.5083 23.6331H12.0012ZM6.90894 16.3182H9.40894L8.15652 12.1911L6.90894 16.3182Z" fill="black"/>
<path d="M76.7976 15.5176C76.7976 10.9335 80.5193 7.21216 85.1082 7.21216C89.6922 7.21216 93.4136 10.9335 93.4136 15.5176C93.4136 20.1067 89.6919 23.8281 85.1082 23.8281C80.5193 23.8281 76.7976 20.1065 76.7976 15.5176ZM80.9811 15.5176C80.9811 17.7966 82.8291 19.6447 85.1082 19.6447C87.3821 19.6447 89.2301 17.7966 89.2301 15.5176C89.2301 13.2436 87.3821 11.3956 85.1082 11.3956C82.8291 11.3956 80.9811 13.2434 80.9811 15.5176Z" fill="black"/>
</svg>
