<svg width="144" height="18" viewBox="0 0 144 18" fill="none" xmlns="http://www.w3.org/2000/svg">
<path d="M5.23627 8.1383C5.18388 8.06967 5.11464 8.01572 5.03528 7.98171C4.95591 7.94769 4.8691 7.93475 4.78326 7.94413C4.69743 7.95352 4.61547 7.98492 4.54533 8.03529C4.47519 8.08566 4.41926 8.1533 4.38294 8.23164L0.0549383 16.8876C0.0154052 16.9664 -0.00333801 17.054 0.000487398 17.1421C0.00431281 17.2302 0.0305799 17.3158 0.076796 17.3909C0.123012 17.4659 0.187644 17.5279 0.264558 17.571C0.341473 17.6141 0.428118 17.6368 0.516272 17.637H6.54294C6.6405 17.6388 6.73646 17.612 6.81893 17.5599C6.90141 17.5078 6.96678 17.4326 7.00694 17.3436C8.3056 14.677 7.51894 10.5783 5.23627 8.1383Z" fill="url(#paint0_linear)"/>
<path d="M8.4121 0.276946C7.33318 1.93674 6.70442 3.84856 6.58754 5.82475C6.47066 7.80093 6.86969 9.77355 7.74543 11.5489L10.6654 17.3436C10.708 17.4297 10.7737 17.5023 10.8552 17.5531C10.9367 17.604 11.0307 17.6312 11.1268 17.6316H17.1534C17.2379 17.6246 17.3195 17.5976 17.3915 17.5528C17.4634 17.508 17.5237 17.4467 17.5672 17.374C17.6107 17.3013 17.6363 17.2192 17.6418 17.1346C17.6473 17.05 17.6325 16.9654 17.5988 16.8876L9.2921 0.276946C9.25232 0.194007 9.1899 0.124 9.11205 0.075C9.0342 0.0259996 8.94409 0 8.8521 0C8.76011 0 8.67 0.0259996 8.59215 0.075C8.5143 0.124 8.45188 0.194007 8.4121 0.276946V0.276946Z" fill="#2684FF"/>
<path d="M131.338 3.11963V17.637H134.431V6.56496L135.735 9.50363L140.111 17.637H143.999V3.11963H140.906V12.4876L139.735 9.77029L136.22 3.11963H131.338Z" fill="#0052CC"/>
<path d="M111.663 3.11963H108.281V17.637H111.663V3.11963Z" fill="#0052CC"/>
<path d="M104.38 13.3435C104.38 10.8022 103.034 9.61016 99.2309 8.79149C97.1323 8.32749 96.6256 7.86349 96.6256 7.19149C96.6256 6.35149 97.3749 5.99683 98.7589 5.99683C100.439 5.99683 102.098 6.50616 103.666 7.21283V3.89283C102.16 3.20723 100.52 2.86737 98.8656 2.89816C95.1083 2.89816 93.1642 4.53283 93.1642 7.20749C93.1642 9.34083 94.1589 11.0502 98.0469 11.8022C100.367 12.2875 100.855 12.6635 100.855 13.4368C100.855 14.2102 100.367 14.6742 98.7216 14.6742C96.7467 14.6381 94.8112 14.1151 93.0869 13.1515V16.6422C94.2576 17.2155 95.8042 17.8555 98.6869 17.8555C102.751 17.8555 104.364 16.0448 104.364 13.3488" fill="#0052CC"/>
<path d="M90.3055 13.3435C90.3055 10.8022 88.9722 9.61016 85.1589 8.79149C83.0602 8.32749 82.5509 7.86349 82.5509 7.19149C82.5509 6.35149 83.3029 5.99683 84.6842 5.99683C86.3642 5.99683 88.0202 6.50616 89.5882 7.21283V3.89283C88.0825 3.20723 86.4424 2.86737 84.7882 2.89816C81.0335 2.89816 79.0868 4.53283 79.0868 7.20749C79.0868 9.34083 80.0815 11.0502 83.9722 11.8022C86.2922 12.2875 86.7775 12.6635 86.7775 13.4368C86.7775 14.2102 86.2922 14.6742 84.6442 14.6742C82.6693 14.6381 80.7338 14.1151 79.0095 13.1515V16.6422C80.1829 17.2155 81.7295 17.8555 84.6095 17.8555C88.6762 17.8555 90.2869 16.0448 90.2869 13.3488" fill="#0052CC"/>
<path d="M52.8416 3.11963V17.637H59.7909L60.8842 14.4983H56.2442V3.11963H52.8416Z" fill="#0052CC"/>
<path d="M39.1108 3.11963V6.25563H42.8682V17.637H46.2708V6.25563H50.2922V3.11963H39.1108Z" fill="#0052CC"/>
<path d="M34.1777 3.11963H29.719L24.6523 17.637H28.5323L29.2523 15.1916C31.0194 15.7109 32.8986 15.7109 34.6657 15.1916L35.383 17.637H39.2497L34.1777 3.11963ZM31.9483 12.5756C31.3166 12.5765 30.6879 12.4867 30.0817 12.309L31.9483 5.97296L33.815 12.309C33.2087 12.4866 32.5801 12.5764 31.9483 12.5756V12.5756Z" fill="#0052CC"/>
<path d="M71.7695 3.11963H67.3108L62.2441 17.637H66.1108L66.8308 15.1916C68.5979 15.7109 70.4771 15.7109 72.2441 15.1916L72.9615 17.637H76.8281L71.7695 3.11963ZM69.5401 12.5756C68.9083 12.5768 68.2797 12.487 67.6735 12.309L69.5401 5.97296L71.4068 12.309C70.8006 12.487 70.1719 12.5768 69.5401 12.5756Z" fill="#0052CC"/>
<path d="M123.844 3.11963H119.386L114.319 17.637H118.186L118.903 15.1916C120.67 15.7109 122.549 15.7109 124.316 15.1916L125.034 17.637H128.903L123.844 3.11963ZM121.615 12.5756C120.983 12.5764 120.354 12.4866 119.748 12.309L121.615 5.97296L123.482 12.309C122.875 12.4866 122.247 12.5764 121.615 12.5756V12.5756Z" fill="#0052CC"/>
<defs>
<linearGradient id="paint0_linear" x1="7.6096" y1="9.4743" x2="3.04161" y2="17.389" gradientUnits="userSpaceOnUse">
<stop stop-color="#0052CC"/>
<stop offset="0.92" stop-color="#2684FF"/>
</linearGradient>
</defs>
</svg>
