<svg width="138" height="16" viewBox="0 0 138 16" fill="none" xmlns="http://www.w3.org/2000/svg">
<path d="M40.033 4.54687V11.5947H41.7902C42.2387 11.5881 42.6812 11.4915 43.0917 11.3108C43.5022 11.1301 43.8723 10.8689 44.1801 10.5427C44.8119 9.87389 45.1575 8.98486 45.1434 8.06498C45.1568 7.60807 45.0798 7.15301 44.9168 6.72596C44.7538 6.2989 44.508 5.90827 44.1936 5.5765C43.8845 5.2498 43.5118 4.98984 43.0985 4.81261C42.6852 4.63538 42.2399 4.54464 41.7902 4.54598H40.0338L40.033 4.54687ZM41.7902 2.33708C45.0655 2.33708 47.5432 4.87485 47.5432 8.06498C47.5432 11.2551 45.0655 13.8072 41.7902 13.8072H37.9146C37.8776 13.8067 37.8411 13.799 37.8072 13.7844C37.7732 13.7699 37.7424 13.7487 37.7166 13.7223C37.6908 13.6958 37.6705 13.6645 37.6568 13.6302C37.6431 13.5959 37.6363 13.5592 37.6368 13.5222V2.63369C37.6368 2.47598 37.7613 2.34783 37.9146 2.34783L41.7902 2.33708ZM55.9854 11.8403C57.4729 11.8447 58.8162 10.9298 59.3888 9.52204C59.6693 8.83422 59.7443 8.07979 59.6046 7.35022C59.465 6.62064 59.1167 5.94723 58.602 5.41161C58.0964 4.88479 57.4428 4.52377 56.7276 4.37625C56.0124 4.22873 55.2693 4.30166 54.5964 4.5854C53.2218 5.16608 52.3239 6.53981 52.3212 8.06498C52.3212 10.1439 53.9593 11.8304 55.9863 11.8403H55.9854ZM55.9863 2.07721C59.4336 2.07721 62.069 4.7942 62.069 8.06498C62.069 11.3358 59.4336 14.0527 55.9854 14.0527C52.5381 14.0527 49.925 11.3492 49.925 8.06498C49.925 4.78076 52.5605 2.07721 55.9854 2.07721H55.9863ZM70.4431 11.8403C72.471 11.8349 74.1118 10.1466 74.11 8.06766C74.1073 5.98691 72.463 4.30224 70.436 4.30134C68.4072 4.30134 66.7619 5.98512 66.7593 8.06498C66.7593 9.06682 67.1473 10.0274 67.8382 10.7354C68.1763 11.0842 68.581 11.3618 69.0283 11.5515C69.4756 11.7413 69.9564 11.8395 70.4422 11.8403H70.4431ZM70.4422 2.07721C73.8788 2.07721 76.5142 4.78076 76.5142 8.06498C76.5142 11.3492 73.868 14.0527 70.4422 14.0527C67.0173 14.0527 64.3595 11.3492 64.3595 8.06498C64.3595 4.78076 66.9949 2.07721 70.4422 2.07721ZM84.5523 4.54687H82.0746V7.58018H84.5523C84.7481 7.58886 84.9435 7.55732 85.1266 7.4875C85.3097 7.41768 85.4766 7.31107 85.6169 7.17425C85.9036 6.89646 86.0667 6.51113 86.0703 6.10609C86.0775 5.9006 86.0431 5.69578 85.9692 5.50391C85.8953 5.31204 85.7834 5.13708 85.6402 4.98955C85.4996 4.84436 85.3302 4.7302 85.1428 4.65442C84.9554 4.57864 84.7543 4.54292 84.5523 4.54956V4.54687ZM79.6775 2.63369C79.6775 2.47598 79.8029 2.34783 79.9562 2.34783H84.6213C86.8454 2.34783 88.4548 4.01907 88.4548 6.11774C88.4719 7.53717 87.6967 8.841 86.4592 9.47634L88.6107 13.3771C88.6405 13.4219 88.6573 13.4741 88.6592 13.5279C88.6611 13.5817 88.648 13.6349 88.6215 13.6818C88.5956 13.7278 88.557 13.7655 88.5103 13.7903C88.4636 13.8151 88.4107 13.8259 88.358 13.8215H86.47C86.4176 13.8223 86.3661 13.8082 86.3214 13.7809C86.2767 13.7537 86.2406 13.7143 86.2173 13.6674L84.1437 9.807H82.0656V13.5133C82.0662 13.5503 82.0595 13.5871 82.0458 13.6215C82.0322 13.6559 82.0119 13.6873 81.9861 13.7139C81.9603 13.7404 81.9295 13.7616 81.8954 13.7763C81.8614 13.7909 81.8248 13.7987 81.7878 13.7991H79.9687C79.9317 13.7987 79.8951 13.7909 79.8611 13.7763C79.8271 13.7616 79.7963 13.7404 79.7705 13.7139C79.7447 13.6873 79.7244 13.6559 79.7107 13.6215C79.6971 13.5871 79.6903 13.5503 79.6909 13.5133L79.6784 2.63459L79.6775 2.63369ZM94.7025 4.60064V11.6494H96.4588C96.9072 11.6433 97.3498 11.5474 97.7604 11.3673C98.1711 11.1872 98.5414 10.9266 98.8496 10.6009C99.4817 9.93292 99.8279 9.04455 99.8147 8.12502C99.8291 7.66754 99.7528 7.21175 99.5902 6.7839C99.4277 6.35605 99.1821 5.96458 98.8676 5.63205C98.558 5.30481 98.1846 5.04452 97.7704 4.86728C97.3563 4.69003 96.9102 4.59959 96.4597 4.60153L94.7025 4.60064ZM96.4588 2.38816C99.7341 2.38816 102.212 4.92861 102.212 8.12502C102.212 11.3214 99.7341 13.8619 96.4588 13.8619H92.5948C92.5578 13.8614 92.5212 13.8536 92.4872 13.839C92.4532 13.8244 92.4224 13.8032 92.3966 13.7766C92.3708 13.7501 92.3505 13.7187 92.3368 13.6842C92.3232 13.6498 92.3164 13.613 92.317 13.576V2.68835C92.317 2.52974 92.4416 2.4016 92.5948 2.4016L96.4597 2.38816H96.4588ZM109.52 5.19117L108.161 8.96018H110.877L109.52 5.19117ZM107.364 11.0902L106.474 13.5993C106.456 13.6583 106.419 13.7098 106.369 13.7455C106.318 13.7812 106.258 13.7991 106.196 13.7965H104.266C104.217 13.801 104.167 13.7923 104.122 13.7712C104.078 13.7501 104.04 13.7173 104.012 13.6764C103.984 13.635 103.967 13.587 103.963 13.5371C103.958 13.4872 103.967 13.437 103.988 13.3914L108.158 2.51361C108.178 2.45625 108.215 2.40682 108.266 2.37284C108.316 2.33887 108.376 2.32222 108.436 2.32543H110.596C110.656 2.32202 110.716 2.33858 110.767 2.37256C110.817 2.40655 110.855 2.45609 110.874 2.51361L115.045 13.3914C115.066 13.4371 115.074 13.4873 115.07 13.5372C115.065 13.5871 115.048 13.6351 115.02 13.6764C114.992 13.7171 114.954 13.7497 114.909 13.7707C114.865 13.7916 114.815 13.8002 114.766 13.7956H112.837C112.775 13.7982 112.715 13.7803 112.664 13.7446C112.614 13.7089 112.577 13.6575 112.559 13.5984L111.669 11.0893H107.364V11.0902ZM117.282 5.43581C117.282 3.63464 118.8 2.07721 121.198 2.07721C122.488 2.04838 123.738 2.53126 124.674 3.42047C124.703 3.44744 124.726 3.47994 124.741 3.516C124.757 3.55205 124.765 3.5909 124.765 3.63016C124.765 3.66942 124.757 3.70826 124.741 3.74432C124.726 3.78037 124.703 3.81288 124.674 3.83985L123.605 4.92861C123.58 4.95506 123.549 4.9761 123.515 4.99046C123.481 5.00483 123.445 5.01223 123.408 5.01223C123.371 5.01223 123.335 5.00483 123.301 4.99046C123.267 4.9761 123.237 4.95506 123.211 4.92861C122.708 4.45665 122.046 4.18925 121.356 4.17857C120.397 4.17857 119.689 4.74939 119.689 5.40803C119.689 7.53717 125.355 6.30861 125.355 10.4056C125.352 12.4819 123.822 14.0527 121.118 14.0527C120.367 14.0604 119.622 13.917 118.927 13.631C118.233 13.3449 117.603 12.9222 117.075 12.3878C117.047 12.3608 117.024 12.3283 117.009 12.2923C116.993 12.2562 116.985 12.2174 116.985 12.1781C116.985 12.1388 116.993 12.1 117.009 12.0639C117.024 12.0279 117.047 11.9954 117.075 11.9684L118.11 10.9074C118.135 10.8797 118.167 10.8576 118.201 10.8424C118.236 10.8273 118.273 10.8195 118.311 10.8195C118.349 10.8195 118.387 10.8273 118.421 10.8424C118.456 10.8576 118.487 10.8797 118.513 10.9074C119.164 11.5525 120.04 11.9189 120.957 11.929C122.155 11.929 122.944 11.273 122.944 10.4513C122.944 8.32126 117.281 9.55072 117.281 5.45283L117.282 5.43581ZM135.629 2.61935V6.92424H130.833V2.61935C130.834 2.5824 130.827 2.54572 130.813 2.5114C130.8 2.47708 130.779 2.44579 130.754 2.41933C130.728 2.39287 130.697 2.37175 130.663 2.35718C130.629 2.3426 130.593 2.33486 130.556 2.33439H128.736C128.7 2.33486 128.663 2.3426 128.629 2.35718C128.595 2.37175 128.564 2.39287 128.539 2.41933C128.513 2.44579 128.492 2.47708 128.479 2.5114C128.465 2.54572 128.458 2.5824 128.459 2.61935V13.4954C128.459 13.6531 128.584 13.7812 128.736 13.7812H130.556C130.708 13.7812 130.833 13.6531 130.833 13.4954V9.12238H135.626V13.4954C135.626 13.6531 135.751 13.7812 135.904 13.7812H137.723C137.876 13.7812 138 13.6531 138 13.4954V2.61935C138.001 2.5824 137.994 2.54572 137.98 2.5114C137.967 2.47708 137.946 2.44579 137.921 2.41933C137.895 2.39287 137.864 2.37175 137.83 2.35718C137.796 2.3426 137.76 2.33486 137.723 2.33439H135.904C135.83 2.33627 135.759 2.36724 135.708 2.42058C135.657 2.47392 135.628 2.54533 135.629 2.61935ZM27.4257 3.78608C26.164 1.44725 23.6952 -0.00891992 21.0105 4.11224e-05H0.697576C0.560397 0.000597948 0.426415 0.0415086 0.312324 0.117676C0.198233 0.193843 0.109077 0.301898 0.0559652 0.428379C0.00362953 0.554048 -0.010001 0.69248 0.0168194 0.825943C0.0436399 0.959407 0.10969 1.08183 0.206511 1.17752L4.63147 5.56843C5.02217 5.95734 5.55446 6.17509 6.10825 6.17509H20.428C21.4487 6.16434 22.2829 6.97263 22.2937 7.97895C22.3044 8.98527 21.4863 9.80969 20.4656 9.81955H10.5933C10.456 9.8196 10.3217 9.86009 10.2073 9.93594C10.0929 10.0118 10.0034 10.1197 9.94985 10.2461C9.89701 10.3719 9.88303 10.5106 9.90969 10.6445C9.93636 10.7783 10.0025 10.9011 10.0995 10.997L14.5271 15.3915C14.9203 15.7802 15.4511 15.9979 16.0039 15.9973H20.4692C26.2787 15.9973 30.6714 9.86794 27.4257 3.78339" fill="#FF3008"/>
</svg>
