<svg width="78" height="56" viewBox="0 0 78 56" fill="none" xmlns="http://www.w3.org/2000/svg">
<path fill-rule="evenodd" clip-rule="evenodd" d="M54.6835 0.141424C40.931 1.38014 41.8659 16.0858 41.8659 16.0858V41.8019C49.3426 41.8019 53.0801 38.2128 53.0801 33.2429V29.8842H58.5953V18.6986H53.0801V17.2016C53.0801 15.4533 53.5431 14.1075 54.3191 13.1621C55.0783 12.2394 56.1879 11.7704 57.5711 11.7494C58.4934 11.7599 60.1882 12.0655 60.5309 13.3952L60.5561 13.5009V25.1593C60.5561 29.441 61.3629 32.8779 63.0965 35.4708C64.4658 37.5005 66.2544 39.1078 68.5211 40.2951C70.7885 41.4799 73.1725 42.0704 75.7328 42.0704C76.015 42.0704 76.5288 42.0623 77.0034 42.041V30.1946C74.6331 30.1946 73.6163 29.7564 72.8617 28.8506C72.1053 27.9465 71.7398 26.1561 71.7398 23.9185H75.7763V11.9878H71.9537C71.2348 7.51384 68.548 0.774605 58.5823 0.0238178C58.5823 0.0238178 57.4024 -0.0206344 56.478 0.0119172C55.7567 0.0378185 54.6835 0.141424 54.6835 0.141424ZM28.4092 27.4505C28.4092 29.4214 28.2024 30.4057 26.7729 30.4057C25.2804 30.4057 25.0449 29.5107 25.0449 27.7218V11.9878H13.4565V30.4673C13.4565 33.6818 14.2307 36.3294 16.0449 38.4102C17.8587 40.489 20.1002 41.5289 22.9007 41.5289C24.7946 41.5289 26.6963 40.9479 28.6707 39.7809C27.5828 43.9017 25.138 45.9615 21.4694 45.9615C20.3214 45.9615 19.2251 45.6395 17.4141 44.9948C17.4141 44.9948 15.7001 44.4505 13.4565 43.1449V52.7459C13.4565 52.7459 15.6882 54.1439 17.4141 54.7942C19.5282 55.5975 21.6095 56 23.705 56C28.4817 56 32.4764 54.1705 35.8419 50.5131C38.6627 47.4382 39.9976 43.398 39.9976 38.3952V11.9878H28.4092V27.4505ZM15.5131 40.8887L15.5047 40.8708C15.042 40.5009 14.6069 40.0844 14.1915 39.6076C12.3612 37.5096 11.588 34.8394 11.588 31.5968V0.774958H0V31.5964C0 34.839 0.782639 37.5093 2.61148 39.6076C4.43997 41.7056 6.70318 42.7543 9.52782 42.7543C10.1824 42.7543 10.8628 42.6717 11.5492 42.5212L11.588 42.5765V42.5156C12.7088 42.2258 14.2233 41.6776 15.5131 40.8887Z" fill="#EA0B8C"/>
</svg>
