<svg width="117" height="31" viewBox="0 0 117 31" fill="none" xmlns="http://www.w3.org/2000/svg">
<path d="M14.583 12.0756C12.959 5.0228 9.57184 3.1436 8.71344 1.8212C8.35384 1.2296 8.04064 0.6264 7.77384 0C7.72744 0.6264 7.64624 1.0208 7.10104 1.4964C6.01064 2.4476 1.40544 6.148 1.01104 14.1636C0.651436 21.634 6.59064 26.2392 7.37944 26.7148C7.98264 27.0048 8.71344 26.7148 9.07304 26.448C11.9382 24.5108 15.8474 19.3604 14.583 12.0756Z" fill="#10AA50"/>
<path d="M7.90217 22.6201C7.75137 24.4529 7.63537 25.5201 7.24097 26.5641C7.24097 26.5641 7.50777 28.3157 7.68177 30.1601H8.33137C8.48217 28.8609 8.71417 27.5617 9.02737 26.2857C8.20377 25.9029 7.93697 24.2325 7.90217 22.6201Z" fill="#B8C4C2"/>
<path d="M9.15502 26.39C8.35462 26.0188 8.12262 24.2904 8.08782 22.678C8.28502 20.01 8.34302 17.342 8.26182 14.6624C8.21542 13.2704 8.28502 1.6936 7.91382 0C8.16902 0.5684 8.45902 1.1252 8.77222 1.6704C9.63062 3.0044 12.983 4.8836 14.5838 11.9712C15.8366 19.2676 11.9854 24.4296 9.15502 26.39Z" fill="#12924F"/>
<path d="M115.214 23.954C114.228 23.954 113.439 23.1652 113.427 22.1792C113.427 21.2048 114.216 20.416 115.202 20.4044C116.177 20.3928 116.989 21.17 117 22.156C117.012 22.6316 116.826 23.084 116.49 23.432C116.153 23.7684 115.689 23.954 115.214 23.954ZM115.214 20.5668C114.553 20.5552 113.961 20.9496 113.706 21.5528C113.451 22.156 113.59 22.852 114.054 23.316C114.518 23.78 115.214 23.9192 115.817 23.6756C116.432 23.4204 116.826 22.8404 116.826 22.1792C116.838 21.75 116.675 21.3324 116.362 21.0308C116.061 20.7292 115.643 20.5552 115.214 20.5668ZM115.643 23.2928L115.191 22.3068H114.819V23.2928H114.541V21.054H115.214C115.701 21.054 115.91 21.2628 115.91 21.6804C115.91 22.0052 115.759 22.214 115.469 22.2836L115.945 23.2928H115.643ZM114.819 22.0748H115.214C115.527 22.0748 115.655 21.9704 115.655 21.6804C115.655 21.402 115.539 21.2976 115.179 21.2976H114.819V22.0748Z" fill="#21313C"/>
<path d="M89.1255 22.3533C89.6011 22.7245 90.5523 22.8869 91.3875 22.8869C92.4663 22.8869 93.5219 22.6781 94.5543 21.7501C95.6099 20.7873 96.3407 19.3257 96.3407 16.9825C96.3407 14.7437 95.4823 12.9109 93.7307 11.8437C92.7331 11.2289 91.4455 10.9853 89.9839 10.9853C89.5663 10.9853 89.1255 10.9969 88.8819 11.1129C88.7775 11.1941 88.7079 11.3101 88.6847 11.4261C88.6383 11.8321 88.6383 14.8829 88.6383 16.6809C88.6383 18.5253 88.6383 21.1005 88.6847 21.4137C88.7079 21.6921 88.8355 22.1561 89.1255 22.3533ZM84.6363 9.97607C85.0191 9.97607 86.4691 10.0457 87.1535 10.0457C88.4179 10.0457 89.2879 9.97607 91.6543 9.97607C93.6379 9.97607 95.2967 10.5097 96.4915 11.5305C97.9415 12.7833 98.7071 14.5233 98.7071 16.6345C98.7071 19.6389 97.3383 21.3673 95.9579 22.3533C94.5891 23.3741 92.8027 23.9541 90.2623 23.9541C88.9167 23.9541 86.5967 23.9077 84.6595 23.8845H84.6247C84.5319 23.7105 84.7871 23.0145 84.9379 22.9913C85.4715 22.9333 85.6107 22.9101 85.8543 22.8173C86.2603 22.6433 86.3531 22.4345 86.3995 21.7037C86.4691 20.3233 86.4459 18.6761 86.4459 16.8085C86.4459 15.4745 86.4691 12.8761 86.4227 12.0525C86.3531 11.3565 86.0631 11.1825 85.4715 11.0433C85.0539 10.9621 84.6363 10.8925 84.2071 10.8461C84.1723 10.7185 84.5087 10.1153 84.6247 9.97607" fill="#21313C"/>
<path d="M104.24 11.0665C104.159 11.0897 104.043 11.3101 104.043 11.4261C104.02 12.2265 103.996 14.3145 103.996 15.7529C104.008 15.8109 104.054 15.8573 104.112 15.8689C104.402 15.8921 105.122 15.9153 105.725 15.9153C106.572 15.9153 107.059 15.7993 107.337 15.6717C108.045 15.3121 108.381 14.5349 108.381 13.6881C108.381 11.7509 107.036 11.0201 105.04 11.0201C104.774 11.0201 104.507 11.0317 104.24 11.0665ZM109.321 19.9521C109.321 18.0033 107.882 16.8897 105.272 16.8897C105.156 16.8897 104.321 16.8665 104.124 16.9129C104.066 16.9361 103.996 16.9709 103.996 17.0173C103.996 18.4209 103.973 20.6597 104.043 21.5529C104.089 21.9241 104.356 22.4577 104.692 22.6201C105.04 22.8173 105.852 22.8637 106.409 22.8637C107.952 22.8637 109.321 21.9937 109.321 19.9521ZM100.203 9.97607C100.4 9.97607 101.004 10.0457 102.523 10.0457C103.95 10.0457 105.11 9.99927 106.502 9.99927C108.219 9.99927 110.597 10.6257 110.597 13.2009C110.597 14.4653 109.704 15.4861 108.532 15.9733C108.474 15.9965 108.474 16.0429 108.532 16.0661C110.191 16.4837 111.641 17.5045 111.641 19.4649C111.641 21.3789 110.458 22.5737 108.741 23.3277C107.685 23.7917 106.386 23.9541 105.075 23.9541C104.066 23.9541 101.363 23.8497 99.8668 23.8613C99.716 23.7917 100.006 23.0841 100.145 22.9681C100.493 22.9681 100.83 22.9101 101.154 22.8173C101.7 22.6781 101.758 22.5041 101.827 21.7037C101.874 21.0193 101.874 18.5485 101.874 16.7969C101.874 14.3957 101.897 12.7833 101.874 11.9829C101.85 11.3565 101.63 11.1593 101.201 11.0433C100.864 10.9737 100.308 10.9157 99.8552 10.8461C99.7508 10.7301 100.087 10.0689 100.203 9.97607Z" fill="#21313C"/>
<path d="M19.5021 23.9542C19.4441 23.8034 19.4209 23.6526 19.4325 23.5018C19.4325 23.3974 19.4557 23.293 19.5021 23.2002C19.7921 23.1538 20.0821 23.0958 20.3721 23.0262C20.7781 22.9218 20.9289 22.7014 20.9521 22.191C21.0101 20.9846 21.0217 18.7342 20.9985 17.145V17.0986C20.9985 16.9246 20.9985 16.6926 20.7781 16.5302C20.4069 16.2982 20.0009 16.1126 19.5833 15.9966C19.3977 15.9386 19.2817 15.8458 19.2933 15.7298C19.2933 15.6138 19.4209 15.4746 19.6645 15.4282C20.3257 15.3586 22.0425 14.9526 22.7153 14.6394C22.7849 14.7322 22.8197 14.8366 22.8081 14.9526C22.8081 15.0222 22.7965 15.1034 22.7849 15.173C22.7617 15.3934 22.7501 15.6486 22.7501 15.9038C22.7501 15.9734 22.7965 16.0198 22.8545 16.043C22.9125 16.0662 22.9821 16.043 23.0285 16.0082C24.3161 14.999 25.4645 14.6394 26.0561 14.6394C27.0305 14.6394 27.7845 15.1034 28.3645 16.0546C28.3993 16.101 28.4457 16.1358 28.5037 16.1358C28.5501 16.1358 28.5965 16.1126 28.6197 16.0662C29.8029 15.173 30.9745 14.6394 31.7633 14.6394C33.6077 14.6394 34.7213 16.0198 34.7213 18.3398C34.7213 19.001 34.7097 19.8478 34.7097 20.6366C34.6981 21.3326 34.6981 21.9822 34.6981 22.423C34.6981 22.539 34.8373 22.8406 35.0577 22.8986C35.3361 23.0262 35.7189 23.0958 36.2177 23.1886H36.2409C36.2757 23.3162 36.1945 23.8382 36.1249 23.9426C35.9973 23.9426 35.8233 23.931 35.6145 23.9194C35.2317 23.8962 34.6981 23.873 34.0949 23.873C32.8537 23.873 32.2157 23.8962 31.6009 23.931C31.5545 23.7802 31.5429 23.293 31.6009 23.1886C31.8445 23.1422 32.0997 23.0842 32.3549 23.0146C32.7377 22.887 32.8537 22.713 32.8769 22.191C32.8885 21.8198 32.9581 18.5718 32.8305 17.8062C32.7145 17.0058 32.1113 16.0662 30.7889 16.0662C30.3017 16.0662 29.5129 16.2634 28.7589 16.8434C28.7125 16.8898 28.6777 16.9594 28.6777 17.029V17.0406C28.7705 17.4582 28.7705 17.9454 28.7705 18.6878C28.7705 19.1054 28.7705 19.5462 28.7705 19.987C28.7589 20.8802 28.7589 21.727 28.7705 22.3766C28.7705 22.8058 29.0373 22.9102 29.2461 22.9914C29.3621 23.0262 29.4549 23.0378 29.5477 23.061C29.7217 23.1074 29.9073 23.1538 30.1857 23.2002C30.2205 23.3858 30.2205 23.5714 30.1741 23.757C30.1625 23.8266 30.1277 23.8962 30.0929 23.9542C29.4085 23.931 28.7009 23.9078 27.6917 23.9078C27.3901 23.9078 26.8797 23.9194 26.4389 23.931C26.0793 23.9426 25.7429 23.9542 25.5457 23.9542C25.4993 23.8266 25.4761 23.699 25.4761 23.5598C25.4761 23.4322 25.4993 23.3046 25.5573 23.2002L25.8241 23.1538C26.0677 23.1074 26.2649 23.0726 26.4621 23.0262C26.7985 22.9102 26.9261 22.7362 26.9493 22.307C27.0073 21.3094 27.0653 18.4442 26.9261 17.7366C26.6825 16.5766 26.0213 15.9966 24.9657 15.9966C24.3509 15.9966 23.5737 16.2982 22.9357 16.7738C22.8081 16.8898 22.7385 17.0638 22.7501 17.2262C22.7501 17.5742 22.7501 17.9802 22.7501 18.4094C22.7501 19.8478 22.7385 21.6458 22.7733 22.423C22.7965 22.655 22.8777 22.945 23.3301 23.0378C23.4229 23.0726 23.5969 23.0958 23.7941 23.1306C23.9101 23.1538 24.0261 23.177 24.1537 23.2002C24.2001 23.4438 24.1769 23.7106 24.0957 23.9542C23.8985 23.9542 23.6549 23.9426 23.3765 23.931C22.9589 23.9078 22.4253 23.8846 21.8221 23.8846C21.1145 23.8846 20.6273 23.9078 20.2329 23.931C19.9661 23.9426 19.7341 23.9542 19.5021 23.9542Z" fill="#21313C"/>
<path d="M42.0177 15.5674C41.6465 15.5558 41.2753 15.6602 40.9505 15.869C40.1733 16.333 39.7789 17.261 39.7789 18.6414C39.7789 21.205 41.0781 23.003 42.9457 23.003C43.4445 23.0146 43.9317 22.8406 44.3145 22.5158C44.8829 22.0634 45.1961 21.1122 45.1961 19.8014C45.1961 17.2726 43.9201 15.5674 42.0177 15.5674ZM42.3773 23.9542C39.0133 23.9542 37.8069 21.5066 37.8069 19.233C37.8069 17.6322 38.4681 16.391 39.7673 15.521C40.6837 14.9642 41.7277 14.6626 42.8065 14.6394C45.3817 14.6394 47.1797 16.4606 47.1797 19.0706C47.1797 20.857 46.4605 22.249 45.1033 23.1306C44.4537 23.525 43.3169 23.9542 42.3773 23.9542Z" fill="#21313C"/>
<path d="M76.5973 15.5674C76.2145 15.5558 75.8433 15.6602 75.5301 15.869C74.7413 16.333 74.3469 17.261 74.3469 18.6414C74.3469 21.205 75.6461 23.003 77.5137 23.003C78.0241 23.0146 78.5113 22.8406 78.8941 22.5158C79.4625 22.0634 79.7641 21.1122 79.7641 19.8014C79.7641 17.2726 78.4997 15.5674 76.5973 15.5674ZM76.9569 23.9542C73.5813 23.9542 72.3865 21.5066 72.3865 19.233C72.3865 17.6322 73.0477 16.391 74.3469 15.521C75.2633 14.9642 76.3073 14.6626 77.3861 14.6394C79.9613 14.6394 81.7593 16.4606 81.7593 19.0706C81.7593 20.857 81.0401 22.249 79.6829 23.1306C79.0217 23.525 77.8965 23.9542 76.9569 23.9542Z" fill="#21313C"/>
<path d="M65.1481 15.4862C64.1041 15.4862 63.4197 16.3098 63.4197 17.5626C63.4197 18.8154 63.9997 20.3118 65.6469 20.3118C65.9369 20.3118 66.4473 20.1958 66.7025 19.9174C67.0853 19.5694 67.3405 18.8618 67.3405 18.1078C67.3405 16.4722 66.5285 15.4862 65.1597 15.4862H65.1481ZM65.0205 24.1746C64.7189 24.1746 64.4289 24.2442 64.1737 24.3834C63.3385 24.9054 62.9441 25.4274 62.9441 26.0306C62.9441 26.5874 63.1761 27.0398 63.6517 27.4458C64.2433 27.933 65.0321 28.165 66.0645 28.165C68.1177 28.165 69.0225 27.0862 69.0225 26.0306C69.0225 25.2882 68.6513 24.7894 67.8625 24.511C67.2593 24.2906 66.2501 24.1746 65.0205 24.1746ZM65.1597 29.2786C63.9301 29.2786 63.0485 29.0234 62.2945 28.455C61.5637 27.8982 61.2273 27.0746 61.2273 26.5062C61.2389 26.1466 61.3781 25.787 61.6333 25.5202C61.8421 25.2882 62.3409 24.8358 63.4893 24.0702C63.5241 24.0586 63.5473 24.0238 63.5473 23.9774C63.5473 23.9426 63.5125 23.8962 63.4777 23.8846C62.5265 23.5366 62.2481 22.9566 62.1553 22.6434C62.1553 22.6318 62.1553 22.6086 62.1553 22.597C62.1205 22.4694 62.0973 22.3534 62.2713 22.2374C62.3989 22.1446 62.6077 22.017 62.8397 21.8894C63.1529 21.7154 63.4661 21.5182 63.7561 21.3094C63.7793 21.2746 63.8025 21.2282 63.7909 21.1818C63.7793 21.1354 63.7561 21.1006 63.7097 21.0774C62.3177 20.625 61.6217 19.6042 61.6217 18.0614C61.6101 17.087 62.0857 16.159 62.9093 15.5906C63.4661 15.1614 64.8697 14.6394 65.7861 14.6394H65.8441C66.7721 14.6626 67.3057 14.8482 68.0365 15.115C68.4541 15.2658 68.8949 15.3354 69.3357 15.3122C70.1129 15.3122 70.4493 15.0802 70.7509 14.8018C70.7973 14.9178 70.8205 15.057 70.8205 15.1846C70.8437 15.5094 70.7509 15.8226 70.5653 16.0894C70.4145 16.3098 70.0317 16.4606 69.6953 16.4606C69.6605 16.4606 69.6257 16.4606 69.5909 16.4606C69.4053 16.449 69.2313 16.4142 69.0573 16.3678L68.9645 16.4026C68.9413 16.4374 68.9529 16.4838 68.9761 16.5418C68.9877 16.5534 68.9877 16.565 68.9877 16.5766C69.0573 16.855 69.1037 17.1334 69.1153 17.4234C69.1153 19.0358 68.4657 19.7434 67.7581 20.2654C67.0853 20.7642 66.2733 21.0774 65.4149 21.147C65.4033 21.147 65.3105 21.1586 65.1481 21.1702C65.0437 21.1818 64.9045 21.1934 64.8813 21.1934H64.8581C64.7073 21.2398 64.3129 21.4254 64.3129 21.7734C64.3129 22.0518 64.4869 22.4114 65.3569 22.481L65.9137 22.5158C67.0505 22.597 68.4773 22.6898 69.1501 22.9102C70.0665 23.2234 70.6697 24.0818 70.6465 25.0214C70.6465 26.4714 69.5909 27.8402 67.8277 28.6754C66.9925 29.0582 66.0761 29.267 65.1597 29.2554" fill="#21313C"/>
<path d="M59.8468 23.0726C59.348 23.003 58.9884 22.9334 58.5708 22.7362C58.478 22.655 58.4316 22.5506 58.4084 22.423C58.362 21.7502 58.362 19.7666 58.362 18.4674C58.362 17.4118 58.188 16.4838 57.7356 15.8226C57.202 15.0802 56.4364 14.6394 55.4504 14.6394C54.5804 14.6394 53.4204 15.231 52.4576 16.043C52.4344 16.0662 52.2836 16.2054 52.2836 15.985C52.2952 15.7762 52.33 15.3354 52.3416 15.057C52.3648 14.9062 52.3068 14.7438 52.2024 14.6394C51.576 14.9526 49.8128 15.3702 49.1516 15.4398C48.676 15.5326 48.56 15.985 49.0704 16.1474C49.4764 16.2518 49.8708 16.4258 50.2304 16.6462C50.4276 16.797 50.4044 17.0174 50.4044 17.1914C50.4276 18.6762 50.4276 20.9382 50.358 22.1678C50.3348 22.655 50.2072 22.829 49.8476 22.9218L49.8824 22.9102C49.604 22.9798 49.3256 23.0262 49.0472 23.061C48.9428 23.177 48.9428 23.815 49.0472 23.9426C49.2792 23.9426 50.416 23.8846 51.3556 23.8846C52.6548 23.8846 53.3276 23.9426 53.664 23.9426C53.7916 23.7918 53.838 23.2002 53.7452 23.061C53.4436 23.0494 53.1304 23.003 52.8288 22.9334C52.4692 22.8406 52.388 22.6666 52.3648 22.2722C52.3184 21.2398 52.3184 19.0358 52.3184 17.5394C52.3184 17.1218 52.4228 16.9246 52.562 16.8086C53.0144 16.4142 53.7452 16.1474 54.3948 16.1474C55.0212 16.1474 55.4504 16.3446 55.7636 16.6114C56.1232 16.9246 56.3552 17.377 56.4016 17.8526C56.4944 18.6878 56.4712 20.3698 56.4712 21.8198C56.4712 22.6086 56.4016 22.8058 56.1116 22.8986C55.9724 22.9566 55.6128 23.0262 55.1952 23.0726C55.056 23.2002 55.1024 23.815 55.1952 23.9542C55.7752 23.9542 56.448 23.8846 57.434 23.8846C58.6636 23.8846 59.4408 23.9542 59.754 23.9542C59.8932 23.7918 59.9396 23.2234 59.8468 23.0726Z" fill="#21313C"/>
</svg>
