<svg width="142" height="34" viewBox="0 0 142 34" fill="none" xmlns="http://www.w3.org/2000/svg">
<path fill-rule="evenodd" clip-rule="evenodd" d="M15.0164 0.0728953C15.0164 0.113425 14.822 0.145791 14.5791 0.145791C14.3361 0.145791 14.1417 0.178156 14.1417 0.218686C14.1417 0.259216 13.9473 0.291581 13.7043 0.291581C13.4614 0.291581 13.2669 0.323947 13.2669 0.364476C13.2669 0.404569 13.1357 0.437372 12.9754 0.437372C12.815 0.437372 12.6838 0.470175 12.6838 0.510267C12.6838 0.550359 12.5526 0.583162 12.3922 0.583162C12.2318 0.583162 12.1006 0.615965 12.1006 0.656058C12.1006 0.69615 12.0022 0.728953 11.8819 0.728953C11.7617 0.728953 11.6632 0.761756 11.6632 0.801848C11.6632 0.841941 11.5648 0.874743 11.4446 0.874743C11.3243 0.874743 11.2259 0.907546 11.2259 0.947639C11.2259 0.987731 11.1275 1.02053 11.0072 1.02053C10.8869 1.02053 10.7885 1.05334 10.7885 1.09343C10.7885 1.13352 10.7229 1.16632 10.6427 1.16632C10.5625 1.16632 10.4969 1.19913 10.4969 1.23922C10.4969 1.27931 10.4313 1.31212 10.3511 1.31212C10.2709 1.31212 10.2053 1.34492 10.2053 1.38501C10.2053 1.4251 10.1069 1.45791 9.98665 1.45791C9.86637 1.45791 9.76797 1.49071 9.76797 1.5308C9.76797 1.57089 9.70236 1.6037 9.62218 1.6037C9.54199 1.6037 9.47639 1.6365 9.47639 1.67659C9.47639 1.71668 9.41078 1.74949 9.3306 1.74949C9.25041 1.74949 9.1848 1.78229 9.1848 1.82238C9.1848 1.86247 9.12642 1.89528 9.05512 1.89528C8.98376 1.89528 8.87813 1.96088 8.82033 2.04107C8.76252 2.12125 8.6569 2.18686 8.58553 2.18686C8.51424 2.18686 8.45585 2.21966 8.45585 2.25975C8.45585 2.29985 8.39746 2.33265 8.32617 2.33265C8.25481 2.33265 8.14918 2.39825 8.09138 2.47844C8.03357 2.55862 7.92794 2.62423 7.85658 2.62423C7.78529 2.62423 7.7269 2.65703 7.7269 2.69713C7.7269 2.73722 7.66851 2.77002 7.59722 2.77002C7.52585 2.77002 7.42023 2.83563 7.36242 2.91581C7.30462 2.996 7.21211 3.0616 7.15686 3.0616C7.10168 3.0616 6.96449 3.16001 6.85216 3.28029C6.73982 3.40056 6.61 3.49897 6.56371 3.49897C6.51749 3.49897 6.28642 3.69579 6.05031 3.93635C5.8142 4.1769 5.58589 4.37372 5.54288 4.37372C5.44061 4.37372 4.37372 5.4412 4.37372 5.54361C4.37372 5.58691 4.2097 5.78213 4.00924 5.97741C3.80878 6.1727 3.64476 6.37061 3.64476 6.41726C3.64476 6.46392 3.54636 6.59403 3.42608 6.70637C3.3058 6.8187 3.20739 6.94991 3.20739 6.99795C3.20739 7.04598 3.10898 7.1772 2.98871 7.28953C2.86843 7.40186 2.77002 7.53905 2.77002 7.59423C2.77002 7.64948 2.70441 7.74199 2.62423 7.7998C2.54404 7.8576 2.47844 7.96323 2.47844 8.03459C2.47844 8.10588 2.44564 8.16427 2.40554 8.16427C2.36545 8.16427 2.33265 8.22988 2.33265 8.31006C2.33265 8.39025 2.29985 8.45585 2.25975 8.45585C2.21966 8.45585 2.18686 8.52146 2.18686 8.60164C2.18686 8.68183 2.15406 8.74743 2.11396 8.74743C2.07387 8.74743 2.04107 8.80582 2.04107 8.87712C2.04107 8.94848 1.97546 9.0541 1.89528 9.11191C1.8097 9.17365 1.74949 9.30064 1.74949 9.4196C1.74949 9.53098 1.71668 9.62218 1.67659 9.62218C1.6365 9.62218 1.6037 9.68778 1.6037 9.76797C1.6037 9.84815 1.57089 9.91376 1.5308 9.91376C1.49071 9.91376 1.45791 9.97936 1.45791 10.0595C1.45791 10.1397 1.4251 10.2053 1.38501 10.2053C1.34492 10.2053 1.31211 10.2709 1.31211 10.3511C1.31211 10.4313 1.27931 10.4969 1.23922 10.4969C1.19913 10.4969 1.16632 10.5953 1.16632 10.7156C1.16632 10.8359 1.13352 10.9343 1.09343 10.9343C1.05334 10.9343 1.02053 10.9999 1.02053 11.0801C1.02053 11.1603 0.987731 11.2259 0.947639 11.2259C0.907546 11.2259 0.874743 11.3571 0.874743 11.5175C0.874743 11.6778 0.84194 11.809 0.801848 11.809C0.761756 11.809 0.728953 11.9074 0.728953 12.0277C0.728953 12.148 0.69615 12.2464 0.656057 12.2464C0.615965 12.2464 0.583162 12.3448 0.583162 12.4651C0.583162 12.5854 0.550359 12.6838 0.510267 12.6838C0.470175 12.6838 0.437372 12.8478 0.437372 13.0483C0.437372 13.2487 0.404569 13.4127 0.364476 13.4127C0.324384 13.4127 0.291581 13.5767 0.291581 13.7772C0.291581 13.9777 0.258778 14.1417 0.218686 14.1417C0.176188 14.1417 0.145791 14.3846 0.145791 14.7248C0.145791 15.065 0.115393 15.308 0.0728953 15.308C0.0265339 15.308 0 15.8912 0 16.9117C0 17.9322 0.0265339 18.5154 0.0728953 18.5154C0.116122 18.5154 0.145791 18.7827 0.145791 19.1715C0.145791 19.5602 0.175459 19.8275 0.218686 19.8275C0.258778 19.8275 0.291581 19.9587 0.291581 20.1191C0.291581 20.2795 0.324384 20.4107 0.364476 20.4107C0.404569 20.4107 0.437372 20.5747 0.437372 20.7752C0.437372 20.9756 0.470175 21.1396 0.510267 21.1396C0.550359 21.1396 0.583162 21.2708 0.583162 21.4312C0.583162 21.5916 0.615965 21.7228 0.656057 21.7228C0.69615 21.7228 0.728953 21.8212 0.728953 21.9415C0.728953 22.0618 0.761756 22.1602 0.801848 22.1602C0.84194 22.1602 0.874743 22.2586 0.874743 22.3789C0.874743 22.4991 0.907546 22.5975 0.947639 22.5975C0.987731 22.5975 1.02053 22.6959 1.02053 22.8162C1.02053 22.9365 1.05334 23.0349 1.09343 23.0349C1.13352 23.0349 1.16632 23.1005 1.16632 23.1807C1.16632 23.2609 1.19913 23.3265 1.23922 23.3265C1.27931 23.3265 1.31211 23.4249 1.31211 23.5452C1.31211 23.6655 1.34492 23.7639 1.38501 23.7639C1.4251 23.7639 1.45791 23.8295 1.45791 23.9097C1.45791 23.9898 1.49071 24.0554 1.5308 24.0554C1.57089 24.0554 1.6037 24.121 1.6037 24.2012C1.6037 24.2814 1.6365 24.347 1.67659 24.347C1.71668 24.347 1.74949 24.4126 1.74949 24.4928C1.74949 24.573 1.78229 24.6386 1.82238 24.6386C1.86247 24.6386 1.89528 24.7042 1.89528 24.7844C1.89528 24.8646 1.92808 24.9302 1.96817 24.9302C2.00826 24.9302 2.04107 24.9886 2.04107 25.0599C2.04107 25.1312 2.10667 25.2369 2.18686 25.2947C2.26704 25.3525 2.33265 25.4581 2.33265 25.5295C2.33265 25.6007 2.36545 25.6591 2.40554 25.6591C2.44564 25.6591 2.47844 25.7175 2.47844 25.7888C2.47844 25.8602 2.54404 25.9658 2.62423 26.0236C2.70441 26.0814 2.77002 26.1798 2.77002 26.2423C2.77002 26.3048 2.83563 26.4032 2.91581 26.461C2.996 26.5188 3.0616 26.6113 3.0616 26.6666C3.0616 26.7217 3.16001 26.8589 3.28029 26.9713C3.40056 27.0836 3.49897 27.2141 3.49897 27.2614C3.49897 27.3085 3.63018 27.4732 3.79055 27.6273C3.95092 27.7814 4.08214 27.9432 4.08214 27.9868C4.08214 28.0903 5.87886 29.8871 5.98244 29.8871C6.02603 29.8871 6.18779 30.0183 6.34189 30.1786C6.49599 30.339 6.66656 30.4702 6.72102 30.4702C6.77547 30.4702 6.86725 30.5358 6.92505 30.616C6.98286 30.6962 7.07536 30.7618 7.13062 30.7618C7.1858 30.7618 7.32299 30.8602 7.43532 30.9805C7.54765 31.1008 7.69206 31.1992 7.75613 31.1992C7.82028 31.1992 7.87269 31.232 7.87269 31.2721C7.87269 31.3122 7.93108 31.345 8.00237 31.345C8.07374 31.345 8.17936 31.4106 8.23717 31.4908C8.29497 31.5709 8.4006 31.6366 8.47196 31.6366C8.54325 31.6366 8.60164 31.6694 8.60164 31.7094C8.60164 31.7495 8.66725 31.7823 8.74743 31.7823C8.82762 31.7823 8.89322 31.8151 8.89322 31.8552C8.89322 31.8953 8.95883 31.9281 9.03901 31.9281C9.1192 31.9281 9.1848 31.9609 9.1848 32.001C9.1848 32.0411 9.25041 32.0739 9.3306 32.0739C9.41078 32.0739 9.47639 32.1067 9.47639 32.1468C9.47639 32.1869 9.54199 32.2197 9.62218 32.2197C9.70236 32.2197 9.76797 32.2525 9.76797 32.2926C9.76797 32.3327 9.83357 32.3655 9.91376 32.3655C9.99394 32.3655 10.0595 32.3983 10.0595 32.4384C10.0595 32.4785 10.1252 32.5113 10.2053 32.5113C10.2855 32.5113 10.3511 32.5441 10.3511 32.5842C10.3511 32.6243 10.4495 32.6571 10.5698 32.6571C10.6901 32.6571 10.7885 32.6243 10.7885 32.5842C10.7885 32.5441 10.7557 32.5113 10.7156 32.5113C10.6687 32.5113 10.6427 31.7581 10.6427 30.3973C10.6427 29.0366 10.6687 28.2834 10.7156 28.2834C10.7557 28.2834 10.7885 28.1522 10.7885 27.9918C10.7885 27.8314 10.8213 27.7002 10.8614 27.7002C10.9015 27.7002 10.9343 27.5362 10.9343 27.3357C10.9343 27.1353 10.9671 26.9713 11.0072 26.9713C11.0473 26.9713 11.0801 26.84 11.0801 26.6797C11.0801 26.5193 11.1129 26.3881 11.153 26.3881C11.1931 26.3881 11.2259 26.2241 11.2259 26.0236C11.2259 25.8232 11.2587 25.6591 11.2988 25.6591C11.3389 25.6591 11.3717 25.5279 11.3717 25.3676C11.3717 25.2072 11.4045 25.076 11.4446 25.076C11.4847 25.076 11.5175 24.9448 11.5175 24.7844C11.5175 24.624 11.5503 24.4928 11.5903 24.4928C11.6304 24.4928 11.6632 24.3616 11.6632 24.2012C11.6632 24.0409 11.696 23.9097 11.7361 23.9097C11.7762 23.9097 11.809 23.7784 11.809 23.6181C11.809 23.4577 11.8418 23.3265 11.8819 23.3265C11.922 23.3265 11.9548 23.1953 11.9548 23.0349C11.9548 22.8745 11.9876 22.7433 12.0277 22.7433C12.0678 22.7433 12.1006 22.5793 12.1006 22.3789C12.1006 22.1784 12.1334 22.0144 12.1735 22.0144C12.2136 22.0144 12.2464 21.8832 12.2464 21.7228C12.2464 21.5624 12.2792 21.4312 12.3193 21.4312C12.3594 21.4312 12.3922 21.3 12.3922 21.1396C12.3922 20.9793 12.425 20.8481 12.4651 20.8481C12.5052 20.8481 12.538 20.684 12.538 20.4836C12.538 20.2831 12.5708 20.1191 12.6109 20.1191C12.651 20.1191 12.6838 19.9907 12.6838 19.8336C12.6838 19.6765 12.7247 19.5289 12.7749 19.5055C12.8478 19.4716 12.8478 19.4545 12.7749 19.4205C12.7248 19.3971 12.6838 19.2823 12.6838 19.1654C12.6838 19.0485 12.651 18.9528 12.6109 18.9528C12.5708 18.9528 12.538 18.8216 12.538 18.6612C12.538 18.5008 12.5052 18.3696 12.4651 18.3696C12.425 18.3696 12.3922 18.2056 12.3922 18.0051C12.3922 17.8047 12.3594 17.6407 12.3193 17.6407C12.2761 17.6407 12.2464 17.3734 12.2464 16.9846C12.2464 16.5958 12.2761 16.3285 12.3193 16.3285C12.3598 16.3285 12.3922 16.1341 12.3922 15.8912C12.3922 15.6482 12.4246 15.4538 12.4651 15.4538C12.5052 15.4538 12.538 15.3554 12.538 15.2351C12.538 15.1148 12.5708 15.0164 12.6109 15.0164C12.651 15.0164 12.6838 14.9508 12.6838 14.8706C12.6838 14.7905 12.7166 14.7248 12.7567 14.7248C12.7968 14.7248 12.8296 14.6592 12.8296 14.5791C12.8296 14.4989 12.8624 14.4333 12.9025 14.4333C12.9426 14.4333 12.9754 14.3749 12.9754 14.3036C12.9754 14.2322 13.041 14.1266 13.1211 14.0688C13.2013 14.011 13.2669 13.9202 13.2669 13.8672C13.2669 13.742 13.5962 13.4127 13.7214 13.4127C13.7744 13.4127 13.8652 13.3471 13.923 13.2669C13.9808 13.1868 14.0864 13.1212 14.1578 13.1212C14.2291 13.1212 14.2875 13.0883 14.2875 13.0483C14.2875 13.0082 14.3531 12.9754 14.4333 12.9754C14.5134 12.9754 14.5791 12.9426 14.5791 12.9025C14.5791 12.8624 14.7404 12.8296 14.9375 12.8296C15.1529 12.8296 15.3128 12.7932 15.3384 12.7385C15.3724 12.6656 15.3894 12.6656 15.4234 12.7385C15.449 12.7932 15.6089 12.8296 15.8243 12.8296C16.0214 12.8296 16.1828 12.8624 16.1828 12.9025C16.1828 12.9426 16.2484 12.9754 16.3285 12.9754C16.4087 12.9754 16.4743 13.0082 16.4743 13.0483C16.4743 13.0883 16.525 13.1212 16.587 13.1212C16.7247 13.1212 17.0575 13.4425 17.0575 13.5756C17.0575 13.6286 17.1231 13.7194 17.2033 13.7772C17.2889 13.839 17.3491 13.9659 17.3491 14.0849C17.3491 14.1963 17.3819 14.2875 17.422 14.2875C17.4668 14.2875 17.4949 14.652 17.4949 15.2351C17.4949 15.8183 17.4668 16.1828 17.422 16.1828C17.3819 16.1828 17.3491 16.3468 17.3491 16.5472C17.3491 16.7477 17.3163 16.9117 17.2762 16.9117C17.2361 16.9117 17.2033 17.0101 17.2033 17.1304C17.2033 17.2507 17.1705 17.3491 17.1304 17.3491C17.0903 17.3491 17.0575 17.4803 17.0575 17.6407C17.0575 17.801 17.0247 17.9322 16.9846 17.9322C16.9445 17.9322 16.9117 18.0306 16.9117 18.1509C16.9117 18.2712 16.8789 18.3696 16.8388 18.3696C16.7987 18.3696 16.7659 18.468 16.7659 18.5883C16.7659 18.7086 16.7331 18.807 16.693 18.807C16.6529 18.807 16.6201 18.9382 16.6201 19.0986C16.6201 19.2589 16.5873 19.3901 16.5472 19.3901C16.5071 19.3901 16.4743 19.4886 16.4743 19.6088C16.4743 19.7291 16.4415 19.8275 16.4014 19.8275C16.3613 19.8275 16.3285 19.9259 16.3285 20.0462C16.3285 20.1665 16.2957 20.2649 16.2556 20.2649C16.2156 20.2649 16.1828 20.4289 16.1828 20.6294C16.1828 20.8298 16.1499 20.9938 16.1099 20.9938C16.0693 20.9938 16.037 21.1883 16.037 21.4312C16.037 21.6742 16.0693 21.8686 16.1099 21.8686C16.1499 21.8686 16.1828 21.9998 16.1828 22.1602C16.1828 22.3205 16.2156 22.4517 16.2556 22.4517C16.2957 22.4517 16.3285 22.5017 16.3285 22.5627C16.3285 22.707 17.0938 23.4723 17.2381 23.4723C17.2991 23.4723 17.3491 23.5051 17.3491 23.5452C17.3491 23.5853 17.4147 23.6181 17.4949 23.6181C17.5751 23.6181 17.6407 23.6509 17.6407 23.691C17.6407 23.7311 17.7391 23.7639 17.8593 23.7639C17.9796 23.7639 18.078 23.7967 18.078 23.8368C18.078 23.8793 18.321 23.9097 18.6612 23.9097C19.0014 23.9097 19.2444 23.8793 19.2444 23.8368C19.2444 23.7967 19.3756 23.7639 19.5359 23.7639C19.6963 23.7639 19.8275 23.7311 19.8275 23.691C19.8275 23.6509 19.9259 23.6181 20.0462 23.6181C20.1665 23.6181 20.2649 23.5853 20.2649 23.5452C20.2649 23.5051 20.3305 23.4723 20.4107 23.4723C20.4909 23.4723 20.5565 23.4395 20.5565 23.3994C20.5565 23.3593 20.6149 23.3265 20.6861 23.3265C20.7575 23.3265 20.8631 23.2609 20.9209 23.1807C20.9788 23.1005 21.0685 23.0349 21.1203 23.0349C21.2529 23.0349 22.4517 21.8216 22.4517 21.6874C22.4517 21.6266 22.4845 21.577 22.5246 21.577C22.5647 21.577 22.5975 21.5186 22.5975 21.4473C22.5975 21.376 22.6631 21.2703 22.7433 21.2125C22.8237 21.1546 22.8891 21.0238 22.8891 20.9209C22.8891 20.8181 22.9545 20.6873 23.0349 20.6294C23.1205 20.5676 23.1807 20.4406 23.1807 20.3217C23.1807 20.2103 23.2135 20.1191 23.2536 20.1191C23.2937 20.1191 23.3265 20.0207 23.3265 19.9004C23.3265 19.7801 23.3593 19.6817 23.3994 19.6817C23.4395 19.6817 23.4723 19.5833 23.4723 19.463C23.4723 19.3428 23.5051 19.2444 23.5452 19.2444C23.5853 19.2444 23.6181 19.1131 23.6181 18.9528C23.6181 18.7924 23.6509 18.6612 23.691 18.6612C23.7315 18.6612 23.7639 18.4668 23.7639 18.2238C23.7639 17.9809 23.7962 17.7864 23.8368 17.7864C23.883 17.7864 23.9096 17.2276 23.9096 16.2556C23.9096 15.2837 23.883 14.7248 23.8368 14.7248C23.7967 14.7248 23.7639 14.5608 23.7639 14.3604C23.7639 14.1599 23.7311 13.9959 23.691 13.9959C23.6509 13.9959 23.6181 13.8975 23.6181 13.7772C23.6181 13.6569 23.5853 13.5585 23.5452 13.5585C23.5051 13.5585 23.4723 13.4929 23.4723 13.4127C23.4723 13.3325 23.4395 13.2669 23.3994 13.2669C23.3593 13.2669 23.3265 13.2013 23.3265 13.1212C23.3265 13.041 23.2937 12.9754 23.2536 12.9754C23.2135 12.9754 23.1807 12.9098 23.1807 12.8296C23.1807 12.7494 23.1479 12.6838 23.1078 12.6838C23.0677 12.6838 23.0349 12.6182 23.0349 12.538C23.0349 12.4578 23.0021 12.3922 22.962 12.3922C22.9219 12.3922 22.8891 12.3398 22.8891 12.2756C22.8891 12.2116 22.7907 12.0672 22.6704 11.9548C22.5502 11.8425 22.4517 11.7138 22.4517 11.6689C22.4517 11.5624 21.6778 10.7885 21.5714 10.7885C21.5265 10.7885 21.3978 10.6901 21.2854 10.5698C21.1731 10.4495 21.0287 10.3511 20.9646 10.3511C20.9005 10.3511 20.848 10.3183 20.848 10.2782C20.848 10.2381 20.7824 10.2053 20.7023 10.2053C20.6221 10.2053 20.5565 10.1725 20.5565 10.1324C20.5565 10.0924 20.4909 10.0595 20.4107 10.0595C20.3305 10.0595 20.2649 10.0267 20.2649 9.98665C20.2649 9.94656 20.1993 9.91376 20.1191 9.91376C20.0389 9.91376 19.9733 9.88096 19.9733 9.84086C19.9733 9.80077 19.9077 9.76797 19.8275 9.76797C19.7473 9.76797 19.6817 9.73516 19.6817 9.69507C19.6817 9.65498 19.5833 9.62218 19.463 9.62218C19.3428 9.62218 19.2444 9.58937 19.2444 9.54928C19.2444 9.50919 19.0803 9.47639 18.8799 9.47639C18.6794 9.47639 18.5154 9.44358 18.5154 9.40349C18.5154 9.36296 18.321 9.3306 18.078 9.3306C17.8351 9.3306 17.6407 9.29823 17.6407 9.2577C17.6407 9.21396 17.3491 9.18481 16.9117 9.18481C16.4743 9.18481 16.1828 9.21396 16.1828 9.2577C16.1828 9.29932 15.9641 9.3306 15.6725 9.3306C15.3809 9.3306 15.1622 9.36187 15.1622 9.40349C15.1622 9.44358 14.9982 9.47639 14.7977 9.47639C14.5973 9.47639 14.4333 9.50919 14.4333 9.54928C14.4333 9.58937 14.3349 9.62218 14.2146 9.62218C14.0943 9.62218 13.9959 9.65498 13.9959 9.69507C13.9959 9.73516 13.9303 9.76797 13.8501 9.76797C13.7699 9.76797 13.7043 9.80077 13.7043 9.84086C13.7043 9.88096 13.6131 9.91376 13.5017 9.91376C13.3828 9.91376 13.2558 9.97397 13.194 10.0595C13.1362 10.1397 13.0306 10.2053 12.9592 10.2053C12.888 10.2053 12.8296 10.2381 12.8296 10.2782C12.8296 10.3183 12.7712 10.3511 12.6999 10.3511C12.6285 10.3511 12.5229 10.4167 12.4651 10.4969C12.4073 10.5771 12.3155 10.6427 12.2611 10.6427C12.2066 10.6427 12.036 10.7739 11.8819 10.9343C11.7278 11.0947 11.55 11.2259 11.4867 11.2259C11.4234 11.2259 11.3717 11.2769 11.3717 11.3392C11.3717 11.4016 11.1748 11.6458 10.9343 11.8819C10.6937 12.118 10.4969 12.3622 10.4969 12.4246C10.4969 12.487 10.4641 12.538 10.424 12.538C10.3839 12.538 10.3511 12.5964 10.3511 12.6677C10.3511 12.739 10.2855 12.8447 10.2053 12.9025C10.1252 12.9603 10.0595 13.0659 10.0595 13.1373C10.0595 13.2086 10.0267 13.2669 9.98665 13.2669C9.94656 13.2669 9.91376 13.3325 9.91376 13.4127C9.91376 13.4929 9.88095 13.5585 9.84086 13.5585C9.80077 13.5585 9.76797 13.6569 9.76797 13.7772C9.76797 13.8975 9.73516 13.9959 9.69507 13.9959C9.65498 13.9959 9.62218 14.0943 9.62218 14.2146C9.62218 14.3349 9.58937 14.4333 9.54928 14.4333C9.50919 14.4333 9.47639 14.5317 9.47639 14.652C9.47639 14.7722 9.44358 14.8706 9.40349 14.8706C9.36099 14.8706 9.3306 15.1136 9.3306 15.4538C9.3306 15.794 9.3002 16.037 9.2577 16.037C9.21608 16.037 9.1848 16.2556 9.1848 16.5472C9.1848 16.8388 9.21608 17.0575 9.2577 17.0575C9.29932 17.0575 9.3306 17.2762 9.3306 17.5678C9.3306 17.8593 9.36187 18.078 9.40349 18.078C9.44358 18.078 9.47639 18.2092 9.47639 18.3696C9.47639 18.53 9.50919 18.6612 9.54928 18.6612C9.58937 18.6612 9.62218 18.7268 9.62218 18.807C9.62218 18.8872 9.65498 18.9528 9.69507 18.9528C9.73516 18.9528 9.76797 19.0512 9.76797 19.1715C9.76797 19.2917 9.80077 19.3901 9.84086 19.3901C9.88095 19.3901 9.91376 19.4558 9.91376 19.5359C9.91376 19.6161 9.94656 19.6817 9.98665 19.6817C10.0267 19.6817 10.0595 19.7401 10.0595 19.8114C10.0595 19.8828 10.1252 19.9884 10.2053 20.0462C10.2855 20.104 10.3511 20.2024 10.3511 20.2649C10.3511 20.3274 10.4167 20.4258 10.4969 20.4836C10.5985 20.5568 10.6427 20.6723 10.6427 20.8642C10.6427 21.0156 10.6099 21.1396 10.5698 21.1396C10.5297 21.1396 10.4969 21.2708 10.4969 21.4312C10.4969 21.5916 10.4641 21.7228 10.424 21.7228C10.3839 21.7228 10.3511 21.854 10.3511 22.0144C10.3511 22.1747 10.3183 22.306 10.2782 22.306C10.2381 22.306 10.2053 22.4372 10.2053 22.5975C10.2053 22.7579 10.1725 22.8891 10.1324 22.8891C10.0924 22.8891 10.0595 22.9547 10.0595 23.0349C10.0595 23.1564 10.0109 23.1807 9.76797 23.1807C9.6076 23.1807 9.47639 23.1479 9.47639 23.1078C9.47639 23.0677 9.418 23.0349 9.3467 23.0349C9.27534 23.0349 9.16971 22.9693 9.11191 22.8891C9.0541 22.8089 8.96437 22.7433 8.91239 22.7433C8.78928 22.7433 7.7269 21.681 7.7269 21.5578C7.7269 21.5059 7.66129 21.4161 7.58111 21.3583C7.50092 21.3005 7.43532 21.1949 7.43532 21.1235C7.43532 21.0522 7.40251 20.9938 7.36242 20.9938C7.32233 20.9938 7.28953 20.9355 7.28953 20.8642C7.28953 20.7928 7.22392 20.6872 7.14374 20.6294C7.06355 20.5716 6.99795 20.4659 6.99795 20.3946C6.99795 20.3233 6.96514 20.2649 6.92505 20.2649C6.88496 20.2649 6.85216 20.1665 6.85216 20.0462C6.85216 19.9259 6.81935 19.8275 6.77926 19.8275C6.73917 19.8275 6.70637 19.7619 6.70637 19.6817C6.70637 19.6015 6.67356 19.5359 6.63347 19.5359C6.59338 19.5359 6.56057 19.4375 6.56057 19.3172C6.56057 19.197 6.52777 19.0986 6.48768 19.0986C6.44759 19.0986 6.41478 18.9674 6.41478 18.807C6.41478 18.6466 6.38198 18.5154 6.34189 18.5154C6.3018 18.5154 6.26899 18.3842 6.26899 18.2238C6.26899 18.0634 6.23619 17.9322 6.1961 17.9322C6.14981 17.9322 6.1232 17.3734 6.1232 16.4014C6.1232 15.4295 6.14981 14.8706 6.1961 14.8706C6.23619 14.8706 6.26899 14.7066 6.26899 14.5062C6.26899 14.3057 6.3018 14.1417 6.34189 14.1417C6.38198 14.1417 6.41478 14.0105 6.41478 13.8501C6.41478 13.6897 6.44759 13.5585 6.48768 13.5585C6.52777 13.5585 6.56057 13.4601 6.56057 13.3398C6.56057 13.2196 6.59338 13.1212 6.63347 13.1212C6.67356 13.1212 6.70637 13.0227 6.70637 12.9025C6.70637 12.7822 6.73917 12.6838 6.77926 12.6838C6.81935 12.6838 6.85216 12.6182 6.85216 12.538C6.85216 12.4578 6.88496 12.3922 6.92505 12.3922C6.96514 12.3922 6.99795 12.3266 6.99795 12.2464C6.99795 12.1662 7.03075 12.1006 7.07084 12.1006C7.11093 12.1006 7.14374 12.035 7.14374 11.9548C7.14374 11.8746 7.17654 11.809 7.21663 11.809C7.25672 11.809 7.28953 11.7434 7.28953 11.6632C7.28953 11.5831 7.32233 11.5175 7.36242 11.5175C7.40251 11.5175 7.43532 11.4591 7.43532 11.3878C7.43532 11.3164 7.50092 11.2108 7.58111 11.153C7.66129 11.0952 7.7269 10.9968 7.7269 10.9343C7.7269 10.8718 7.7925 10.7734 7.87269 10.7156C7.95287 10.6578 8.01848 10.5653 8.01848 10.51C8.01848 10.4549 8.11689 10.3177 8.23717 10.2053C8.35744 10.093 8.45585 9.96449 8.45585 9.91981C8.45585 9.81375 9.52216 8.74743 9.62823 8.74743C9.67291 8.74743 9.80143 8.64902 9.91376 8.52875C10.0261 8.40847 10.1633 8.31006 10.2185 8.31006C10.2737 8.31006 10.3662 8.24446 10.424 8.16427C10.4818 8.08409 10.5802 8.01848 10.6427 8.01848C10.7052 8.01848 10.8036 7.95288 10.8614 7.87269C10.9192 7.79251 11.0248 7.7269 11.0962 7.7269C11.1675 7.7269 11.2259 7.6941 11.2259 7.654C11.2259 7.61391 11.2915 7.58111 11.3717 7.58111C11.4518 7.58111 11.5175 7.54831 11.5175 7.50821C11.5175 7.46812 11.5831 7.43532 11.6632 7.43532C11.7434 7.43532 11.809 7.40252 11.809 7.36242C11.809 7.32233 11.8746 7.28953 11.9548 7.28953C12.035 7.28953 12.1006 7.25673 12.1006 7.21663C12.1006 7.17654 12.199 7.14374 12.3193 7.14374C12.4396 7.14374 12.538 7.11093 12.538 7.07084C12.538 7.03075 12.6364 6.99795 12.7567 6.99795C12.877 6.99795 12.9754 6.96514 12.9754 6.92505C12.9754 6.88496 13.041 6.85216 13.1211 6.85216C13.2013 6.85216 13.2669 6.81935 13.2669 6.77926C13.2669 6.73917 13.3982 6.70637 13.5585 6.70637C13.7189 6.70637 13.8501 6.67356 13.8501 6.63347C13.8501 6.59338 14.0141 6.56058 14.2146 6.56058C14.415 6.56058 14.5791 6.52777 14.5791 6.48768C14.5791 6.44759 14.7431 6.41478 14.9435 6.41478C15.144 6.41478 15.308 6.38198 15.308 6.34189C15.308 6.29516 15.9883 6.26899 17.2033 6.26899C18.4182 6.26899 19.0986 6.29516 19.0986 6.34189C19.0986 6.38198 19.2626 6.41478 19.463 6.41478C19.6635 6.41478 19.8275 6.44759 19.8275 6.48768C19.8275 6.52777 19.9587 6.56058 20.1191 6.56058C20.2795 6.56058 20.4107 6.59338 20.4107 6.63347C20.4107 6.67356 20.5419 6.70637 20.7023 6.70637C20.8626 6.70637 20.9938 6.73917 20.9938 6.77926C20.9938 6.81935 21.0594 6.85216 21.1396 6.85216C21.2198 6.85216 21.2854 6.88496 21.2854 6.92505C21.2854 6.96514 21.3838 6.99795 21.5041 6.99795C21.6244 6.99795 21.7228 7.03075 21.7228 7.07084C21.7228 7.11093 21.7884 7.14374 21.8686 7.14374C21.9488 7.14374 22.0144 7.17654 22.0144 7.21663C22.0144 7.25673 22.08 7.28953 22.1602 7.28953C22.2403 7.28953 22.306 7.32233 22.306 7.36242C22.306 7.40252 22.3716 7.43532 22.4517 7.43532C22.5319 7.43532 22.5975 7.46812 22.5975 7.50821C22.5975 7.54831 22.6631 7.58111 22.7433 7.58111C22.8235 7.58111 22.8891 7.61391 22.8891 7.654C22.8891 7.6941 22.9475 7.7269 23.0188 7.7269C23.0902 7.7269 23.1958 7.79251 23.2536 7.87269C23.3114 7.95288 23.4098 8.01848 23.4723 8.01848C23.5347 8.01848 23.6332 8.08409 23.691 8.16427C23.7488 8.24446 23.8401 8.31006 23.8941 8.31006C23.9479 8.31006 24.1517 8.47408 24.347 8.67454C24.5423 8.875 24.738 9.03901 24.7821 9.03901C24.8867 9.03901 25.3676 9.52063 25.3676 9.62546C25.3676 9.67007 25.4988 9.83255 25.6591 9.98665C25.8195 10.1408 25.9507 10.3113 25.9507 10.3658C25.9507 10.4202 26.0163 10.512 26.0965 10.5698C26.1767 10.6276 26.2423 10.726 26.2423 10.7885C26.2423 10.851 26.3079 10.9494 26.3881 11.0072C26.4683 11.065 26.5339 11.1706 26.5339 11.242C26.5339 11.3133 26.5667 11.3717 26.6068 11.3717C26.6469 11.3717 26.6797 11.4373 26.6797 11.5175C26.6797 11.5976 26.7125 11.6632 26.7526 11.6632C26.7927 11.6632 26.8255 11.7289 26.8255 11.809C26.8255 11.8892 26.8583 11.9548 26.8984 11.9548C26.9384 11.9548 26.9713 12.0204 26.9713 12.1006C26.9713 12.1808 27.0041 12.2464 27.0441 12.2464C27.0842 12.2464 27.117 12.312 27.117 12.3922C27.117 12.4724 27.1498 12.538 27.1899 12.538C27.23 12.538 27.2628 12.6364 27.2628 12.7567C27.2628 12.877 27.2956 12.9754 27.3357 12.9754C27.3758 12.9754 27.4086 13.1066 27.4086 13.2669C27.4086 13.4273 27.4414 13.5585 27.4815 13.5585C27.5216 13.5585 27.5544 13.6897 27.5544 13.8501C27.5544 14.0105 27.5872 14.1417 27.6273 14.1417C27.6678 14.1417 27.7002 14.3361 27.7002 14.5791C27.7002 14.822 27.7326 15.0164 27.7731 15.0164C27.8184 15.0164 27.846 15.4295 27.846 16.1099C27.846 16.7902 27.8184 17.2033 27.7731 17.2033C27.7306 17.2033 27.7002 17.4462 27.7002 17.7864C27.7002 18.1267 27.6698 18.3696 27.6273 18.3696C27.5872 18.3696 27.5544 18.5008 27.5544 18.6612C27.5544 18.8216 27.5216 18.9528 27.4815 18.9528C27.4414 18.9528 27.4086 19.1168 27.4086 19.3172C27.4086 19.5177 27.3758 19.6817 27.3357 19.6817C27.2956 19.6817 27.2628 19.7801 27.2628 19.9004C27.2628 20.0207 27.23 20.1191 27.1899 20.1191C27.1498 20.1191 27.117 20.1847 27.117 20.2649C27.117 20.3451 27.0842 20.4107 27.0441 20.4107C27.0041 20.4107 26.9713 20.5091 26.9713 20.6294C26.9713 20.7496 26.9384 20.8481 26.8984 20.8481C26.8583 20.8481 26.8255 20.9137 26.8255 20.9938C26.8255 21.074 26.7927 21.1396 26.7526 21.1396C26.7125 21.1396 26.6797 21.238 26.6797 21.3583C26.6797 21.4786 26.6469 21.577 26.6068 21.577C26.5667 21.577 26.5339 21.6354 26.5339 21.7067C26.5339 21.778 26.4683 21.8837 26.3881 21.9415C26.3079 21.9993 26.2423 22.1049 26.2423 22.1763C26.2423 22.2476 26.2095 22.306 26.1694 22.306C26.1293 22.306 26.0965 22.3643 26.0965 22.4356C26.0965 22.507 26.0309 22.6126 25.9507 22.6704C25.8705 22.7282 25.8049 22.8207 25.8049 22.876C25.8049 22.9312 25.7065 23.0684 25.5862 23.1807C25.466 23.293 25.3676 23.4215 25.3676 23.466C25.3676 23.5798 24.005 24.9302 23.8903 24.9302C23.8384 24.9302 23.7488 24.9958 23.691 25.076C23.6332 25.1562 23.5347 25.2218 23.4723 25.2218C23.4098 25.2218 23.3114 25.2874 23.2536 25.3676C23.1958 25.4477 23.0902 25.5133 23.0188 25.5133C22.9475 25.5133 22.8891 25.5462 22.8891 25.5862C22.8891 25.6263 22.8307 25.6591 22.7594 25.6591C22.6881 25.6591 22.5824 25.7247 22.5246 25.8049C22.4629 25.8905 22.3359 25.9507 22.2169 25.9507C22.1056 25.9507 22.0144 25.9835 22.0144 26.0236C22.0144 26.0637 21.9488 26.0965 21.8686 26.0965C21.7884 26.0965 21.7228 26.1293 21.7228 26.1694C21.7228 26.2095 21.6244 26.2423 21.5041 26.2423C21.3838 26.2423 21.2854 26.2751 21.2854 26.3152C21.2854 26.3553 21.1214 26.3881 20.9209 26.3881C20.7205 26.3881 20.5565 26.4209 20.5565 26.461C20.5565 26.5015 20.3621 26.5339 20.1191 26.5339C19.8761 26.5339 19.6817 26.5662 19.6817 26.6068C19.6817 26.65 19.4144 26.6797 19.0257 26.6797C18.6369 26.6797 18.3696 26.65 18.3696 26.6068C18.3696 26.5667 18.2056 26.5339 18.0051 26.5339C17.8047 26.5339 17.6407 26.5011 17.6407 26.461C17.6407 26.4209 17.5422 26.3881 17.422 26.3881C17.3017 26.3881 17.2033 26.3553 17.2033 26.3152C17.2033 26.2751 17.1377 26.2423 17.0575 26.2423C16.9773 26.2423 16.9117 26.2095 16.9117 26.1694C16.9117 26.1293 16.8205 26.0965 16.7091 26.0965C16.5902 26.0965 16.4632 26.0363 16.4014 25.9507C16.3436 25.8705 16.2528 25.8049 16.1996 25.8049C16.1464 25.8049 15.8764 25.5753 15.5996 25.2947C15.3228 25.014 15.0784 24.7844 15.0564 24.7844C15.0344 24.7844 15.0164 24.9156 15.0164 25.076C15.0164 25.2363 14.9836 25.3676 14.9435 25.3676C14.9034 25.3676 14.8706 25.4988 14.8706 25.6591C14.8706 25.8195 14.8378 25.9507 14.7977 25.9507C14.7576 25.9507 14.7248 26.0491 14.7248 26.1694C14.7248 26.2897 14.692 26.3881 14.6519 26.3881C14.6119 26.3881 14.5791 26.5193 14.5791 26.6797C14.5791 26.84 14.5463 26.9713 14.5062 26.9713C14.4661 26.9713 14.4333 27.1025 14.4333 27.2628C14.4333 27.4232 14.4005 27.5544 14.3604 27.5544C14.3203 27.5544 14.2875 27.6528 14.2875 27.7731C14.2875 27.8934 14.2547 27.9918 14.2146 27.9918C14.1745 27.9918 14.1417 28.1558 14.1417 28.3563C14.1417 28.5567 14.1089 28.7207 14.0688 28.7207C14.0287 28.7207 13.9959 28.8191 13.9959 28.9394C13.9959 29.0597 13.9631 29.1581 13.923 29.1581C13.8829 29.1581 13.8501 29.2565 13.8501 29.3768C13.8501 29.4971 13.8173 29.5955 13.7772 29.5955C13.7371 29.5955 13.7043 29.6611 13.7043 29.7413C13.7043 29.8215 13.6715 29.8871 13.6314 29.8871C13.5913 29.8871 13.5585 29.9855 13.5585 30.1058C13.5585 30.226 13.5257 30.3244 13.4856 30.3244C13.4455 30.3244 13.4127 30.39 13.4127 30.4702C13.4127 30.5504 13.3799 30.616 13.3398 30.616C13.2997 30.616 13.2669 30.6816 13.2669 30.7618C13.2669 30.842 13.2341 30.9076 13.194 30.9076C13.154 30.9076 13.1211 30.9732 13.1211 31.0534C13.1211 31.1336 13.0883 31.1992 13.0483 31.1992C13.0082 31.1992 12.9754 31.2648 12.9754 31.345C12.9754 31.4252 12.9426 31.4908 12.9025 31.4908C12.8624 31.4908 12.8296 31.5492 12.8296 31.6204C12.8296 31.6918 12.764 31.7974 12.6838 31.8552C12.6034 31.9132 12.538 32.044 12.538 32.1468C12.538 32.2497 12.4726 32.3804 12.3922 32.4384C12.312 32.4962 12.2464 32.5898 12.2464 32.6464C12.2464 32.703 12.1772 32.8094 12.0927 32.8827C11.9543 33.0027 11.9501 33.0272 12.051 33.1281C12.1126 33.1898 12.2474 33.2402 12.3506 33.2402C12.4536 33.2402 12.538 33.2731 12.538 33.3131C12.538 33.3532 12.6692 33.386 12.8296 33.386C12.9899 33.386 13.1211 33.4188 13.1211 33.4589C13.1211 33.499 13.2852 33.5318 13.4856 33.5318C13.6861 33.5318 13.8501 33.5646 13.8501 33.6047C13.8501 33.6453 14.0445 33.6776 14.2875 33.6776C14.5304 33.6776 14.7248 33.71 14.7248 33.7505C14.7248 33.7947 15.0407 33.8234 15.5267 33.8234C16.0127 33.8234 16.3285 33.8521 16.3285 33.8963C16.3285 33.9388 16.5715 33.9692 16.9117 33.9692C17.2519 33.9692 17.4949 33.9388 17.4949 33.8963C17.4949 33.8518 17.8351 33.8234 18.3696 33.8234C18.9042 33.8234 19.2444 33.7951 19.2444 33.7505C19.2444 33.7104 19.4084 33.6776 19.6088 33.6776C19.8093 33.6776 19.9733 33.6448 19.9733 33.6047C19.9733 33.5642 20.1677 33.5318 20.4107 33.5318C20.6536 33.5318 20.848 33.4995 20.848 33.4589C20.848 33.4188 20.9465 33.386 21.0667 33.386C21.187 33.386 21.2854 33.3532 21.2854 33.3131C21.2854 33.2731 21.4166 33.2402 21.577 33.2402C21.7374 33.2402 21.8686 33.2074 21.8686 33.1674C21.8686 33.1273 21.967 33.0945 22.0873 33.0945C22.2075 33.0945 22.306 33.0617 22.306 33.0216C22.306 32.9815 22.4044 32.9487 22.5246 32.9487C22.6449 32.9487 22.7433 32.9159 22.7433 32.8758C22.7433 32.8357 22.8417 32.8029 22.962 32.8029C23.0823 32.8029 23.1807 32.7701 23.1807 32.73C23.1807 32.6899 23.2463 32.6571 23.3265 32.6571C23.4067 32.6571 23.4723 32.6243 23.4723 32.5842C23.4723 32.5441 23.5379 32.5113 23.6181 32.5113C23.6983 32.5113 23.7639 32.4785 23.7639 32.4384C23.7639 32.3983 23.8623 32.3655 23.9825 32.3655C24.1028 32.3655 24.2012 32.3327 24.2012 32.2926C24.2012 32.2525 24.2668 32.2197 24.347 32.2197C24.4272 32.2197 24.4928 32.1869 24.4928 32.1468C24.4928 32.1067 24.5584 32.0739 24.6386 32.0739C24.7188 32.0739 24.7844 32.0411 24.7844 32.001C24.7844 31.9609 24.8428 31.9281 24.9141 31.9281C24.9854 31.9281 25.0911 31.8625 25.1489 31.7823C25.2067 31.7022 25.3123 31.6366 25.3837 31.6366C25.455 31.6366 25.5133 31.6037 25.5133 31.5637C25.5133 31.5236 25.5717 31.4908 25.643 31.4908C25.7144 31.4908 25.82 31.4252 25.8778 31.345C25.9356 31.2648 26.0413 31.1992 26.1126 31.1992C26.1839 31.1992 26.2423 31.1664 26.2423 31.1263C26.2423 31.0862 26.3007 31.0534 26.372 31.0534C26.4433 31.0534 26.549 30.9878 26.6068 30.9076C26.6646 30.8274 26.7564 30.7618 26.8108 30.7618C26.8653 30.7618 27.0358 30.6306 27.1899 30.4702C27.344 30.3099 27.507 30.1786 27.5522 30.1786C27.5974 30.1786 27.8608 29.949 28.1376 29.6684C28.4144 29.3877 28.6916 29.1581 28.7537 29.1581C28.8157 29.1581 28.8665 29.1066 28.8665 29.0436C28.8665 28.8963 29.0421 28.7207 29.1894 28.7207C29.2524 28.7207 29.3039 28.6697 29.3039 28.6074C29.3039 28.545 29.5007 28.3008 29.7413 28.0647C29.9818 27.8286 30.1786 27.5975 30.1786 27.5513C30.1786 27.505 30.2771 27.3752 30.3973 27.2628C30.5176 27.1505 30.616 27.0133 30.616 26.9581C30.616 26.9029 30.6816 26.8104 30.7618 26.7526C30.842 26.6948 30.9076 26.6023 30.9076 26.547C30.9076 26.4918 31.006 26.3546 31.1263 26.2423C31.2466 26.13 31.345 25.9856 31.345 25.9215C31.345 25.8573 31.3778 25.8049 31.4179 25.8049C31.458 25.8049 31.4908 25.7465 31.4908 25.6752C31.4908 25.6039 31.5564 25.4983 31.6365 25.4405C31.7167 25.3826 31.7823 25.277 31.7823 25.2057C31.7823 25.1344 31.8151 25.076 31.8552 25.076C31.8953 25.076 31.9281 25.0104 31.9281 24.9302C31.9281 24.85 31.9609 24.7844 32.001 24.7844C32.0411 24.7844 32.0739 24.7188 32.0739 24.6386C32.0739 24.5584 32.1067 24.4928 32.1468 24.4928C32.1869 24.4928 32.2197 24.4272 32.2197 24.347C32.2197 24.2668 32.2525 24.2012 32.2926 24.2012C32.3327 24.2012 32.3655 24.1356 32.3655 24.0554C32.3655 23.9753 32.3983 23.9097 32.4384 23.9097C32.4785 23.9097 32.5113 23.8112 32.5113 23.691C32.5113 23.5707 32.5441 23.4723 32.5842 23.4723C32.6243 23.4723 32.6571 23.4067 32.6571 23.3265C32.6571 23.2463 32.6899 23.1807 32.73 23.1807C32.7701 23.1807 32.8029 23.0823 32.8029 22.962C32.8029 22.8417 32.8357 22.7433 32.8758 22.7433C32.9159 22.7433 32.9487 22.6449 32.9487 22.5246C32.9487 22.4044 32.9815 22.306 33.0216 22.306C33.0617 22.306 33.0945 22.2075 33.0945 22.0873C33.0945 21.967 33.1273 21.8686 33.1674 21.8686C33.2074 21.8686 33.2402 21.7702 33.2402 21.6499C33.2402 21.5296 33.273 21.4312 33.3131 21.4312C33.3532 21.4312 33.386 21.3 33.386 21.1396C33.386 20.9793 33.4188 20.8481 33.4589 20.8481C33.499 20.8481 33.5318 20.7168 33.5318 20.5565C33.5318 20.3961 33.5646 20.2649 33.6047 20.2649C33.6463 20.2649 33.6776 20.0462 33.6776 19.7546C33.6776 19.463 33.7089 19.2444 33.7505 19.2444C33.7951 19.2444 33.8234 18.9042 33.8234 18.3696C33.8234 17.8351 33.8518 17.4949 33.8963 17.4949C33.9388 17.4949 33.9692 17.2519 33.9692 16.9117C33.9692 16.5715 33.9388 16.3285 33.8963 16.3285C33.8518 16.3285 33.8234 15.9883 33.8234 15.4538C33.8234 14.9193 33.7951 14.5791 33.7505 14.5791C33.71 14.5791 33.6776 14.3846 33.6776 14.1417C33.6776 13.8987 33.6453 13.7043 33.6047 13.7043C33.5646 13.7043 33.5318 13.5731 33.5318 13.4127C33.5318 13.2524 33.499 13.1212 33.4589 13.1212C33.4188 13.1212 33.386 12.9571 33.386 12.7567C33.386 12.5562 33.3532 12.3922 33.3131 12.3922C33.273 12.3922 33.2402 12.2938 33.2402 12.1735C33.2402 12.0532 33.2074 11.9548 33.1674 11.9548C33.1273 11.9548 33.0945 11.8564 33.0945 11.7361C33.0945 11.6159 33.0617 11.5175 33.0216 11.5175C32.9815 11.5175 32.9487 11.419 32.9487 11.2988C32.9487 11.1785 32.9159 11.0801 32.8758 11.0801C32.8357 11.0801 32.8029 10.9817 32.8029 10.8614C32.8029 10.7411 32.7701 10.6427 32.73 10.6427C32.6899 10.6427 32.6571 10.5771 32.6571 10.4969C32.6571 10.4167 32.6243 10.3511 32.5842 10.3511C32.5441 10.3511 32.5113 10.2527 32.5113 10.1324C32.5113 10.0122 32.4785 9.91376 32.4384 9.91376C32.3983 9.91376 32.3655 9.84815 32.3655 9.76797C32.3655 9.68778 32.3327 9.62218 32.2926 9.62218C32.2525 9.62218 32.2197 9.55657 32.2197 9.47639C32.2197 9.3962 32.1869 9.3306 32.1468 9.3306C32.1067 9.3306 32.0739 9.27221 32.0739 9.20091C32.0739 9.12955 32.0083 9.02393 31.9281 8.96612C31.8479 8.90831 31.7823 8.80269 31.7823 8.73132C31.7823 8.66003 31.7495 8.60164 31.7094 8.60164C31.6694 8.60164 31.6365 8.53604 31.6365 8.45585C31.6365 8.37567 31.6037 8.31006 31.5637 8.31006C31.5236 8.31006 31.4908 8.25167 31.4908 8.18038C31.4908 8.10902 31.4252 8.00339 31.345 7.94559C31.2648 7.88778 31.1992 7.78937 31.1992 7.7269C31.1992 7.66443 31.1336 7.56602 31.0534 7.50821C30.9732 7.45041 30.9076 7.352 30.9076 7.28953C30.9076 7.22706 30.842 7.12865 30.7618 7.07084C30.6816 7.01304 30.616 6.92126 30.616 6.86681C30.616 6.81236 30.4848 6.64178 30.3244 6.48768C30.1641 6.33358 30.0329 6.1719 30.0329 6.12831C30.0329 6.02399 27.798 3.79055 27.6936 3.79055C27.6492 3.79055 27.521 3.69215 27.4086 3.57187C27.2963 3.45159 27.1591 3.35318 27.1039 3.35318C27.0487 3.35318 26.9562 3.28758 26.8984 3.20739C26.8405 3.12721 26.748 3.0616 26.6928 3.0616C26.6376 3.0616 26.5004 2.96319 26.3881 2.84292C26.2758 2.72264 26.1386 2.62423 26.0834 2.62423C26.0281 2.62423 25.9356 2.55862 25.8778 2.47844C25.82 2.39825 25.7144 2.33265 25.643 2.33265C25.5717 2.33265 25.5133 2.29985 25.5133 2.25975C25.5133 2.21966 25.4477 2.18686 25.3676 2.18686C25.2874 2.18686 25.2218 2.15406 25.2218 2.11396C25.2218 2.07387 25.1562 2.04107 25.076 2.04107C24.9958 2.04107 24.9302 2.00827 24.9302 1.96817C24.9302 1.92808 24.8646 1.89528 24.7844 1.89528C24.7042 1.89528 24.6386 1.86247 24.6386 1.82238C24.6386 1.78229 24.573 1.74949 24.4928 1.74949C24.4126 1.74949 24.347 1.71668 24.347 1.67659C24.347 1.6365 24.2814 1.6037 24.2012 1.6037C24.121 1.6037 24.0554 1.57089 24.0554 1.5308C24.0554 1.49071 23.9898 1.45791 23.9096 1.45791C23.8295 1.45791 23.7639 1.4251 23.7639 1.38501C23.7639 1.34492 23.6983 1.31212 23.6181 1.31212C23.5379 1.31212 23.4723 1.27931 23.4723 1.23922C23.4723 1.19913 23.3739 1.16632 23.2536 1.16632C23.1333 1.16632 23.0349 1.13352 23.0349 1.09343C23.0349 1.05334 22.9365 1.02053 22.8162 1.02053C22.6959 1.02053 22.5975 0.987731 22.5975 0.947639C22.5975 0.907546 22.5319 0.874743 22.4517 0.874743C22.3716 0.874743 22.306 0.841941 22.306 0.801848C22.306 0.761756 22.1747 0.728953 22.0144 0.728953C21.854 0.728953 21.7228 0.69615 21.7228 0.656058C21.7228 0.615965 21.6244 0.583162 21.5041 0.583162C21.3838 0.583162 21.2854 0.550359 21.2854 0.510267C21.2854 0.470175 21.1542 0.437372 20.9938 0.437372C20.8335 0.437372 20.7023 0.404569 20.7023 0.364476C20.7023 0.323947 20.5078 0.291581 20.2649 0.291581C20.0219 0.291581 19.8275 0.259216 19.8275 0.218686C19.8275 0.177063 19.6088 0.145791 19.3172 0.145791C19.0257 0.145791 18.807 0.114518 18.807 0.0728953C18.807 0.0261694 18.1266 0 16.9117 0C15.6968 0 15.0164 0.0261694 15.0164 0.0728953ZM58.0246 5.61294C58.0246 5.65303 57.8606 5.68583 57.6602 5.68583C57.4597 5.68583 57.2957 5.71863 57.2957 5.75873C57.2957 5.79882 57.2105 5.83162 57.1062 5.83162C56.9897 5.83162 56.8381 5.91582 56.7125 6.05031C56.6002 6.17059 56.4699 6.26899 56.4229 6.26899C56.3071 6.26899 56.1294 6.45473 56.1294 6.57574C56.1294 6.6299 56.0638 6.72146 55.9836 6.77926C55.9034 6.83707 55.8378 6.94269 55.8378 7.01406C55.8378 7.08535 55.805 7.14374 55.7649 7.14374C55.7248 7.14374 55.692 7.20934 55.692 7.28953C55.692 7.36971 55.6592 7.43532 55.6191 7.43532C55.5749 7.43532 55.5462 7.75117 55.5462 8.23717C55.5462 8.72316 55.5749 9.03901 55.6191 9.03901C55.6592 9.03901 55.692 9.13742 55.692 9.2577C55.692 9.37798 55.7248 9.47639 55.7649 9.47639C55.805 9.47639 55.8378 9.52617 55.8378 9.58711C55.8378 9.73123 56.7493 10.6427 56.8934 10.6427C56.9543 10.6427 57.0041 10.6755 57.0041 10.7156C57.0041 10.7557 57.1025 10.7885 57.2228 10.7885C57.3431 10.7885 57.4415 10.8213 57.4415 10.8614C57.4415 10.9051 57.7331 10.9343 58.1704 10.9343C58.6078 10.9343 58.8994 10.9051 58.8994 10.8614C58.8994 10.8213 58.9978 10.7885 59.1181 10.7885C59.2383 10.7885 59.3368 10.7557 59.3368 10.7156C59.3368 10.6755 59.3865 10.6427 59.4475 10.6427C59.5916 10.6427 60.5031 9.73123 60.5031 9.58711C60.5031 9.52617 60.5359 9.47639 60.576 9.47639C60.6161 9.47639 60.6489 9.37798 60.6489 9.2577C60.6489 9.13742 60.6817 9.03901 60.7218 9.03901C60.7659 9.03901 60.7947 8.72316 60.7947 8.23717C60.7947 7.75117 60.7659 7.43532 60.7218 7.43532C60.6817 7.43532 60.6489 7.36971 60.6489 7.28953C60.6489 7.20934 60.6161 7.14374 60.576 7.14374C60.5359 7.14374 60.5031 7.08535 60.5031 7.01406C60.5031 6.94269 60.4375 6.83707 60.3573 6.77926C60.2771 6.72146 60.2115 6.6299 60.2115 6.57574C60.2115 6.44883 60.0317 6.26899 59.9048 6.26899C59.8506 6.26899 59.759 6.20339 59.7012 6.1232C59.6434 6.04302 59.5378 5.97741 59.4664 5.97741C59.3951 5.97741 59.3368 5.94461 59.3368 5.90452C59.3368 5.86443 59.2711 5.83162 59.191 5.83162C59.1108 5.83162 59.0452 5.79882 59.0452 5.75873C59.0452 5.71863 58.8812 5.68583 58.6807 5.68583C58.4802 5.68583 58.3162 5.65303 58.3162 5.61294C58.3162 5.57284 58.2506 5.54004 58.1704 5.54004C58.0902 5.54004 58.0246 5.57284 58.0246 5.61294ZM40.0924 16.2973C40.0924 24.6386 40.1073 26.049 40.1966 26.1381C40.2821 26.2237 40.6853 26.2423 42.4563 26.2423H44.6119V22.8891V19.5359H47.3819C49.18 19.5359 50.1519 19.5103 50.1519 19.463C50.1519 19.4229 50.2832 19.3901 50.4435 19.3901C50.6039 19.3901 50.7351 19.3573 50.7351 19.3172C50.7351 19.2772 50.8335 19.2444 50.9538 19.2444C51.0741 19.2444 51.1725 19.2116 51.1725 19.1715C51.1725 19.1314 51.2709 19.0986 51.3912 19.0986C51.5114 19.0986 51.6099 19.0658 51.6099 19.0257C51.6099 18.9856 51.6755 18.9528 51.7556 18.9528C51.8358 18.9528 51.9014 18.92 51.9014 18.8799C51.9014 18.8398 51.967 18.807 52.0472 18.807C52.1274 18.807 52.193 18.7742 52.193 18.7341C52.193 18.694 52.2514 18.6612 52.3227 18.6612C52.3941 18.6612 52.4997 18.5956 52.5575 18.5154C52.6153 18.4352 52.705 18.3696 52.7569 18.3696C52.8798 18.3696 54.0883 17.1612 54.0883 17.0382C54.0883 16.9863 54.1539 16.8966 54.2341 16.8388C54.3143 16.781 54.3799 16.6754 54.3799 16.604C54.3799 16.5327 54.4127 16.4743 54.4528 16.4743C54.4929 16.4743 54.5257 16.4087 54.5257 16.3285C54.5257 16.2484 54.5585 16.1828 54.5986 16.1828C54.6387 16.1828 54.6715 16.1171 54.6715 16.037C54.6715 15.9568 54.7043 15.8912 54.7444 15.8912C54.7844 15.8912 54.8172 15.7928 54.8172 15.6725C54.8172 15.5522 54.85 15.4538 54.8901 15.4538C54.9302 15.4538 54.963 15.3554 54.963 15.2351C54.963 15.1148 54.9958 15.0164 55.0359 15.0164C55.076 15.0164 55.1088 14.8524 55.1088 14.652C55.1088 14.4515 55.1416 14.2875 55.1817 14.2875C55.2273 14.2875 55.2546 13.8501 55.2546 13.1212C55.2546 12.3922 55.2273 11.9548 55.1817 11.9548C55.1416 11.9548 55.1088 11.8236 55.1088 11.6632C55.1088 11.5029 55.076 11.3717 55.0359 11.3717C54.9958 11.3717 54.963 11.2405 54.963 11.0801C54.963 10.9197 54.9302 10.7885 54.8901 10.7885C54.85 10.7885 54.8172 10.6901 54.8172 10.5698C54.8172 10.4495 54.7844 10.3511 54.7444 10.3511C54.7043 10.3511 54.6715 10.2855 54.6715 10.2053C54.6715 10.1252 54.6387 10.0595 54.5986 10.0595C54.5585 10.0595 54.5257 10.0012 54.5257 9.92987C54.5257 9.8585 54.4601 9.75288 54.3799 9.69507C54.2997 9.63727 54.2341 9.53164 54.2341 9.46028C54.2341 9.38899 54.2013 9.3306 54.1612 9.3306C54.1211 9.3306 54.0883 9.28095 54.0883 9.22023C54.0883 9.08603 52.8895 7.87269 52.7569 7.87269C52.705 7.87269 52.6153 7.80708 52.5575 7.7269C52.4997 7.64672 52.3941 7.58111 52.3227 7.58111C52.2514 7.58111 52.193 7.54831 52.193 7.50821C52.193 7.46812 52.1346 7.43532 52.0633 7.43532C51.992 7.43532 51.8863 7.36971 51.8285 7.28953C51.7668 7.20395 51.6398 7.14374 51.5208 7.14374C51.4095 7.14374 51.3183 7.11093 51.3183 7.07084C51.3183 7.03075 51.2199 6.99795 51.0996 6.99795C50.9793 6.99795 50.8809 6.96514 50.8809 6.92505C50.8809 6.88496 50.7825 6.85216 50.6622 6.85216C50.5419 6.85216 50.4435 6.81935 50.4435 6.77926C50.4435 6.73917 50.2795 6.70637 50.0791 6.70637C49.8786 6.70637 49.7146 6.67356 49.7146 6.63347C49.7146 6.58558 48.0623 6.56058 44.9035 6.56058H40.0924V16.2973ZM76.54 9.84086V12.1006H75.8111H75.0821V13.4856V14.8706H75.8111H76.54V19.0986C76.54 21.8686 76.5652 23.3265 76.6129 23.3265C76.653 23.3265 76.6858 23.4905 76.6858 23.691C76.6858 23.8914 76.7186 24.0554 76.7587 24.0554C76.7988 24.0554 76.8316 24.121 76.8316 24.2012C76.8316 24.2814 76.8644 24.347 76.9045 24.347C76.9446 24.347 76.9774 24.4296 76.9774 24.5306C76.9774 24.6593 77.1187 24.8555 77.4498 25.1867C77.7097 25.4465 77.9649 25.6591 78.017 25.6591C78.0689 25.6591 78.1588 25.7247 78.2166 25.8049C78.2784 25.8905 78.4053 25.9507 78.5243 25.9507C78.6357 25.9507 78.7269 25.9835 78.7269 26.0236C78.7269 26.0637 78.8253 26.0965 78.9456 26.0965C79.0659 26.0965 79.1643 26.1293 79.1643 26.1694C79.1643 26.2099 79.3587 26.2423 79.6016 26.2423C79.8446 26.2423 80.039 26.2747 80.039 26.3152C80.039 26.3608 80.4764 26.3881 81.2053 26.3881C81.9343 26.3881 82.3717 26.3608 82.3717 26.3152C82.3717 26.2751 82.5357 26.2423 82.7361 26.2423H83.1006V24.5657V22.8891H82.4446C82.0558 22.8891 81.7885 22.8594 81.7885 22.8162C81.7885 22.7761 81.705 22.7433 81.603 22.7433C81.3984 22.7433 81.0595 22.4499 81.0595 22.2728C81.0595 22.2108 81.0267 22.1602 80.9866 22.1602C80.939 22.1602 80.9138 20.8967 80.9138 18.5154V14.8706H82.0072H83.1006V13.4856V12.1006H82.0072H80.9138V9.84086V7.58111H78.7269H76.54V9.84086ZM135.439 9.84086V12.1006H134.71H133.982V13.4856V14.8706H134.71H135.439V19.2444C135.439 22.1115 135.464 23.6181 135.512 23.6181C135.552 23.6181 135.585 23.7493 135.585 23.9097C135.585 24.07 135.618 24.2012 135.658 24.2012C135.698 24.2012 135.731 24.2668 135.731 24.347C135.731 24.4272 135.764 24.4928 135.804 24.4928C135.844 24.4928 135.877 24.5584 135.877 24.6386C135.877 24.7188 135.91 24.7844 135.95 24.7844C135.99 24.7844 136.023 24.8347 136.023 24.8961C136.023 25.0326 136.491 25.5133 136.624 25.5133C136.676 25.5133 136.767 25.579 136.824 25.6591C136.882 25.7393 136.988 25.8049 137.059 25.8049C137.131 25.8049 137.189 25.8377 137.189 25.8778C137.189 25.9179 137.287 25.9507 137.408 25.9507C137.528 25.9507 137.626 25.9835 137.626 26.0236C137.626 26.0637 137.725 26.0965 137.845 26.0965C137.965 26.0965 138.064 26.1293 138.064 26.1694C138.064 26.2095 138.228 26.2423 138.428 26.2423C138.629 26.2423 138.793 26.2751 138.793 26.3152C138.793 26.3608 139.23 26.3881 139.959 26.3881C140.688 26.3881 141.125 26.3608 141.125 26.3152C141.125 26.2747 141.32 26.2423 141.563 26.2423H142V24.5657V22.8891H141.271C140.834 22.8891 140.542 22.86 140.542 22.8162C140.542 22.7761 140.492 22.7433 140.43 22.7433C140.369 22.7433 140.205 22.6296 140.066 22.4906L139.813 22.2379V18.7062C139.813 15.959 139.793 15.1677 139.723 15.1442C139.657 15.1223 139.665 15.0809 139.754 14.9924C139.856 14.8898 140.043 14.8706 140.938 14.8706H142V13.4856V12.1006H140.938C140.043 12.1006 139.856 12.0814 139.754 11.9789C139.665 11.8904 139.657 11.849 139.723 11.827C139.865 11.7796 139.852 7.82815 139.709 7.68528C139.624 7.59984 139.23 7.58111 137.522 7.58111H135.439V9.84086ZM49.2772 10.7156C49.2772 10.7557 49.3428 10.7885 49.423 10.7885C49.5032 10.7885 49.5688 10.8213 49.5688 10.8614C49.5688 10.9015 49.6187 10.9343 49.6797 10.9343C49.8241 10.9343 50.5893 11.6995 50.5893 11.8439C50.5893 11.9049 50.6221 11.9548 50.6622 11.9548C50.7023 11.9548 50.7351 12.0532 50.7351 12.1735C50.7351 12.2938 50.7679 12.3922 50.808 12.3922C50.8517 12.3922 50.8809 12.6838 50.8809 13.1212C50.8809 13.5585 50.8517 13.8501 50.808 13.8501C50.7679 13.8501 50.7351 13.9485 50.7351 14.0688C50.7351 14.1891 50.7023 14.2875 50.6622 14.2875C50.6221 14.2875 50.5893 14.3459 50.5893 14.4172C50.5893 14.4885 50.5237 14.5941 50.4435 14.652C50.3633 14.7098 50.2977 14.8013 50.2977 14.8555C50.2977 14.9824 50.1179 15.1622 49.991 15.1622C49.9368 15.1622 49.8453 15.2278 49.7875 15.308C49.7297 15.3882 49.624 15.4538 49.5527 15.4538C49.4814 15.4538 49.423 15.4866 49.423 15.5267C49.423 15.5668 49.3246 15.5996 49.2043 15.5996C49.084 15.5996 48.9856 15.6324 48.9856 15.6725C48.9856 15.7194 48.208 15.7454 46.7988 15.7454H44.6119V13.194V10.6427H46.9446C48.4511 10.6427 49.2772 10.6685 49.2772 10.7156ZM69.2505 11.7361C69.2505 11.7762 69.1193 11.809 68.9589 11.809C68.7986 11.809 68.6674 11.8418 68.6674 11.8819C68.6674 11.922 68.5361 11.9548 68.3758 11.9548C68.2154 11.9548 68.0842 11.9876 68.0842 12.0277C68.0842 12.0678 68.0186 12.1006 67.9384 12.1006C67.8582 12.1006 67.7926 12.1334 67.7926 12.1735C67.7926 12.2136 67.7342 12.2464 67.6629 12.2464C67.5916 12.2464 67.4859 12.312 67.4281 12.3922C67.3703 12.4724 67.2806 12.538 67.2288 12.538C67.0962 12.538 65.8973 13.7513 65.8973 13.8855C65.8973 13.9473 65.8331 13.9959 65.7515 13.9959C65.6133 13.9959 65.6057 13.9473 65.6057 13.0483V12.1006H63.4918H61.3778V19.1715V26.2423H63.5647H65.7515V22.2331C65.7515 19.6088 65.7767 18.2238 65.8244 18.2238C65.865 18.2238 65.8973 18.0294 65.8973 17.7864C65.8973 17.5435 65.9297 17.3491 65.9702 17.3491C66.0103 17.3491 66.0431 17.2507 66.0431 17.1304C66.0431 17.0101 66.0759 16.9117 66.116 16.9117C66.1561 16.9117 66.1889 16.8461 66.1889 16.7659C66.1889 16.6857 66.2217 16.6201 66.2618 16.6201C66.3019 16.6201 66.3347 16.5698 66.3347 16.5084C66.3347 16.3719 66.8029 15.8912 66.9358 15.8912C66.9884 15.8912 67.0787 15.8256 67.1365 15.7454C67.1944 15.6652 67.3 15.5996 67.3713 15.5996C67.4426 15.5996 67.501 15.5668 67.501 15.5267C67.501 15.4822 67.8412 15.4538 68.3758 15.4538C68.9103 15.4538 69.2505 15.4822 69.2505 15.5267C69.2505 15.5668 69.3004 15.5996 69.3615 15.5996C69.5058 15.5996 70.271 16.3648 70.271 16.5092C70.271 16.5702 70.3038 16.6201 70.3439 16.6201C70.384 16.6201 70.4168 16.7185 70.4168 16.8388C70.4168 16.9591 70.4496 17.0575 70.4897 17.0575C70.5376 17.0575 70.5626 18.6369 70.5626 21.6499V26.2423H72.7495H74.9363V20.8481C74.9363 17.3005 74.9114 15.4538 74.8634 15.4538C74.8234 15.4538 74.7906 15.3554 74.7906 15.2351C74.7906 15.1148 74.7578 15.0164 74.7177 15.0164C74.6776 15.0164 74.6448 14.918 74.6448 14.7977C74.6448 14.6775 74.612 14.5791 74.5719 14.5791C74.5318 14.5791 74.499 14.4879 74.499 14.3765C74.499 14.2575 74.4388 14.1305 74.3532 14.0688C74.273 14.011 74.2074 13.9126 74.2074 13.8501C74.2074 13.7876 74.1418 13.6892 74.0616 13.6314C73.9814 13.5736 73.9158 13.4837 73.9158 13.4315C73.9158 13.308 73.1458 12.538 73.0223 12.538C72.9701 12.538 72.8802 12.4724 72.8224 12.3922C72.7646 12.312 72.6589 12.2464 72.5876 12.2464C72.5163 12.2464 72.4579 12.2136 72.4579 12.1735C72.4579 12.1334 72.3923 12.1006 72.3121 12.1006C72.2319 12.1006 72.1663 12.0678 72.1663 12.0277C72.1663 11.9876 72.0351 11.9548 71.8747 11.9548C71.7144 11.9548 71.5832 11.922 71.5832 11.8819C71.5832 11.8418 71.452 11.809 71.2916 11.809C71.1312 11.809 71 11.7762 71 11.7361C71 11.6916 70.6598 11.6632 70.1253 11.6632C69.5907 11.6632 69.2505 11.6916 69.2505 11.7361ZM89.078 11.7361C89.078 11.7762 88.914 11.809 88.7135 11.809C88.5131 11.809 88.3491 11.8418 88.3491 11.8819C88.3491 11.922 88.2179 11.9548 88.0575 11.9548C87.8971 11.9548 87.7659 11.9876 87.7659 12.0277C87.7659 12.0678 87.6675 12.1006 87.5472 12.1006C87.4269 12.1006 87.3285 12.1334 87.3285 12.1735C87.3285 12.2136 87.2629 12.2464 87.1827 12.2464C87.1026 12.2464 87.037 12.2792 87.037 12.3193C87.037 12.3594 86.9714 12.3922 86.8912 12.3922C86.811 12.3922 86.7454 12.425 86.7454 12.4651C86.7454 12.5052 86.6798 12.538 86.5996 12.538C86.5194 12.538 86.4538 12.5708 86.4538 12.6109C86.4538 12.651 86.3954 12.6838 86.3241 12.6838C86.2527 12.6838 86.1471 12.7494 86.0893 12.8296C86.0315 12.9098 85.9397 12.9754 85.8853 12.9754C85.8308 12.9754 85.6603 13.1066 85.5062 13.2669C85.3521 13.4273 85.1743 13.5585 85.1109 13.5585C85.0445 13.5585 84.9959 13.6201 84.9959 13.7043C84.9959 13.8015 84.9473 13.8501 84.8501 13.8501C84.7651 13.8501 84.7043 13.8987 84.7043 13.9667C84.7043 14.0307 84.6059 14.1751 84.4856 14.2875C84.3653 14.3998 84.2669 14.537 84.2669 14.5922C84.2669 14.6474 84.2013 14.7399 84.1211 14.7977C84.041 14.8555 83.9754 14.9612 83.9754 15.0325C83.9754 15.1038 83.9426 15.1622 83.9025 15.1622C83.8624 15.1622 83.8296 15.2206 83.8296 15.2919C83.8296 15.3633 83.764 15.4689 83.6838 15.5267C83.5982 15.5884 83.538 15.7154 83.538 15.8344C83.538 15.9458 83.5052 16.037 83.4651 16.037C83.425 16.037 83.3922 16.1354 83.3922 16.2556C83.3922 16.3759 83.3594 16.4743 83.3193 16.4743C83.2792 16.4743 83.2464 16.5399 83.2464 16.6201C83.2464 16.7003 83.2136 16.7659 83.1735 16.7659C83.1334 16.7659 83.1006 16.9299 83.1006 17.1304C83.1006 17.3309 83.0678 17.4949 83.0277 17.4949C82.9845 17.4949 82.9548 17.7622 82.9548 18.1509C82.9548 18.5397 82.9252 18.807 82.8819 18.807C82.8418 18.807 82.809 18.9382 82.809 19.0986C82.809 19.2589 82.8418 19.3901 82.8819 19.3901C82.9252 19.3901 82.9548 19.6575 82.9548 20.0462C82.9548 20.435 82.9845 20.7023 83.0277 20.7023C83.0678 20.7023 83.1006 20.8663 83.1006 21.0667C83.1006 21.2672 83.1334 21.4312 83.1735 21.4312C83.2136 21.4312 83.2464 21.5296 83.2464 21.6499C83.2464 21.7702 83.2792 21.8686 83.3193 21.8686C83.3594 21.8686 83.3922 21.967 83.3922 22.0873C83.3922 22.2075 83.425 22.306 83.4651 22.306C83.5052 22.306 83.538 22.3716 83.538 22.4517C83.538 22.5319 83.5708 22.5975 83.6109 22.5975C83.651 22.5975 83.6838 22.6631 83.6838 22.7433C83.6838 22.8235 83.7166 22.8891 83.7567 22.8891C83.7968 22.8891 83.8296 22.9547 83.8296 23.0349C83.8296 23.1151 83.8624 23.1807 83.9025 23.1807C83.9426 23.1807 83.9754 23.2391 83.9754 23.3104C83.9754 23.3817 84.041 23.4874 84.1211 23.5452C84.2013 23.603 84.2669 23.6927 84.2669 23.7445C84.2669 23.8595 85.4714 25.076 85.5852 25.076C85.6299 25.076 85.7583 25.1744 85.8706 25.2947C85.983 25.4149 86.1274 25.5133 86.1914 25.5133C86.2556 25.5133 86.308 25.5462 86.308 25.5862C86.308 25.6263 86.3736 25.6591 86.4538 25.6591C86.534 25.6591 86.5996 25.6919 86.5996 25.732C86.5996 25.7721 86.6652 25.8049 86.7454 25.8049C86.8256 25.8049 86.8912 25.8377 86.8912 25.8778C86.8912 25.9179 86.9896 25.9507 87.1099 25.9507C87.2301 25.9507 87.3285 25.9835 87.3285 26.0236C87.3285 26.0637 87.3941 26.0965 87.4743 26.0965C87.5545 26.0965 87.6201 26.1293 87.6201 26.1694C87.6201 26.2095 87.7185 26.2423 87.8388 26.2423C87.9591 26.2423 88.0575 26.2751 88.0575 26.3152C88.0575 26.3553 88.2215 26.3881 88.422 26.3881C88.6224 26.3881 88.7864 26.4209 88.7864 26.461C88.7864 26.5073 89.3696 26.5339 90.3901 26.5339C91.4107 26.5339 91.9938 26.5073 91.9938 26.461C91.9938 26.4209 92.1579 26.3881 92.3583 26.3881C92.5588 26.3881 92.7228 26.3553 92.7228 26.3152C92.7228 26.2751 92.8212 26.2423 92.9415 26.2423C93.0618 26.2423 93.1602 26.2095 93.1602 26.1694C93.1602 26.1293 93.2258 26.0965 93.306 26.0965C93.3861 26.0965 93.4517 26.0637 93.4517 26.0236C93.4517 25.9835 93.5501 25.9507 93.6704 25.9507C93.7907 25.9507 93.8891 25.9179 93.8891 25.8778C93.8891 25.8377 93.9475 25.8049 94.0188 25.8049C94.0902 25.8049 94.1958 25.7393 94.2536 25.6591C94.3114 25.579 94.4098 25.5133 94.4723 25.5133C94.5347 25.5133 94.6332 25.4477 94.691 25.3676C94.7488 25.2874 94.8385 25.2218 94.8903 25.2218C95.0053 25.2218 96.2218 24.0173 96.2218 23.9035C96.2218 23.8588 96.3202 23.7304 96.4404 23.6181C96.5607 23.5057 96.6591 23.3613 96.6591 23.2973C96.6591 23.2331 96.6919 23.1807 96.732 23.1807C96.7721 23.1807 96.8049 23.1151 96.8049 23.0349C96.8049 22.9547 96.8377 22.8891 96.8778 22.8891C96.9179 22.8891 96.9507 22.7907 96.9507 22.6704C96.9507 22.5502 96.9835 22.4517 97.0236 22.4517C97.0637 22.4517 97.0965 22.3533 97.0965 22.2331V22.0144H94.9096C92.8618 22.0144 92.7228 22.0226 92.7228 22.1441C92.7228 22.2154 92.6572 22.321 92.577 22.3789C92.4968 22.4367 92.4312 22.5423 92.4312 22.6136C92.4312 22.6849 92.3788 22.7433 92.3146 22.7433C92.2506 22.7433 92.1062 22.8417 91.9938 22.962C91.8682 23.0965 91.7166 23.1807 91.6001 23.1807C91.4959 23.1807 91.4107 23.2135 91.4107 23.2536C91.4107 23.2937 91.2467 23.3265 91.0462 23.3265C90.8457 23.3265 90.6817 23.3593 90.6817 23.3994C90.6817 23.4395 90.5505 23.4723 90.3901 23.4723C90.2298 23.4723 90.0986 23.4395 90.0986 23.3994C90.0986 23.3593 89.9345 23.3265 89.7341 23.3265C89.5336 23.3265 89.3696 23.2937 89.3696 23.2536C89.3696 23.2135 89.2784 23.1807 89.167 23.1807C89.0481 23.1807 88.9211 23.1205 88.8593 23.0349C88.8015 22.9547 88.7114 22.8891 88.6591 22.8891C88.5264 22.8891 87.9117 22.2613 87.9117 22.1256C87.9117 22.0645 87.8789 22.0144 87.8388 22.0144C87.7987 22.0144 87.7659 21.9488 87.7659 21.8686C87.7659 21.7884 87.7331 21.7228 87.693 21.7228C87.6529 21.7228 87.6201 21.6572 87.6201 21.577C87.6201 21.4968 87.5873 21.4312 87.5472 21.4312C87.5071 21.4312 87.4743 21.3328 87.4743 21.2125C87.4743 21.0922 87.4415 20.9938 87.4014 20.9938C87.3613 20.9938 87.3285 20.8298 87.3285 20.6294V20.2649H92.3583H97.3881V19.3901C97.3881 18.8556 97.3597 18.5154 97.3152 18.5154C97.2751 18.5154 97.2423 18.3514 97.2423 18.1509C97.2423 17.9505 97.2095 17.7864 97.1694 17.7864C97.1293 17.7864 97.0965 17.6224 97.0965 17.422C97.0965 17.2215 97.0637 17.0575 97.0236 17.0575C96.9835 17.0575 96.9507 16.9591 96.9507 16.8388C96.9507 16.7185 96.9179 16.6201 96.8778 16.6201C96.8377 16.6201 96.8049 16.5217 96.8049 16.4014C96.8049 16.2812 96.7721 16.1828 96.732 16.1828C96.6919 16.1828 96.6591 16.0843 96.6591 15.9641C96.6591 15.8438 96.6263 15.7454 96.5862 15.7454C96.5461 15.7454 96.5133 15.6798 96.5133 15.5996C96.5133 15.5194 96.4805 15.4538 96.4404 15.4538C96.4004 15.4538 96.3676 15.3882 96.3676 15.308C96.3676 15.2278 96.3347 15.1622 96.2947 15.1622C96.2546 15.1622 96.2218 15.1098 96.2218 15.0457C96.2218 14.9816 96.1234 14.8372 96.0031 14.7248C95.8828 14.6125 95.7844 14.482 95.7844 14.4347C95.7844 14.3876 95.6532 14.2229 95.4928 14.0688C95.3324 13.9147 95.2012 13.7369 95.2012 13.6736C95.2012 13.6103 95.1499 13.5585 95.0872 13.5585C95.0244 13.5585 94.8134 13.3945 94.6181 13.194C94.4228 12.9936 94.2117 12.8296 94.149 12.8296C94.0862 12.8296 94.0349 12.7968 94.0349 12.7567C94.0349 12.7166 93.9765 12.6838 93.9052 12.6838C93.8339 12.6838 93.7282 12.6182 93.6704 12.538C93.6087 12.4524 93.4817 12.3922 93.3627 12.3922C93.2514 12.3922 93.1602 12.3594 93.1602 12.3193C93.1602 12.2792 93.0946 12.2464 93.0144 12.2464C92.9342 12.2464 92.8686 12.2136 92.8686 12.1735C92.8686 12.1334 92.803 12.1006 92.7228 12.1006C92.6426 12.1006 92.577 12.0678 92.577 12.0277C92.577 11.9876 92.413 11.9548 92.2125 11.9548C92.0121 11.9548 91.848 11.922 91.848 11.8819C91.848 11.8418 91.684 11.809 91.4836 11.809C91.2831 11.809 91.1191 11.7762 91.1191 11.7361C91.1191 11.691 90.7303 11.6632 90.0986 11.6632C89.4668 11.6632 89.078 11.691 89.078 11.7361ZM112.55 11.7361C112.55 11.7762 112.386 11.809 112.186 11.809C111.985 11.809 111.821 11.8418 111.821 11.8819C111.821 11.922 111.69 11.9548 111.53 11.9548C111.369 11.9548 111.238 11.9876 111.238 12.0277C111.238 12.0678 111.14 12.1006 111.02 12.1006C110.899 12.1006 110.801 12.1334 110.801 12.1735C110.801 12.2136 110.735 12.2464 110.655 12.2464C110.575 12.2464 110.509 12.2792 110.509 12.3193C110.509 12.3594 110.444 12.3922 110.363 12.3922C110.283 12.3922 110.218 12.425 110.218 12.4651C110.218 12.5052 110.152 12.538 110.072 12.538C109.992 12.538 109.926 12.5708 109.926 12.6109C109.926 12.651 109.86 12.6838 109.78 12.6838C109.7 12.6838 109.634 12.7166 109.634 12.7567C109.634 12.7968 109.583 12.8296 109.519 12.8296C109.456 12.8296 109.278 12.9608 109.124 13.1212C108.97 13.2815 108.808 13.4127 108.763 13.4127C108.658 13.4127 108.177 13.8938 108.177 13.9992C108.177 14.0438 108.045 14.2063 107.885 14.3604C107.725 14.5145 107.593 14.6923 107.593 14.7556C107.593 14.8189 107.561 14.8706 107.521 14.8706C107.48 14.8706 107.448 14.929 107.448 15.0003C107.448 15.0717 107.382 15.1773 107.302 15.2351C107.222 15.2929 107.156 15.3985 107.156 15.4699C107.156 15.5412 107.123 15.5996 107.083 15.5996C107.043 15.5996 107.01 15.698 107.01 15.8183C107.01 15.9386 106.977 16.037 106.937 16.037C106.897 16.037 106.864 16.1026 106.864 16.1828C106.864 16.2629 106.832 16.3285 106.792 16.3285C106.751 16.3285 106.719 16.4598 106.719 16.6201C106.719 16.7805 106.686 16.9117 106.646 16.9117C106.606 16.9117 106.573 17.0429 106.573 17.2033C106.573 17.3637 106.54 17.4949 106.5 17.4949C106.459 17.4949 106.427 17.6893 106.427 17.9322C106.427 18.1752 106.395 18.3696 106.354 18.3696C106.31 18.3696 106.281 18.6612 106.281 19.0986C106.281 19.5359 106.31 19.8275 106.354 19.8275C106.396 19.8275 106.427 20.0462 106.427 20.3378C106.427 20.6294 106.458 20.8481 106.5 20.8481C106.54 20.8481 106.573 20.9793 106.573 21.1396C106.573 21.3 106.606 21.4312 106.646 21.4312C106.686 21.4312 106.719 21.5296 106.719 21.6499C106.719 21.7702 106.751 21.8686 106.792 21.8686C106.832 21.8686 106.864 21.967 106.864 22.0873C106.864 22.2075 106.897 22.306 106.937 22.306C106.977 22.306 107.01 22.3716 107.01 22.4517C107.01 22.5319 107.043 22.5975 107.083 22.5975C107.123 22.5975 107.156 22.6631 107.156 22.7433C107.156 22.8235 107.189 22.8891 107.229 22.8891C107.269 22.8891 107.302 22.9547 107.302 23.0349C107.302 23.1151 107.335 23.1807 107.375 23.1807C107.415 23.1807 107.448 23.2331 107.448 23.2973C107.448 23.3613 107.546 23.5057 107.666 23.6181C107.787 23.7304 107.885 23.8588 107.885 23.9035C107.885 24.0173 109.101 25.2218 109.216 25.2218C109.268 25.2218 109.358 25.2874 109.416 25.3676C109.474 25.4477 109.579 25.5133 109.651 25.5133C109.722 25.5133 109.78 25.5462 109.78 25.5862C109.78 25.6263 109.846 25.6591 109.926 25.6591C110.006 25.6591 110.072 25.6919 110.072 25.732C110.072 25.7721 110.137 25.8049 110.218 25.8049C110.298 25.8049 110.363 25.8377 110.363 25.8778C110.363 25.9179 110.429 25.9507 110.509 25.9507C110.589 25.9507 110.655 25.9835 110.655 26.0236C110.655 26.0637 110.753 26.0965 110.874 26.0965C110.994 26.0965 111.092 26.1293 111.092 26.1694C111.092 26.2095 111.191 26.2423 111.311 26.2423C111.431 26.2423 111.53 26.2751 111.53 26.3152C111.53 26.3553 111.694 26.3881 111.894 26.3881C112.095 26.3881 112.259 26.4209 112.259 26.461C112.259 26.5073 112.842 26.5339 113.862 26.5339C114.883 26.5339 115.466 26.5073 115.466 26.461C115.466 26.4209 115.63 26.3881 115.831 26.3881C116.031 26.3881 116.195 26.3553 116.195 26.3152C116.195 26.2751 116.293 26.2423 116.414 26.2423C116.534 26.2423 116.632 26.2095 116.632 26.1694C116.632 26.1293 116.698 26.0965 116.778 26.0965C116.858 26.0965 116.924 26.0637 116.924 26.0236C116.924 25.9835 117.015 25.9507 117.127 25.9507C117.246 25.9507 117.373 25.8905 117.434 25.8049C117.492 25.7247 117.598 25.6591 117.669 25.6591C117.74 25.6591 117.799 25.6263 117.799 25.5862C117.799 25.5462 117.857 25.5133 117.928 25.5133C118 25.5133 118.105 25.4477 118.163 25.3676C118.221 25.2874 118.311 25.2218 118.363 25.2218C118.495 25.2218 119.84 23.8624 119.84 23.7284C119.84 23.6677 119.873 23.6181 119.913 23.6181C119.953 23.6181 119.986 23.5597 119.986 23.4884C119.986 23.417 120.051 23.3114 120.131 23.2536C120.217 23.1919 120.277 23.0649 120.277 22.9459C120.277 22.8345 120.31 22.7433 120.35 22.7433C120.39 22.7433 120.423 22.6777 120.423 22.5975C120.423 22.5174 120.456 22.4517 120.496 22.4517C120.536 22.4517 120.569 22.3533 120.569 22.2331V22.0144H118.382C116.475 22.0144 116.195 22.0285 116.195 22.1251C116.195 22.318 115.273 23.1807 115.067 23.1807C114.966 23.1807 114.883 23.2135 114.883 23.2536C114.883 23.2937 114.719 23.3265 114.518 23.3265C114.318 23.3265 114.154 23.3593 114.154 23.3994C114.154 23.4395 114.023 23.4723 113.862 23.4723C113.702 23.4723 113.571 23.4395 113.571 23.3994C113.571 23.3593 113.407 23.3265 113.206 23.3265C113.006 23.3265 112.842 23.2937 112.842 23.2536C112.842 23.2135 112.751 23.1807 112.639 23.1807C112.52 23.1807 112.393 23.1205 112.332 23.0349C112.274 22.9547 112.184 22.8891 112.131 22.8891C112.008 22.8891 111.384 22.2656 111.384 22.1417C111.384 22.0894 111.318 21.9993 111.238 21.9415C111.153 21.8797 111.092 21.7528 111.092 21.6338C111.092 21.5224 111.06 21.4312 111.02 21.4312C110.979 21.4312 110.947 21.3328 110.947 21.2125C110.947 21.0922 110.914 20.9938 110.874 20.9938C110.834 20.9938 110.801 20.8982 110.801 20.7812C110.801 20.6643 110.76 20.5551 110.71 20.5385C110.645 20.5165 110.653 20.4751 110.742 20.3866C110.853 20.2753 111.29 20.2649 115.862 20.2649H120.86V19.5359C120.86 19.0986 120.831 18.807 120.787 18.807C120.746 18.807 120.715 18.5883 120.715 18.2967C120.715 18.0051 120.683 17.7864 120.642 17.7864C120.602 17.7864 120.569 17.6224 120.569 17.422C120.569 17.2215 120.536 17.0575 120.496 17.0575C120.456 17.0575 120.423 16.9591 120.423 16.8388C120.423 16.7185 120.39 16.6201 120.35 16.6201C120.31 16.6201 120.277 16.5217 120.277 16.4014C120.277 16.2812 120.244 16.1828 120.204 16.1828C120.164 16.1828 120.131 16.1171 120.131 16.037C120.131 15.9568 120.099 15.8912 120.059 15.8912C120.018 15.8912 119.986 15.8256 119.986 15.7454C119.986 15.6652 119.953 15.5996 119.913 15.5996C119.873 15.5996 119.84 15.5084 119.84 15.397C119.84 15.278 119.78 15.1511 119.694 15.0893C119.614 15.0315 119.548 14.9331 119.548 14.8706C119.548 14.8082 119.483 14.7098 119.402 14.652C119.322 14.5941 119.257 14.5024 119.257 14.4479C119.257 14.3935 119.125 14.2229 118.965 14.0688C118.805 13.9147 118.674 13.7369 118.674 13.6736C118.674 13.6103 118.622 13.5585 118.559 13.5585C118.497 13.5585 118.286 13.3945 118.09 13.194C117.895 12.9936 117.684 12.8296 117.621 12.8296C117.558 12.8296 117.507 12.7968 117.507 12.7567C117.507 12.7166 117.449 12.6838 117.377 12.6838C117.306 12.6838 117.201 12.6182 117.143 12.538C117.081 12.4524 116.954 12.3922 116.835 12.3922C116.724 12.3922 116.632 12.3594 116.632 12.3193C116.632 12.2792 116.567 12.2464 116.487 12.2464C116.406 12.2464 116.341 12.2136 116.341 12.1735C116.341 12.1334 116.242 12.1006 116.122 12.1006C116.002 12.1006 115.903 12.0678 115.903 12.0277C115.903 11.9876 115.772 11.9548 115.612 11.9548C115.452 11.9548 115.32 11.922 115.32 11.8819C115.32 11.8418 115.156 11.809 114.956 11.809C114.755 11.809 114.591 11.7762 114.591 11.7361C114.591 11.691 114.203 11.6632 113.571 11.6632C112.939 11.6632 112.55 11.691 112.55 11.7361ZM126.255 11.7361C126.255 11.7767 126.06 11.809 125.817 11.809C125.574 11.809 125.38 11.8414 125.38 11.8819C125.38 11.922 125.249 11.9548 125.088 11.9548C124.928 11.9548 124.797 11.9876 124.797 12.0277C124.797 12.0678 124.698 12.1006 124.578 12.1006C124.458 12.1006 124.359 12.1334 124.359 12.1735C124.359 12.2136 124.261 12.2464 124.141 12.2464C124.02 12.2464 123.922 12.2792 123.922 12.3193C123.922 12.3594 123.856 12.3922 123.776 12.3922C123.696 12.3922 123.63 12.425 123.63 12.4651C123.63 12.5052 123.572 12.538 123.501 12.538C123.429 12.538 123.324 12.6036 123.266 12.6838C123.208 12.764 123.118 12.8296 123.066 12.8296C122.934 12.8296 121.881 13.8968 121.881 14.0312C121.881 14.092 121.848 14.1417 121.808 14.1417C121.768 14.1417 121.735 14.2073 121.735 14.2875C121.735 14.3677 121.702 14.4333 121.662 14.4333C121.622 14.4333 121.589 14.4989 121.589 14.5791C121.589 14.6592 121.557 14.7248 121.516 14.7248C121.476 14.7248 121.444 14.8233 121.444 14.9435C121.444 15.0638 121.411 15.1622 121.371 15.1622C121.326 15.1622 121.298 15.551 121.298 16.1828C121.298 16.8145 121.326 17.2033 121.371 17.2033C121.411 17.2033 121.444 17.3345 121.444 17.4949C121.444 17.6552 121.476 17.7864 121.516 17.7864C121.557 17.7864 121.589 17.8521 121.589 17.9322C121.589 18.0124 121.622 18.078 121.662 18.078C121.702 18.078 121.735 18.1436 121.735 18.2238C121.735 18.304 121.768 18.3696 121.808 18.3696C121.848 18.3696 121.881 18.4195 121.881 18.4806C121.881 18.6249 122.646 19.3901 122.79 19.3901C122.852 19.3901 122.901 19.4229 122.901 19.463C122.901 19.5031 122.96 19.5359 123.031 19.5359C123.102 19.5359 123.208 19.6015 123.266 19.6817C123.328 19.7673 123.455 19.8275 123.574 19.8275C123.685 19.8275 123.776 19.8603 123.776 19.9004C123.776 19.9405 123.875 19.9733 123.995 19.9733C124.115 19.9733 124.214 20.0061 124.214 20.0462C124.214 20.0863 124.312 20.1191 124.432 20.1191C124.553 20.1191 124.651 20.1519 124.651 20.192C124.651 20.2321 124.782 20.2649 124.942 20.2649C125.103 20.2649 125.234 20.2977 125.234 20.3378C125.234 20.3779 125.398 20.4107 125.599 20.4107C125.799 20.4107 125.963 20.4435 125.963 20.4836C125.963 20.5237 126.127 20.5565 126.328 20.5565C126.528 20.5565 126.692 20.5893 126.692 20.6294C126.692 20.671 126.911 20.7023 127.202 20.7023C127.494 20.7023 127.713 20.7335 127.713 20.7752C127.713 20.8152 127.844 20.8481 128.004 20.8481C128.164 20.8481 128.296 20.8809 128.296 20.9209C128.296 20.961 128.394 20.9938 128.514 20.9938C128.635 20.9938 128.733 21.0266 128.733 21.0667C128.733 21.1068 128.831 21.1396 128.952 21.1396C129.072 21.1396 129.17 21.1724 129.17 21.2125C129.17 21.2526 129.221 21.2854 129.283 21.2854C129.429 21.2854 129.754 21.6101 129.754 21.756C129.754 21.8179 129.786 21.8686 129.826 21.8686C129.868 21.8686 129.899 22.0758 129.899 22.3443C129.899 22.8105 129.893 22.8266 129.573 23.1461C129.394 23.3255 129.197 23.4723 129.136 23.4723C129.075 23.4723 129.025 23.5051 129.025 23.5452C129.025 23.5853 128.861 23.6181 128.66 23.6181C128.46 23.6181 128.296 23.6509 128.296 23.691C128.296 23.7335 128.053 23.7639 127.713 23.7639C127.372 23.7639 127.129 23.7335 127.129 23.691C127.129 23.6509 126.973 23.6181 126.781 23.6181C126.516 23.6181 126.407 23.5831 126.328 23.4723C126.27 23.3921 126.18 23.3265 126.127 23.3265C125.995 23.3265 125.38 22.6986 125.38 22.563C125.38 22.5018 125.347 22.4517 125.307 22.4517C125.267 22.4517 125.234 22.3533 125.234 22.2331V22.0144H123.047C121.638 22.0144 120.86 22.0403 120.86 22.0873C120.86 22.1274 120.893 22.1602 120.933 22.1602C120.973 22.1602 121.006 22.3242 121.006 22.5246C121.006 22.7251 121.039 22.8891 121.079 22.8891C121.119 22.8891 121.152 22.9875 121.152 23.1078C121.152 23.2281 121.185 23.3265 121.225 23.3265C121.265 23.3265 121.298 23.3921 121.298 23.4723C121.298 23.5525 121.331 23.6181 121.371 23.6181C121.411 23.6181 121.444 23.6765 121.444 23.7478C121.444 23.8191 121.509 23.9247 121.589 23.9825C121.67 24.0404 121.735 24.1301 121.735 24.1821C121.735 24.3147 122.802 25.3676 122.937 25.3676C122.998 25.3676 123.047 25.4004 123.047 25.4405C123.047 25.4805 123.106 25.5133 123.177 25.5133C123.248 25.5133 123.354 25.579 123.412 25.6591C123.47 25.7393 123.575 25.8049 123.646 25.8049C123.718 25.8049 123.776 25.8377 123.776 25.8778C123.776 25.9179 123.875 25.9507 123.995 25.9507C124.115 25.9507 124.214 25.9835 124.214 26.0236C124.214 26.0637 124.279 26.0965 124.359 26.0965C124.44 26.0965 124.505 26.1293 124.505 26.1694C124.505 26.2095 124.604 26.2423 124.724 26.2423C124.844 26.2423 124.942 26.2751 124.942 26.3152C124.942 26.3557 125.137 26.3881 125.38 26.3881C125.623 26.3881 125.817 26.4205 125.817 26.461C125.817 26.5035 126.06 26.5339 126.4 26.5339C126.741 26.5339 126.984 26.5643 126.984 26.6068C126.984 26.6505 127.275 26.6797 127.713 26.6797C128.15 26.6797 128.441 26.6505 128.441 26.6068C128.441 26.5643 128.684 26.5339 129.025 26.5339C129.365 26.5339 129.608 26.5035 129.608 26.461C129.608 26.4209 129.772 26.3881 129.972 26.3881C130.173 26.3881 130.337 26.3553 130.337 26.3152C130.337 26.2751 130.435 26.2423 130.555 26.2423C130.676 26.2423 130.774 26.2095 130.774 26.1694C130.774 26.1293 130.873 26.0965 130.993 26.0965C131.113 26.0965 131.211 26.0637 131.211 26.0236C131.211 25.9835 131.303 25.9507 131.414 25.9507C131.533 25.9507 131.66 25.8905 131.722 25.8049C131.78 25.7247 131.885 25.6591 131.957 25.6591C132.028 25.6591 132.086 25.6263 132.086 25.5862C132.086 25.5462 132.136 25.5133 132.197 25.5133C132.34 25.5133 133.544 24.3097 133.544 24.1658C133.544 24.1051 133.577 24.0554 133.617 24.0554C133.657 24.0554 133.69 23.9898 133.69 23.9097C133.69 23.8295 133.723 23.7639 133.763 23.7639C133.803 23.7639 133.836 23.6655 133.836 23.5452C133.836 23.4249 133.869 23.3265 133.909 23.3265C133.949 23.3265 133.982 23.2281 133.982 23.1078C133.982 22.9875 134.014 22.8891 134.054 22.8891C134.099 22.8891 134.127 22.5246 134.127 21.9415C134.127 21.3583 134.099 20.9938 134.054 20.9938C134.014 20.9938 133.982 20.8626 133.982 20.7023C133.982 20.5419 133.949 20.4107 133.909 20.4107C133.869 20.4107 133.836 20.3123 133.836 20.192C133.836 20.0717 133.803 19.9733 133.763 19.9733C133.723 19.9733 133.69 19.9149 133.69 19.8436C133.69 19.7723 133.624 19.6666 133.544 19.6088C133.464 19.551 133.398 19.4611 133.398 19.409C133.398 19.2762 132.624 18.5154 132.489 18.5154C132.428 18.5154 132.378 18.4826 132.378 18.4425C132.378 18.4024 132.312 18.3696 132.232 18.3696C132.152 18.3696 132.086 18.3368 132.086 18.2967C132.086 18.2566 132.021 18.2238 131.94 18.2238C131.86 18.2238 131.795 18.191 131.795 18.1509C131.795 18.1108 131.729 18.078 131.649 18.078C131.569 18.078 131.503 18.0452 131.503 18.0051C131.503 17.965 131.405 17.9322 131.284 17.9322C131.164 17.9322 131.066 17.8994 131.066 17.8593C131.066 17.8193 130.967 17.7864 130.847 17.7864C130.727 17.7864 130.628 17.7536 130.628 17.7136C130.628 17.6735 130.53 17.6407 130.41 17.6407C130.289 17.6407 130.191 17.6079 130.191 17.5678C130.191 17.5272 129.997 17.4949 129.754 17.4949C129.511 17.4949 129.316 17.4625 129.316 17.422C129.316 17.3819 129.152 17.3491 128.952 17.3491C128.751 17.3491 128.587 17.3163 128.587 17.2762C128.587 17.2357 128.393 17.2033 128.15 17.2033C127.907 17.2033 127.713 17.1709 127.713 17.1304C127.713 17.0903 127.549 17.0575 127.348 17.0575C127.148 17.0575 126.984 17.0247 126.984 16.9846C126.984 16.9445 126.852 16.9117 126.692 16.9117C126.532 16.9117 126.4 16.8789 126.4 16.8388C126.4 16.7987 126.309 16.7659 126.198 16.7659C126.079 16.7659 125.952 16.7057 125.89 16.6201C125.832 16.5399 125.727 16.4743 125.655 16.4743C125.574 16.4743 125.526 16.4197 125.526 16.3285C125.526 16.2484 125.493 16.1828 125.453 16.1828C125.413 16.1828 125.38 16.0015 125.38 15.7799C125.38 15.4 125.398 15.3585 125.706 15.051C125.92 14.8369 126.095 14.7248 126.216 14.7248C126.318 14.7248 126.4 14.692 126.4 14.652C126.4 14.6071 126.765 14.5791 127.348 14.5791C127.931 14.5791 128.296 14.6071 128.296 14.652C128.296 14.692 128.394 14.7248 128.514 14.7248C128.635 14.7248 128.733 14.7576 128.733 14.7977C128.733 14.8378 128.785 14.8706 128.848 14.8706C128.988 14.8706 129.17 15.0439 129.17 15.1774C129.17 15.2315 129.236 15.3231 129.316 15.3809C129.402 15.4426 129.462 15.5696 129.462 15.6886C129.462 15.8 129.495 15.8912 129.535 15.8912C129.575 15.8912 129.608 15.9568 129.608 16.037C129.608 16.1793 129.656 16.1828 131.649 16.1828H133.69V15.8912C133.69 15.7308 133.657 15.5996 133.617 15.5996C133.577 15.5996 133.544 15.4684 133.544 15.308C133.544 15.1476 133.511 15.0164 133.471 15.0164C133.431 15.0164 133.398 14.918 133.398 14.7977C133.398 14.6775 133.366 14.5791 133.325 14.5791C133.285 14.5791 133.253 14.5135 133.253 14.4333C133.253 14.3531 133.22 14.2875 133.18 14.2875C133.14 14.2875 133.107 14.2351 133.107 14.1709C133.107 14.1068 133.008 13.9624 132.888 13.8501C132.768 13.7378 132.669 13.6083 132.669 13.5624C132.669 13.4542 132.336 13.1212 132.228 13.1212C132.182 13.1212 132.053 13.0227 131.94 12.9025C131.828 12.7822 131.684 12.6838 131.62 12.6838C131.555 12.6838 131.503 12.651 131.503 12.6109C131.503 12.5708 131.437 12.538 131.357 12.538C131.277 12.538 131.211 12.5052 131.211 12.4651C131.211 12.425 131.146 12.3922 131.066 12.3922C130.986 12.3922 130.92 12.3594 130.92 12.3193C130.92 12.2792 130.854 12.2464 130.774 12.2464C130.694 12.2464 130.628 12.2136 130.628 12.1735C130.628 12.1334 130.53 12.1006 130.41 12.1006C130.289 12.1006 130.191 12.0678 130.191 12.0277C130.191 11.9876 130.027 11.9548 129.826 11.9548C129.626 11.9548 129.462 11.922 129.462 11.8819C129.462 11.8414 129.268 11.809 129.025 11.809C128.782 11.809 128.587 11.7767 128.587 11.7361C128.587 11.6906 128.15 11.6632 127.421 11.6632C126.692 11.6632 126.255 11.6906 126.255 11.7361ZM104.969 12.0277C104.969 12.0678 104.871 12.1006 104.751 12.1006C104.63 12.1006 104.532 12.1334 104.532 12.1735C104.532 12.2136 104.466 12.2464 104.386 12.2464C104.306 12.2464 104.24 12.2792 104.24 12.3193C104.24 12.3594 104.191 12.3922 104.13 12.3922C103.986 12.3922 102.637 13.7418 102.637 13.8856C102.637 13.9463 102.604 13.9959 102.564 13.9959C102.524 13.9959 102.491 14.0615 102.491 14.1417C102.491 14.2389 102.442 14.2875 102.345 14.2875C102.206 14.2875 102.199 14.2389 102.199 13.194V12.1006H100.085H97.9712V19.1715V26.2423H100.231H102.491V22.4517C102.491 19.9733 102.516 18.6612 102.564 18.6612C102.604 18.6612 102.637 18.53 102.637 18.3696C102.637 18.2092 102.669 18.078 102.709 18.078C102.75 18.078 102.782 17.9796 102.782 17.8593C102.782 17.7391 102.815 17.6407 102.855 17.6407C102.895 17.6407 102.928 17.5823 102.928 17.511C102.928 17.4396 102.994 17.334 103.074 17.2762C103.154 17.2184 103.22 17.1283 103.22 17.0759C103.22 16.9432 103.848 16.3285 103.983 16.3285C104.044 16.3285 104.094 16.2957 104.094 16.2556C104.094 16.2156 104.16 16.1828 104.24 16.1828C104.32 16.1828 104.386 16.15 104.386 16.1099C104.386 16.0698 104.452 16.037 104.532 16.037C104.612 16.037 104.678 16.0042 104.678 15.9641C104.678 15.924 104.809 15.8912 104.969 15.8912C105.13 15.8912 105.261 15.8584 105.261 15.8183C105.261 15.7745 105.552 15.7454 105.99 15.7454H106.719V13.8501V11.9548H105.844C105.309 11.9548 104.969 11.9832 104.969 12.0277ZM55.9836 19.1715V26.2423H58.1704H60.3573V19.1715V12.1006H58.1704H55.9836V19.1715ZM90.9733 14.9435C90.9733 14.9836 91.0645 15.0164 91.1759 15.0164C91.2948 15.0164 91.4218 15.0766 91.4836 15.1622C91.5414 15.2424 91.6317 15.308 91.6843 15.308C91.8172 15.308 92.2854 15.7888 92.2854 15.9252C92.2854 15.9867 92.3182 16.037 92.3583 16.037C92.3984 16.037 92.4312 16.1026 92.4312 16.1828C92.4312 16.2629 92.464 16.3285 92.5041 16.3285C92.5442 16.3285 92.577 16.3941 92.577 16.4743C92.577 16.5545 92.6098 16.6201 92.6499 16.6201C92.69 16.6201 92.7228 16.7185 92.7228 16.8388C92.7228 16.9591 92.7556 17.0575 92.7957 17.0575C92.8358 17.0575 92.8686 17.1887 92.8686 17.3491V17.6407H90.0986H87.3285V17.3491C87.3285 17.1887 87.3613 17.0575 87.4014 17.0575C87.4415 17.0575 87.4743 16.9591 87.4743 16.8388C87.4743 16.7185 87.5071 16.6201 87.5472 16.6201C87.5873 16.6201 87.6201 16.5545 87.6201 16.4743C87.6201 16.3941 87.6529 16.3285 87.693 16.3285C87.7331 16.3285 87.7659 16.2761 87.7659 16.212C87.7659 16.1479 87.8643 16.0035 87.9846 15.8912C88.1049 15.7788 88.2033 15.6344 88.2033 15.5704C88.2033 15.5062 88.2617 15.4538 88.333 15.4538C88.4043 15.4538 88.5099 15.3882 88.5678 15.308C88.6256 15.2278 88.7312 15.1622 88.8026 15.1622C88.8738 15.1622 88.9322 15.1294 88.9322 15.0893C88.9322 15.0492 89.0306 15.0164 89.1509 15.0164C89.2712 15.0164 89.3696 14.9836 89.3696 14.9435C89.3696 14.8994 89.6855 14.8706 90.1715 14.8706C90.6574 14.8706 90.9733 14.8994 90.9733 14.9435ZM114.446 14.9435C114.446 14.9836 114.511 15.0164 114.591 15.0164C114.672 15.0164 114.737 15.0492 114.737 15.0893C114.737 15.1294 114.796 15.1622 114.867 15.1622C114.938 15.1622 115.044 15.2278 115.102 15.308C115.159 15.3882 115.251 15.4538 115.305 15.4538C115.432 15.4538 115.612 15.6336 115.612 15.7605C115.612 15.8147 115.678 15.9063 115.758 15.9641C115.838 16.0219 115.903 16.1275 115.903 16.1989C115.903 16.2702 115.936 16.3285 115.976 16.3285C116.016 16.3285 116.049 16.3941 116.049 16.4743C116.049 16.5545 116.082 16.6201 116.122 16.6201C116.162 16.6201 116.195 16.7185 116.195 16.8388C116.195 16.9591 116.228 17.0575 116.268 17.0575C116.308 17.0575 116.341 17.1887 116.341 17.3491V17.6407H113.571H110.801V17.3491C110.801 17.1887 110.834 17.0575 110.874 17.0575C110.914 17.0575 110.947 16.9591 110.947 16.8388C110.947 16.7185 110.979 16.6201 111.02 16.6201C111.06 16.6201 111.092 16.5545 111.092 16.4743C111.092 16.3941 111.125 16.3285 111.165 16.3285C111.205 16.3285 111.238 16.2702 111.238 16.1989C111.238 16.1275 111.304 16.0219 111.384 15.9641C111.464 15.9063 111.53 15.8147 111.53 15.7605C111.53 15.6336 111.71 15.4538 111.837 15.4538C111.891 15.4538 111.982 15.3882 112.04 15.308C112.098 15.2278 112.203 15.1622 112.275 15.1622C112.346 15.1622 112.405 15.1294 112.405 15.0893C112.405 15.0492 112.503 15.0164 112.623 15.0164C112.743 15.0164 112.842 14.9836 112.842 14.9435C112.842 14.8994 113.158 14.8706 113.644 14.8706C114.13 14.8706 114.446 14.8994 114.446 14.9435Z" fill="#BD081C"/>
</svg>
