<svg width="142" height="34" viewBox="0 0 142 34" fill="none" xmlns="http://www.w3.org/2000/svg">
<path fill-rule="evenodd" clip-rule="evenodd" d="M18.2536 10.9406C17.9691 11.5907 17.5321 12.1069 16.9555 12.4749C16.4465 12.7996 15.8791 12.975 15.2691 12.9964C15.0189 13.0025 14.7917 12.7993 14.7828 12.5357C14.774 12.2722 14.9769 12.051 15.2367 12.042C15.6785 12.0265 16.0885 11.9001 16.4551 11.6663C16.8706 11.4012 17.1867 11.0264 17.394 10.5525C17.5168 10.273 17.4963 9.96156 17.338 9.698C17.1821 9.43794 16.9228 9.27895 16.6272 9.26167C15.9927 9.22462 15.4679 9.41847 15.055 9.83762C14.3875 10.5153 14.115 11.7247 13.9986 12.241C13.8984 12.6835 12.7877 17.4727 12.3385 19.4083C12.2681 19.7131 12.0035 19.9264 11.6946 19.9267H11.6943C11.3856 19.9267 11.1206 19.7136 11.0496 19.4084L10.8873 18.7085C10.3775 16.5102 9.47965 12.6372 9.39082 12.2444C9.27346 11.7247 9.00096 10.5153 8.3331 9.83742C7.92032 9.41847 7.39087 9.22542 6.76127 9.26167C6.46536 9.27895 6.20634 9.43794 6.05022 9.698C5.89213 9.96146 5.87167 10.273 5.99385 10.5525C6.20172 11.0264 6.51809 11.4013 6.93333 11.6663C7.29987 11.9001 7.7099 12.0265 8.15179 12.042C8.4115 12.051 8.61455 12.2722 8.60559 12.5357C8.59674 12.7991 8.37353 13.0039 8.11933 12.9964C7.50931 12.975 6.94189 12.7996 6.433 12.4749C5.85662 12.1073 5.41964 11.5911 5.13455 10.9406C4.88842 10.3785 4.93033 9.72826 5.24699 9.20085C5.56169 8.67684 6.10748 8.34318 6.70736 8.30822C7.60768 8.25379 8.39675 8.5512 8.99821 9.1622C9.85751 10.0342 10.1726 11.4313 10.3071 12.0279C10.3903 12.3965 11.1754 15.7829 11.6943 18.0201C12.2133 15.7825 12.9981 12.3966 13.0807 12.0308C13.2159 11.4313 13.531 10.0342 14.3899 9.1622C14.992 8.551 15.7833 8.25449 16.6811 8.30822C17.281 8.34318 17.8267 8.67684 18.1415 9.20105C18.4582 9.72846 18.5001 10.3788 18.2536 10.9406ZM14.0482 3.38916C13.4177 3.38916 12.7758 3.49812 12.1407 3.71324C11.8517 3.81121 11.5366 3.81101 11.248 3.71344C10.6126 3.49812 9.97083 3.38916 9.34025 3.38916C5.72037 3.38916 2.66211 7.06245 2.66211 11.4108C2.66211 16.2514 6.30954 20.525 11.5322 21.8034C11.6376 21.8291 11.7508 21.8291 11.8562 21.8034C17.0789 20.525 20.7264 16.2514 20.7264 11.4108C20.7264 7.06245 17.668 3.38916 14.0482 3.38916Z" fill="#00263E"/>
<path fill-rule="evenodd" clip-rule="evenodd" d="M12.0765 22.7314C11.9519 22.7621 11.8233 22.7776 11.6941 22.7776C11.5649 22.7776 11.4362 22.7621 11.3116 22.7314C5.66479 21.3495 1.72126 16.6942 1.72126 11.4107C1.72126 6.54473 5.2104 2.43401 9.34016 2.43401C10.0723 2.43401 10.814 2.55965 11.5453 2.80723C11.6414 2.83958 11.7465 2.83968 11.8432 2.80703C12.5742 2.55965 13.3159 2.43401 14.0481 2.43401C18.1778 2.43401 21.667 6.54473 21.667 11.4107C21.667 16.6942 17.7233 21.3495 12.0765 22.7314ZM21.1136 21.4187C21.1136 21.6825 20.9029 21.8963 20.6433 21.8963C20.3836 21.8963 20.1728 21.6825 20.1728 21.4187V20.7524C20.1728 20.4886 20.3836 20.2749 20.6433 20.2749C20.9029 20.2749 21.1136 20.4886 21.1136 20.7524V21.4187ZM21.1136 24.4471C21.1136 24.7108 20.9029 24.9246 20.6433 24.9246C20.3836 24.9246 20.1728 24.7108 20.1728 24.4471V23.7807C20.1728 23.5168 20.3836 23.3032 20.6433 23.3032C20.9029 23.3032 21.1136 23.5168 21.1136 23.7807V24.4471ZM18.1304 25.9613C18.1304 26.2251 17.9196 26.4388 17.66 26.4388C17.4003 26.4388 17.1896 26.2251 17.1896 25.9613V25.295C17.1896 25.0311 17.4003 24.8175 17.66 24.8175C17.9196 24.8175 18.1304 25.0311 18.1304 25.295V25.9613ZM18.1304 28.9896C18.1304 29.2534 17.9196 29.467 17.66 29.467C17.4003 29.467 17.1896 29.2534 17.1896 28.9896V28.3232C17.1896 28.0595 17.4003 27.8458 17.66 27.8458C17.9196 27.8458 18.1304 28.0595 18.1304 28.3232V28.9896ZM15.1474 27.4754C15.1474 27.7393 14.9367 27.9529 14.6771 27.9529C14.4174 27.9529 14.2066 27.7393 14.2066 27.4754V26.8091C14.2066 26.5453 14.4174 26.3316 14.6771 26.3316C14.9367 26.3316 15.1474 26.5453 15.1474 26.8091V27.4754ZM15.1474 30.5037C15.1474 30.7675 14.9367 30.9813 14.6771 30.9813C14.4174 30.9813 14.2066 30.7675 14.2066 30.5037V29.8373C14.2066 29.5736 14.4174 29.3599 14.6771 29.3599C14.9367 29.3599 15.1474 29.5736 15.1474 29.8373V30.5037ZM12.1645 25.9613C12.1645 26.2251 11.9538 26.4388 11.6941 26.4388C11.4344 26.4388 11.2237 26.2251 11.2237 25.9613V25.295C11.2237 25.0311 11.4344 24.8175 11.6941 24.8175C11.9538 24.8175 12.1645 25.0311 12.1645 25.295V25.9613ZM12.1645 28.9896C12.1645 29.2534 11.9538 29.467 11.6941 29.467C11.4344 29.467 11.2237 29.2534 11.2237 28.9896V28.3232C11.2237 28.0595 11.4344 27.8458 11.6941 27.8458C11.9538 27.8458 12.1645 28.0595 12.1645 28.3232V28.9896ZM9.18148 27.4754C9.18148 27.7393 8.97086 27.9529 8.71115 27.9529C8.45144 27.9529 8.24082 27.7393 8.24082 27.4754V26.8091C8.24082 26.5453 8.45144 26.3316 8.71115 26.3316C8.97086 26.3316 9.18148 26.5453 9.18148 26.8091V27.4754ZM9.18148 30.5037C9.18148 30.7675 8.97086 30.9813 8.71115 30.9813C8.45144 30.9813 8.24082 30.7675 8.24082 30.5037V29.8373C8.24082 29.5736 8.45144 29.3599 8.71115 29.3599C8.97086 29.3599 9.18148 29.5736 9.18148 29.8373V30.5037ZM6.19828 25.9613C6.19828 26.2251 5.98756 26.4388 5.72785 26.4388C5.46824 26.4388 5.25752 26.2251 5.25752 25.9613V25.295C5.25752 25.0311 5.46824 24.8175 5.72785 24.8175C5.98756 24.8175 6.19828 25.0311 6.19828 25.295V25.9613ZM6.19828 28.9896C6.19828 29.2534 5.98756 29.467 5.72785 29.467C5.46824 29.467 5.25752 29.2534 5.25752 28.9896V28.3232C5.25752 28.0595 5.46824 27.8458 5.72785 27.8458C5.98756 27.8458 6.19828 28.0595 6.19828 28.3232V28.9896ZM3.21527 21.4187C3.21527 21.6825 3.00465 21.8963 2.74494 21.8963C2.48523 21.8963 2.27461 21.6825 2.27461 21.4187V20.7524C2.27461 20.4886 2.48523 20.2749 2.74494 20.2749C3.00465 20.2749 3.21527 20.4886 3.21527 20.7524V21.4187ZM3.21527 24.4471C3.21527 24.7108 3.00465 24.9246 2.74494 24.9246C2.48523 24.9246 2.27461 24.7108 2.27461 24.4471V23.7807C2.27461 23.5168 2.48523 23.3032 2.74494 23.3032C3.00465 23.3032 3.21527 23.5168 3.21527 23.7807V24.4471ZM11.6941 0C5.23558 0 0 5.31514 0 11.8718V22.1282C0 28.6848 5.23558 34 11.6941 34C18.1525 34 23.3881 28.6848 23.3881 22.1282V11.8718C23.3881 5.31514 18.1525 0 11.6941 0Z" fill="#00263E"/>
<path fill-rule="evenodd" clip-rule="evenodd" d="M36.8937 16.4821C34.751 15.9351 33.8691 15.5995 33.8691 14.3813C33.8691 13.4994 34.6673 12.8268 36.0537 12.8268C37.4819 12.8268 38.3638 13.415 39.0363 14.2976L40.759 12.8687C39.6664 11.4412 38.1956 10.6423 36.0118 10.6423C33.281 10.6423 31.4739 12.1968 31.4739 14.4651C31.4739 16.9021 33.1128 17.9522 35.8437 18.7085C38.2382 19.3804 39.2045 19.8848 39.2045 21.1037C39.2045 22.2368 38.1956 22.9512 36.4318 22.9512C34.5829 22.9512 33.1966 22.1119 32.3565 20.7249L30.5083 22.0268C31.7684 23.9601 33.7847 25.1358 36.4318 25.1358C39.7082 25.1358 41.6827 23.582 41.6827 20.9767C41.6827 18.4559 39.8345 17.2377 36.8937 16.4821Z" fill="#00263E"/>
<path fill-rule="evenodd" clip-rule="evenodd" d="M51.4283 22.8675C48.6975 22.8675 46.8911 20.8093 46.8911 17.9103C46.8911 14.9695 48.6975 12.9113 51.4283 12.9113C54.1172 12.9113 55.881 14.9695 55.881 17.9103C55.881 20.8093 54.1172 22.8675 51.4283 22.8675ZM55.7973 13.3313C54.831 11.6087 53.1928 10.6423 50.9238 10.6423C47.1011 10.6423 44.2021 13.7513 44.2021 17.9103C44.2021 22.0268 47.1011 25.1358 50.9238 25.1358C53.1928 25.1358 54.831 24.1701 55.7973 22.4475V24.8002H58.36V10.9786H55.7973V13.3313Z" fill="#00263E"/>
<path fill-rule="evenodd" clip-rule="evenodd" d="M78.3554 10.6421C76.1283 10.6421 74.5745 11.4828 73.4819 13.2048C72.6419 11.4828 71.1718 10.6421 69.3229 10.6421C67.4321 10.6421 65.9621 11.441 65.2057 12.8692V10.9791H62.6431V24.7999H65.2057V16.86C65.2057 14.3392 66.5084 12.9536 68.7773 12.9536C70.7511 12.9536 71.7181 14.1292 71.7181 16.3137V24.7999H74.2801V16.7763C74.2801 14.3392 75.5409 12.9536 77.8517 12.9536C79.7836 12.9536 80.7918 14.0867 80.7918 16.2726V24.7999H83.3544V15.9781C83.3544 12.6166 81.2544 10.6421 78.3554 10.6421Z" fill="#00263E"/>
<path fill-rule="evenodd" clip-rule="evenodd" d="M92.5949 16.4821C90.4522 15.9351 89.5696 15.5995 89.5696 14.3813C89.5696 13.4994 90.3685 12.8268 91.7541 12.8268C93.183 12.8268 94.0649 13.415 94.7375 14.2976L96.4602 12.8687C95.3675 11.4412 93.8968 10.6423 91.7123 10.6423C88.9814 10.6423 87.1751 12.1968 87.1751 14.4651C87.1751 16.9021 88.8133 17.9522 91.5448 18.7085C93.9393 19.3804 94.905 19.8848 94.905 21.1037C94.905 22.2368 93.8968 22.9512 92.1323 22.9512C90.2841 22.9512 88.8977 22.1119 88.0577 20.7249L86.2095 22.0268C87.4695 23.9601 89.4859 25.1358 92.1323 25.1358C95.4094 25.1358 97.3839 23.582 97.3839 20.9767C97.3839 18.4559 95.5357 17.2377 92.5949 16.4821Z" fill="#00263E"/>
<path fill-rule="evenodd" clip-rule="evenodd" d="M107.129 22.8675C104.398 22.8675 102.592 20.8093 102.592 17.9103C102.592 14.9695 104.398 12.9113 107.129 12.9113C109.818 12.9113 111.581 14.9695 111.581 17.9103C111.581 20.8093 109.818 22.8675 107.129 22.8675ZM111.498 13.3313C110.531 11.6087 108.893 10.6423 106.625 10.6423C102.802 10.6423 99.9026 13.7513 99.9026 17.9103C99.9026 22.0268 102.802 25.1358 106.625 25.1358C108.893 25.1358 110.531 24.1701 111.498 22.4475V24.8002H114.06V10.9786H111.498V13.3313Z" fill="#00263E"/>
<path fill-rule="evenodd" clip-rule="evenodd" d="M134.818 22.8675C132.087 22.8675 130.281 20.8093 130.281 17.9103C130.281 14.9695 132.087 12.9113 134.818 12.9113C137.507 12.9113 139.271 14.9695 139.271 17.9103C139.271 20.8093 137.507 22.8675 134.818 22.8675ZM139.187 10.9786V13.3313C138.221 11.6087 136.583 10.6423 134.314 10.6423C130.491 10.6423 127.592 13.7513 127.592 17.9103C127.592 22.0268 130.491 25.1358 134.314 25.1358C136.583 25.1358 138.221 24.1701 139.187 22.4475V24.8002H141.75V10.9786H139.187Z" fill="#00263E"/>
<path fill-rule="evenodd" clip-rule="evenodd" d="M120.906 14.1708V10.9789H118.344V24.7997H120.906V17.6012L126.58 12.5596L124.877 10.6418L120.906 14.1708Z" fill="#00263E"/>
</svg>
