<svg width="102" height="34" viewBox="0 0 102 34" fill="none" xmlns="http://www.w3.org/2000/svg">
<path d="M100.204 24.1076H93.0433V15.1787H91.2531V24.1076H84.092V1.79026H91.2531V8.03647H96.6238L100.204 11.608V24.1076ZM82.3107 15.1787H75.1497V16.969H82.3107V24.1121H71.5745L67.994 20.5405V11.608L71.5745 8.03647H82.3107V15.1787V15.1787ZM66.2065 15.1787H59.9406V16.969H66.2065V24.1121H56.3654L52.7849 20.5405V1.79026H59.9459V8.03647H66.2118L66.2065 15.1787V15.1787ZM50.9973 6.25069H43.8363V1.79026H50.9973V6.25069ZM50.9973 24.1076H43.8363V8.03647H50.9973V24.1076ZM42.046 24.1076H20.5781L16.9976 20.5361V8.03647H24.1586V16.9645H25.9489V8.03647H33.1099V16.9645H34.9002V8.03647H42.0612L42.046 24.1076V24.1076ZM15.21 15.1787H8.95129V16.969H15.2172V24.1121H5.37078L1.79026 20.5405V1.79026H8.95129V8.03647H15.2172L15.21 15.1787ZM97.5208 6.25069H93.0451V0H83.2247L78.7069 6.25069H70.6803L67.9949 8.92892V6.25069H61.729V0H42.0505V6.25069H14.3597L9.84642 0H0V21.4294L12.5255 33.9254H25.0511V30.3538L28.6316 33.9254H52.7867V30.3538L56.3672 33.9254H67.9958V30.3538L71.5763 33.9254H93.9438L102 25.8889V10.7147L97.5208 6.25069" fill="#9147FE"/>
<path d="M84.1 24.1076H91.2575V15.1787H93.0469V24.1076H100.204V11.608L96.6256 8.03642H91.2575V1.78662H84.1V24.1076ZM52.7866 20.536L56.3645 24.1076H66.2064V16.9644H59.9441V15.1787H66.2064V8.03642H59.9441V1.78662H52.7866V20.536V20.536ZM67.9958 20.536L71.5745 24.1076H82.3107V16.9644H75.1532V15.1787H82.3107V8.03642H71.5745L67.9958 11.608V20.536V20.536ZM43.8398 1.78662H50.9973V6.25063H43.8398V1.78662ZM15.21 8.03642H8.94676V1.78662H1.78931V20.536L5.36803 24.1076H15.21V16.9644H8.94676V15.1787H15.21V8.03642V8.03642ZM16.9993 20.536L20.5772 24.1076H42.0504V8.03642H34.893V16.9644H33.1027V8.03642H25.9462V16.9644H24.1568V8.03642H16.9993V20.536ZM43.8398 8.03642H50.9973V24.1076H43.8398V8.03642Z" fill="white"/>
</svg>
