<svg width="68" height="13" viewBox="0 0 68 13" fill="none" xmlns="http://www.w3.org/2000/svg">
<path d="M8.16194 8.426C8.16194 9.128 7.90194 9.726 7.38194 10.22C6.87061 10.7053 6.12528 11 5.14594 11.104V12.56H4.07994V11.117C3.43861 11.0737 2.83194 10.9567 2.25994 10.766C1.68794 10.5753 1.23294 10.3327 0.894941 10.038L1.47994 8.725C1.80061 8.985 2.19061 9.206 2.64994 9.388C3.10927 9.56133 3.58594 9.66967 4.07994 9.713V7.113C3.46461 6.96567 2.94894 6.80533 2.53294 6.632C2.12561 6.45 1.78327 6.19 1.50594 5.852C1.22861 5.50533 1.08994 5.05033 1.08994 4.487C1.08994 3.785 1.34561 3.187 1.85694 2.693C2.36827 2.199 3.10927 1.90433 4.07994 1.809V0.339999H5.14594V1.783C5.63127 1.809 6.10361 1.89133 6.56294 2.03C7.03094 2.16867 7.43828 2.35067 7.78494 2.576L7.25194 3.889C6.59328 3.50767 5.89127 3.27367 5.14594 3.187V5.813C5.76994 5.96033 6.28561 6.12067 6.69294 6.294C7.10894 6.46733 7.45561 6.72733 7.73294 7.074C8.01894 7.412 8.16194 7.86267 8.16194 8.426ZM2.76694 4.409C2.76694 4.695 2.87961 4.92467 3.10494 5.098C3.33027 5.27133 3.65527 5.41867 4.07994 5.54V3.226C3.63794 3.29533 3.30861 3.434 3.09194 3.642C2.87527 3.85 2.76694 4.10567 2.76694 4.409ZM5.14594 9.687C5.60528 9.61767 5.94328 9.48333 6.15994 9.284C6.38528 9.08467 6.49794 8.83767 6.49794 8.543C6.49794 8.24833 6.38094 8.01433 6.14694 7.841C5.91294 7.659 5.57928 7.50733 5.14594 7.386V9.687ZM12.2068 1.9V11H10.5168V3.317H8.59277V1.9H12.2068ZM17.8079 11.13C17.0799 11.13 16.4299 10.948 15.8579 10.584C15.2859 10.2113 14.8353 9.674 14.5059 8.972C14.1766 8.26133 14.0119 7.42067 14.0119 6.45C14.0119 5.47933 14.1766 4.643 14.5059 3.941C14.8353 3.23033 15.2859 2.693 15.8579 2.329C16.4299 1.95633 17.0799 1.77 17.8079 1.77C18.5359 1.77 19.1859 1.95633 19.7579 2.329C20.3386 2.693 20.7936 3.23033 21.1229 3.941C21.4523 4.643 21.6169 5.47933 21.6169 6.45C21.6169 7.42067 21.4523 8.26133 21.1229 8.972C20.7936 9.674 20.3386 10.2113 19.7579 10.584C19.1859 10.948 18.5359 11.13 17.8079 11.13ZM17.8079 9.661C18.4579 9.661 18.9693 9.39233 19.3419 8.855C19.7233 8.31767 19.9139 7.516 19.9139 6.45C19.9139 5.384 19.7233 4.58233 19.3419 4.045C18.9693 3.50767 18.4579 3.239 17.8079 3.239C17.1666 3.239 16.6553 3.50767 16.2739 4.045C15.9013 4.58233 15.7149 5.384 15.7149 6.45C15.7149 7.516 15.9013 8.31767 16.2739 8.855C16.6553 9.39233 17.1666 9.661 17.8079 9.661ZM26.087 8.023L24.878 9.167V11H23.253V1.354H24.878V7.178L28.245 4.058H30.195L27.296 6.97L30.468 11H28.492L26.087 8.023ZM34.7594 6.71H38.3344V8.062H34.7594V6.71ZM50.3612 8.426C50.3612 9.128 50.1012 9.726 49.5812 10.22C49.0698 10.7053 48.3245 11 47.3452 11.104V12.56H46.2792V11.117C45.6378 11.0737 45.0312 10.9567 44.4592 10.766C43.8872 10.5753 43.4322 10.3327 43.0942 10.038L43.6792 8.725C43.9998 8.985 44.3898 9.206 44.8492 9.388C45.3085 9.56133 45.7852 9.66967 46.2792 9.713V7.113C45.6638 6.96567 45.1482 6.80533 44.7322 6.632C44.3248 6.45 43.9825 6.19 43.7052 5.852C43.4278 5.50533 43.2892 5.05033 43.2892 4.487C43.2892 3.785 43.5448 3.187 44.0562 2.693C44.5675 2.199 45.3085 1.90433 46.2792 1.809V0.339999H47.3452V1.783C47.8305 1.809 48.3028 1.89133 48.7622 2.03C49.2302 2.16867 49.6375 2.35067 49.9842 2.576L49.4512 3.889C48.7925 3.50767 48.0905 3.27367 47.3452 3.187V5.813C47.9692 5.96033 48.4848 6.12067 48.8922 6.294C49.3082 6.46733 49.6548 6.72733 49.9322 7.074C50.2182 7.412 50.3612 7.86267 50.3612 8.426ZM44.9662 4.409C44.9662 4.695 45.0788 4.92467 45.3042 5.098C45.5295 5.27133 45.8545 5.41867 46.2792 5.54V3.226C45.8372 3.29533 45.5078 3.434 45.2912 3.642C45.0745 3.85 44.9662 4.10567 44.9662 4.409ZM47.3452 9.687C47.8045 9.61767 48.1425 9.48333 48.3592 9.284C48.5845 9.08467 48.6972 8.83767 48.6972 8.543C48.6972 8.24833 48.5802 8.01433 48.3462 7.841C48.1122 7.659 47.7785 7.50733 47.3452 7.386V9.687ZM57.2889 6.216C57.7656 6.43267 58.1296 6.72733 58.3809 7.1C58.6409 7.464 58.7709 7.893 58.7709 8.387C58.7709 8.94167 58.6149 9.427 58.3029 9.843C57.9996 10.259 57.5663 10.5797 57.0029 10.805C56.4396 11.0217 55.7853 11.13 55.0399 11.13C54.2946 11.13 53.6403 11.0217 53.0769 10.805C52.5223 10.5797 52.0933 10.259 51.7899 9.843C51.4866 9.427 51.3349 8.94167 51.3349 8.387C51.3349 7.893 51.4606 7.464 51.7119 7.1C51.9633 6.72733 52.3229 6.43267 52.7909 6.216C52.4269 6.01667 52.1453 5.75667 51.9459 5.436C51.7553 5.10667 51.6599 4.72967 51.6599 4.305C51.6599 3.79367 51.7986 3.34733 52.0759 2.966C52.3619 2.58467 52.7606 2.29 53.2719 2.082C53.7833 1.874 54.3726 1.77 55.0399 1.77C55.7159 1.77 56.3096 1.874 56.8209 2.082C57.3323 2.29 57.7309 2.58467 58.0169 2.966C58.3029 3.34733 58.4459 3.79367 58.4459 4.305C58.4459 4.72967 58.3463 5.10233 58.1469 5.423C57.9476 5.74367 57.6616 6.008 57.2889 6.216ZM55.0399 3.096C54.5113 3.096 54.0909 3.20867 53.7789 3.434C53.4756 3.65933 53.3239 3.97567 53.3239 4.383C53.3239 4.773 53.4756 5.085 53.7789 5.319C54.0909 5.54433 54.5113 5.657 55.0399 5.657C55.5773 5.657 56.0019 5.54433 56.3139 5.319C56.6259 5.085 56.7819 4.773 56.7819 4.383C56.7819 3.97567 56.6216 3.65933 56.3009 3.434C55.9889 3.20867 55.5686 3.096 55.0399 3.096ZM55.0399 9.804C55.6639 9.804 56.1579 9.674 56.5219 9.414C56.8859 9.154 57.0679 8.79433 57.0679 8.335C57.0679 7.88433 56.8859 7.529 56.5219 7.269C56.1579 7.009 55.6639 6.879 55.0399 6.879C54.4159 6.879 53.9263 7.009 53.5709 7.269C53.2156 7.529 53.0379 7.88433 53.0379 8.335C53.0379 8.79433 53.2156 9.154 53.5709 9.414C53.9263 9.674 54.4159 9.804 55.0399 9.804ZM63.1954 8.023L61.9864 9.167V11H60.3614V1.354H61.9864V7.178L65.3534 4.058H67.3034L64.4044 6.97L67.5764 11H65.6004L63.1954 8.023Z" fill="#606060"/>
</svg>
