<svg width="83" height="15" viewBox="0 0 83 15" fill="none" xmlns="http://www.w3.org/2000/svg">
<path d="M9.09408 10.03C9.09408 10.84 8.79408 11.53 8.19408 12.1C7.60408 12.66 6.74408 13 5.61408 13.12V14.8H4.38408V13.135C3.64408 13.085 2.94408 12.95 2.28408 12.73C1.62408 12.51 1.09908 12.23 0.709082 11.89L1.38408 10.375C1.75408 10.675 2.20408 10.93 2.73408 11.14C3.26408 11.34 3.81408 11.465 4.38408 11.515V8.515C3.67408 8.345 3.07908 8.16 2.59908 7.96C2.12908 7.75 1.73408 7.45 1.41408 7.06C1.09408 6.66 0.934082 6.135 0.934082 5.485C0.934082 4.675 1.22908 3.985 1.81908 3.415C2.40908 2.845 3.26408 2.505 4.38408 2.395V0.699999H5.61408V2.365C6.17408 2.395 6.71908 2.49 7.24908 2.65C7.78908 2.81 8.25908 3.02 8.65908 3.28L8.04408 4.795C7.28408 4.355 6.47408 4.085 5.61408 3.985V7.015C6.33408 7.185 6.92908 7.37 7.39908 7.57C7.87908 7.77 8.27908 8.07 8.59908 8.47C8.92908 8.86 9.09408 9.38 9.09408 10.03ZM2.86908 5.395C2.86908 5.725 2.99908 5.99 3.25908 6.19C3.51908 6.39 3.89408 6.56 4.38408 6.7V4.03C3.87408 4.11 3.49408 4.27 3.24408 4.51C2.99408 4.75 2.86908 5.045 2.86908 5.395ZM5.61408 11.485C6.14408 11.405 6.53408 11.25 6.78408 11.02C7.04408 10.79 7.17408 10.505 7.17408 10.165C7.17408 9.825 7.03908 9.555 6.76908 9.355C6.49908 9.145 6.11408 8.97 5.61408 8.83V11.485ZM13.7612 2.5V13H11.8112V4.135H9.59119V2.5H13.7612ZM20.6141 6.52C21.3041 6.52 21.9241 6.655 22.4741 6.925C23.0241 7.185 23.4541 7.56 23.7641 8.05C24.0741 8.54 24.2291 9.105 24.2291 9.745C24.2291 10.425 24.0591 11.025 23.7191 11.545C23.3791 12.055 22.9191 12.45 22.3391 12.73C21.7591 13.01 21.1091 13.15 20.3891 13.15C18.9491 13.15 17.8291 12.7 17.0291 11.8C16.2391 10.9 15.8441 9.61 15.8441 7.93C15.8441 6.75 16.0591 5.745 16.4891 4.915C16.9191 4.075 17.5191 3.44 18.2891 3.01C19.0691 2.57 19.9691 2.35 20.9891 2.35C21.5291 2.35 22.0341 2.41 22.5041 2.53C22.9841 2.64 23.3991 2.805 23.7491 3.025L23.0291 4.495C22.5091 4.155 21.8441 3.985 21.0341 3.985C20.0241 3.985 19.2341 4.295 18.6641 4.915C18.0941 5.535 17.8091 6.43 17.8091 7.6V7.615C18.1191 7.255 18.5141 6.985 18.9941 6.805C19.4741 6.615 20.0141 6.52 20.6141 6.52ZM20.2841 11.62C20.8941 11.62 21.3891 11.46 21.7691 11.14C22.1491 10.81 22.3391 10.375 22.3391 9.835C22.3391 9.285 22.1491 8.85 21.7691 8.53C21.3891 8.21 20.8791 8.05 20.2391 8.05C19.6091 8.05 19.0941 8.22 18.6941 8.56C18.3041 8.9 18.1091 9.33 18.1091 9.85C18.1091 10.36 18.2991 10.785 18.6791 11.125C19.0691 11.455 19.6041 11.62 20.2841 11.62ZM29.0884 9.565L27.6934 10.885V13H25.8184V1.87H27.6934V8.59L31.5784 4.99H33.8284L30.4834 8.35L34.1434 13H31.8634L29.0884 9.565ZM39.095 8.05H43.22V9.61H39.095V8.05ZM57.097 10.03C57.097 10.84 56.797 11.53 56.197 12.1C55.607 12.66 54.747 13 53.617 13.12V14.8H52.387V13.135C51.647 13.085 50.947 12.95 50.287 12.73C49.627 12.51 49.102 12.23 48.712 11.89L49.387 10.375C49.757 10.675 50.207 10.93 50.737 11.14C51.267 11.34 51.817 11.465 52.387 11.515V8.515C51.677 8.345 51.082 8.16 50.602 7.96C50.132 7.75 49.737 7.45 49.417 7.06C49.097 6.66 48.937 6.135 48.937 5.485C48.937 4.675 49.232 3.985 49.822 3.415C50.412 2.845 51.267 2.505 52.387 2.395V0.699999H53.617V2.365C54.177 2.395 54.722 2.49 55.252 2.65C55.792 2.81 56.262 3.02 56.662 3.28L56.047 4.795C55.287 4.355 54.477 4.085 53.617 3.985V7.015C54.337 7.185 54.932 7.37 55.402 7.57C55.882 7.77 56.282 8.07 56.602 8.47C56.932 8.86 57.097 9.38 57.097 10.03ZM50.872 5.395C50.872 5.725 51.002 5.99 51.262 6.19C51.522 6.39 51.897 6.56 52.387 6.7V4.03C51.877 4.11 51.497 4.27 51.247 4.51C50.997 4.75 50.872 5.045 50.872 5.395ZM53.617 11.485C54.147 11.405 54.537 11.25 54.787 11.02C55.047 10.79 55.177 10.505 55.177 10.165C55.177 9.825 55.042 9.555 54.772 9.355C54.502 9.145 54.117 8.97 53.617 8.83V11.485ZM61.7641 2.5V13H59.8141V4.135H57.5941V2.5H61.7641ZM68.227 13.15C67.387 13.15 66.637 12.94 65.977 12.52C65.317 12.09 64.797 11.47 64.417 10.66C64.037 9.84 63.847 8.87 63.847 7.75C63.847 6.63 64.037 5.665 64.417 4.855C64.797 4.035 65.317 3.415 65.977 2.995C66.637 2.565 67.387 2.35 68.227 2.35C69.067 2.35 69.817 2.565 70.477 2.995C71.147 3.415 71.672 4.035 72.052 4.855C72.432 5.665 72.622 6.63 72.622 7.75C72.622 8.87 72.432 9.84 72.052 10.66C71.672 11.47 71.147 12.09 70.477 12.52C69.817 12.94 69.067 13.15 68.227 13.15ZM68.227 11.455C68.977 11.455 69.567 11.145 69.997 10.525C70.437 9.905 70.657 8.98 70.657 7.75C70.657 6.52 70.437 5.595 69.997 4.975C69.567 4.355 68.977 4.045 68.227 4.045C67.487 4.045 66.897 4.355 66.457 4.975C66.027 5.595 65.812 6.52 65.812 7.75C65.812 8.98 66.027 9.905 66.457 10.525C66.897 11.145 67.487 11.455 68.227 11.455ZM77.7798 9.565L76.3848 10.885V13H74.5098V1.87H76.3848V8.59L80.2698 4.99H82.5198L79.1748 8.35L82.8348 13H80.5548L77.7798 9.565Z" fill="#606060"/>
</svg>
