<svg width="63" height="13" viewBox="0 0 63 13" fill="none" xmlns="http://www.w3.org/2000/svg">
<path d="M8.13753 8.426C8.13753 9.128 7.87753 9.726 7.35753 10.22C6.84619 10.7053 6.10086 11 5.12153 11.104V12.56H4.05553V11.117C3.41419 11.0737 2.80753 10.9567 2.23553 10.766C1.66353 10.5753 1.20853 10.3327 0.870527 10.038L1.45553 8.725C1.77619 8.985 2.16619 9.206 2.62553 9.388C3.08486 9.56133 3.56153 9.66967 4.05553 9.713V7.113C3.44019 6.96567 2.92453 6.80533 2.50853 6.632C2.10119 6.45 1.75886 6.19 1.48153 5.852C1.20419 5.50533 1.06553 5.05033 1.06553 4.487C1.06553 3.785 1.32119 3.187 1.83253 2.693C2.34386 2.199 3.08486 1.90433 4.05553 1.809V0.339999H5.12153V1.783C5.60686 1.809 6.07919 1.89133 6.53853 2.03C7.00653 2.16867 7.41386 2.35067 7.76053 2.576L7.22753 3.889C6.56886 3.50767 5.86686 3.27367 5.12153 3.187V5.813C5.74553 5.96033 6.26119 6.12067 6.66853 6.294C7.08453 6.46733 7.43119 6.72733 7.70853 7.074C7.99453 7.412 8.13753 7.86267 8.13753 8.426ZM2.74253 4.409C2.74253 4.695 2.85519 4.92467 3.08053 5.098C3.30586 5.27133 3.63086 5.41867 4.05553 5.54V3.226C3.61353 3.29533 3.28419 3.434 3.06753 3.642C2.85086 3.85 2.74253 4.10567 2.74253 4.409ZM5.12153 9.687C5.58086 9.61767 5.91886 9.48333 6.13553 9.284C6.36086 9.08467 6.47353 8.83767 6.47353 8.543C6.47353 8.24833 6.35653 8.01433 6.12253 7.841C5.88853 7.659 5.55486 7.50733 5.12153 7.386V9.687ZM13.2973 5.384C13.8953 5.384 14.4326 5.501 14.9093 5.735C15.386 5.96033 15.7586 6.28533 16.0273 6.71C16.296 7.13467 16.4303 7.62433 16.4303 8.179C16.4303 8.76833 16.283 9.28833 15.9883 9.739C15.6936 10.181 15.295 10.5233 14.7923 10.766C14.2896 11.0087 13.7263 11.13 13.1023 11.13C11.8543 11.13 10.8836 10.74 10.1903 9.96C9.50564 9.18 9.16331 8.062 9.16331 6.606C9.16331 5.58333 9.34964 4.71233 9.72231 3.993C10.095 3.265 10.615 2.71467 11.2823 2.342C11.9583 1.96067 12.7383 1.77 13.6223 1.77C14.0903 1.77 14.528 1.822 14.9353 1.926C15.3513 2.02133 15.711 2.16433 16.0143 2.355L15.3903 3.629C14.9396 3.33433 14.3633 3.187 13.6613 3.187C12.786 3.187 12.1013 3.45567 11.6073 3.993C11.1133 4.53033 10.8663 5.306 10.8663 6.32V6.333C11.135 6.021 11.4773 5.787 11.8933 5.631C12.3093 5.46633 12.7773 5.384 13.2973 5.384ZM13.0113 9.804C13.54 9.804 13.969 9.66533 14.2983 9.388C14.6276 9.102 14.7923 8.725 14.7923 8.257C14.7923 7.78033 14.6276 7.40333 14.2983 7.126C13.969 6.84867 13.527 6.71 12.9723 6.71C12.4263 6.71 11.98 6.85733 11.6333 7.152C11.2953 7.44667 11.1263 7.81933 11.1263 8.27C11.1263 8.712 11.291 9.08033 11.6203 9.375C11.9583 9.661 12.422 9.804 13.0113 9.804ZM20.6417 8.023L19.4327 9.167V11H17.8077V1.354H19.4327V7.178L22.7997 4.058H24.7497L21.8507 6.97L25.0227 11H23.0467L20.6417 8.023ZM29.3141 6.71H32.8891V8.062H29.3141V6.71ZM44.9158 8.426C44.9158 9.128 44.6558 9.726 44.1358 10.22C43.6245 10.7053 42.8792 11 41.8998 11.104V12.56H40.8338V11.117C40.1925 11.0737 39.5858 10.9567 39.0138 10.766C38.4418 10.5753 37.9868 10.3327 37.6488 10.038L38.2338 8.725C38.5545 8.985 38.9445 9.206 39.4038 9.388C39.8632 9.56133 40.3398 9.66967 40.8338 9.713V7.113C40.2185 6.96567 39.7028 6.80533 39.2868 6.632C38.8795 6.45 38.5372 6.19 38.2598 5.852C37.9825 5.50533 37.8438 5.05033 37.8438 4.487C37.8438 3.785 38.0995 3.187 38.6108 2.693C39.1222 2.199 39.8632 1.90433 40.8338 1.809V0.339999H41.8998V1.783C42.3852 1.809 42.8575 1.89133 43.3168 2.03C43.7848 2.16867 44.1922 2.35067 44.5388 2.576L44.0058 3.889C43.3472 3.50767 42.6452 3.27367 41.8998 3.187V5.813C42.5238 5.96033 43.0395 6.12067 43.4468 6.294C43.8628 6.46733 44.2095 6.72733 44.4868 7.074C44.7728 7.412 44.9158 7.86267 44.9158 8.426ZM39.5208 4.409C39.5208 4.695 39.6335 4.92467 39.8588 5.098C40.0842 5.27133 40.4092 5.41867 40.8338 5.54V3.226C40.3918 3.29533 40.0625 3.434 39.8458 3.642C39.6292 3.85 39.5208 4.10567 39.5208 4.409ZM41.8998 9.687C42.3592 9.61767 42.6972 9.48333 42.9138 9.284C43.1392 9.08467 43.2518 8.83767 43.2518 8.543C43.2518 8.24833 43.1348 8.01433 42.9008 7.841C42.6668 7.659 42.3332 7.50733 41.8998 7.386V9.687ZM54.1806 8.933H52.5686V11H50.9306V8.933H45.9386V7.763L50.4236 1.9H52.2306L48.0056 7.503H50.9826V5.67H52.5686V7.503H54.1806V8.933ZM58.2198 8.023L57.0108 9.167V11H55.3858V1.354H57.0108V7.178L60.3778 4.058H62.3278L59.4288 6.97L62.6008 11H60.6248L58.2198 8.023Z" fill="#606060"/>
</svg>
