<svg width="273" height="27" viewBox="0 0 273 27" fill="none" xmlns="http://www.w3.org/2000/svg">
<path d="M16.739 16.356H13.148V21H10.529V16.356H0.0260001V14.466L9.692 2.1H12.608L3.347 14.034H10.61V9.93H13.148V14.034H16.739V16.356ZM29.5775 21.216C28.4435 21.216 27.3905 20.982 26.4185 20.514C25.4465 20.028 24.6635 19.353 24.0695 18.489L25.6355 16.653C26.6795 18.147 27.9935 18.894 29.5775 18.894C30.6395 18.894 31.4405 18.57 31.9805 17.922C32.5385 17.274 32.8175 16.32 32.8175 15.06V4.449H25.9865V2.1H35.4905V14.925C35.4905 17.013 34.9865 18.588 33.9785 19.65C32.9885 20.694 31.5215 21.216 29.5775 21.216ZM46.7413 21.162C45.3193 21.162 44.0413 20.847 42.9073 20.217C41.7733 19.587 40.8823 18.723 40.2343 17.625C39.6043 16.509 39.2893 15.249 39.2893 13.845C39.2893 12.441 39.6043 11.19 40.2343 10.092C40.8823 8.976 41.7733 8.112 42.9073 7.5C44.0413 6.87 45.3193 6.555 46.7413 6.555C48.1633 6.555 49.4323 6.87 50.5483 7.5C51.6823 8.112 52.5643 8.976 53.1943 10.092C53.8423 11.19 54.1663 12.441 54.1663 13.845C54.1663 15.249 53.8423 16.509 53.1943 17.625C52.5643 18.723 51.6823 19.587 50.5483 20.217C49.4323 20.847 48.1633 21.162 46.7413 21.162ZM46.7413 18.894C47.6593 18.894 48.4783 18.687 49.1983 18.273C49.9363 17.841 50.5123 17.247 50.9263 16.491C51.3403 15.717 51.5473 14.835 51.5473 13.845C51.5473 12.855 51.3403 11.982 50.9263 11.226C50.5123 10.452 49.9363 9.858 49.1983 9.444C48.4783 9.03 47.6593 8.823 46.7413 8.823C45.8233 8.823 44.9953 9.03 44.2573 9.444C43.5373 9.858 42.9613 10.452 42.5293 11.226C42.1153 11.982 41.9083 12.855 41.9083 13.845C41.9083 14.835 42.1153 15.717 42.5293 16.491C42.9613 17.247 43.5373 17.841 44.2573 18.273C44.9953 18.687 45.8233 18.894 46.7413 18.894ZM65.3379 6.555C66.7239 6.555 67.9659 6.861 69.0639 7.473C70.1619 8.085 71.0169 8.94 71.6289 10.038C72.2589 11.136 72.5739 12.405 72.5739 13.845C72.5739 15.285 72.2589 16.563 71.6289 17.679C71.0169 18.777 70.1619 19.632 69.0639 20.244C67.9659 20.856 66.7239 21.162 65.3379 21.162C64.2759 21.162 63.3039 20.955 62.4219 20.541C61.5399 20.127 60.8109 19.524 60.2349 18.732V21H57.7509V0.965999H60.3429V8.85C60.9189 8.094 61.6389 7.527 62.5029 7.149C63.3669 6.753 64.3119 6.555 65.3379 6.555ZM65.1219 18.894C66.0399 18.894 66.8589 18.687 67.5789 18.273C68.3169 17.841 68.8929 17.247 69.3069 16.491C69.7389 15.717 69.9549 14.835 69.9549 13.845C69.9549 12.855 69.7389 11.982 69.3069 11.226C68.8929 10.452 68.3169 9.858 67.5789 9.444C66.8589 9.03 66.0399 8.823 65.1219 8.823C64.2219 8.823 63.4029 9.03 62.6649 9.444C61.9269 9.858 61.3509 10.452 60.9369 11.226C60.5229 11.982 60.3159 12.855 60.3159 13.845C60.3159 14.835 60.5229 15.717 60.9369 16.491C61.3509 17.247 61.9269 17.841 62.6649 18.273C63.4029 18.687 64.2219 18.894 65.1219 18.894ZM92.3162 21.216C90.4082 21.216 88.6892 20.802 87.1592 19.974C85.6292 19.128 84.4232 17.967 83.5412 16.491C82.6772 15.015 82.2452 13.368 82.2452 11.55C82.2452 9.732 82.6772 8.085 83.5412 6.609C84.4232 5.133 85.6292 3.981 87.1592 3.153C88.6892 2.307 90.4082 1.884 92.3162 1.884C94.2062 1.884 95.9162 2.307 97.4462 3.153C98.9762 3.981 100.173 5.133 101.037 6.609C101.901 8.067 102.333 9.714 102.333 11.55C102.333 13.386 101.901 15.042 101.037 16.518C100.173 17.976 98.9762 19.128 97.4462 19.974C95.9162 20.802 94.2062 21.216 92.3162 21.216ZM92.3162 18.813C93.7022 18.813 94.9442 18.498 96.0422 17.868C97.1582 17.238 98.0312 16.374 98.6612 15.276C99.3092 14.16 99.6332 12.918 99.6332 11.55C99.6332 10.182 99.3092 8.949 98.6612 7.851C98.0312 6.735 97.1582 5.862 96.0422 5.232C94.9442 4.602 93.7022 4.287 92.3162 4.287C90.9302 4.287 89.6702 4.602 88.5362 5.232C87.4202 5.862 86.5382 6.735 85.8902 7.851C85.2602 8.949 84.9452 10.182 84.9452 11.55C84.9452 12.918 85.2602 14.16 85.8902 15.276C86.5382 16.374 87.4202 17.238 88.5362 17.868C89.6702 18.498 90.9302 18.813 92.3162 18.813ZM113.669 6.555C115.055 6.555 116.297 6.861 117.395 7.473C118.493 8.085 119.348 8.94 119.96 10.038C120.59 11.136 120.905 12.405 120.905 13.845C120.905 15.285 120.59 16.563 119.96 17.679C119.348 18.777 118.493 19.632 117.395 20.244C116.297 20.856 115.055 21.162 113.669 21.162C112.643 21.162 111.698 20.964 110.834 20.568C109.988 20.172 109.268 19.596 108.674 18.84V26.238H106.082V6.69H108.566V8.958C109.142 8.166 109.871 7.572 110.753 7.176C111.635 6.762 112.607 6.555 113.669 6.555ZM113.453 18.894C114.371 18.894 115.19 18.687 115.91 18.273C116.648 17.841 117.224 17.247 117.638 16.491C118.07 15.717 118.286 14.835 118.286 13.845C118.286 12.855 118.07 11.982 117.638 11.226C117.224 10.452 116.648 9.858 115.91 9.444C115.19 9.03 114.371 8.823 113.453 8.823C112.553 8.823 111.734 9.039 110.996 9.471C110.276 9.885 109.7 10.47 109.268 11.226C108.854 11.982 108.647 12.855 108.647 13.845C108.647 14.835 108.854 15.717 109.268 16.491C109.682 17.247 110.258 17.841 110.996 18.273C111.734 18.687 112.553 18.894 113.453 18.894ZM132.073 6.555C133.459 6.555 134.701 6.861 135.799 7.473C136.897 8.085 137.752 8.94 138.364 10.038C138.994 11.136 139.309 12.405 139.309 13.845C139.309 15.285 138.994 16.563 138.364 17.679C137.752 18.777 136.897 19.632 135.799 20.244C134.701 20.856 133.459 21.162 132.073 21.162C131.047 21.162 130.102 20.964 129.238 20.568C128.392 20.172 127.672 19.596 127.078 18.84V26.238H124.486V6.69H126.97V8.958C127.546 8.166 128.275 7.572 129.157 7.176C130.039 6.762 131.011 6.555 132.073 6.555ZM131.857 18.894C132.775 18.894 133.594 18.687 134.314 18.273C135.052 17.841 135.628 17.247 136.042 16.491C136.474 15.717 136.69 14.835 136.69 13.845C136.69 12.855 136.474 11.982 136.042 11.226C135.628 10.452 135.052 9.858 134.314 9.444C133.594 9.03 132.775 8.823 131.857 8.823C130.957 8.823 130.138 9.039 129.4 9.471C128.68 9.885 128.104 10.47 127.672 11.226C127.258 11.982 127.051 12.855 127.051 13.845C127.051 14.835 127.258 15.717 127.672 16.491C128.086 17.247 128.662 17.841 129.4 18.273C130.138 18.687 130.957 18.894 131.857 18.894ZM149.02 21.162C147.598 21.162 146.32 20.847 145.186 20.217C144.052 19.587 143.161 18.723 142.513 17.625C141.883 16.509 141.568 15.249 141.568 13.845C141.568 12.441 141.883 11.19 142.513 10.092C143.161 8.976 144.052 8.112 145.186 7.5C146.32 6.87 147.598 6.555 149.02 6.555C150.442 6.555 151.711 6.87 152.827 7.5C153.961 8.112 154.843 8.976 155.473 10.092C156.121 11.19 156.445 12.441 156.445 13.845C156.445 15.249 156.121 16.509 155.473 17.625C154.843 18.723 153.961 19.587 152.827 20.217C151.711 20.847 150.442 21.162 149.02 21.162ZM149.02 18.894C149.938 18.894 150.757 18.687 151.477 18.273C152.215 17.841 152.791 17.247 153.205 16.491C153.619 15.717 153.826 14.835 153.826 13.845C153.826 12.855 153.619 11.982 153.205 11.226C152.791 10.452 152.215 9.858 151.477 9.444C150.757 9.03 149.938 8.823 149.02 8.823C148.102 8.823 147.274 9.03 146.536 9.444C145.816 9.858 145.24 10.452 144.808 11.226C144.394 11.982 144.187 12.855 144.187 13.845C144.187 14.835 144.394 15.717 144.808 16.491C145.24 17.247 145.816 17.841 146.536 18.273C147.274 18.687 148.102 18.894 149.02 18.894ZM162.513 9.093C162.963 8.265 163.629 7.635 164.511 7.203C165.393 6.771 166.464 6.555 167.724 6.555V9.066C167.58 9.048 167.382 9.039 167.13 9.039C165.726 9.039 164.619 9.462 163.809 10.308C163.017 11.136 162.621 12.324 162.621 13.872V21H160.029V6.69H162.513V9.093ZM179.545 20.163C179.167 20.487 178.699 20.739 178.141 20.919C177.583 21.081 177.007 21.162 176.413 21.162C174.973 21.162 173.857 20.775 173.065 20.001C172.273 19.227 171.877 18.12 171.877 16.68V8.823H169.447V6.69H171.877V3.558H174.469V6.69H178.573V8.823H174.469V16.572C174.469 17.346 174.658 17.94 175.036 18.354C175.432 18.768 175.99 18.975 176.71 18.975C177.502 18.975 178.177 18.75 178.735 18.3L179.545 20.163ZM196.017 6.69V21H193.56V18.84C193.038 19.578 192.345 20.154 191.481 20.568C190.635 20.964 189.708 21.162 188.7 21.162C186.792 21.162 185.289 20.64 184.191 19.596C183.093 18.534 182.544 16.977 182.544 14.925V6.69H185.136V14.628C185.136 16.014 185.469 17.067 186.135 17.787C186.801 18.489 187.755 18.84 188.997 18.84C190.365 18.84 191.445 18.426 192.237 17.598C193.029 16.77 193.425 15.6 193.425 14.088V6.69H196.017ZM208.592 6.555C210.41 6.555 211.85 7.086 212.912 8.148C213.992 9.192 214.532 10.731 214.532 12.765V21H211.94V13.062C211.94 11.676 211.607 10.632 210.941 9.93C210.275 9.228 209.321 8.877 208.079 8.877C206.675 8.877 205.568 9.291 204.758 10.119C203.948 10.929 203.543 12.099 203.543 13.629V21H200.951V6.69H203.435V8.85C203.957 8.112 204.659 7.545 205.541 7.149C206.441 6.753 207.458 6.555 208.592 6.555ZM219.329 6.69H221.921V21H219.329V6.69ZM220.625 3.936C220.121 3.936 219.698 3.774 219.356 3.45C219.032 3.126 218.87 2.73 218.87 2.262C218.87 1.794 219.032 1.398 219.356 1.074C219.698 0.731999 220.121 0.560999 220.625 0.560999C221.129 0.560999 221.543 0.722999 221.867 1.047C222.209 1.353 222.38 1.74 222.38 2.208C222.38 2.694 222.209 3.108 221.867 3.45C221.543 3.774 221.129 3.936 220.625 3.936ZM234.916 20.163C234.538 20.487 234.07 20.739 233.512 20.919C232.954 21.081 232.378 21.162 231.784 21.162C230.344 21.162 229.228 20.775 228.436 20.001C227.644 19.227 227.248 18.12 227.248 16.68V8.823H224.818V6.69H227.248V3.558H229.84V6.69H233.944V8.823H229.84V16.572C229.84 17.346 230.029 17.94 230.407 18.354C230.803 18.768 231.361 18.975 232.081 18.975C232.873 18.975 233.548 18.75 234.106 18.3L234.916 20.163ZM238.05 6.69H240.642V21H238.05V6.69ZM239.346 3.936C238.842 3.936 238.419 3.774 238.077 3.45C237.753 3.126 237.591 2.73 237.591 2.262C237.591 1.794 237.753 1.398 238.077 1.074C238.419 0.731999 238.842 0.560999 239.346 0.560999C239.85 0.560999 240.264 0.722999 240.588 1.047C240.93 1.353 241.101 1.74 241.101 2.208C241.101 2.694 240.93 3.108 240.588 3.45C240.264 3.774 239.85 3.936 239.346 3.936ZM258.524 13.926C258.524 14.124 258.506 14.385 258.47 14.709H246.86C247.022 15.969 247.571 16.986 248.507 17.76C249.461 18.516 250.64 18.894 252.044 18.894C253.754 18.894 255.131 18.318 256.175 17.166L257.606 18.84C256.958 19.596 256.148 20.172 255.176 20.568C254.222 20.964 253.151 21.162 251.963 21.162C250.451 21.162 249.11 20.856 247.94 20.244C246.77 19.614 245.861 18.741 245.213 17.625C244.583 16.509 244.268 15.249 244.268 13.845C244.268 12.459 244.574 11.208 245.186 10.092C245.816 8.976 246.671 8.112 247.751 7.5C248.849 6.87 250.082 6.555 251.45 6.555C252.818 6.555 254.033 6.87 255.095 7.5C256.175 8.112 257.012 8.976 257.606 10.092C258.218 11.208 258.524 12.486 258.524 13.926ZM251.45 8.742C250.208 8.742 249.164 9.12 248.318 9.876C247.49 10.632 247.004 11.622 246.86 12.846H256.04C255.896 11.64 255.401 10.659 254.555 9.903C253.727 9.129 252.692 8.742 251.45 8.742ZM266.227 21.162C265.057 21.162 263.932 21.009 262.852 20.703C261.772 20.379 260.926 19.974 260.314 19.488L261.394 17.436C262.024 17.886 262.789 18.246 263.689 18.516C264.589 18.786 265.498 18.921 266.416 18.921C268.684 18.921 269.818 18.273 269.818 16.977C269.818 16.545 269.665 16.203 269.359 15.951C269.053 15.699 268.666 15.519 268.198 15.411C267.748 15.285 267.1 15.15 266.254 15.006C265.102 14.826 264.157 14.619 263.419 14.385C262.699 14.151 262.078 13.755 261.556 13.197C261.034 12.639 260.773 11.856 260.773 10.848C260.773 9.552 261.313 8.517 262.393 7.743C263.473 6.951 264.922 6.555 266.74 6.555C267.694 6.555 268.648 6.672 269.602 6.906C270.556 7.14 271.339 7.455 271.951 7.851L270.844 9.903C269.674 9.147 268.297 8.769 266.713 8.769C265.615 8.769 264.778 8.949 264.202 9.309C263.626 9.669 263.338 10.146 263.338 10.74C263.338 11.208 263.5 11.577 263.824 11.847C264.148 12.117 264.544 12.315 265.012 12.441C265.498 12.567 266.173 12.711 267.037 12.873C268.189 13.071 269.116 13.287 269.818 13.521C270.538 13.737 271.15 14.115 271.654 14.655C272.158 15.195 272.41 15.951 272.41 16.923C272.41 18.219 271.852 19.254 270.736 20.028C269.638 20.784 268.135 21.162 266.227 21.162Z" fill="#5C5C5C"/>
</svg>
