<svg width="63" height="20" viewBox="0 0 63 20" fill="none" xmlns="http://www.w3.org/2000/svg">
<path d="M11.9308 12H5.43078L4.19078 15H0.870781L7.11078 0.999999H10.3108L16.5708 15H13.1708L11.9308 12ZM10.9108 9.54L8.69078 4.18L6.47078 9.54H10.9108ZM24.1633 4.08C25.1633 4.08 26.0699 4.31333 26.8833 4.78C27.7099 5.23333 28.3566 5.88 28.8233 6.72C29.2899 7.54667 29.5233 8.51333 29.5233 9.62C29.5233 10.7267 29.2899 11.7 28.8233 12.54C28.3566 13.3667 27.7099 14.0133 26.8833 14.48C26.0699 14.9333 25.1633 15.16 24.1633 15.16C22.7899 15.16 21.7099 14.7267 20.9233 13.86V18.88H17.8033V4.24H20.7833V5.48C21.5566 4.54667 22.6833 4.08 24.1633 4.08ZM23.6233 12.6C24.4233 12.6 25.0766 12.3333 25.5833 11.8C26.1033 11.2533 26.3633 10.5267 26.3633 9.62C26.3633 8.71333 26.1033 7.99333 25.5833 7.46C25.0766 6.91333 24.4233 6.64 23.6233 6.64C22.8233 6.64 22.1633 6.91333 21.6433 7.46C21.1366 7.99333 20.8833 8.71333 20.8833 9.62C20.8833 10.5267 21.1366 11.2533 21.6433 11.8C22.1633 12.3333 22.8233 12.6 23.6233 12.6ZM37.9719 4.08C38.9719 4.08 39.8785 4.31333 40.6919 4.78C41.5185 5.23333 42.1652 5.88 42.6319 6.72C43.0985 7.54667 43.3319 8.51333 43.3319 9.62C43.3319 10.7267 43.0985 11.7 42.6319 12.54C42.1652 13.3667 41.5185 14.0133 40.6919 14.48C39.8785 14.9333 38.9719 15.16 37.9719 15.16C36.5985 15.16 35.5185 14.7267 34.7319 13.86V18.88H31.6119V4.24H34.5919V5.48C35.3652 4.54667 36.4919 4.08 37.9719 4.08ZM37.4319 12.6C38.2319 12.6 38.8852 12.3333 39.3919 11.8C39.9119 11.2533 40.1719 10.5267 40.1719 9.62C40.1719 8.71333 39.9119 7.99333 39.3919 7.46C38.8852 6.91333 38.2319 6.64 37.4319 6.64C36.6319 6.64 35.9719 6.91333 35.4519 7.46C34.9452 7.99333 34.6919 8.71333 34.6919 9.62C34.6919 10.5267 34.9452 11.2533 35.4519 11.8C35.9719 12.3333 36.6319 12.6 37.4319 12.6ZM45.4205 0.159999H48.5405V15H45.4205V0.159999ZM62.1161 4.24L57.2561 15.66C56.7628 16.9 56.1494 17.7733 55.4161 18.28C54.6961 18.7867 53.8228 19.04 52.7961 19.04C52.2361 19.04 51.6828 18.9533 51.1361 18.78C50.5894 18.6067 50.1428 18.3667 49.7961 18.06L50.9361 15.84C51.1761 16.0533 51.4494 16.22 51.7561 16.34C52.0761 16.46 52.3894 16.52 52.6961 16.52C53.1228 16.52 53.4694 16.4133 53.7361 16.2C54.0028 16 54.2428 15.66 54.4561 15.18L54.4961 15.08L49.8361 4.24H53.0561L56.0761 11.54L59.1161 4.24H62.1161Z" fill="#606060"/>
</svg>
