<svg width="48" height="48" viewBox="0 0 48 48" fill="none" xmlns="http://www.w3.org/2000/svg">
<path d="M24.5095 47.8552C31.1161 47.8552 36.6623 45.7299 40.7135 42.064L32.9921 36.2195C30.9258 37.6274 28.1526 38.6103 24.5095 38.6103C18.0388 38.6103 12.5468 34.4397 10.5891 28.675L10.3022 28.6989L2.74904 34.4104L2.65027 34.6787C6.67405 42.4889 14.9392 47.8552 24.5095 47.8552Z" fill="#34A853"/>
<path d="M47.9999 24.4778C47.9999 22.512 47.8367 21.0775 47.4834 19.5898H24.5095V28.4625H37.9947C37.7229 30.6675 36.2547 33.9882 32.9921 36.2196L32.9464 36.5166L40.2103 42.015L40.7135 42.0641C45.3354 37.8933 47.9999 31.7567 47.9999 24.4778Z" fill="#4285F4"/>
<path d="M10.5896 28.6752C10.073 27.1875 9.77409 25.5935 9.77409 23.9465C9.77409 22.2994 10.073 20.7055 10.5624 19.2179L10.5487 18.9011L2.90098 13.0977L2.65076 13.214C0.992361 16.455 0.0407715 20.0946 0.0407715 23.9465C0.0407715 27.7985 0.992361 31.4378 2.65076 34.6789L10.5896 28.6752Z" fill="#FBBC05"/>
<path d="M24.5097 9.28236C29.1044 9.28236 32.2038 11.2216 33.9711 12.8422L40.8768 6.25398C36.6356 2.40201 31.1163 0.0376816 24.5097 0.0376816C14.9395 0.0376816 6.67429 5.40384 2.65051 13.214L10.5622 19.2178C12.5471 13.4532 18.039 9.28236 24.5097 9.28236Z" fill="#EB4335"/>
</svg>
