<svg width="140" height="17" viewBox="0 0 140 17" fill="none" xmlns="http://www.w3.org/2000/svg">
<path d="M0.504 1.8H2.584V11.24H8.44V13H0.504V1.8ZM17.844 8.776C17.844 8.91467 17.8333 9.112 17.812 9.368H11.108C11.2253 9.99733 11.5293 10.4987 12.02 10.872C12.5213 11.2347 13.14 11.416 13.876 11.416C14.8147 11.416 15.588 11.1067 16.196 10.488L17.268 11.72C16.884 12.1787 16.3987 12.5253 15.812 12.76C15.2253 12.9947 14.564 13.112 13.828 13.112C12.8893 13.112 12.0627 12.9253 11.348 12.552C10.6333 12.1787 10.0787 11.6613 9.684 11C9.3 10.328 9.108 9.57067 9.108 8.728C9.108 7.896 9.29467 7.14933 9.668 6.488C10.052 5.816 10.58 5.29333 11.252 4.92C11.924 4.54667 12.6813 4.36 13.524 4.36C14.356 4.36 15.0973 4.54667 15.748 4.92C16.4093 5.28267 16.9213 5.8 17.284 6.472C17.6573 7.13333 17.844 7.90133 17.844 8.776ZM13.524 5.96C12.884 5.96 12.34 6.152 11.892 6.536C11.4547 6.90933 11.188 7.41067 11.092 8.04H15.94C15.8547 7.42133 15.5933 6.92 15.156 6.536C14.7187 6.152 14.1747 5.96 13.524 5.96ZM22.7948 4.36C24.0534 4.36 25.0134 4.664 25.6748 5.272C26.3468 5.86933 26.6828 6.776 26.6828 7.992V13H24.7948V11.96C24.5494 12.3333 24.1974 12.6213 23.7388 12.824C23.2908 13.016 22.7468 13.112 22.1068 13.112C21.4668 13.112 20.9068 13.0053 20.4268 12.792C19.9468 12.568 19.5734 12.264 19.3068 11.88C19.0508 11.4853 18.9228 11.0427 18.9228 10.552C18.9228 9.784 19.2054 9.17067 19.7708 8.712C20.3468 8.24267 21.2481 8.008 22.4748 8.008H24.6828V7.88C24.6828 7.28267 24.5014 6.824 24.1388 6.504C23.7868 6.184 23.2588 6.024 22.5548 6.024C22.0748 6.024 21.6001 6.09867 21.1308 6.248C20.6721 6.39733 20.2828 6.60533 19.9628 6.872L19.1788 5.416C19.6268 5.07467 20.1654 4.81333 20.7948 4.632C21.4241 4.45067 22.0908 4.36 22.7948 4.36ZM22.5228 11.656C23.0241 11.656 23.4668 11.544 23.8508 11.32C24.2454 11.0853 24.5228 10.7547 24.6828 10.328V9.336H22.6188C21.4668 9.336 20.8908 9.71467 20.8908 10.472C20.8908 10.8347 21.0348 11.1227 21.3228 11.336C21.6108 11.5493 22.0108 11.656 22.5228 11.656ZM37.6956 1.128V13H35.7756V11.896C35.445 12.3013 35.0343 12.6053 34.5436 12.808C34.0636 13.0107 33.5303 13.112 32.9436 13.112C32.1223 13.112 31.381 12.9307 30.7196 12.568C30.069 12.2053 29.557 11.6933 29.1836 11.032C28.8103 10.36 28.6236 9.592 28.6236 8.728C28.6236 7.864 28.8103 7.10133 29.1836 6.44C29.557 5.77867 30.069 5.26667 30.7196 4.904C31.381 4.54133 32.1223 4.36 32.9436 4.36C33.509 4.36 34.0263 4.456 34.4956 4.648C34.965 4.84 35.365 5.128 35.6956 5.512V1.128H37.6956ZM33.1836 11.4C33.6636 11.4 34.0956 11.2933 34.4796 11.08C34.8636 10.856 35.1676 10.5413 35.3916 10.136C35.6156 9.73067 35.7276 9.26133 35.7276 8.728C35.7276 8.19467 35.6156 7.72533 35.3916 7.32C35.1676 6.91467 34.8636 6.60533 34.4796 6.392C34.0956 6.168 33.6636 6.056 33.1836 6.056C32.7036 6.056 32.2716 6.168 31.8876 6.392C31.5036 6.60533 31.1996 6.91467 30.9756 7.32C30.7516 7.72533 30.6396 8.19467 30.6396 8.728C30.6396 9.26133 30.7516 9.73067 30.9756 10.136C31.1996 10.5413 31.5036 10.856 31.8876 11.08C32.2716 11.2933 32.7036 11.4 33.1836 11.4ZM49.7419 13.16C48.1952 13.16 46.9899 12.728 46.1259 11.864C45.2619 10.9893 44.8299 9.74133 44.8299 8.12V1.8H46.9099V8.04C46.9099 10.2373 47.8592 11.336 49.7579 11.336C51.6459 11.336 52.5899 10.2373 52.5899 8.04V1.8H54.6379V8.12C54.6379 9.74133 54.2059 10.9893 53.3419 11.864C52.4885 12.728 51.2885 13.16 49.7419 13.16ZM57.5509 1.8H59.6309V13H57.5509V1.8ZM67.0821 1.8H71.9781C73.1728 1.8 74.2341 2.03467 75.1621 2.504C76.0901 2.96267 76.8101 3.61867 77.3221 4.472C77.8341 5.31467 78.0901 6.29067 78.0901 7.4C78.0901 8.50933 77.8341 9.49067 77.3221 10.344C76.8101 11.1867 76.0901 11.8427 75.1621 12.312C74.2341 12.7707 73.1728 13 71.9781 13H67.0821V1.8ZM71.8821 11.24C72.7035 11.24 73.4235 11.0853 74.0421 10.776C74.6715 10.456 75.1515 10.008 75.4821 9.432C75.8235 8.84533 75.9941 8.168 75.9941 7.4C75.9941 6.632 75.8235 5.96 75.4821 5.384C75.1515 4.79733 74.6715 4.34933 74.0421 4.04C73.4235 3.72 72.7035 3.56 71.8821 3.56H69.1621V11.24H71.8821ZM88.1409 8.776C88.1409 8.91467 88.1302 9.112 88.1089 9.368H81.4049C81.5222 9.99733 81.8262 10.4987 82.3169 10.872C82.8182 11.2347 83.4369 11.416 84.1729 11.416C85.1115 11.416 85.8849 11.1067 86.4929 10.488L87.5649 11.72C87.1809 12.1787 86.6955 12.5253 86.1089 12.76C85.5222 12.9947 84.8609 13.112 84.1249 13.112C83.1862 13.112 82.3595 12.9253 81.6449 12.552C80.9302 12.1787 80.3755 11.6613 79.9809 11C79.5969 10.328 79.4049 9.57067 79.4049 8.728C79.4049 7.896 79.5915 7.14933 79.9649 6.488C80.3489 5.816 80.8769 5.29333 81.5489 4.92C82.2209 4.54667 82.9782 4.36 83.8209 4.36C84.6529 4.36 85.3942 4.54667 86.0449 4.92C86.7062 5.28267 87.2182 5.8 87.5809 6.472C87.9542 7.13333 88.1409 7.90133 88.1409 8.776ZM83.8209 5.96C83.1809 5.96 82.6369 6.152 82.1889 6.536C81.7515 6.90933 81.4849 7.41067 81.3889 8.04H86.2369C86.1515 7.42133 85.8902 6.92 85.4529 6.536C85.0155 6.152 84.4715 5.96 83.8209 5.96ZM92.702 13.112C92.0087 13.112 91.3313 13.0213 90.67 12.84C90.0087 12.6587 89.4807 12.4293 89.086 12.152L89.854 10.632C90.238 10.888 90.6967 11.096 91.23 11.256C91.774 11.4053 92.3073 11.48 92.83 11.48C94.0247 11.48 94.622 11.1653 94.622 10.536C94.622 10.2373 94.4673 10.0293 94.158 9.912C93.8593 9.79467 93.374 9.68267 92.702 9.576C91.998 9.46933 91.422 9.34667 90.974 9.208C90.5367 9.06933 90.1527 8.82933 89.822 8.488C89.502 8.136 89.342 7.65067 89.342 7.032C89.342 6.22133 89.678 5.576 90.35 5.096C91.0327 4.60533 91.95 4.36 93.102 4.36C93.6887 4.36 94.2753 4.42933 94.862 4.568C95.4487 4.696 95.9287 4.872 96.302 5.096L95.534 6.616C94.8087 6.18933 93.9927 5.976 93.086 5.976C92.4993 5.976 92.0513 6.06667 91.742 6.248C91.4433 6.41867 91.294 6.648 91.294 6.936C91.294 7.256 91.454 7.48533 91.774 7.624C92.1047 7.752 92.6113 7.87467 93.294 7.992C93.9767 8.09867 94.5367 8.22133 94.974 8.36C95.4113 8.49867 95.7847 8.73333 96.094 9.064C96.414 9.39467 96.574 9.864 96.574 10.472C96.574 11.272 96.2273 11.912 95.534 12.392C94.8407 12.872 93.8967 13.112 92.702 13.112ZM98.2964 4.456H100.296V13H98.2964V4.456ZM99.3044 3.048C98.9417 3.048 98.6377 2.936 98.3924 2.712C98.147 2.47733 98.0244 2.18933 98.0244 1.848C98.0244 1.50667 98.147 1.224 98.3924 0.999999C98.6377 0.765333 98.9417 0.648 99.3044 0.648C99.667 0.648 99.971 0.76 100.216 0.983999C100.462 1.19733 100.584 1.46933 100.584 1.8C100.584 2.152 100.462 2.45067 100.216 2.696C99.9817 2.93067 99.6777 3.048 99.3044 3.048ZM111.401 4.456V11.704C111.401 14.712 109.865 16.216 106.793 16.216C105.972 16.216 105.193 16.1093 104.457 15.896C103.721 15.6933 103.113 15.3947 102.633 15L103.529 13.496C103.903 13.8053 104.372 14.0507 104.937 14.232C105.513 14.424 106.095 14.52 106.681 14.52C107.62 14.52 108.308 14.3067 108.745 13.88C109.183 13.4533 109.401 12.8027 109.401 11.928V11.48C109.06 11.8533 108.644 12.136 108.153 12.328C107.663 12.52 107.124 12.616 106.537 12.616C105.727 12.616 104.991 12.4453 104.329 12.104C103.679 11.752 103.161 11.2613 102.777 10.632C102.404 10.0027 102.217 9.28267 102.217 8.472C102.217 7.66133 102.404 6.94667 102.777 6.328C103.161 5.69867 103.679 5.21333 104.329 4.872C104.991 4.53067 105.727 4.36 106.537 4.36C107.156 4.36 107.716 4.46133 108.217 4.664C108.729 4.86667 109.156 5.176 109.497 5.592V4.456H111.401ZM106.841 10.92C107.599 10.92 108.217 10.696 108.697 10.248C109.188 9.78933 109.433 9.19733 109.433 8.472C109.433 7.75733 109.188 7.176 108.697 6.728C108.217 6.28 107.599 6.056 106.841 6.056C106.073 6.056 105.444 6.28 104.953 6.728C104.473 7.176 104.233 7.75733 104.233 8.472C104.233 9.19733 104.473 9.78933 104.953 10.248C105.444 10.696 106.073 10.92 106.841 10.92ZM118.879 4.36C119.956 4.36 120.82 4.67467 121.471 5.304C122.121 5.93333 122.447 6.86667 122.447 8.104V13H120.447V8.36C120.447 7.61333 120.271 7.05333 119.919 6.68C119.567 6.296 119.065 6.104 118.415 6.104C117.679 6.104 117.097 6.328 116.671 6.776C116.244 7.21333 116.031 7.848 116.031 8.68V13H114.031V4.456H115.935V5.56C116.265 5.16533 116.681 4.86667 117.183 4.664C117.684 4.46133 118.249 4.36 118.879 4.36ZM133.094 8.776C133.094 8.91467 133.083 9.112 133.062 9.368H126.358C126.475 9.99733 126.779 10.4987 127.27 10.872C127.771 11.2347 128.39 11.416 129.126 11.416C130.065 11.416 130.838 11.1067 131.446 10.488L132.518 11.72C132.134 12.1787 131.649 12.5253 131.062 12.76C130.475 12.9947 129.814 13.112 129.078 13.112C128.139 13.112 127.313 12.9253 126.598 12.552C125.883 12.1787 125.329 11.6613 124.934 11C124.55 10.328 124.358 9.57067 124.358 8.728C124.358 7.896 124.545 7.14933 124.918 6.488C125.302 5.816 125.83 5.29333 126.502 4.92C127.174 4.54667 127.931 4.36 128.774 4.36C129.606 4.36 130.347 4.54667 130.998 4.92C131.659 5.28267 132.171 5.8 132.534 6.472C132.907 7.13333 133.094 7.90133 133.094 8.776ZM128.774 5.96C128.134 5.96 127.59 6.152 127.142 6.536C126.705 6.90933 126.438 7.41067 126.342 8.04H131.19C131.105 7.42133 130.843 6.92 130.406 6.536C129.969 6.152 129.425 5.96 128.774 5.96ZM136.919 5.704C137.495 4.808 138.508 4.36 139.959 4.36V6.264C139.788 6.232 139.634 6.216 139.495 6.216C138.716 6.216 138.108 6.44533 137.671 6.904C137.234 7.352 137.015 8.00267 137.015 8.856V13H135.015V4.456H136.919V5.704Z" fill="#393939"/>
</svg>
