<svg width="175" height="17" viewBox="0 0 175 17" fill="none" xmlns="http://www.w3.org/2000/svg">
<path d="M4.976 13.16C4.112 13.16 3.27467 13.0373 2.464 12.792C1.664 12.5467 1.02933 12.2213 0.56 11.816L1.28 10.2C1.73867 10.5627 2.29867 10.8613 2.96 11.096C3.632 11.32 4.304 11.432 4.976 11.432C5.808 11.432 6.42667 11.2987 6.832 11.032C7.248 10.7653 7.456 10.4133 7.456 9.976C7.456 9.656 7.33867 9.39467 7.104 9.192C6.88 8.97867 6.592 8.81333 6.24 8.696C5.888 8.57867 5.408 8.44533 4.8 8.296C3.94667 8.09333 3.25333 7.89067 2.72 7.688C2.19733 7.48533 1.744 7.17067 1.36 6.744C0.986667 6.30667 0.8 5.72 0.8 4.984C0.8 4.36533 0.965333 3.80533 1.296 3.304C1.63733 2.792 2.144 2.38667 2.816 2.088C3.49867 1.78933 4.33067 1.64 5.312 1.64C5.99467 1.64 6.66667 1.72533 7.328 1.896C7.98933 2.06667 8.56 2.312 9.04 2.632L8.384 4.248C7.89333 3.96 7.38133 3.74133 6.848 3.592C6.31467 3.44267 5.79733 3.368 5.296 3.368C4.47467 3.368 3.86133 3.50667 3.456 3.784C3.06133 4.06133 2.864 4.42933 2.864 4.888C2.864 5.208 2.976 5.46933 3.2 5.672C3.43467 5.87467 3.728 6.03467 4.08 6.152C4.432 6.26933 4.912 6.40267 5.52 6.552C6.352 6.744 7.03467 6.94667 7.568 7.16C8.10133 7.36267 8.55467 7.67733 8.928 8.104C9.312 8.53067 9.504 9.10667 9.504 9.832C9.504 10.4507 9.33333 11.0107 8.992 11.512C8.66133 12.0133 8.15467 12.4133 7.472 12.712C6.78933 13.0107 5.95733 13.16 4.976 13.16ZM19.4065 8.776C19.4065 8.91467 19.3958 9.112 19.3745 9.368H12.6705C12.7878 9.99733 13.0918 10.4987 13.5825 10.872C14.0838 11.2347 14.7025 11.416 15.4385 11.416C16.3772 11.416 17.1505 11.1067 17.7585 10.488L18.8305 11.72C18.4465 12.1787 17.9612 12.5253 17.3745 12.76C16.7878 12.9947 16.1265 13.112 15.3905 13.112C14.4518 13.112 13.6252 12.9253 12.9105 12.552C12.1958 12.1787 11.6412 11.6613 11.2465 11C10.8625 10.328 10.6705 9.57067 10.6705 8.728C10.6705 7.896 10.8572 7.14933 11.2305 6.488C11.6145 5.816 12.1425 5.29333 12.8145 4.92C13.4865 4.54667 14.2438 4.36 15.0865 4.36C15.9185 4.36 16.6598 4.54667 17.3105 4.92C17.9718 5.28267 18.4838 5.8 18.8465 6.472C19.2198 7.13333 19.4065 7.90133 19.4065 8.776ZM15.0865 5.96C14.4465 5.96 13.9025 6.152 13.4545 6.536C13.0172 6.90933 12.7505 7.41067 12.6545 8.04H17.5025C17.4172 7.42133 17.1558 6.92 16.7185 6.536C16.2812 6.152 15.7372 5.96 15.0865 5.96ZM26.1756 4.36C27.253 4.36 28.117 4.67467 28.7676 5.304C29.4183 5.93333 29.7436 6.86667 29.7436 8.104V13H27.7436V8.36C27.7436 7.61333 27.5676 7.05333 27.2156 6.68C26.8636 6.296 26.3623 6.104 25.7116 6.104C24.9756 6.104 24.3943 6.328 23.9676 6.776C23.541 7.21333 23.3276 7.848 23.3276 8.68V13H21.3276V4.456H23.2316V5.56C23.5623 5.16533 23.9783 4.86667 24.4796 4.664C24.981 4.46133 25.5463 4.36 26.1756 4.36ZM32.2808 4.456H34.2808V13H32.2808V4.456ZM33.2888 3.048C32.9261 3.048 32.6221 2.936 32.3768 2.712C32.1314 2.47733 32.0088 2.18933 32.0088 1.848C32.0088 1.50667 32.1314 1.224 32.3768 0.999999C32.6221 0.765333 32.9261 0.648 33.2888 0.648C33.6514 0.648 33.9554 0.76 34.2008 0.983999C34.4461 1.19733 34.5688 1.46933 34.5688 1.8C34.5688 2.152 34.4461 2.45067 34.2008 2.696C33.9661 2.93067 33.6621 3.048 33.2888 3.048ZM40.7458 13.112C39.8818 13.112 39.1031 12.9253 38.4098 12.552C37.7164 12.1787 37.1724 11.6613 36.7778 11C36.3938 10.328 36.2018 9.57067 36.2018 8.728C36.2018 7.88533 36.3938 7.13333 36.7778 6.472C37.1724 5.81067 37.7164 5.29333 38.4098 4.92C39.1031 4.54667 39.8818 4.36 40.7458 4.36C41.6204 4.36 42.4044 4.54667 43.0978 4.92C43.7911 5.29333 44.3298 5.81067 44.7138 6.472C45.1084 7.13333 45.3058 7.88533 45.3058 8.728C45.3058 9.57067 45.1084 10.328 44.7138 11C44.3298 11.6613 43.7911 12.1787 43.0978 12.552C42.4044 12.9253 41.6204 13.112 40.7458 13.112ZM40.7458 11.4C41.4818 11.4 42.0898 11.1547 42.5698 10.664C43.0498 10.1733 43.2898 9.528 43.2898 8.728C43.2898 7.928 43.0498 7.28267 42.5698 6.792C42.0898 6.30133 41.4818 6.056 40.7458 6.056C40.0098 6.056 39.4018 6.30133 38.9218 6.792C38.4524 7.28267 38.2178 7.928 38.2178 8.728C38.2178 9.528 38.4524 10.1733 38.9218 10.664C39.4018 11.1547 40.0098 11.4 40.7458 11.4ZM49.1223 5.704C49.6983 4.808 50.7116 4.36 52.1623 4.36V6.264C51.9916 6.232 51.8369 6.216 51.6983 6.216C50.9196 6.216 50.3116 6.44533 49.8743 6.904C49.4369 7.352 49.2183 8.00267 49.2183 8.856V13H47.2183V4.456H49.1223V5.704ZM74.9189 1.8L71.2069 13H68.9989L66.2309 4.712L63.4149 13H61.1909L57.4789 1.8H59.6389L62.4229 10.312L65.3189 1.8H67.2389L70.0709 10.36L72.9349 1.8H74.9189ZM83.8128 8.776C83.8128 8.91467 83.8021 9.112 83.7808 9.368H77.0768C77.1941 9.99733 77.4981 10.4987 77.9888 10.872C78.4901 11.2347 79.1088 11.416 79.8448 11.416C80.7834 11.416 81.5568 11.1067 82.1648 10.488L83.2368 11.72C82.8528 12.1787 82.3674 12.5253 81.7808 12.76C81.1941 12.9947 80.5328 13.112 79.7968 13.112C78.8581 13.112 78.0314 12.9253 77.3168 12.552C76.6021 12.1787 76.0474 11.6613 75.6528 11C75.2688 10.328 75.0768 9.57067 75.0768 8.728C75.0768 7.896 75.2634 7.14933 75.6368 6.488C76.0208 5.816 76.5488 5.29333 77.2208 4.92C77.8928 4.54667 78.6501 4.36 79.4928 4.36C80.3248 4.36 81.0661 4.54667 81.7168 4.92C82.3781 5.28267 82.8901 5.8 83.2528 6.472C83.6261 7.13333 83.8128 7.90133 83.8128 8.776ZM79.4928 5.96C78.8528 5.96 78.3088 6.152 77.8608 6.536C77.4234 6.90933 77.1568 7.41067 77.0608 8.04H81.9088C81.8234 7.42133 81.5621 6.92 81.1248 6.536C80.6874 6.152 80.1434 5.96 79.4928 5.96ZM90.4699 4.36C91.3019 4.36 92.0432 4.54133 92.6939 4.904C93.3552 5.26667 93.8725 5.77867 94.2459 6.44C94.6192 7.10133 94.8059 7.864 94.8059 8.728C94.8059 9.592 94.6192 10.36 94.2459 11.032C93.8725 11.6933 93.3552 12.2053 92.6939 12.568C92.0432 12.9307 91.3019 13.112 90.4699 13.112C89.8832 13.112 89.3445 13.0107 88.8539 12.808C88.3739 12.6053 87.9685 12.3013 87.6379 11.896V13H85.7339V1.128H87.7339V5.496C88.0752 5.12267 88.4752 4.84 88.9339 4.648C89.4032 4.456 89.9152 4.36 90.4699 4.36ZM90.2459 11.4C90.9819 11.4 91.5845 11.1547 92.0539 10.664C92.5339 10.1733 92.7739 9.528 92.7739 8.728C92.7739 7.928 92.5339 7.28267 92.0539 6.792C91.5845 6.30133 90.9819 6.056 90.2459 6.056C89.7659 6.056 89.3339 6.168 88.9499 6.392C88.5659 6.60533 88.2619 6.91467 88.0379 7.32C87.8139 7.72533 87.7019 8.19467 87.7019 8.728C87.7019 9.26133 87.8139 9.73067 88.0379 10.136C88.2619 10.5413 88.5659 10.856 88.9499 11.08C89.3339 11.2933 89.7659 11.4 90.2459 11.4ZM101.317 1.8H106.213C107.407 1.8 108.469 2.03467 109.397 2.504C110.325 2.96267 111.045 3.61867 111.557 4.472C112.069 5.31467 112.325 6.29067 112.325 7.4C112.325 8.50933 112.069 9.49067 111.557 10.344C111.045 11.1867 110.325 11.8427 109.397 12.312C108.469 12.7707 107.407 13 106.213 13H101.317V1.8ZM106.117 11.24C106.938 11.24 107.658 11.0853 108.277 10.776C108.906 10.456 109.386 10.008 109.717 9.432C110.058 8.84533 110.229 8.168 110.229 7.4C110.229 6.632 110.058 5.96 109.717 5.384C109.386 4.79733 108.906 4.34933 108.277 4.04C107.658 3.72 106.938 3.56 106.117 3.56H103.397V11.24H106.117ZM122.375 8.776C122.375 8.91467 122.365 9.112 122.343 9.368H115.639C115.757 9.99733 116.061 10.4987 116.551 10.872C117.053 11.2347 117.671 11.416 118.407 11.416C119.346 11.416 120.119 11.1067 120.727 10.488L121.799 11.72C121.415 12.1787 120.93 12.5253 120.343 12.76C119.757 12.9947 119.095 13.112 118.359 13.112C117.421 13.112 116.594 12.9253 115.879 12.552C115.165 12.1787 114.61 11.6613 114.215 11C113.831 10.328 113.639 9.57067 113.639 8.728C113.639 7.896 113.826 7.14933 114.199 6.488C114.583 5.816 115.111 5.29333 115.783 4.92C116.455 4.54667 117.213 4.36 118.055 4.36C118.887 4.36 119.629 4.54667 120.279 4.92C120.941 5.28267 121.453 5.8 121.815 6.472C122.189 7.13333 122.375 7.90133 122.375 8.776ZM118.055 5.96C117.415 5.96 116.871 6.152 116.423 6.536C115.986 6.90933 115.719 7.41067 115.623 8.04H120.471C120.386 7.42133 120.125 6.92 119.687 6.536C119.25 6.152 118.706 5.96 118.055 5.96ZM126.936 13.112C126.243 13.112 125.566 13.0213 124.904 12.84C124.243 12.6587 123.715 12.4293 123.32 12.152L124.088 10.632C124.472 10.888 124.931 11.096 125.464 11.256C126.008 11.4053 126.542 11.48 127.064 11.48C128.259 11.48 128.856 11.1653 128.856 10.536C128.856 10.2373 128.702 10.0293 128.392 9.912C128.094 9.79467 127.608 9.68267 126.936 9.576C126.232 9.46933 125.656 9.34667 125.208 9.208C124.771 9.06933 124.387 8.82933 124.056 8.488C123.736 8.136 123.576 7.65067 123.576 7.032C123.576 6.22133 123.912 5.576 124.584 5.096C125.267 4.60533 126.184 4.36 127.336 4.36C127.923 4.36 128.51 4.42933 129.096 4.568C129.683 4.696 130.163 4.872 130.536 5.096L129.768 6.616C129.043 6.18933 128.227 5.976 127.32 5.976C126.734 5.976 126.286 6.06667 125.976 6.248C125.678 6.41867 125.528 6.648 125.528 6.936C125.528 7.256 125.688 7.48533 126.008 7.624C126.339 7.752 126.846 7.87467 127.528 7.992C128.211 8.09867 128.771 8.22133 129.208 8.36C129.646 8.49867 130.019 8.73333 130.328 9.064C130.648 9.39467 130.808 9.864 130.808 10.472C130.808 11.272 130.462 11.912 129.768 12.392C129.075 12.872 128.131 13.112 126.936 13.112ZM132.531 4.456H134.531V13H132.531V4.456ZM133.539 3.048C133.176 3.048 132.872 2.936 132.627 2.712C132.381 2.47733 132.259 2.18933 132.259 1.848C132.259 1.50667 132.381 1.224 132.627 0.999999C132.872 0.765333 133.176 0.648 133.539 0.648C133.901 0.648 134.205 0.76 134.451 0.983999C134.696 1.19733 134.819 1.46933 134.819 1.8C134.819 2.152 134.696 2.45067 134.451 2.696C134.216 2.93067 133.912 3.048 133.539 3.048ZM145.636 4.456V11.704C145.636 14.712 144.1 16.216 141.028 16.216C140.206 16.216 139.428 16.1093 138.692 15.896C137.956 15.6933 137.348 15.3947 136.868 15L137.764 13.496C138.137 13.8053 138.606 14.0507 139.172 14.232C139.748 14.424 140.329 14.52 140.916 14.52C141.854 14.52 142.542 14.3067 142.98 13.88C143.417 13.4533 143.636 12.8027 143.636 11.928V11.48C143.294 11.8533 142.878 12.136 142.388 12.328C141.897 12.52 141.358 12.616 140.772 12.616C139.961 12.616 139.225 12.4453 138.564 12.104C137.913 11.752 137.396 11.2613 137.012 10.632C136.638 10.0027 136.452 9.28267 136.452 8.472C136.452 7.66133 136.638 6.94667 137.012 6.328C137.396 5.69867 137.913 5.21333 138.564 4.872C139.225 4.53067 139.961 4.36 140.772 4.36C141.39 4.36 141.95 4.46133 142.452 4.664C142.964 4.86667 143.39 5.176 143.732 5.592V4.456H145.636ZM141.076 10.92C141.833 10.92 142.452 10.696 142.932 10.248C143.422 9.78933 143.668 9.19733 143.668 8.472C143.668 7.75733 143.422 7.176 142.932 6.728C142.452 6.28 141.833 6.056 141.076 6.056C140.308 6.056 139.678 6.28 139.188 6.728C138.708 7.176 138.468 7.75733 138.468 8.472C138.468 9.19733 138.708 9.78933 139.188 10.248C139.678 10.696 140.308 10.92 141.076 10.92ZM153.113 4.36C154.19 4.36 155.054 4.67467 155.705 5.304C156.356 5.93333 156.681 6.86667 156.681 8.104V13H154.681V8.36C154.681 7.61333 154.505 7.05333 154.153 6.68C153.801 6.296 153.3 6.104 152.649 6.104C151.913 6.104 151.332 6.328 150.905 6.776C150.478 7.21333 150.265 7.848 150.265 8.68V13H148.265V4.456H150.169V5.56C150.5 5.16533 150.916 4.86667 151.417 4.664C151.918 4.46133 152.484 4.36 153.113 4.36ZM167.328 8.776C167.328 8.91467 167.318 9.112 167.296 9.368H160.592C160.71 9.99733 161.014 10.4987 161.504 10.872C162.006 11.2347 162.624 11.416 163.36 11.416C164.299 11.416 165.072 11.1067 165.68 10.488L166.752 11.72C166.368 12.1787 165.883 12.5253 165.296 12.76C164.71 12.9947 164.048 13.112 163.312 13.112C162.374 13.112 161.547 12.9253 160.832 12.552C160.118 12.1787 159.563 11.6613 159.168 11C158.784 10.328 158.592 9.57067 158.592 8.728C158.592 7.896 158.779 7.14933 159.152 6.488C159.536 5.816 160.064 5.29333 160.736 4.92C161.408 4.54667 162.166 4.36 163.008 4.36C163.84 4.36 164.582 4.54667 165.232 4.92C165.894 5.28267 166.406 5.8 166.768 6.472C167.142 7.13333 167.328 7.90133 167.328 8.776ZM163.008 5.96C162.368 5.96 161.824 6.152 161.376 6.536C160.939 6.90933 160.672 7.41067 160.576 8.04H165.424C165.339 7.42133 165.078 6.92 164.64 6.536C164.203 6.152 163.659 5.96 163.008 5.96ZM171.154 5.704C171.73 4.808 172.743 4.36 174.194 4.36V6.264C174.023 6.232 173.868 6.216 173.73 6.216C172.951 6.216 172.343 6.44533 171.906 6.904C171.468 7.352 171.25 8.00267 171.25 8.856V13H169.25V4.456H171.154V5.704Z" fill="#393939"/>
</svg>
